<?xml version="1.0" encoding="UTF-8"?>
<svg viewBox="0 0 128 194" version="1.1" xmlns="http://www.w3.org/2000/svg" xmlns:xlink="http://www.w3.org/1999/xlink">
    <!-- Generator: Sketch 52.5 (67469) - http://www.bohemiancoding.com/sketch -->
    <title>logo</title>
    <desc>Created with Sketch.</desc>
    <g id="Page-1" stroke="none" stroke-width="1" fill="none" fill-rule="evenodd">
        <g id="C3LogoSmall" fill="#FFFFFF" fill-rule="nonzero">
            <path d="M72.029418,90.0055048 C72.061418,90.0177833 72.108188,90.0300618 72.194341,90.0644416 C72.184495,90.0595302 72.174649,90.0595302 72.164803,90.0546188 C72.041726,90.0226947 71.950649,89.9858593 72.029418,90.0055048 Z M71.061538,189.104661 L71.044308,189.153644 C71.027077,189.191198 71.012308,189.220425 71,189.24557 C71,189.160502 71.036923,189.114947 71.059077,189.087027 C71.059077,189.093885 71.059077,189.102049 71.056615,189.110212 C71.056615,189.110212 71.051692,189.127193 71.056615,189.112825 L71.068923,189.074781 L71.093538,189 C71.059077,189.121642 71.073846,189.063842 71.061538,189.104661 Z M127.979671,17.9542375 C127.913653,16.4210569 127.649579,14.8110185 127.11219,13.2327833 C126.581402,11.6558732 125.766734,10.1293183 124.756653,8.81610996 C124.250952,8.16149352 123.704319,7.55060651 123.131279,7.00332596 C122.843439,6.72504771 122.548997,6.46664648 122.253235,6.21619606 L121.999724,6.00947507 L121.869007,5.90478945 L121.76998,5.82660651 L121.614176,5.70734441 L121.470256,5.60000851 L121.372549,5.52712611 C120.329458,4.75589783 119.230912,4.05357654 118.095395,3.42943818 C116.955917,2.80927523 115.776828,2.27259576 114.580575,1.82072489 C112.182786,0.919633424 109.713698,0.37765341 107.314589,0.14840514 C104.912839,-0.0887939376 102.58503,-0.0238623467 100.374733,0.217312134 C98.163117,0.459811749 96.069013,0.88915533 94.08846,1.42053427 C92.105267,1.95323834 90.236946,2.59195317 88.467653,3.28499852 C86.697039,3.98069414 85.022812,4.7240946 83.439691,5.5112245 C81.85921,6.3023298 80.373796,7.13583941 78.974205,7.9918763 C76.176345,9.70792549 73.725742,11.5074582 71.56958,13.279163 C69.41606,15.0535181 67.555661,16.7987202 65.952206,18.4445373 C62.744767,21.7388217 60.564575,24.6209893 59.171587,26.6590461 C58.479978,27.6847002 57.976126,28.4930323 57.65422,29.0535642 C57.49023,29.3331676 57.371925,29.5491645 57.292175,29.6962544 C57.253224,29.7678117 57.215726,29.8314181 57.198693,29.8671968 C57.179415,29.9043005 57.170569,29.9215273 57.170569,29.9215273 C56.944522,30.3760484 56.933035,30.9379055 57.197108,31.4149539 C57.623983,32.1914827 58.6,32.4737364 59.376772,32.047043 L59.380073,32.0443928 C59.380073,32.0443928 59.397634,32.0351168 59.432888,32.0165649 C59.470782,31.9953628 59.514883,31.9768109 59.58473,31.9357317 C59.721652,31.8601991 59.928554,31.7502129 60.198173,31.5964973 C60.740052,31.298342 61.532801,30.8385204 62.561632,30.2461852 C63.586502,29.6485496 64.839796,28.9064743 66.29603,28.037186 C67.741833,27.1705481 69.398895,26.1740469 71.257973,25.0596088 C73.103848,23.9544466 75.130613,22.7406234 77.331667,21.4618686 C79.531401,20.1844389 81.904102,18.8394274 84.44053,17.5010415 C85.709404,16.8331737 87.019209,16.1639808 88.371266,15.51599 C89.720682,14.8666741 91.11235,14.2359101 92.555513,13.6740531 C95.433915,12.5490139 98.507733,11.6598486 101.613239,11.3073628 C104.718745,10.9562022 107.817649,11.1814751 110.664363,12.2402575 C111.374721,12.5066096 112.075836,12.8206665 112.758467,13.1890538 C113.441097,13.5587664 114.107883,13.9841345 114.760145,14.4572076 L114.822202,14.500937 C114.835406,14.5115381 114.823523,14.5022621 114.8156,14.4956365 C114.820882,14.4982867 114.826163,14.5049124 114.836726,14.5128632 L114.99385,14.6321253 C115.020257,14.6533275 115.050626,14.6745296 115.051946,14.6758548 L115.075713,14.6970569 L115.128528,14.7381361 C115.234157,14.8295704 115.342427,14.9170292 115.436173,15.0084635 C115.628947,15.1913321 115.793993,15.3768509 115.944515,15.5636949 C116.236317,15.9400331 116.454177,16.3322729 116.619223,16.8040208 C116.78559,17.2717933 116.89386,17.831 116.92951,18.4856165 C116.969121,19.1389078 116.926869,19.8836334 116.810677,20.6826895 C116.576972,22.2847771 116.030339,24.0816595 115.300176,25.90902 C114.566051,27.741681 113.644434,29.6180715 112.602663,31.494462 C111.564854,33.3735027 110.409532,35.2591691 109.173667,37.1408601 C107.937802,39.021226 106.622716,40.8989416 105.249533,42.7713566 C104.562941,43.7055765 103.861826,44.6424466 103.147507,45.5753412 C102.435828,46.5108862 101.712266,47.445106 100.978142,48.3793259 C98.036361,52.1135549 94.918972,55.8239315 91.714438,59.5382836 C88.513866,63.256611 85.210304,66.9643374 81.865812,70.6985664 C80.194226,72.5736317 78.517358,74.4539976 76.83917,76.3370137 C75.157021,78.2319561 73.476192,80.1414749 71.801965,82.1066494 C70.967492,83.0912243 70.13566,84.0917009 69.30911,85.1279561 C68.481239,86.1655364 67.65997,87.2282943 66.837381,88.4288661 C66.631403,88.7296717 66.425426,89.0424034 66.217336,89.373687 C66.009906,89.7062958 65.799835,90.0574565 65.588576,90.4536717 C65.481759,90.6497916 65.374017,90.860488 65.265614,91.0910614 C65.15774,91.3203096 65.047754,91.5694349 64.937107,91.8622897 C64.828705,92.1551444 64.716473,92.486428 64.618106,92.9144465 C64.592755,93.0164818 64.570176,93.1330936 64.549315,93.2563312 C64.59117,93.3013857 64.31825,93.7996363 64.588398,95.156574 C64.795695,96.072242 65.239735,96.7454103 65.572072,97.1389753 C65.904937,97.5338654 66.223409,97.7922666 66.442591,97.953933 C66.686859,98.131501 66.866429,98.2375118 67.040717,98.3342466 C67.199162,98.4217055 67.341761,98.4892873 67.467196,98.544943 C67.712785,98.6549291 67.901597,98.7238361 68.074566,98.7834672 C68.416541,98.8974288 68.671372,98.9610352 68.910359,99.0193411 C69.38173,99.1319776 69.761996,99.1982343 70.131699,99.2605156 C70.861863,99.3797777 71.522047,99.4632612 72.171668,99.5440944 C73.464309,99.7031105 74.702814,99.835624 75.929436,99.9813888 C77.156058,100.125828 78.368156,100.274244 79.567051,100.439885 C81.9688,100.771169 84.329619,101.163409 86.640263,101.652383 C88.949587,102.141358 91.211378,102.720442 93.391306,103.425413 C95.572554,104.12906 97.67326,104.959919 99.639288,105.944494 C101.603996,106.927744 103.434026,108.06736 105.054118,109.375267 C106.67553,110.683175 108.077761,112.16335 109.206676,113.798566 C110.336911,115.432457 111.187229,117.224039 111.758948,119.117656 C112.330667,121.015249 112.62775,123.009576 112.695089,125.035707 C112.762428,127.060247 112.603984,129.113146 112.291056,131.144975 C112.211834,131.651839 112.12469,132.158702 112.025662,132.664506 C111.972848,132.92463 111.922674,133.183031 111.869859,133.441963 C111.814403,133.698641 111.760268,133.95426 111.707454,134.208818 C111.484311,135.235797 111.237403,136.248995 110.973329,137.251062 C109.913073,141.258004 108.518764,145.057827 106.864343,148.595406 C105.207281,152.135768 103.292747,155.413223 101.221089,158.408557 C99.150752,161.406674 96.923291,164.122139 94.648296,166.568073 C92.370661,169.015729 90.049454,171.198888 87.771819,173.149618 C85.494184,175.101939 83.260121,176.819048 81.14093,178.346796 C79.020418,179.876266 77.014779,181.214122 75.179467,182.414429 C74.255209,183.016305 73.379805,183.587173 72.555895,184.122792 C71.726704,184.667157 70.943726,185.18449 70.208281,185.707388 C69.838578,185.969102 69.479437,186.234129 69.12822,186.51519 C68.774361,186.801817 68.432386,187.091624 68.071925,187.485321 C67.891035,187.687934 67.702222,187.913207 67.510768,188.247803 C67.417022,188.416228 67.317995,188.622154 67.244054,188.880555 C67.236132,188.912093 67.226889,188.945222 67.217647,188.97994 C67.207084,189.034668 67.211045,189.008696 67.187278,189.128488 L67.178036,189.189179 L67.164832,189.285251 L67.147667,189.427703 C67.089571,190.057672 67.208404,190.64908 67.398537,191.11778 C67.589991,191.590985 67.840861,191.951554 68.087769,192.239771 C68.335999,192.526928 68.584228,192.745045 68.819253,192.921155 C69.291945,193.273376 69.709182,193.469363 70.051157,193.605852 C70.393132,193.738233 70.661167,193.805683 70.847339,193.843714 C71.03087,193.881348 71.135179,193.892346 71.147063,193.899502 C71.617114,194.133653 72.187513,193.944822 72.423859,193.476652 C72.658884,193.007819 72.468751,192.439071 71.9987,192.20333 C72.029069,192.218304 71.836295,191.965336 71.518086,191.528704 C71.360962,191.312177 71.17479,191.04821 71.008424,190.762246 C70.927881,190.618204 70.85262,190.470717 70.801126,190.332107 C70.752272,190.209002 70.727185,190.096366 70.719263,190.012485 C70.732467,189.999234 70.746991,189.9832 70.764156,189.966635 C70.898833,189.830809 71.135179,189.629256 71.407175,189.427703 C71.681812,189.222837 71.993419,189.005913 72.331433,188.784483 C73.006141,188.33778 73.777236,187.862984 74.607748,187.357711 C75.448822,186.848726 76.341391,186.309264 77.285454,185.737204 C81.081513,183.434252 85.704122,180.510741 90.630416,176.593775 C93.091582,174.635359 95.621408,172.422384 98.130107,169.910194 C100.634846,167.399065 103.12374,164.590309 105.471355,161.456366 C107.817649,158.323483 110.023984,154.862762 111.964925,151.094345 C113.905867,147.32712 115.580094,143.251271 116.900462,138.939018 C117.229233,137.860756 117.5382,136.76858 117.823399,135.662623 C117.893379,135.383285 117.964679,135.105537 118.034658,134.826198 C118.101997,134.54792 118.169336,134.270172 118.235354,133.990701 C118.370032,133.418773 118.494146,132.839557 118.609018,132.253715 C119.064545,129.915912 119.356347,127.476605 119.372191,124.960174 C119.390676,122.445069 119.123962,119.845155 118.458496,117.273069 C118.125763,115.985038 117.691362,114.708934 117.156613,113.464632 C116.620544,112.219006 115.982806,111.007833 115.251322,109.850991 C113.788354,107.534655 111.954362,105.455519 109.909112,103.666588 C107.862541,101.872356 105.612634,100.363028 103.275582,99.0789722 C100.934569,97.7935917 98.503772,96.7308338 96.033363,95.825767 C93.561633,94.9246755 91.050293,94.1772996 88.520467,93.5478607 C85.991962,92.9170967 83.446292,92.4002943 80.905904,91.9576993 C79.63571,91.7364019 78.368156,91.531006 77.107205,91.3375364 C76.827287,91.2964572 76.547369,91.2540529 76.268771,91.2103235 C76.330828,91.1374411 76.394206,91.0619084 76.456263,90.989026 C77.23264,90.0813089 78.043346,89.1709415 78.867255,88.2592489 C80.515075,86.4345387 82.21967,84.6111536 83.934829,82.7904188 C85.663191,80.9657086 87.387592,79.1423235 89.110672,77.3215887 C92.560794,73.6655426 96.004314,69.9909446 99.373894,66.2752674 C102.739513,62.55694 106.025909,58.7895826 109.18291,54.951993 C109.97381,53.9912705 110.754148,53.0278977 111.525243,52.055249 C112.295017,51.0839254 113.052909,50.104651 113.800237,49.1174258 C115.294894,47.1469508 116.747299,45.1459977 118.135006,43.1026403 C119.525354,41.0566326 120.854965,38.9682206 122.09215,36.8056011 C123.326694,34.6403313 124.470133,32.4048294 125.453807,30.0301883 C125.947625,28.8428678 126.39787,27.6197686 126.783418,26.3449893 C127.170286,25.071535 127.493776,23.7450753 127.715598,22.3510338 C127.933459,20.9569923 128.049651,19.4913936 127.979671,17.9542375 Z M67.752638,127.917289 C68.142669,127.341114 68.06962,126.548908 67.546535,126.057745 C66.972576,125.514359 66.069374,125.543445 65.529071,126.12385 L65.507938,126.147648 C65.507938,126.147648 65.378015,126.284486 65.126908,126.554461 C64.870844,126.827608 64.488771,127.232569 63.991514,127.758636 C62.992956,128.815264 61.515665,130.354858 59.604122,132.276938 C59.123171,132.755144 58.618218,133.25966 58.088872,133.787445 C57.554568,134.309677 56.99522,134.856765 56.412652,135.426329 C55.240211,136.561094 53.961848,137.770293 52.574304,139.033434 C51.185585,140.297766 49.68977,141.613262 48.080469,142.951896 C46.467776,144.286034 44.746422,145.646218 42.909363,146.985381 C41.073869,148.322428 39.124236,149.639511 37.063856,150.865237 C35.007649,152.090962 32.828172,153.214754 30.58282,154.109291 C28.341903,155.000127 26.004196,155.631962 23.812717,155.746589 C22.720761,155.804365 21.675635,155.720147 20.716341,155.495389 C19.753656,155.268383 18.875369,154.894887 18.056304,154.370407 C17.2405,153.843283 16.477396,153.158035 15.769731,152.322331 C15.415834,151.902033 15.081111,151.441411 14.756564,150.955008 C14.593508,150.714781 14.440235,150.455383 14.283179,150.200878 C14.13695,149.939762 13.972328,149.662119 13.854927,149.426387 L13.757093,149.24235 L13.73257,149.197663 L13.705437,149.14425 L13.642302,149.017063 L13.389629,148.508052 C13.351539,148.433617 13.405413,148.536609 13.389629,148.505804 L13.365758,148.451862 L13.315667,148.342788 L13.216268,148.122922 C13.147784,147.978019 13.085823,147.827166 13.022166,147.678958 C12.767798,147.083481 12.53417,146.474122 12.316718,145.851674 C12.101484,145.227507 11.90686,144.59078 11.726976,143.944005 C11.547092,143.296701 11.387297,142.637895 11.24759,141.969041 C10.679632,139.296798 10.395914,136.481767 10.338909,133.619934 C10.280731,130.756514 10.439874,127.842854 10.768726,124.93131 C11.099796,122.018707 11.598226,119.107427 12.234146,116.2292 C12.549824,114.789425 12.896677,113.358905 13.274446,111.940284 C13.652737,110.519018 14.0549,109.109652 14.48863,107.713507 C14.925099,106.320006 15.371874,104.935759 15.856086,103.571345 C16.337168,102.208252 16.83886,100.858381 17.358944,99.5283408 C18.410071,96.8748715 19.534639,94.2914739 20.732647,91.8138449 C21.933264,89.3401823 23.200147,86.9656776 24.535122,84.7379269 C25.868924,82.5141425 27.264687,80.4265351 28.717976,78.5623639 C30.16383,76.6981927 31.673732,75.0468807 33.160807,73.7670809 C33.90317,73.1298252 34.638098,72.5837949 35.329979,72.1620427 C35.416334,72.1051921 35.501123,72.0602404 35.586564,72.0086782 L35.651657,71.9716592 L35.694703,71.9465392 L35.782232,71.8962991 L35.825149,71.8711791 C35.82841,71.8672128 35.846281,71.8592801 35.86363,71.8487033 L35.914764,71.8249053 L36.115911,71.7244252 L36.217006,71.6741851 C36.307796,71.6318777 36.152827,71.7032715 36.181133,71.6900504 L36.219223,71.6715409 L36.369235,71.6001471 C36.768136,71.4110858 37.158428,71.2405339 37.537241,71.0924579 C38.295388,70.7949838 39.00801,70.5834466 39.66454,70.4485917 C40.325506,70.3110925 40.93038,70.2582082 41.511904,70.2634967 C41.802275,70.2701072 42.087559,70.2859725 42.369581,70.3243136 C42.651734,70.3652989 42.932713,70.4168611 43.214865,70.4882549 C43.778388,70.6336867 44.34752,70.8518344 44.911696,71.1413759 C46.045003,71.7151704 47.148308,72.5639633 48.136952,73.4986931 C49.128856,74.4347451 50.01484,75.4488013 50.792554,76.4205502 C51.57092,77.3949432 52.24219,78.3309951 52.818236,79.1665669 C53.106389,79.5856749 53.367801,79.980985 53.609125,80.3458866 C53.849927,80.7107882 54.068422,81.0452813 54.258611,81.349366 C54.451018,81.6534507 54.622814,81.9231606 54.765782,82.1571735 C54.911359,82.3925086 55.033716,82.5881805 55.132072,82.7468334 C55.229384,82.9041641 55.303346,83.0218317 55.353307,83.1011581 C55.365308,83.1209897 55.376135,83.1381771 55.385918,83.1513982 C55.394006,83.1685856 55.40105,83.1712298 55.407702,83.1804846 C55.420095,83.2029604 55.426617,83.2135372 55.426617,83.2135372 L55.433661,83.2254362 C55.680985,83.6445442 56.116411,83.9420183 56.634408,83.9909363 C57.49639,84.0715848 58.258972,83.433007 58.339978,82.5657047 C58.339978,82.5657047 58.3405,82.5524836 58.34324,82.5273636 C58.34324,82.5114983 58.343761,82.4903446 58.343761,82.4678687 C58.345327,82.4453929 58.347022,82.421595 58.348588,82.3938307 C58.351849,82.2854179 58.357328,82.1241209 58.36385,81.9112616 C58.366067,81.7036908 58.369329,81.4432356 58.365546,81.1365067 C58.357328,80.8311 58.347022,80.4767752 58.323673,80.0774988 C58.295888,79.6769003 58.262233,79.2326723 58.209533,78.7408484 C58.156181,78.2516687 58.08561,77.7188595 57.989342,77.1424207 C57.795892,75.9908653 57.508391,74.668758 57.043615,73.1959306 C56.57623,71.7257473 55.938614,70.1008775 54.968494,68.3755275 C54.482585,67.5161578 53.91241,66.6303459 53.222746,65.743212 C52.531257,64.8574001 51.723149,63.9649777 50.756681,63.1214733 C50.275208,62.6944326 49.750166,62.2898678 49.186513,61.9011683 C48.905534,61.7068185 48.613076,61.5177572 48.312009,61.3366285 C48.008724,61.1568219 47.697221,60.9809816 47.373326,60.8170403 C47.053213,60.6491327 46.720578,60.493124 46.381421,60.345048 C46.03835,60.1996162 45.690062,60.060795 45.331859,59.937839 C44.618194,59.6839944 43.872439,59.4790678 43.108292,59.3283475 C41.579866,59.0202966 39.981913,58.9343596 38.419311,59.0480608 C36.852926,59.1591178 35.320196,59.4645246 33.85921,59.9100747 C33.130283,60.1335109 32.41453,60.3886776 31.718214,60.6729306 L31.457324,60.7800213 L31.391058,60.8064635 C31.388318,60.8077856 31.283962,60.8553814 31.252525,60.8699246 L31.150256,60.9148763 L30.94324,61.0047795 L30.892105,61.0272554 L30.8291,61.0550196 L30.67087,61.1317018 L30.351801,61.2837442 L30.194745,61.3604264 L30.058952,61.4318202 C29.878416,61.5256898 29.69201,61.6182373 29.514865,61.7160733 C28.084274,62.489506 26.782562,63.3845726 25.5689,64.3457446 C24.962852,64.8256695 24.375327,65.3227818 23.808413,65.8357595 C23.243716,66.3487371 22.695846,66.8762579 22.163108,67.4156776 C21.627761,67.9537753 21.112503,68.5077382 20.610289,69.0709559 C20.107032,69.6354957 19.615645,70.2092903 19.138477,70.7936617 C17.232282,73.1337915 15.503884,75.6286079 13.919628,78.2450582 C12.333546,80.8628305 10.883518,83.5982704 9.561065,86.4328684 C8.239786,89.2687885 7.039169,92.2025445 5.970563,95.216949 C5.703672,95.9718723 5.44226,96.7294397 5.189457,97.4922956 C4.939002,98.2551515 4.69494,99.0232958 4.461182,99.7967286 C3.990536,101.342272 3.548066,102.903681 3.146947,104.483599 C1.533211,110.797983 0.452733,117.3715 0.10875,124.066651 C-0.060829,127.41383 -0.042436,130.793401 0.237499,134.177467 C0.374988,135.868706 0.584744,137.561004 0.864679,139.248277 C1.146832,140.934492 1.50386,142.616345 1.958853,144.280614 C2.411106,145.945279 2.957802,147.59355 3.611723,149.20824 C3.939401,150.015783 4.29656,150.813939 4.682417,151.599006 C4.780773,151.795075 4.87378,151.992862 4.976962,152.185625 L5.309597,152.820898 L5.586271,153.318274 L5.654233,153.442156 L5.742284,153.592083 L5.923211,153.902249 C6.168448,154.329687 6.405336,154.691018 6.649399,155.07443 C6.904289,155.45242 7.15657,155.827502 7.431026,156.196634 C7.972374,156.934767 8.56316,157.654257 9.208863,158.340034 C9.856262,159.024754 10.557274,159.678139 11.314508,160.27864 C12.071612,160.877423 12.883111,161.422792 13.740266,161.896503 C14.595725,162.370875 15.494101,162.770813 16.413217,163.084813 C17.330116,163.398285 18.267756,163.628464 19.199917,163.777201 C21.063586,164.078509 22.887731,164.05048 24.594345,163.83458 C26.302654,163.610879 27.898389,163.204332 29.395247,162.697568 C30.888322,162.18578 32.288912,161.583031 33.609669,160.923168 C34.934339,160.268725 36.17735,159.554787 37.363879,158.814935 C38.549756,158.075084 39.674845,157.306675 40.753235,156.52769 C42.907145,154.962712 44.868257,153.347493 46.685749,151.746025 C48.504415,150.144159 50.175679,148.552078 51.724193,147.009046 C53.274272,145.464429 54.702125,143.967671 56.015838,142.540853 C58.64535,139.687878 60.81674,137.10924 62.548921,134.941512 C64.281754,132.773257 65.574726,131.016573 66.441665,129.806845 C66.874743,129.200791 67.200855,128.731971 67.418699,128.410831 C67.637847,128.085329 67.752638,127.917289 67.752638,127.917289 Z" id="logo"></path>
        </g>
    </g>
</svg>
