<?xml version="1.0" encoding="UTF-8"?>
<svg viewBox="0 0 377 329" version="1.1" xmlns="http://www.w3.org/2000/svg" xmlns:xlink="http://www.w3.org/1999/xlink">
    <!-- Generator: Sketch 52.5 (67469) - http://www.bohemiancoding.com/sketch -->
    <title>Group 8</title>
    <desc>Created with Sketch.</desc>
    <g id="Page-1" stroke="none" stroke-width="1" fill="none" fill-rule="evenodd">
        <g id="Artboard" transform="translate(-408.000000, -190.000000)" fill="#FFFFFF">
            <g id="Header" transform="translate(-4.000000, 0.000000)">
                <g id="Group-8" transform="translate(412.000000, 190.000000)">
                    <g id="church-vancouver" transform="translate(0.000000, 244.000000)">
                        <g id="Group-2" transform="translate(0.000000, 58.000000)">
                            <polygon id="Fill-8" points="14.531209 27 25 1 21.2891479 1 12.5 23.4527871 3.71139883 1 0 1 10.5081576 27"></polygon>
                            <path d="M67,27 L56.531209,1 L52.5076109,1 L42,27 L45.7108521,27 L48.0154405,21.1919531 L60.9845595,21.1919531 L63.2891479,27 L67,27 Z M60.0468682,18.3463915 L48.9919517,18.3463915 L54.5,4.31347462 L60.0468682,18.3463915 Z" id="Fill-9"></path>
                            <polygon id="Fill-10" points="109 27 109 1 105.842305 1 105.842305 21.3088768 91.2338413 1 88 1 88 27 91.1576946 27 91.1576946 6.26238477 105.956259 27"></polygon>
                            <path d="M147.214579,27 C151.760545,27 154.842958,24.8087414 157,21.795706 L154.303158,20.3087961 C152.839605,22.5000548 150.142224,24.1043926 147.214579,24.1043926 C141.589552,24.1043926 137.313217,19.6827144 137.313217,13.5001095 C137.313217,7.23956622 141.589552,2.89571695 147.214579,2.89571695 C150.142224,2.89571695 152.839605,4.46105817 154.303158,6.6913134 L156.961713,5.16540694 C154.919533,2.19136817 151.760545,0 147.214579,0 C139.817542,0 134,5.47869427 134,13.5001095 C134,21.5217987 139.817542,27 147.214579,27 Z" id="Fill-11"></path>
                            <path d="M190.978041,27 C198.70777,27 204,21.2087852 204,13.5001095 C204,5.79143389 198.70777,0 190.978041,0 C183.253801,0 178,5.79143389 178,13.5001095 C178,21.2087852 183.253801,27 190.978041,27 Z M190.978041,24.1043926 C185.098395,24.1043926 181.370777,19.5652864 181.370777,13.5001095 C181.370777,7.39582649 185.098395,2.89571695 190.978041,2.89571695 C196.824747,2.89571695 200.629223,7.39582649 200.629223,13.5001095 C200.629223,19.5652864 196.824747,24.1043926 190.978041,24.1043926 Z" id="Fill-12"></path>
                            <path d="M238.48112,27 C245.455947,27 249,22.9411345 249,16.5847464 L249,1 L245.763422,1 L245.763422,16.5464785 C245.763422,21.218006 243.222707,24.1664585 238.48112,24.1664585 C233.739532,24.1664585 231.236578,21.218006 231.236578,16.5464785 L231.236578,1 L228,1 L228,16.6230679 C228,22.9028666 231.544053,27 238.48112,27 Z" id="Fill-13"></path>
                            <polygon id="Fill-14" points="285.528653 27 296 1 292.287183 1 283.5 23.4527871 274.707349 1 271 1 281.509624 27"></polygon>
                            <polygon id="Fill-15" points="335 27 335 24.115482 321.22902 24.115482 321.22902 15.1500043 334.727739 15.1500043 334.727739 12.2654863 321.22902 12.2654863 321.22902 3.88462709 335 3.88462709 335 1 318 1 318 27"></polygon>
                            <path d="M377,27 L370.305957,16.3973723 C373.689416,16.0855576 376.776171,13.5128543 376.776171,8.83519714 C376.776171,4.04067085 373.50723,1 368.96819,1 L359,1 L359,27 L362.086755,27 L362.086755,16.6702306 L367.073453,16.6702306 L373.356275,27 L377,27 Z M368.598612,13.824669 L362.086755,13.824669 L362.086755,3.88462709 L368.598612,3.88462709 C371.534413,3.88462709 373.580104,5.87282098 373.580104,8.83519714 C373.580104,11.758726 371.534413,13.824669 368.598612,13.824669 Z" id="Fill-16"></path>
                        </g>
                        <g id="Group-3" transform="translate(60.000000, 0.000000)">
                            <path d="M13.841961,27 C20.015194,27 23.3509711,23.3217586 25,19.9956143 L19.3250882,17.2564972 C18.4814484,19.3304397 16.2958477,21.0521766 13.841961,21.0521766 C9.66254409,21.0521766 6.70980492,17.7652144 6.70980492,13.4999458 C6.70980492,9.19560348 9.66254409,5.94776922 13.841961,5.94776922 C16.2958477,5.94776922 18.4814484,7.66950615 19.3250882,9.74344857 L25,6.96498679 C23.3509711,3.5610744 20.015194,0 13.841961,0 C5.98144843,0 0,5.43888947 0,13.4999458 C0,21.5217116 5.98144843,27 13.841961,27 Z" id="Fill-2"></path>
                            <polygon id="Fill-3" points="71 26 71 0 64.3527588 0 64.3527588 9.70616352 53.6472412 9.70616352 53.6472412 0 47 0 47 26 53.6472412 26 53.6472412 15.5532591 64.3527588 15.5532591 64.3527588 26"></polygon>
                            <path d="M107.539587,27 C116.031999,27 120,22.3475622 120,15.7466957 L120,0 L113.095448,0 L113.095448,15.5478877 C113.095448,18.6892745 111.190895,20.955851 107.539587,20.955851 C103.849241,20.955851 101.944689,18.6892745 101.944689,15.5478877 L101.944689,0 L95,0 L95,15.7864573 C95,22.3078006 99.0477238,27 107.539587,27 Z" id="Fill-4"></path>
                            <path d="M165,26 L159.742007,16.4498015 C162.17788,15.5922368 164.884287,13.1754539 164.884287,8.65371007 C164.884287,3.82003621 161.636277,0 155.913824,0 L143,0 L143,26 L149.650303,26 L149.650303,17.2683884 L153.052597,17.2683884 L157.383276,26 L165,26 Z M154.908832,11.4212928 L149.650303,11.4212928 L149.650303,5.84720353 L154.908832,5.84720353 C156.687389,5.84720353 158.117734,6.82164748 158.117734,8.61473231 C158.117734,10.4467949 156.687389,11.4212928 154.908832,11.4212928 Z" id="Fill-5"></path>
                            <path d="M200.841961,27 C207.015194,27 210.351502,23.3217586 212,19.9956143 L206.325088,17.2564972 C205.481448,19.3304397 203.295848,21.0521766 200.841961,21.0521766 C196.662544,21.0521766 193.710336,17.7652144 193.710336,13.4999458 C193.710336,9.19560348 196.662544,5.94776922 200.841961,5.94776922 C203.295848,5.94776922 205.481448,7.66950615 206.325088,9.74344857 L212,6.96498679 C210.351502,3.5610744 207.015194,0 200.841961,0 C192.981448,0 187,5.43888947 187,13.4999458 C187,21.5217116 192.981448,27 200.841961,27 Z" id="Fill-6"></path>
                            <polygon id="Fill-7" points="258 26 258 0 251.35261 0 251.35261 9.70616352 240.64739 9.70616352 240.64739 0 234 0 234 26 240.64739 26 240.64739 15.5532591 251.35261 15.5532591 251.35261 26"></polygon>
                        </g>
                    </g>
                    <path d="M197.029418,90.0055048 C197.061418,90.0177833 197.108188,90.0300618 197.194341,90.0644416 C197.184495,90.0595302 197.174649,90.0595302 197.164803,90.0546188 C197.041726,90.0226947 196.950649,89.9858593 197.029418,90.0055048 Z M196.061538,189.104661 L196.044308,189.153644 C196.027077,189.191198 196.012308,189.220425 196,189.24557 C196,189.160502 196.036923,189.114947 196.059077,189.087027 C196.059077,189.093885 196.059077,189.102049 196.056615,189.110212 C196.056615,189.110212 196.051692,189.127193 196.056615,189.112825 L196.068923,189.074781 L196.093538,189 C196.059077,189.121642 196.073846,189.063842 196.061538,189.104661 Z M252.979671,17.9542375 C252.913653,16.4210569 252.649579,14.8110185 252.11219,13.2327833 C251.581402,11.6558732 250.766734,10.1293183 249.756653,8.81610996 C249.250952,8.16149352 248.704319,7.55060651 248.131279,7.00332596 C247.843439,6.72504771 247.548997,6.46664648 247.253235,6.21619606 L246.999724,6.00947507 L246.869007,5.90478945 L246.76998,5.82660651 L246.614176,5.70734441 L246.470256,5.60000851 L246.372549,5.52712611 C245.329458,4.75589783 244.230912,4.05357654 243.095395,3.42943818 C241.955917,2.80927523 240.776828,2.27259576 239.580575,1.82072489 C237.182786,0.919633424 234.713698,0.37765341 232.314589,0.14840514 C229.912839,-0.0887939376 227.58503,-0.0238623467 225.374733,0.217312134 C223.163117,0.459811749 221.069013,0.88915533 219.08846,1.42053427 C217.105267,1.95323834 215.236946,2.59195317 213.467653,3.28499852 C211.697039,3.98069414 210.022812,4.7240946 208.439691,5.5112245 C206.85921,6.3023298 205.373796,7.13583941 203.974205,7.9918763 C201.176345,9.70792549 198.725742,11.5074582 196.56958,13.279163 C194.41606,15.0535181 192.555661,16.7987202 190.952206,18.4445373 C187.744767,21.7388217 185.564575,24.6209893 184.171587,26.6590461 C183.479978,27.6847002 182.976126,28.4930323 182.65422,29.0535642 C182.49023,29.3331676 182.371925,29.5491645 182.292175,29.6962544 C182.253224,29.7678117 182.215726,29.8314181 182.198693,29.8671968 C182.179415,29.9043005 182.170569,29.9215273 182.170569,29.9215273 C181.944522,30.3760484 181.933035,30.9379055 182.197108,31.4149539 C182.623983,32.1914827 183.6,32.4737364 184.376772,32.047043 L184.380073,32.0443928 C184.380073,32.0443928 184.397634,32.0351168 184.432888,32.0165649 C184.470782,31.9953628 184.514883,31.9768109 184.58473,31.9357317 C184.721652,31.8601991 184.928554,31.7502129 185.198173,31.5964973 C185.740052,31.298342 186.532801,30.8385204 187.561632,30.2461852 C188.586502,29.6485496 189.839796,28.9064743 191.29603,28.037186 C192.741833,27.1705481 194.398895,26.1740469 196.257973,25.0596088 C198.103848,23.9544466 200.130613,22.7406234 202.331667,21.4618686 C204.531401,20.1844389 206.904102,18.8394274 209.44053,17.5010415 C210.709404,16.8331737 212.019209,16.1639808 213.371266,15.51599 C214.720682,14.8666741 216.11235,14.2359101 217.555513,13.6740531 C220.433915,12.5490139 223.507733,11.6598486 226.613239,11.3073628 C229.718745,10.9562022 232.817649,11.1814751 235.664363,12.2402575 C236.374721,12.5066096 237.075836,12.8206665 237.758467,13.1890538 C238.441097,13.5587664 239.107883,13.9841345 239.760145,14.4572076 L239.822202,14.500937 C239.835406,14.5115381 239.823523,14.5022621 239.8156,14.4956365 C239.820882,14.4982867 239.826163,14.5049124 239.836726,14.5128632 L239.99385,14.6321253 C240.020257,14.6533275 240.050626,14.6745296 240.051946,14.6758548 L240.075713,14.6970569 L240.128528,14.7381361 C240.234157,14.8295704 240.342427,14.9170292 240.436173,15.0084635 C240.628947,15.1913321 240.793993,15.3768509 240.944515,15.5636949 C241.236317,15.9400331 241.454177,16.3322729 241.619223,16.8040208 C241.78559,17.2717933 241.89386,17.831 241.92951,18.4856165 C241.969121,19.1389078 241.926869,19.8836334 241.810677,20.6826895 C241.576972,22.2847771 241.030339,24.0816595 240.300176,25.90902 C239.566051,27.741681 238.644434,29.6180715 237.602663,31.494462 C236.564854,33.3735027 235.409532,35.2591691 234.173667,37.1408601 C232.937802,39.021226 231.622716,40.8989416 230.249533,42.7713566 C229.562941,43.7055765 228.861826,44.6424466 228.147507,45.5753412 C227.435828,46.5108862 226.712266,47.445106 225.978142,48.3793259 C223.036361,52.1135549 219.918972,55.8239315 216.714438,59.5382836 C213.513866,63.256611 210.210304,66.9643374 206.865812,70.6985664 C205.194226,72.5736317 203.517358,74.4539976 201.83917,76.3370137 C200.157021,78.2319561 198.476192,80.1414749 196.801965,82.1066494 C195.967492,83.0912243 195.13566,84.0917009 194.30911,85.1279561 C193.481239,86.1655364 192.65997,87.2282943 191.837381,88.4288661 C191.631403,88.7296717 191.425426,89.0424034 191.217336,89.373687 C191.009906,89.7062958 190.799835,90.0574565 190.588576,90.4536717 C190.481759,90.6497916 190.374017,90.860488 190.265614,91.0910614 C190.15774,91.3203096 190.047754,91.5694349 189.937107,91.8622897 C189.828705,92.1551444 189.716473,92.486428 189.618106,92.9144465 C189.592755,93.0164818 189.570176,93.1330936 189.549315,93.2563312 C189.59117,93.3013857 189.31825,93.7996363 189.588398,95.156574 C189.795695,96.072242 190.239735,96.7454103 190.572072,97.1389753 C190.904937,97.5338654 191.223409,97.7922666 191.442591,97.953933 C191.686859,98.131501 191.866429,98.2375118 192.040717,98.3342466 C192.199162,98.4217055 192.341761,98.4892873 192.467196,98.544943 C192.712785,98.6549291 192.901597,98.7238361 193.074566,98.7834672 C193.416541,98.8974288 193.671372,98.9610352 193.910359,99.0193411 C194.38173,99.1319776 194.761996,99.1982343 195.131699,99.2605156 C195.861863,99.3797777 196.522047,99.4632612 197.171668,99.5440944 C198.464309,99.7031105 199.702814,99.835624 200.929436,99.9813888 C202.156058,100.125828 203.368156,100.274244 204.567051,100.439885 C206.9688,100.771169 209.329619,101.163409 211.640263,101.652383 C213.949587,102.141358 216.211378,102.720442 218.391306,103.425413 C220.572554,104.12906 222.67326,104.959919 224.639288,105.944494 C226.603996,106.927744 228.434026,108.06736 230.054118,109.375267 C231.67553,110.683175 233.077761,112.16335 234.206676,113.798566 C235.336911,115.432457 236.187229,117.224039 236.758948,119.117656 C237.330667,121.015249 237.62775,123.009576 237.695089,125.035707 C237.762428,127.060247 237.603984,129.113146 237.291056,131.144975 C237.211834,131.651839 237.12469,132.158702 237.025662,132.664506 C236.972848,132.92463 236.922674,133.183031 236.869859,133.441963 C236.814403,133.698641 236.760268,133.95426 236.707454,134.208818 C236.484311,135.235797 236.237403,136.248995 235.973329,137.251062 C234.913073,141.258004 233.518764,145.057827 231.864343,148.595406 C230.207281,152.135768 228.292747,155.413223 226.221089,158.408557 C224.150752,161.406674 221.923291,164.122139 219.648296,166.568073 C217.370661,169.015729 215.049454,171.198888 212.771819,173.149618 C210.494184,175.101939 208.260121,176.819048 206.14093,178.346796 C204.020418,179.876266 202.014779,181.214122 200.179467,182.414429 C199.255209,183.016305 198.379805,183.587173 197.555895,184.122792 C196.726704,184.667157 195.943726,185.18449 195.208281,185.707388 C194.838578,185.969102 194.479437,186.234129 194.12822,186.51519 C193.774361,186.801817 193.432386,187.091624 193.071925,187.485321 C192.891035,187.687934 192.702222,187.913207 192.510768,188.247803 C192.417022,188.416228 192.317995,188.622154 192.244054,188.880555 C192.236132,188.912093 192.226889,188.945222 192.217647,188.97994 C192.207084,189.034668 192.211045,189.008696 192.187278,189.128488 L192.178036,189.189179 L192.164832,189.285251 L192.147667,189.427703 C192.089571,190.057672 192.208404,190.64908 192.398537,191.11778 C192.589991,191.590985 192.840861,191.951554 193.087769,192.239771 C193.335999,192.526928 193.584228,192.745045 193.819253,192.921155 C194.291945,193.273376 194.709182,193.469363 195.051157,193.605852 C195.393132,193.738233 195.661167,193.805683 195.847339,193.843714 C196.03087,193.881348 196.135179,193.892346 196.147063,193.899502 C196.617114,194.133653 197.187513,193.944822 197.423859,193.476652 C197.658884,193.007819 197.468751,192.439071 196.9987,192.20333 C197.029069,192.218304 196.836295,191.965336 196.518086,191.528704 C196.360962,191.312177 196.17479,191.04821 196.008424,190.762246 C195.927881,190.618204 195.85262,190.470717 195.801126,190.332107 C195.752272,190.209002 195.727185,190.096366 195.719263,190.012485 C195.732467,189.999234 195.746991,189.9832 195.764156,189.966635 C195.898833,189.830809 196.135179,189.629256 196.407175,189.427703 C196.681812,189.222837 196.993419,189.005913 197.331433,188.784483 C198.006141,188.33778 198.777236,187.862984 199.607748,187.357711 C200.448822,186.848726 201.341391,186.309264 202.285454,185.737204 C206.081513,183.434252 210.704122,180.510741 215.630416,176.593775 C218.091582,174.635359 220.621408,172.422384 223.130107,169.910194 C225.634846,167.399065 228.12374,164.590309 230.471355,161.456366 C232.817649,158.323483 235.023984,154.862762 236.964925,151.094345 C238.905867,147.32712 240.580094,143.251271 241.900462,138.939018 C242.229233,137.860756 242.5382,136.76858 242.823399,135.662623 C242.893379,135.383285 242.964679,135.105537 243.034658,134.826198 C243.101997,134.54792 243.169336,134.270172 243.235354,133.990701 C243.370032,133.418773 243.494146,132.839557 243.609018,132.253715 C244.064545,129.915912 244.356347,127.476605 244.372191,124.960174 C244.390676,122.445069 244.123962,119.845155 243.458496,117.273069 C243.125763,115.985038 242.691362,114.708934 242.156613,113.464632 C241.620544,112.219006 240.982806,111.007833 240.251322,109.850991 C238.788354,107.534655 236.954362,105.455519 234.909112,103.666588 C232.862541,101.872356 230.612634,100.363028 228.275582,99.0789722 C225.934569,97.7935917 223.503772,96.7308338 221.033363,95.825767 C218.561633,94.9246755 216.050293,94.1772996 213.520467,93.5478607 C210.991962,92.9170967 208.446292,92.4002943 205.905904,91.9576993 C204.63571,91.7364019 203.368156,91.531006 202.107205,91.3375364 C201.827287,91.2964572 201.547369,91.2540529 201.268771,91.2103235 C201.330828,91.1374411 201.394206,91.0619084 201.456263,90.989026 C202.23264,90.0813089 203.043346,89.1709415 203.867255,88.2592489 C205.515075,86.4345387 207.21967,84.6111536 208.934829,82.7904188 C210.663191,80.9657086 212.387592,79.1423235 214.110672,77.3215887 C217.560794,73.6655426 221.004314,69.9909446 224.373894,66.2752674 C227.739513,62.55694 231.025909,58.7895826 234.18291,54.951993 C234.97381,53.9912705 235.754148,53.0278977 236.525243,52.055249 C237.295017,51.0839254 238.052909,50.104651 238.800237,49.1174258 C240.294894,47.1469508 241.747299,45.1459977 243.135006,43.1026403 C244.525354,41.0566326 245.854965,38.9682206 247.09215,36.8056011 C248.326694,34.6403313 249.470133,32.4048294 250.453807,30.0301883 C250.947625,28.8428678 251.39787,27.6197686 251.783418,26.3449893 C252.170286,25.071535 252.493776,23.7450753 252.715598,22.3510338 C252.933459,20.9569923 253.049651,19.4913936 252.979671,17.9542375 Z M192.752638,127.917289 C193.142669,127.341114 193.06962,126.548908 192.546535,126.057745 C191.972576,125.514359 191.069374,125.543445 190.529071,126.12385 L190.507938,126.147648 C190.507938,126.147648 190.378015,126.284486 190.126908,126.554461 C189.870844,126.827608 189.488771,127.232569 188.991514,127.758636 C187.992956,128.815264 186.515665,130.354858 184.604122,132.276938 C184.123171,132.755144 183.618218,133.25966 183.088872,133.787445 C182.554568,134.309677 181.99522,134.856765 181.412652,135.426329 C180.240211,136.561094 178.961848,137.770293 177.574304,139.033434 C176.185585,140.297766 174.68977,141.613262 173.080469,142.951896 C171.467776,144.286034 169.746422,145.646218 167.909363,146.985381 C166.073869,148.322428 164.124236,149.639511 162.063856,150.865237 C160.007649,152.090962 157.828172,153.214754 155.58282,154.109291 C153.341903,155.000127 151.004196,155.631962 148.812717,155.746589 C147.720761,155.804365 146.675635,155.720147 145.716341,155.495389 C144.753656,155.268383 143.875369,154.894887 143.056304,154.370407 C142.2405,153.843283 141.477396,153.158035 140.769731,152.322331 C140.415834,151.902033 140.081111,151.441411 139.756564,150.955008 C139.593508,150.714781 139.440235,150.455383 139.283179,150.200878 C139.13695,149.939762 138.972328,149.662119 138.854927,149.426387 L138.757093,149.24235 L138.73257,149.197663 L138.705437,149.14425 L138.642302,149.017063 L138.389629,148.508052 C138.351539,148.433617 138.405413,148.536609 138.389629,148.505804 L138.365758,148.451862 L138.315667,148.342788 L138.216268,148.122922 C138.147784,147.978019 138.085823,147.827166 138.022166,147.678958 C137.767798,147.083481 137.53417,146.474122 137.316718,145.851674 C137.101484,145.227507 136.90686,144.59078 136.726976,143.944005 C136.547092,143.296701 136.387297,142.637895 136.24759,141.969041 C135.679632,139.296798 135.395914,136.481767 135.338909,133.619934 C135.280731,130.756514 135.439874,127.842854 135.768726,124.93131 C136.099796,122.018707 136.598226,119.107427 137.234146,116.2292 C137.549824,114.789425 137.896677,113.358905 138.274446,111.940284 C138.652737,110.519018 139.0549,109.109652 139.48863,107.713507 C139.925099,106.320006 140.371874,104.935759 140.856086,103.571345 C141.337168,102.208252 141.83886,100.858381 142.358944,99.5283408 C143.410071,96.8748715 144.534639,94.2914739 145.732647,91.8138449 C146.933264,89.3401823 148.200147,86.9656776 149.535122,84.7379269 C150.868924,82.5141425 152.264687,80.4265351 153.717976,78.5623639 C155.16383,76.6981927 156.673732,75.0468807 158.160807,73.7670809 C158.90317,73.1298252 159.638098,72.5837949 160.329979,72.1620427 C160.416334,72.1051921 160.501123,72.0602404 160.586564,72.0086782 L160.651657,71.9716592 L160.694703,71.9465392 L160.782232,71.8962991 L160.825149,71.8711791 C160.82841,71.8672128 160.846281,71.8592801 160.86363,71.8487033 L160.914764,71.8249053 L161.115911,71.7244252 L161.217006,71.6741851 C161.307796,71.6318777 161.152827,71.7032715 161.181133,71.6900504 L161.219223,71.6715409 L161.369235,71.6001471 C161.768136,71.4110858 162.158428,71.2405339 162.537241,71.0924579 C163.295388,70.7949838 164.00801,70.5834466 164.66454,70.4485917 C165.325506,70.3110925 165.93038,70.2582082 166.511904,70.2634967 C166.802275,70.2701072 167.087559,70.2859725 167.369581,70.3243136 C167.651734,70.3652989 167.932713,70.4168611 168.214865,70.4882549 C168.778388,70.6336867 169.34752,70.8518344 169.911696,71.1413759 C171.045003,71.7151704 172.148308,72.5639633 173.136952,73.4986931 C174.128856,74.4347451 175.01484,75.4488013 175.792554,76.4205502 C176.57092,77.3949432 177.24219,78.3309951 177.818236,79.1665669 C178.106389,79.5856749 178.367801,79.980985 178.609125,80.3458866 C178.849927,80.7107882 179.068422,81.0452813 179.258611,81.349366 C179.451018,81.6534507 179.622814,81.9231606 179.765782,82.1571735 C179.911359,82.3925086 180.033716,82.5881805 180.132072,82.7468334 C180.229384,82.9041641 180.303346,83.0218317 180.353307,83.1011581 C180.365308,83.1209897 180.376135,83.1381771 180.385918,83.1513982 C180.394006,83.1685856 180.40105,83.1712298 180.407702,83.1804846 C180.420095,83.2029604 180.426617,83.2135372 180.426617,83.2135372 L180.433661,83.2254362 C180.680985,83.6445442 181.116411,83.9420183 181.634408,83.9909363 C182.49639,84.0715848 183.258972,83.433007 183.339978,82.5657047 C183.339978,82.5657047 183.3405,82.5524836 183.34324,82.5273636 C183.34324,82.5114983 183.343761,82.4903446 183.343761,82.4678687 C183.345327,82.4453929 183.347022,82.421595 183.348588,82.3938307 C183.351849,82.2854179 183.357328,82.1241209 183.36385,81.9112616 C183.366067,81.7036908 183.369329,81.4432356 183.365546,81.1365067 C183.357328,80.8311 183.347022,80.4767752 183.323673,80.0774988 C183.295888,79.6769003 183.262233,79.2326723 183.209533,78.7408484 C183.156181,78.2516687 183.08561,77.7188595 182.989342,77.1424207 C182.795892,75.9908653 182.508391,74.668758 182.043615,73.1959306 C181.57623,71.7257473 180.938614,70.1008775 179.968494,68.3755275 C179.482585,67.5161578 178.91241,66.6303459 178.222746,65.743212 C177.531257,64.8574001 176.723149,63.9649777 175.756681,63.1214733 C175.275208,62.6944326 174.750166,62.2898678 174.186513,61.9011683 C173.905534,61.7068185 173.613076,61.5177572 173.312009,61.3366285 C173.008724,61.1568219 172.697221,60.9809816 172.373326,60.8170403 C172.053213,60.6491327 171.720578,60.493124 171.381421,60.345048 C171.03835,60.1996162 170.690062,60.060795 170.331859,59.937839 C169.618194,59.6839944 168.872439,59.4790678 168.108292,59.3283475 C166.579866,59.0202966 164.981913,58.9343596 163.419311,59.0480608 C161.852926,59.1591178 160.320196,59.4645246 158.85921,59.9100747 C158.130283,60.1335109 157.41453,60.3886776 156.718214,60.6729306 L156.457324,60.7800213 L156.391058,60.8064635 C156.388318,60.8077856 156.283962,60.8553814 156.252525,60.8699246 L156.150256,60.9148763 L155.94324,61.0047795 L155.892105,61.0272554 L155.8291,61.0550196 L155.67087,61.1317018 L155.351801,61.2837442 L155.194745,61.3604264 L155.058952,61.4318202 C154.878416,61.5256898 154.69201,61.6182373 154.514865,61.7160733 C153.084274,62.489506 151.782562,63.3845726 150.5689,64.3457446 C149.962852,64.8256695 149.375327,65.3227818 148.808413,65.8357595 C148.243716,66.3487371 147.695846,66.8762579 147.163108,67.4156776 C146.627761,67.9537753 146.112503,68.5077382 145.610289,69.0709559 C145.107032,69.6354957 144.615645,70.2092903 144.138477,70.7936617 C142.232282,73.1337915 140.503884,75.6286079 138.919628,78.2450582 C137.333546,80.8628305 135.883518,83.5982704 134.561065,86.4328684 C133.239786,89.2687885 132.039169,92.2025445 130.970563,95.216949 C130.703672,95.9718723 130.44226,96.7294397 130.189457,97.4922956 C129.939002,98.2551515 129.69494,99.0232958 129.461182,99.7967286 C128.990536,101.342272 128.548066,102.903681 128.146947,104.483599 C126.533211,110.797983 125.452733,117.3715 125.10875,124.066651 C124.939171,127.41383 124.957564,130.793401 125.237499,134.177467 C125.374988,135.868706 125.584744,137.561004 125.864679,139.248277 C126.146832,140.934492 126.50386,142.616345 126.958853,144.280614 C127.411106,145.945279 127.957802,147.59355 128.611723,149.20824 C128.939401,150.015783 129.29656,150.813939 129.682417,151.599006 C129.780773,151.795075 129.87378,151.992862 129.976962,152.185625 L130.309597,152.820898 L130.586271,153.318274 L130.654233,153.442156 L130.742284,153.592083 L130.923211,153.902249 C131.168448,154.329687 131.405336,154.691018 131.649399,155.07443 C131.904289,155.45242 132.15657,155.827502 132.431026,156.196634 C132.972374,156.934767 133.56316,157.654257 134.208863,158.340034 C134.856262,159.024754 135.557274,159.678139 136.314508,160.27864 C137.071612,160.877423 137.883111,161.422792 138.740266,161.896503 C139.595725,162.370875 140.494101,162.770813 141.413217,163.084813 C142.330116,163.398285 143.267756,163.628464 144.199917,163.777201 C146.063586,164.078509 147.887731,164.05048 149.594345,163.83458 C151.302654,163.610879 152.898389,163.204332 154.395247,162.697568 C155.888322,162.18578 157.288912,161.583031 158.609669,160.923168 C159.934339,160.268725 161.17735,159.554787 162.363879,158.814935 C163.549756,158.075084 164.674845,157.306675 165.753235,156.52769 C167.907145,154.962712 169.868257,153.347493 171.685749,151.746025 C173.504415,150.144159 175.175679,148.552078 176.724193,147.009046 C178.274272,145.464429 179.702125,143.967671 181.015838,142.540853 C183.64535,139.687878 185.81674,137.10924 187.548921,134.941512 C189.281754,132.773257 190.574726,131.016573 191.441665,129.806845 C191.874743,129.200791 192.200855,128.731971 192.418699,128.410831 C192.637847,128.085329 192.752638,127.917289 192.752638,127.917289 Z" id="logo"></path>
                </g>
            </g>
        </g>
    </g>
</svg>
