<?xml version="1.0" encoding="UTF-8"?>
<svg width="128px" height="194px" viewBox="0 0 128 194" version="1.1" xmlns="http://www.w3.org/2000/svg" xmlns:xlink="http://www.w3.org/1999/xlink">
    <!-- Generator: Sketch 52.5 (67469) - http://www.bohemiancoding.com/sketch -->
    <title>logo</title>
    <desc>Created with Sketch.</desc>
    <g id="Page-1" stroke="none" stroke-width="1" fill="none" fill-rule="evenodd">
        <g id="Artboard" transform="translate(-537.000000, -190.000000)" fill="#FFFFFF">
            <g id="Header">
                <path d="M609.029418,280.005505 C609.061418,280.017783 609.108188,280.030062 609.194341,280.064442 C609.184495,280.05953 609.174649,280.05953 609.164803,280.054619 C609.041726,280.022695 608.950649,279.985859 609.029418,280.005505 Z M608.061538,379.104661 L608.044308,379.153644 C608.027077,379.191198 608.012308,379.220425 608,379.24557 C608,379.160502 608.036923,379.114947 608.059077,379.087027 C608.059077,379.093885 608.059077,379.102049 608.056615,379.110212 C608.056615,379.110212 608.051692,379.127193 608.056615,379.112825 L608.068923,379.074781 L608.093538,379 C608.059077,379.121642 608.073846,379.063842 608.061538,379.104661 Z M664.979671,207.954238 C664.913653,206.421057 664.649579,204.811018 664.11219,203.232783 C663.581402,201.655873 662.766734,200.129318 661.756653,198.81611 C661.250952,198.161494 660.704319,197.550607 660.131279,197.003326 C659.843439,196.725048 659.548997,196.466646 659.253235,196.216196 L658.999724,196.009475 L658.869007,195.904789 L658.76998,195.826607 L658.614176,195.707344 L658.470256,195.600009 L658.372549,195.527126 C657.329458,194.755898 656.230912,194.053577 655.095395,193.429438 C653.955917,192.809275 652.776828,192.272596 651.580575,191.820725 C649.182786,190.919633 646.713698,190.377653 644.314589,190.148405 C641.912839,189.911206 639.58503,189.976138 637.374733,190.217312 C635.163117,190.459812 633.069013,190.889155 631.08846,191.420534 C629.105267,191.953238 627.236946,192.591953 625.467653,193.284999 C623.697039,193.980694 622.022812,194.724095 620.439691,195.511224 C618.85921,196.30233 617.373796,197.135839 615.974205,197.991876 C613.176345,199.707925 610.725742,201.507458 608.56958,203.279163 C606.41606,205.053518 604.555661,206.79872 602.952206,208.444537 C599.744767,211.738822 597.564575,214.620989 596.171587,216.659046 C595.479978,217.6847 594.976126,218.493032 594.65422,219.053564 C594.49023,219.333168 594.371925,219.549164 594.292175,219.696254 C594.253224,219.767812 594.215726,219.831418 594.198693,219.867197 C594.179415,219.904301 594.170569,219.921527 594.170569,219.921527 C593.944522,220.376048 593.933035,220.937905 594.197108,221.414954 C594.623983,222.191483 595.6,222.473736 596.376772,222.047043 L596.380073,222.044393 C596.380073,222.044393 596.397634,222.035117 596.432888,222.016565 C596.470782,221.995363 596.514883,221.976811 596.58473,221.935732 C596.721652,221.860199 596.928554,221.750213 597.198173,221.596497 C597.740052,221.298342 598.532801,220.83852 599.561632,220.246185 C600.586502,219.64855 601.839796,218.906474 603.29603,218.037186 C604.741833,217.170548 606.398895,216.174047 608.257973,215.059609 C610.103848,213.954447 612.130613,212.740623 614.331667,211.461869 C616.531401,210.184439 618.904102,208.839427 621.44053,207.501042 C622.709404,206.833174 624.019209,206.163981 625.371266,205.51599 C626.720682,204.866674 628.11235,204.23591 629.555513,203.674053 C632.433915,202.549014 635.507733,201.659849 638.613239,201.307363 C641.718745,200.956202 644.817649,201.181475 647.664363,202.240258 C648.374721,202.50661 649.075836,202.820666 649.758467,203.189054 C650.441097,203.558766 651.107883,203.984135 651.760145,204.457208 L651.822202,204.500937 C651.835406,204.511538 651.823523,204.502262 651.8156,204.495636 C651.820882,204.498287 651.826163,204.504912 651.836726,204.512863 L651.99385,204.632125 C652.020257,204.653327 652.050626,204.67453 652.051946,204.675855 L652.075713,204.697057 L652.128528,204.738136 C652.234157,204.82957 652.342427,204.917029 652.436173,205.008464 C652.628947,205.191332 652.793993,205.376851 652.944515,205.563695 C653.236317,205.940033 653.454177,206.332273 653.619223,206.804021 C653.78559,207.271793 653.89386,207.831 653.92951,208.485616 C653.969121,209.138908 653.926869,209.883633 653.810677,210.682689 C653.576972,212.284777 653.030339,214.08166 652.300176,215.90902 C651.566051,217.741681 650.644434,219.618071 649.602663,221.494462 C648.564854,223.373503 647.409532,225.259169 646.173667,227.14086 C644.937802,229.021226 643.622716,230.898942 642.249533,232.771357 C641.562941,233.705576 640.861826,234.642447 640.147507,235.575341 C639.435828,236.510886 638.712266,237.445106 637.978142,238.379326 C635.036361,242.113555 631.918972,245.823932 628.714438,249.538284 C625.513866,253.256611 622.210304,256.964337 618.865812,260.698566 C617.194226,262.573632 615.517358,264.453998 613.83917,266.337014 C612.157021,268.231956 610.476192,270.141475 608.801965,272.106649 C607.967492,273.091224 607.13566,274.091701 606.30911,275.127956 C605.481239,276.165536 604.65997,277.228294 603.837381,278.428866 C603.631403,278.729672 603.425426,279.042403 603.217336,279.373687 C603.009906,279.706296 602.799835,280.057456 602.588576,280.453672 C602.481759,280.649792 602.374017,280.860488 602.265614,281.091061 C602.15774,281.32031 602.047754,281.569435 601.937107,281.86229 C601.828705,282.155144 601.716473,282.486428 601.618106,282.914446 C601.592755,283.016482 601.570176,283.133094 601.549315,283.256331 C601.59117,283.301386 601.31825,283.799636 601.588398,285.156574 C601.795695,286.072242 602.239735,286.74541 602.572072,287.138975 C602.904937,287.533865 603.223409,287.792267 603.442591,287.953933 C603.686859,288.131501 603.866429,288.237512 604.040717,288.334247 C604.199162,288.421705 604.341761,288.489287 604.467196,288.544943 C604.712785,288.654929 604.901597,288.723836 605.074566,288.783467 C605.416541,288.897429 605.671372,288.961035 605.910359,289.019341 C606.38173,289.131978 606.761996,289.198234 607.131699,289.260516 C607.861863,289.379778 608.522047,289.463261 609.171668,289.544094 C610.464309,289.703111 611.702814,289.835624 612.929436,289.981389 C614.156058,290.125828 615.368156,290.274244 616.567051,290.439885 C618.9688,290.771169 621.329619,291.163409 623.640263,291.652383 C625.949587,292.141358 628.211378,292.720442 630.391306,293.425413 C632.572554,294.12906 634.67326,294.959919 636.639288,295.944494 C638.603996,296.927744 640.434026,298.06736 642.054118,299.375267 C643.67553,300.683175 645.077761,302.16335 646.206676,303.798566 C647.336911,305.432457 648.187229,307.224039 648.758948,309.117656 C649.330667,311.015249 649.62775,313.009576 649.695089,315.035707 C649.762428,317.060247 649.603984,319.113146 649.291056,321.144975 C649.211834,321.651839 649.12469,322.158702 649.025662,322.664506 C648.972848,322.92463 648.922674,323.183031 648.869859,323.441963 C648.814403,323.698641 648.760268,323.95426 648.707454,324.208818 C648.484311,325.235797 648.237403,326.248995 647.973329,327.251062 C646.913073,331.258004 645.518764,335.057827 643.864343,338.595406 C642.207281,342.135768 640.292747,345.413223 638.221089,348.408557 C636.150752,351.406674 633.923291,354.122139 631.648296,356.568073 C629.370661,359.015729 627.049454,361.198888 624.771819,363.149618 C622.494184,365.101939 620.260121,366.819048 618.14093,368.346796 C616.020418,369.876266 614.014779,371.214122 612.179467,372.414429 C611.255209,373.016305 610.379805,373.587173 609.555895,374.122792 C608.726704,374.667157 607.943726,375.18449 607.208281,375.707388 C606.838578,375.969102 606.479437,376.234129 606.12822,376.51519 C605.774361,376.801817 605.432386,377.091624 605.071925,377.485321 C604.891035,377.687934 604.702222,377.913207 604.510768,378.247803 C604.417022,378.416228 604.317995,378.622154 604.244054,378.880555 C604.236132,378.912093 604.226889,378.945222 604.217647,378.97994 C604.207084,379.034668 604.211045,379.008696 604.187278,379.128488 L604.178036,379.189179 L604.164832,379.285251 L604.147667,379.427703 C604.089571,380.057672 604.208404,380.64908 604.398537,381.11778 C604.589991,381.590985 604.840861,381.951554 605.087769,382.239771 C605.335999,382.526928 605.584228,382.745045 605.819253,382.921155 C606.291945,383.273376 606.709182,383.469363 607.051157,383.605852 C607.393132,383.738233 607.661167,383.805683 607.847339,383.843714 C608.03087,383.881348 608.135179,383.892346 608.147063,383.899502 C608.617114,384.133653 609.187513,383.944822 609.423859,383.476652 C609.658884,383.007819 609.468751,382.439071 608.9987,382.20333 C609.029069,382.218304 608.836295,381.965336 608.518086,381.528704 C608.360962,381.312177 608.17479,381.04821 608.008424,380.762246 C607.927881,380.618204 607.85262,380.470717 607.801126,380.332107 C607.752272,380.209002 607.727185,380.096366 607.719263,380.012485 C607.732467,379.999234 607.746991,379.9832 607.764156,379.966635 C607.898833,379.830809 608.135179,379.629256 608.407175,379.427703 C608.681812,379.222837 608.993419,379.005913 609.331433,378.784483 C610.006141,378.33778 610.777236,377.862984 611.607748,377.357711 C612.448822,376.848726 613.341391,376.309264 614.285454,375.737204 C618.081513,373.434252 622.704122,370.510741 627.630416,366.593775 C630.091582,364.635359 632.621408,362.422384 635.130107,359.910194 C637.634846,357.399065 640.12374,354.590309 642.471355,351.456366 C644.817649,348.323483 647.023984,344.862762 648.964925,341.094345 C650.905867,337.32712 652.580094,333.251271 653.900462,328.939018 C654.229233,327.860756 654.5382,326.76858 654.823399,325.662623 C654.893379,325.383285 654.964679,325.105537 655.034658,324.826198 C655.101997,324.54792 655.169336,324.270172 655.235354,323.990701 C655.370032,323.418773 655.494146,322.839557 655.609018,322.253715 C656.064545,319.915912 656.356347,317.476605 656.372191,314.960174 C656.390676,312.445069 656.123962,309.845155 655.458496,307.273069 C655.125763,305.985038 654.691362,304.708934 654.156613,303.464632 C653.620544,302.219006 652.982806,301.007833 652.251322,299.850991 C650.788354,297.534655 648.954362,295.455519 646.909112,293.666588 C644.862541,291.872356 642.612634,290.363028 640.275582,289.078972 C637.934569,287.793592 635.503772,286.730834 633.033363,285.825767 C630.561633,284.924676 628.050293,284.1773 625.520467,283.547861 C622.991962,282.917097 620.446292,282.400294 617.905904,281.957699 C616.63571,281.736402 615.368156,281.531006 614.107205,281.337536 C613.827287,281.296457 613.547369,281.254053 613.268771,281.210323 C613.330828,281.137441 613.394206,281.061908 613.456263,280.989026 C614.23264,280.081309 615.043346,279.170941 615.867255,278.259249 C617.515075,276.434539 619.21967,274.611154 620.934829,272.790419 C622.663191,270.965709 624.387592,269.142323 626.110672,267.321589 C629.560794,263.665543 633.004314,259.990945 636.373894,256.275267 C639.739513,252.55694 643.025909,248.789583 646.18291,244.951993 C646.97381,243.991271 647.754148,243.027898 648.525243,242.055249 C649.295017,241.083925 650.052909,240.104651 650.800237,239.117426 C652.294894,237.146951 653.747299,235.145998 655.135006,233.10264 C656.525354,231.056633 657.854965,228.968221 659.09215,226.805601 C660.326694,224.640331 661.470133,222.404829 662.453807,220.030188 C662.947625,218.842868 663.39787,217.619769 663.783418,216.344989 C664.170286,215.071535 664.493776,213.745075 664.715598,212.351034 C664.933459,210.956992 665.049651,209.491394 664.979671,207.954238 Z M604.752638,317.917289 C605.142669,317.341114 605.06962,316.548908 604.546535,316.057745 C603.972576,315.514359 603.069374,315.543445 602.529071,316.12385 L602.507938,316.147648 C602.507938,316.147648 602.378015,316.284486 602.126908,316.554461 C601.870844,316.827608 601.488771,317.232569 600.991514,317.758636 C599.992956,318.815264 598.515665,320.354858 596.604122,322.276938 C596.123171,322.755144 595.618218,323.25966 595.088872,323.787445 C594.554568,324.309677 593.99522,324.856765 593.412652,325.426329 C592.240211,326.561094 590.961848,327.770293 589.574304,329.033434 C588.185585,330.297766 586.68977,331.613262 585.080469,332.951896 C583.467776,334.286034 581.746422,335.646218 579.909363,336.985381 C578.073869,338.322428 576.124236,339.639511 574.063856,340.865237 C572.007649,342.090962 569.828172,343.214754 567.58282,344.109291 C565.341903,345.000127 563.004196,345.631962 560.812717,345.746589 C559.720761,345.804365 558.675635,345.720147 557.716341,345.495389 C556.753656,345.268383 555.875369,344.894887 555.056304,344.370407 C554.2405,343.843283 553.477396,343.158035 552.769731,342.322331 C552.415834,341.902033 552.081111,341.441411 551.756564,340.955008 C551.593508,340.714781 551.440235,340.455383 551.283179,340.200878 C551.13695,339.939762 550.972328,339.662119 550.854927,339.426387 L550.757093,339.24235 L550.73257,339.197663 L550.705437,339.14425 L550.642302,339.017063 L550.389629,338.508052 C550.351539,338.433617 550.405413,338.536609 550.389629,338.505804 L550.365758,338.451862 L550.315667,338.342788 L550.216268,338.122922 C550.147784,337.978019 550.085823,337.827166 550.022166,337.678958 C549.767798,337.083481 549.53417,336.474122 549.316718,335.851674 C549.101484,335.227507 548.90686,334.59078 548.726976,333.944005 C548.547092,333.296701 548.387297,332.637895 548.24759,331.969041 C547.679632,329.296798 547.395914,326.481767 547.338909,323.619934 C547.280731,320.756514 547.439874,317.842854 547.768726,314.93131 C548.099796,312.018707 548.598226,309.107427 549.234146,306.2292 C549.549824,304.789425 549.896677,303.358905 550.274446,301.940284 C550.652737,300.519018 551.0549,299.109652 551.48863,297.713507 C551.925099,296.320006 552.371874,294.935759 552.856086,293.571345 C553.337168,292.208252 553.83886,290.858381 554.358944,289.528341 C555.410071,286.874872 556.534639,284.291474 557.732647,281.813845 C558.933264,279.340182 560.200147,276.965678 561.535122,274.737927 C562.868924,272.514142 564.264687,270.426535 565.717976,268.562364 C567.16383,266.698193 568.673732,265.046881 570.160807,263.767081 C570.90317,263.129825 571.638098,262.583795 572.329979,262.162043 C572.416334,262.105192 572.501123,262.06024 572.586564,262.008678 L572.651657,261.971659 L572.694703,261.946539 L572.782232,261.896299 L572.825149,261.871179 C572.82841,261.867213 572.846281,261.85928 572.86363,261.848703 L572.914764,261.824905 L573.115911,261.724425 L573.217006,261.674185 C573.307796,261.631878 573.152827,261.703271 573.181133,261.69005 L573.219223,261.671541 L573.369235,261.600147 C573.768136,261.411086 574.158428,261.240534 574.537241,261.092458 C575.295388,260.794984 576.00801,260.583447 576.66454,260.448592 C577.325506,260.311093 577.93038,260.258208 578.511904,260.263497 C578.802275,260.270107 579.087559,260.285972 579.369581,260.324314 C579.651734,260.365299 579.932713,260.416861 580.214865,260.488255 C580.778388,260.633687 581.34752,260.851834 581.911696,261.141376 C583.045003,261.71517 584.148308,262.563963 585.136952,263.498693 C586.128856,264.434745 587.01484,265.448801 587.792554,266.42055 C588.57092,267.394943 589.24219,268.330995 589.818236,269.166567 C590.106389,269.585675 590.367801,269.980985 590.609125,270.345887 C590.849927,270.710788 591.068422,271.045281 591.258611,271.349366 C591.451018,271.653451 591.622814,271.923161 591.765782,272.157174 C591.911359,272.392509 592.033716,272.588181 592.132072,272.746833 C592.229384,272.904164 592.303346,273.021832 592.353307,273.101158 C592.365308,273.12099 592.376135,273.138177 592.385918,273.151398 C592.394006,273.168586 592.40105,273.17123 592.407702,273.180485 C592.420095,273.20296 592.426617,273.213537 592.426617,273.213537 L592.433661,273.225436 C592.680985,273.644544 593.116411,273.942018 593.634408,273.990936 C594.49639,274.071585 595.258972,273.433007 595.339978,272.565705 C595.339978,272.565705 595.3405,272.552484 595.34324,272.527364 C595.34324,272.511498 595.343761,272.490345 595.343761,272.467869 C595.345327,272.445393 595.347022,272.421595 595.348588,272.393831 C595.351849,272.285418 595.357328,272.124121 595.36385,271.911262 C595.366067,271.703691 595.369329,271.443236 595.365546,271.136507 C595.357328,270.8311 595.347022,270.476775 595.323673,270.077499 C595.295888,269.6769 595.262233,269.232672 595.209533,268.740848 C595.156181,268.251669 595.08561,267.718859 594.989342,267.142421 C594.795892,265.990865 594.508391,264.668758 594.043615,263.195931 C593.57623,261.725747 592.938614,260.100877 591.968494,258.375528 C591.482585,257.516158 590.91241,256.630346 590.222746,255.743212 C589.531257,254.8574 588.723149,253.964978 587.756681,253.121473 C587.275208,252.694433 586.750166,252.289868 586.186513,251.901168 C585.905534,251.706819 585.613076,251.517757 585.312009,251.336628 C585.008724,251.156822 584.697221,250.980982 584.373326,250.81704 C584.053213,250.649133 583.720578,250.493124 583.381421,250.345048 C583.03835,250.199616 582.690062,250.060795 582.331859,249.937839 C581.618194,249.683994 580.872439,249.479068 580.108292,249.328348 C578.579866,249.020297 576.981913,248.93436 575.419311,249.048061 C573.852926,249.159118 572.320196,249.464525 570.85921,249.910075 C570.130283,250.133511 569.41453,250.388678 568.718214,250.672931 L568.457324,250.780021 L568.391058,250.806463 C568.388318,250.807786 568.283962,250.855381 568.252525,250.869925 L568.150256,250.914876 L567.94324,251.00478 L567.892105,251.027255 L567.8291,251.05502 L567.67087,251.131702 L567.351801,251.283744 L567.194745,251.360426 L567.058952,251.43182 C566.878416,251.52569 566.69201,251.618237 566.514865,251.716073 C565.084274,252.489506 563.782562,253.384573 562.5689,254.345745 C561.962852,254.82567 561.375327,255.322782 560.808413,255.835759 C560.243716,256.348737 559.695846,256.876258 559.163108,257.415678 C558.627761,257.953775 558.112503,258.507738 557.610289,259.070956 C557.107032,259.635496 556.615645,260.20929 556.138477,260.793662 C554.232282,263.133792 552.503884,265.628608 550.919628,268.245058 C549.333546,270.862831 547.883518,273.59827 546.561065,276.432868 C545.239786,279.268788 544.039169,282.202544 542.970563,285.216949 C542.703672,285.971872 542.44226,286.72944 542.189457,287.492296 C541.939002,288.255151 541.69494,289.023296 541.461182,289.796729 C540.990536,291.342272 540.548066,292.903681 540.146947,294.483599 C538.533211,300.797983 537.452733,307.3715 537.10875,314.066651 C536.939171,317.41383 536.957564,320.793401 537.237499,324.177467 C537.374988,325.868706 537.584744,327.561004 537.864679,329.248277 C538.146832,330.934492 538.50386,332.616345 538.958853,334.280614 C539.411106,335.945279 539.957802,337.59355 540.611723,339.20824 C540.939401,340.015783 541.29656,340.813939 541.682417,341.599006 C541.780773,341.795075 541.87378,341.992862 541.976962,342.185625 L542.309597,342.820898 L542.586271,343.318274 L542.654233,343.442156 L542.742284,343.592083 L542.923211,343.902249 C543.168448,344.329687 543.405336,344.691018 543.649399,345.07443 C543.904289,345.45242 544.15657,345.827502 544.431026,346.196634 C544.972374,346.934767 545.56316,347.654257 546.208863,348.340034 C546.856262,349.024754 547.557274,349.678139 548.314508,350.27864 C549.071612,350.877423 549.883111,351.422792 550.740266,351.896503 C551.595725,352.370875 552.494101,352.770813 553.413217,353.084813 C554.330116,353.398285 555.267756,353.628464 556.199917,353.777201 C558.063586,354.078509 559.887731,354.05048 561.594345,353.83458 C563.302654,353.610879 564.898389,353.204332 566.395247,352.697568 C567.888322,352.18578 569.288912,351.583031 570.609669,350.923168 C571.934339,350.268725 573.17735,349.554787 574.363879,348.814935 C575.549756,348.075084 576.674845,347.306675 577.753235,346.52769 C579.907145,344.962712 581.868257,343.347493 583.685749,341.746025 C585.504415,340.144159 587.175679,338.552078 588.724193,337.009046 C590.274272,335.464429 591.702125,333.967671 593.015838,332.540853 C595.64535,329.687878 597.81674,327.10924 599.548921,324.941512 C601.281754,322.773257 602.574726,321.016573 603.441665,319.806845 C603.874743,319.200791 604.200855,318.731971 604.418699,318.410831 C604.637847,318.085329 604.752638,317.917289 604.752638,317.917289 Z" id="logo"></path>
            </g>
        </g>
    </g>
</svg>