<?xml version="1.0" encoding="UTF-8"?>
<svg width="361px" height="355px" viewBox="0 0 361 355" version="1.1" xmlns="http://www.w3.org/2000/svg" xmlns:xlink="http://www.w3.org/1999/xlink">
    <!-- Generator: Sketch 52.5 (67469) - http://www.bohemiancoding.com/sketch -->
    <title>entrance-corner</title>
    <desc>Created with Sketch.</desc>
    <g id="Page-1" stroke="none" stroke-width="1" fill="none" fill-rule="evenodd">
        <g id="Artboard" transform="translate(-825.000000, -1551.000000)" fill="#814e07">
            <g id="Find-us" transform="translate(0.000000, 900.000000)">
                <g id="entrance-corner" transform="translate(815.000000, 647.000000)">
                    <path d="M22.4657527,45.7466787 C22.5550864,45.8360125 22.5550864,46.0370105 22.4657527,46.3496787 C22.2424182,46.8410145 21.8850885,47.4775082 21.3937527,48.2591787 C20.9024169,49.0408493 20.3440891,49.7890085 19.7187527,50.5036787 C19.0934162,51.218349 18.445756,51.8325095 17.7757527,52.3461787 C17.1057493,52.859848 16.4580891,53.1166787 15.8327527,53.1166787 C15.0734155,53.1166787 14.3140898,52.8040152 13.5547527,52.1786787 C13.01875,51.7766767 12.5944209,51.2853483 12.2817527,50.7046787 C11.9690844,50.1240092 11.7234202,49.5098486 11.5447527,48.8621787 C11.3660851,48.2145088 11.243253,47.5445155 11.1762527,46.8521787 C11.1092523,46.1598419 11.0534196,45.5010152 11.0087527,44.8756787 C11.0087527,43.3570045 11.0869186,41.8160199 11.2432527,40.2526787 C11.3995868,38.6893376 11.5894182,37.1706861 11.8127527,35.6966787 C11.8574196,35.4286774 11.7680871,35.2946787 11.5447527,35.2946787 L11.3437527,35.2946787 C10.4504149,35.2946787 9.45659147,35.2165129 8.36225267,35.0601787 C7.26791386,34.9038446 6.49742157,34.3790165 6.05075267,33.4856787 C6.00608578,33.396345 6.00608578,33.3181791 6.05075267,33.2511787 C6.09541956,33.1841784 6.16241889,33.1506787 6.25175267,33.1506787 C6.29641956,33.1060119 6.385752,33.0836787 6.51975267,33.0836787 C6.60908645,33.0836787 6.67608578,33.1060119 6.72075267,33.1506787 C7.07808779,33.3740132 7.43541755,33.5080119 7.79275267,33.5526787 C8.15008779,33.5973456 8.50741755,33.6196787 8.86475267,33.6196787 C9.08808712,33.6196787 9.3895841,33.6085122 9.76925267,33.5861787 C10.1489212,33.5638453 10.5285841,33.5191791 10.9082527,33.4521787 C11.2879212,33.3851784 11.6340844,33.2846794 11.9467527,33.1506787 C12.2594209,33.0166781 12.4380858,32.8156801 12.4827527,32.5476787 C12.5720864,32.0116761 12.6725854,31.4645149 12.7842527,30.9061787 C12.8959199,30.3478426 13.0410851,29.8006814 13.2197527,29.2646787 C13.2644196,29.0860112 13.353752,28.8961797 13.4877527,28.6951787 C13.6217533,28.4941777 13.7334189,28.3936787 13.8227527,28.3936787 C14.2694216,28.3936787 14.76075,28.5500105 15.2967527,28.8626787 C15.564754,29.0860132 15.7210858,29.3205108 15.7657527,29.5661787 C15.8104196,29.8118466 15.7880864,30.2696754 15.6987527,30.9396787 C15.6987527,31.1630132 15.7099192,31.3863443 15.7322527,31.6096787 C15.7545861,31.8330132 15.7880858,32.0563443 15.8327527,32.2796787 L16.0337527,32.2796787 C16.0784196,32.3243456 16.167752,32.3466787 16.3017527,32.3466787 C16.8377553,32.257345 17.3625834,32.1791791 17.8762527,32.1121787 C18.3899219,32.0451784 18.8924169,31.9670125 19.3837527,31.8776787 C19.4730864,31.8776787 19.5400858,31.8665122 19.5847527,31.8441787 C19.6294196,31.8218453 19.6964189,31.8106787 19.7857527,31.8106787 C20.4110891,31.8106787 20.9694169,32.056343 21.4607527,32.5476787 C21.728754,32.8156801 21.6840878,33.0166781 21.3267527,33.1506787 C21.2374189,33.1953456 21.1034202,33.2176787 20.9247527,33.2176787 C20.1207486,33.3963463 19.3279232,33.5638446 18.5462527,33.7201787 C17.7645821,33.8765129 16.9717567,34.0440112 16.1677527,34.2226787 L15.6987527,34.4571787 C15.564752,34.5241791 15.4977527,34.6916774 15.4977527,34.9596787 C15.4530858,35.7636828 15.3860864,36.5788413 15.2967527,37.4051787 C15.2074189,38.2315162 15.1404196,39.0466747 15.0957527,39.8506787 C15.0064189,40.9226841 14.9505861,41.9946734 14.9282527,43.0666787 C14.9059192,44.1386841 14.8724196,45.2106734 14.8277527,46.2826787 C14.7830858,46.7740145 14.7719192,47.2430098 14.7942527,47.6896787 C14.8165861,48.1363476 14.8500858,48.605343 14.8947527,49.0966787 C14.9840864,49.4986808 15.0734189,49.8783436 15.1627527,50.2356787 L15.4307527,51.3076787 C15.4754196,51.5310132 15.5870851,51.6426787 15.7657527,51.6426787 C15.8104196,51.6426787 15.9220851,51.5980125 16.1007527,51.5086787 C16.8600898,51.1066767 17.5635828,50.6153483 18.2112527,50.0346787 C18.8589226,49.4540092 19.4395834,48.8845149 19.9532527,48.3261787 C20.4669219,47.7678426 20.891251,47.2541811 21.2262527,46.7851787 C21.5612543,46.3161764 21.795752,46.0146794 21.9297527,45.8806787 C22.0637533,45.7466781 22.1754189,45.6796787 22.2647527,45.6796787 C22.3540864,45.6796787 22.4210858,45.7020119 22.4657527,45.7466787 Z M41.0917527,46.2156787 C41.4490878,46.4836801 41.493754,46.7963436 41.2257527,47.1536787 C40.1984142,48.6276861 39.0370925,49.934173 37.7417527,51.0731787 C36.4464129,52.2121844 35.0170938,53.2283409 33.4537527,54.1216787 C33.0070838,54.3896801 32.5604216,54.5236787 32.1137527,54.5236787 C31.57775,54.5236787 31.1087547,54.3450139 30.7067527,53.9876787 C30.3047507,53.6303436 29.969754,53.2060145 29.7017527,52.7146787 C29.4784182,52.3573436 29.333253,51.9441811 29.2662527,51.4751787 C29.1992523,51.0061764 29.1210864,50.5483476 29.0317527,50.1016787 C28.897752,49.2083409 28.7749199,48.3373497 28.6632527,47.4886787 C28.5515854,46.6400078 28.4064202,45.7690165 28.2277527,44.8756787 C28.2277527,44.6970112 28.1607533,44.6076787 28.0267527,44.6076787 C27.9374189,44.6076787 27.8034202,44.652345 27.6247527,44.7416787 C27.1334169,45.2330145 26.6420885,45.7131764 26.1507527,46.1821787 C25.6594169,46.6511811 25.1904216,47.131343 24.7437527,47.6226787 C24.4757513,47.935347 24.2300871,48.2591771 24.0067527,48.5941787 C23.7834182,48.9291804 23.5600871,49.2530105 23.3367527,49.5656787 C22.9347507,50.0570145 22.700253,50.5818426 22.6332527,51.1401787 C22.5662523,51.6985149 22.5550858,52.2680092 22.5997527,52.8486787 L22.5997527,53.5186787 C22.5997527,53.7420132 22.4880871,53.898345 22.2647527,53.9876787 C22.2200858,54.0323456 22.1307533,54.0546787 21.9967527,54.0546787 C21.862752,54.0546787 21.7399199,54.0323456 21.6282527,53.9876787 C21.5165854,53.9430119 21.3937533,53.8760125 21.2597527,53.7866787 C20.8577507,53.5633443 20.6455861,53.3065135 20.6232527,53.0161787 C20.6009192,52.725844 20.5450864,52.424347 20.4557527,52.1116787 C20.2324182,50.8610058 20.1654189,49.6326848 20.2547527,48.4266787 C20.3440864,47.2206727 20.3664196,45.9923517 20.3217527,44.7416787 C20.2324189,43.3123383 20.2324189,41.9053523 20.3217527,40.5206787 C20.4557533,37.4386633 20.7684169,34.3790273 21.2597527,31.3416787 C21.7510885,28.3043302 22.3540824,25.2893604 23.0687527,22.2966787 C23.2027533,21.8946767 23.3590851,21.6936787 23.5377527,21.6936787 C23.6270864,21.6936787 23.8615841,21.8053443 24.2412527,22.0286787 C24.6209212,22.2520132 24.8554189,22.408345 24.9447527,22.4976787 C25.3914216,22.8550139 25.5589199,23.2681764 25.4472527,23.7371787 C25.3355854,24.2061811 25.2350864,24.6416767 25.1457527,25.0436787 C24.6544169,27.4556908 24.2524209,29.8676667 23.9397527,32.2796787 C23.6270844,34.6916908 23.3814202,37.1259998 23.2027527,39.5826787 L22.8007527,44.4066787 C22.8007527,44.4960125 22.8454189,44.6746774 22.9347527,44.9426787 C23.0240864,44.8980119 23.0910858,44.8533456 23.1357527,44.8086787 C23.1804196,44.7640119 23.2474189,44.7193456 23.3367527,44.6746787 C23.7387547,44.3173436 24.1295841,43.9711804 24.5092527,43.6361787 C24.8889212,43.3011771 25.2797507,42.977347 25.6817527,42.6646787 C25.9050871,42.4860112 26.1284182,42.3743456 26.3517527,42.3296787 C26.5750871,42.2850119 26.7984182,42.2626787 27.0217527,42.2626787 C27.8257567,42.2626787 28.6297486,42.5641757 29.4337527,43.1671787 C30.2377567,43.7701818 30.7290851,44.4736747 30.9077527,45.2776787 C30.9524196,45.5456801 31.0194189,45.9923423 31.1087527,46.6176787 C31.1980864,47.2430152 31.2762523,47.9018419 31.3432527,48.5941787 C31.410253,49.2865155 31.4772523,49.9676754 31.5442527,50.6376787 C31.611253,51.3076821 31.6447527,51.7990105 31.6447527,52.1116787 C31.7340864,52.4690139 31.8234189,52.6476787 31.9127527,52.6476787 C32.0467533,52.6476787 32.2030851,52.5806794 32.3817527,52.4466787 C33.8110931,51.6873416 35.195746,50.7716841 36.5357527,49.6996787 C37.8757594,48.6276734 39.0817473,47.4886848 40.1537527,46.2826787 C40.2877533,46.1040112 40.4440851,46.0146787 40.6227527,46.0146787 C40.8014202,46.0146787 40.957752,46.0816781 41.0917527,46.2156787 Z M42.4317527,47.8236787 C42.3870858,47.9130125 42.3647527,48.0693443 42.3647527,48.2926787 L42.6997527,48.2926787 C42.7890864,48.2926787 42.9342517,48.236846 43.1352527,48.1251787 C43.3362537,48.0135115 43.5707513,47.8795129 43.8387527,47.7231787 C44.106754,47.5668446 44.3524182,47.4216794 44.5757527,47.2876787 C44.7990871,47.1536781 44.9554189,47.0643456 45.0447527,47.0196787 C45.714756,46.6176767 46.217251,46.0928486 46.5522527,45.4451787 C46.8872543,44.7975088 47.0994189,44.0493497 47.1887527,43.2006787 L47.1887527,43.1336787 C47.1440858,43.0890119 47.1217527,43.0443456 47.1217527,42.9996787 C47.0324189,43.0443456 46.9654196,43.0666787 46.9207527,43.0666787 C46.8760858,43.0666787 46.8090864,43.0890119 46.7197527,43.1336787 C45.8264149,43.7590152 45.0335895,44.4736747 44.3412527,45.2776787 C43.6489159,46.0816828 43.0124222,46.9303409 42.4317527,47.8236787 Z M59.7847527,46.1486787 C59.8740864,46.2826794 59.9299192,46.4613443 59.9522527,46.6846787 C59.9745861,46.9080132 59.9410864,47.064345 59.8517527,47.1536787 C59.5837513,47.5556808 59.1817553,47.9130105 58.6457527,48.2256787 C57.4397466,48.940349 56.2337587,49.6215088 55.0277527,50.2691787 C53.8217466,50.9168486 52.5934256,51.5980085 51.3427527,52.3126787 C50.3600811,52.8486814 49.1764263,53.3735095 47.7917527,53.8871787 C46.4070791,54.400848 45.1340918,54.6576787 43.9727527,54.6576787 C42.5434122,54.6576787 41.3374242,54.2333497 40.3547527,53.3846787 C39.3720811,52.5360078 38.6574216,51.5310179 38.2107527,50.3696787 C38.0320851,49.878343 38.009752,49.375848 38.1437527,48.8621787 C38.2777533,48.3485095 38.4340851,47.8460145 38.6127527,47.3546787 C38.8360871,46.863343 39.2269165,46.2491824 39.7852527,45.5121787 C40.3435888,44.7751751 40.9689159,44.0716821 41.6612527,43.4016787 C42.3535895,42.7316754 43.0905821,42.1621811 43.8722527,41.6931787 C44.6539232,41.2241764 45.3350831,40.9896787 45.9157527,40.9896787 C46.4964222,40.9896787 47.0100838,41.1460105 47.4567527,41.4586787 C47.9034216,41.771347 48.3054175,42.1286767 48.6627527,42.5306787 C48.9754209,42.8880139 49.0870864,43.2676767 48.9977527,43.6696787 C48.9084189,44.0716808 48.8190864,44.4513436 48.7297527,44.8086787 C48.2384169,46.2826861 47.4009253,47.4328413 46.2172527,48.2591787 C45.0335801,49.0855162 43.6824269,49.4986787 42.1637527,49.4986787 C41.8510844,49.4986787 41.6724196,49.6326774 41.6277527,49.9006787 C41.6277527,50.213347 41.6165861,50.514844 41.5942527,50.8051787 C41.5719192,51.0955135 41.5830858,51.3746774 41.6277527,51.6426787 C41.6724196,52.0000139 41.7840851,52.2345115 41.9627527,52.3461787 C42.1414202,52.457846 42.4094175,52.5136787 42.7667527,52.5136787 L43.6377527,52.5136787 C44.4417567,52.4690119 45.2904149,52.3461797 46.1837527,52.1451787 C47.0770905,51.9441777 47.9704149,51.687347 48.8637527,51.3746787 C49.7570905,51.0620105 50.6280818,50.7270139 51.4767527,50.3696787 C52.3254236,50.0123436 53.0847493,49.6326808 53.7547527,49.2306787 C54.6480905,48.7840098 55.5190818,48.2926814 56.3677527,47.7566787 C57.2164236,47.2206761 58.0650818,46.7070145 58.9137527,46.2156787 C59.0030864,46.1710119 59.1035854,46.1151791 59.2152527,46.0481787 C59.3269199,45.9811784 59.4274189,45.9476787 59.5167527,45.9476787 C59.6507533,45.9476787 59.7400858,46.0146781 59.7847527,46.1486787 Z M82.5647527,47.8236787 C82.5200858,47.9130125 82.4977527,48.0693443 82.4977527,48.2926787 L82.8327527,48.2926787 C82.9220864,48.2926787 83.0672517,48.236846 83.2682527,48.1251787 C83.4692537,48.0135115 83.7037513,47.8795129 83.9717527,47.7231787 C84.239754,47.5668446 84.4854182,47.4216794 84.7087527,47.2876787 C84.9320871,47.1536781 85.0884189,47.0643456 85.1777527,47.0196787 C85.847756,46.6176767 86.350251,46.0928486 86.6852527,45.4451787 C87.0202543,44.7975088 87.2324189,44.0493497 87.3217527,43.2006787 L87.3217527,43.1336787 C87.2770858,43.0890119 87.2547527,43.0443456 87.2547527,42.9996787 C87.1654189,43.0443456 87.0984196,43.0666787 87.0537527,43.0666787 C87.0090858,43.0666787 86.9420864,43.0890119 86.8527527,43.1336787 C85.9594149,43.7590152 85.1665895,44.4736747 84.4742527,45.2776787 C83.7819159,46.0816828 83.1454222,46.9303409 82.5647527,47.8236787 Z M99.9177527,46.1486787 C100.007086,46.2826794 100.062919,46.4613443 100.085253,46.6846787 C100.107586,46.9080132 100.074086,47.064345 99.9847527,47.1536787 C99.7167513,47.5556808 99.3147553,47.9130105 98.7787527,48.2256787 C97.5727466,48.940349 96.3667587,49.6215088 95.1607527,50.2691787 C93.9547466,50.9168486 92.7264256,51.5980085 91.4757527,52.3126787 C90.4930811,52.8486814 89.3094263,53.3735095 87.9247527,53.8871787 C86.5400791,54.400848 85.2670918,54.6576787 84.1057527,54.6576787 C82.6764122,54.6576787 81.4704242,54.2333497 80.4877527,53.3846787 C79.5050811,52.5360078 78.7904216,51.5310179 78.3437527,50.3696787 C78.1650851,49.878343 78.142752,49.375848 78.2767527,48.8621787 C78.4107533,48.3485095 78.5670851,47.8460145 78.7457527,47.3546787 C78.9690871,46.863343 79.3599165,46.2491824 79.9182527,45.5121787 C80.4765888,44.7751751 81.1019159,44.0716821 81.7942527,43.4016787 C82.4865895,42.7316754 83.2235821,42.1621811 84.0052527,41.6931787 C84.7869232,41.2241764 85.4680831,40.9896787 86.0487527,40.9896787 C86.6294222,40.9896787 87.1430838,41.1460105 87.5897527,41.4586787 C88.0364216,41.771347 88.4384175,42.1286767 88.7957527,42.5306787 C89.1084209,42.8880139 89.2200864,43.2676767 89.1307527,43.6696787 C89.0414189,44.0716808 88.9520864,44.4513436 88.8627527,44.8086787 C88.3714169,46.2826861 87.5339253,47.4328413 86.3502527,48.2591787 C85.1665801,49.0855162 83.8154269,49.4986787 82.2967527,49.4986787 C81.9840844,49.4986787 81.8054196,49.6326774 81.7607527,49.9006787 C81.7607527,50.213347 81.7495861,50.514844 81.7272527,50.8051787 C81.7049192,51.0955135 81.7160858,51.3746774 81.7607527,51.6426787 C81.8054196,52.0000139 81.9170851,52.2345115 82.0957527,52.3461787 C82.2744202,52.457846 82.5424175,52.5136787 82.8997527,52.5136787 L83.7707527,52.5136787 C84.5747567,52.4690119 85.4234149,52.3461797 86.3167527,52.1451787 C87.2100905,51.9441777 88.1034149,51.687347 88.9967527,51.3746787 C89.8900905,51.0620105 90.7610818,50.7270139 91.6097527,50.3696787 C92.4584236,50.0123436 93.2177493,49.6326808 93.8877527,49.2306787 C94.7810905,48.7840098 95.6520818,48.2926814 96.5007527,47.7566787 C97.3494236,47.2206761 98.1980818,46.7070145 99.0467527,46.2156787 C99.1360864,46.1710119 99.2365854,46.1151791 99.3482527,46.0481787 C99.4599199,45.9811784 99.5604189,45.9476787 99.6497527,45.9476787 C99.7837533,45.9476787 99.8730858,46.0146781 99.9177527,46.1486787 Z M119.012753,46.5506787 C119.05742,46.5953456 119.068586,46.662345 119.046253,46.7516787 C119.023919,46.8410125 118.99042,46.9080119 118.945753,46.9526787 C116.444407,48.9180219 113.697434,50.5260058 110.704753,51.7766787 C110.347418,51.8660125 110.124086,51.9106787 110.034753,51.9106787 C109.409416,51.9106787 108.851088,51.5756821 108.359753,50.9056787 C107.868417,50.2803423 107.56692,49.610349 107.455253,48.8956787 C107.343585,48.1810085 107.354752,47.4440159 107.488753,46.6846787 C107.53342,46.4613443 107.555753,46.2268466 107.555753,45.9811787 C107.555753,45.7355108 107.578086,45.5010132 107.622753,45.2776787 C107.578086,45.2776787 107.555753,45.2665122 107.555753,45.2441787 C107.555753,45.2218453 107.53342,45.2106787 107.488753,45.2106787 C106.640082,45.7020145 105.83609,46.3720078 105.076753,47.2206787 C104.317416,48.0693497 103.625089,48.8733416 102.999753,49.6326787 C102.865752,49.8560132 102.642421,50.1463436 102.329753,50.5036787 C102.017084,50.8610139 101.693254,51.2183436 101.358253,51.5756787 C101.023251,51.9330139 100.665921,52.2456774 100.286253,52.5136787 C99.9065841,52.7816801 99.582754,52.9156787 99.3147527,52.9156787 C98.6000824,52.9156787 98.0194216,52.6253483 97.5727527,52.0446787 C96.9474162,51.2406747 96.6682523,50.4478493 96.7352527,49.6661787 C96.802253,48.8845082 96.9474182,48.1140159 97.1707527,47.3546787 C97.3940871,46.5953416 97.6285848,45.8695155 97.8742527,45.1771787 C98.1199206,44.4848419 98.3544182,43.781349 98.5777527,43.0666787 C98.7117533,42.4860092 98.9127513,42.1956787 99.1807527,42.1956787 C99.4040871,42.1956787 99.6497513,42.3520105 99.9177527,42.6646787 L101.123753,43.8706787 C101.213086,43.9600125 101.213086,44.0940112 101.123753,44.2726787 C101.034419,44.7193476 100.945086,45.1436767 100.855753,45.5456787 C100.766419,45.9476808 100.677086,46.3720098 100.587753,46.8186787 C100.543086,46.9080125 100.520753,47.1090105 100.520753,47.4216787 C102.352095,45.5903363 104.362075,43.915353 106.550753,42.3966787 C106.72942,42.2180112 106.952751,42.1286787 107.220753,42.1286787 C107.488754,42.1286787 107.801418,42.2626774 108.158753,42.5306787 L108.929253,43.3011787 C109.174921,43.5468466 109.409418,43.8036774 109.632753,44.0716787 C109.990088,44.5183476 110.135253,44.9761764 110.068253,45.4451787 C110.001252,45.9141811 109.967753,46.394343 109.967753,46.8856787 C109.967753,47.6450159 109.900753,48.4043416 109.766753,49.1636787 C109.766753,49.476347 109.833752,49.6326787 109.967753,49.6326787 C110.14642,49.6326787 110.50375,49.5321797 111.039753,49.3311787 C111.575755,49.1301777 112.14525,48.8956801 112.748253,48.6276787 C113.351256,48.3596774 113.931917,48.1028466 114.490253,47.8571787 C115.048589,47.6115108 115.417085,47.4440125 115.595753,47.3546787 L116.801753,46.8186787 C117.203755,46.6400112 117.605751,46.4390132 118.007753,46.2156787 C118.097086,46.1710119 118.208752,46.1486787 118.342753,46.1486787 C118.52142,46.1486787 118.744751,46.2826774 119.012753,46.5506787 Z M128.861753,45.7466787 C128.951086,45.8360125 128.951086,46.0370105 128.861753,46.3496787 C128.638418,46.8410145 128.281088,47.4775082 127.789753,48.2591787 C127.298417,49.0408493 126.740089,49.7890085 126.114753,50.5036787 C125.489416,51.218349 124.841756,51.8325095 124.171753,52.3461787 C123.501749,52.859848 122.854089,53.1166787 122.228753,53.1166787 C121.469416,53.1166787 120.71009,52.8040152 119.950753,52.1786787 C119.41475,51.7766767 118.990421,51.2853483 118.677753,50.7046787 C118.365084,50.1240092 118.11942,49.5098486 117.940753,48.8621787 C117.762085,48.2145088 117.639253,47.5445155 117.572253,46.8521787 C117.505252,46.1598419 117.44942,45.5010152 117.404753,44.8756787 C117.404753,43.3570045 117.482919,41.8160199 117.639253,40.2526787 C117.795587,38.6893376 117.985418,37.1706861 118.208753,35.6966787 C118.25342,35.4286774 118.164087,35.2946787 117.940753,35.2946787 L117.739753,35.2946787 C116.846415,35.2946787 115.852591,35.2165129 114.758253,35.0601787 C113.663914,34.9038446 112.893422,34.3790165 112.446753,33.4856787 C112.402086,33.396345 112.402086,33.3181791 112.446753,33.2511787 C112.49142,33.1841784 112.558419,33.1506787 112.647753,33.1506787 C112.69242,33.1060119 112.781752,33.0836787 112.915753,33.0836787 C113.005086,33.0836787 113.072086,33.1060119 113.116753,33.1506787 C113.474088,33.3740132 113.831418,33.5080119 114.188753,33.5526787 C114.546088,33.5973456 114.903418,33.6196787 115.260753,33.6196787 C115.484087,33.6196787 115.785584,33.6085122 116.165253,33.5861787 C116.544921,33.5638453 116.924584,33.5191791 117.304253,33.4521787 C117.683921,33.3851784 118.030084,33.2846794 118.342753,33.1506787 C118.655421,33.0166781 118.834086,32.8156801 118.878753,32.5476787 C118.968086,32.0116761 119.068585,31.4645149 119.180253,30.9061787 C119.29192,30.3478426 119.437085,29.8006814 119.615753,29.2646787 C119.66042,29.0860112 119.749752,28.8961797 119.883753,28.6951787 C120.017753,28.4941777 120.129419,28.3936787 120.218753,28.3936787 C120.665422,28.3936787 121.15675,28.5500105 121.692753,28.8626787 C121.960754,29.0860132 122.117086,29.3205108 122.161753,29.5661787 C122.20642,29.8118466 122.184086,30.2696754 122.094753,30.9396787 C122.094753,31.1630132 122.105919,31.3863443 122.128253,31.6096787 C122.150586,31.8330132 122.184086,32.0563443 122.228753,32.2796787 L122.429753,32.2796787 C122.47442,32.3243456 122.563752,32.3466787 122.697753,32.3466787 C123.233755,32.257345 123.758583,32.1791791 124.272253,32.1121787 C124.785922,32.0451784 125.288417,31.9670125 125.779753,31.8776787 C125.869086,31.8776787 125.936086,31.8665122 125.980753,31.8441787 C126.02542,31.8218453 126.092419,31.8106787 126.181753,31.8106787 C126.807089,31.8106787 127.365417,32.056343 127.856753,32.5476787 C128.124754,32.8156801 128.080088,33.0166781 127.722753,33.1506787 C127.633419,33.1953456 127.49942,33.2176787 127.320753,33.2176787 C126.516749,33.3963463 125.723923,33.5638446 124.942253,33.7201787 C124.160582,33.8765129 123.367757,34.0440112 122.563753,34.2226787 L122.094753,34.4571787 C121.960752,34.5241791 121.893753,34.6916774 121.893753,34.9596787 C121.849086,35.7636828 121.782086,36.5788413 121.692753,37.4051787 C121.603419,38.2315162 121.53642,39.0466747 121.491753,39.8506787 C121.402419,40.9226841 121.346586,41.9946734 121.324253,43.0666787 C121.301919,44.1386841 121.26842,45.2106734 121.223753,46.2826787 C121.179086,46.7740145 121.167919,47.2430098 121.190253,47.6896787 C121.212586,48.1363476 121.246086,48.605343 121.290753,49.0966787 C121.380086,49.4986808 121.469419,49.8783436 121.558753,50.2356787 L121.826753,51.3076787 C121.87142,51.5310132 121.983085,51.6426787 122.161753,51.6426787 C122.20642,51.6426787 122.318085,51.5980125 122.496753,51.5086787 C123.25609,51.1066767 123.959583,50.6153483 124.607253,50.0346787 C125.254923,49.4540092 125.835583,48.8845149 126.349253,48.3261787 C126.862922,47.7678426 127.287251,47.2541811 127.622253,46.7851787 C127.957254,46.3161764 128.191752,46.0146794 128.325753,45.8806787 C128.459753,45.7466781 128.571419,45.6796787 128.660753,45.6796787 C128.750086,45.6796787 128.817086,45.7020119 128.861753,45.7466787 Z M139.380753,46.2156787 C139.514753,46.2603456 139.626419,46.327345 139.715753,46.4166787 C139.805086,46.5060125 139.805086,46.6623443 139.715753,46.8856787 L139.045753,48.2256787 C138.822418,48.6723476 138.599087,49.141343 138.375753,49.6326787 C137.929084,50.4813497 137.482422,51.3411744 137.035753,52.2121787 C136.589084,53.0831831 136.120088,53.9206747 135.628753,54.7246787 C135.494752,54.9480132 135.271421,55.2718433 134.958753,55.6961787 C134.646084,56.1205142 134.311088,56.5336767 133.953753,56.9356787 C133.596418,57.3376808 133.216755,57.683844 132.814753,57.9741787 C132.412751,58.2645135 132.055421,58.4096787 131.742753,58.4096787 C131.430084,58.4096787 131.128587,58.2980132 130.838253,58.0746787 C130.547918,57.8513443 130.291087,57.5610139 130.067753,57.2036787 C129.844418,56.8463436 129.688086,56.3773483 129.598753,55.7966787 C129.509419,55.2160092 129.531752,54.6130152 129.665753,53.9876787 L129.665753,49.7666787 C129.621086,49.0073416 129.487087,48.4043476 129.263753,47.9576787 C129.040418,47.5110098 128.54909,47.1760132 127.789753,46.9526787 C127.25375,46.7740112 126.918753,46.4948473 126.784753,46.1151787 C126.650752,45.7355102 126.628419,45.3111811 126.717753,44.8421787 C126.807086,44.3731764 126.996918,43.9041811 127.287253,43.4351787 C127.577587,42.9661764 127.901418,42.5306808 128.258753,42.1286787 C128.43742,41.9500112 128.683084,41.7713463 128.995753,41.5926787 C129.308421,41.4140112 129.643418,41.3246787 130.000753,41.3246787 C130.313421,41.3246787 130.536752,41.369345 130.670753,41.4586787 C130.894087,41.5926794 131.016919,41.8160105 131.039253,42.1286787 C131.061586,42.441347 131.028086,42.7763436 130.938753,43.1336787 C130.849419,43.4910139 130.71542,43.8371771 130.536753,44.1721787 C130.358085,44.5071804 130.201753,44.7863443 130.067753,45.0096787 C129.933752,45.2330132 129.81092,45.4340112 129.699253,45.6126787 C129.587585,45.7913463 129.710418,45.925345 130.067753,46.0146787 C130.559088,46.1486794 130.972251,46.3831771 131.307253,46.7181787 C131.642254,47.0531804 131.910252,47.4440098 132.111253,47.8906787 C132.312254,48.3373476 132.457419,48.8175095 132.546753,49.3311787 C132.636086,49.844848 132.703086,50.3250098 132.747753,50.7716787 C132.837086,51.6650165 132.82592,52.5695075 132.714253,53.4851787 C132.602585,54.40085 132.45742,55.3053409 132.278753,56.1986787 C132.234086,56.2433456 132.234086,56.2880119 132.278753,56.3326787 C132.32342,56.3773456 132.345753,56.444345 132.345753,56.5336787 C132.435086,56.4890119 132.490919,56.4555122 132.513253,56.4331787 C132.535586,56.4108453 132.591419,56.3773456 132.680753,56.3326787 C133.261422,55.841343 133.741584,55.3053483 134.121253,54.7246787 C134.500921,54.1440092 134.869418,53.5410152 135.226753,52.9156787 C135.718088,52.0670078 136.187084,51.2295162 136.633753,50.4031787 C137.080422,49.5768413 137.549417,48.7393497 138.040753,47.8906787 C138.174753,47.6673443 138.308752,47.4328466 138.442753,47.1871787 C138.576753,46.9415108 138.733085,46.7070132 138.911753,46.4836787 C138.95642,46.394345 139.023419,46.3161791 139.112753,46.2491787 C139.202086,46.1821784 139.291419,46.1710119 139.380753,46.2156787 Z M145.879753,43.8036787 C146.05842,43.4910105 146.114253,43.2900125 146.047253,43.2006787 C145.980252,43.111345 145.768088,43.0666787 145.410753,43.0666787 C145.187418,43.1560125 144.964087,43.2230119 144.740753,43.2676787 C144.517418,43.3123456 144.294087,43.379345 144.070753,43.4686787 C143.445416,43.781347 142.853589,44.2056761 142.295253,44.7416787 C141.736917,45.2776814 141.234422,45.8806754 140.787753,46.5506787 C140.341084,47.2206821 139.961421,47.9241751 139.648753,48.6611787 C139.336084,49.3981824 139.112753,50.1016754 138.978753,50.7716787 C138.934086,51.1290139 139.001085,51.3076787 139.179753,51.3076787 C139.805089,51.3076787 140.463916,51.0061818 141.156253,50.4031787 C141.848589,49.8001757 142.507416,49.0966828 143.132753,48.2926787 C143.758089,47.4886747 144.316417,46.6623497 144.807753,45.8136787 C145.299088,44.9650078 145.656418,44.2950145 145.879753,43.8036787 Z M157.336753,46.6176787 C157.560087,46.7070125 157.627086,46.8075115 157.537753,46.9191787 C157.448419,47.030846 157.359086,47.131345 157.269753,47.2206787 C156.912418,47.4886801 156.577421,47.7455108 156.264753,47.9911787 C155.952084,48.2368466 155.639421,48.4936774 155.326753,48.7616787 C154.835417,49.1636808 154.355255,49.5656767 153.886253,49.9676787 C153.41725,50.3696808 152.937088,50.7493436 152.445753,51.1066787 C152.177751,51.3300132 151.909754,51.5421777 151.641753,51.7431787 C151.373751,51.9441797 151.083421,52.089345 150.770753,52.1786787 C150.458084,52.3126794 150.167754,52.3796787 149.899753,52.3796787 C148.961748,52.3796787 148.202422,51.7766848 147.621753,50.5706787 C147.398418,50.2133436 147.253253,49.8113476 147.186253,49.3646787 C147.119252,48.9180098 147.041086,48.4936808 146.951753,48.0916787 L146.951753,47.2876787 C146.549751,47.8683483 146.170088,48.3931764 145.812753,48.8621787 C145.455418,49.3311811 145.098088,49.811343 144.740753,50.3026787 C144.472751,50.615347 144.160088,50.9615102 143.802753,51.3411787 C143.445418,51.7208473 143.065755,52.0670105 142.663753,52.3796787 C142.261751,52.692347 141.837422,52.9491777 141.390753,53.1501787 C140.944084,53.3511797 140.497422,53.4516787 140.050753,53.4516787 C139.559417,53.4516787 139.101588,53.3288466 138.677253,53.0831787 C138.252917,52.8375108 137.862088,52.5136808 137.504753,52.1116787 C136.834749,51.2630078 136.499753,50.4031831 136.499753,49.5321787 C136.499753,48.6611744 136.723084,47.7790165 137.169753,46.8856787 C137.482421,46.3050092 137.862084,45.6908486 138.308753,45.0431787 C138.755422,44.3955088 139.257917,43.7925149 139.816253,43.2341787 C140.374589,42.6758426 140.988749,42.2180139 141.658753,41.8606787 C142.328756,41.5033436 143.021082,41.3246787 143.735753,41.3246787 C144.673757,41.3246787 145.544749,41.6373423 146.348753,42.2626787 C146.482753,42.3966794 146.572086,42.4413456 146.616753,42.3966787 C146.706086,42.3520119 146.840085,42.3296787 147.018753,42.3296787 C147.376088,42.3296787 147.644085,42.4525108 147.822753,42.6981787 C148.00142,42.9438466 148.224751,43.1560112 148.492753,43.3346787 C148.850088,43.5580132 149.039919,43.8483436 149.062253,44.2056787 C149.084586,44.5630139 149.095753,44.9203436 149.095753,45.2776787 L149.095753,49.9676787 C149.095753,50.4143476 149.207418,50.6376787 149.430753,50.6376787 C149.564753,50.6376787 149.765751,50.5706794 150.033753,50.4366787 C150.659089,50.0346767 151.284416,49.6215142 151.909753,49.1971787 C152.535089,48.7728433 153.160416,48.3596808 153.785753,47.9576787 C154.232422,47.6450105 154.667917,47.3435135 155.092253,47.0531787 C155.516588,46.762844 155.929751,46.4836801 156.331753,46.2156787 C156.51042,46.126345 156.622086,46.0816787 156.666753,46.0816787 C156.84542,46.0816787 156.979419,46.1486781 157.068753,46.2826787 C157.158086,46.4166794 157.247419,46.528345 157.336753,46.6176787 Z M176.498753,46.5506787 C176.54342,46.5953456 176.554586,46.662345 176.532253,46.7516787 C176.509919,46.8410125 176.47642,46.9080119 176.431753,46.9526787 C173.930407,48.9180219 171.183434,50.5260058 168.190753,51.7766787 C167.833418,51.8660125 167.610086,51.9106787 167.520753,51.9106787 C166.895416,51.9106787 166.337088,51.5756821 165.845753,50.9056787 C165.354417,50.2803423 165.05292,49.610349 164.941253,48.8956787 C164.829585,48.1810085 164.840752,47.4440159 164.974753,46.6846787 C165.01942,46.4613443 165.041753,46.2268466 165.041753,45.9811787 C165.041753,45.7355108 165.064086,45.5010132 165.108753,45.2776787 C165.064086,45.2776787 165.041753,45.2665122 165.041753,45.2441787 C165.041753,45.2218453 165.01942,45.2106787 164.974753,45.2106787 C164.126082,45.7020145 163.32209,46.3720078 162.562753,47.2206787 C161.803416,48.0693497 161.111089,48.8733416 160.485753,49.6326787 C160.351752,49.8560132 160.128421,50.1463436 159.815753,50.5036787 C159.503084,50.8610139 159.179254,51.2183436 158.844253,51.5756787 C158.509251,51.9330139 158.151921,52.2456774 157.772253,52.5136787 C157.392584,52.7816801 157.068754,52.9156787 156.800753,52.9156787 C156.086082,52.9156787 155.505422,52.6253483 155.058753,52.0446787 C154.433416,51.2406747 154.154252,50.4478493 154.221253,49.6661787 C154.288253,48.8845082 154.433418,48.1140159 154.656753,47.3546787 C154.880087,46.5953416 155.114585,45.8695155 155.360253,45.1771787 C155.605921,44.4848419 155.840418,43.781349 156.063753,43.0666787 C156.197753,42.4860092 156.398751,42.1956787 156.666753,42.1956787 C156.890087,42.1956787 157.135751,42.3520105 157.403753,42.6646787 L158.609753,43.8706787 C158.699086,43.9600125 158.699086,44.0940112 158.609753,44.2726787 C158.520419,44.7193476 158.431086,45.1436767 158.341753,45.5456787 C158.252419,45.9476808 158.163086,46.3720098 158.073753,46.8186787 C158.029086,46.9080125 158.006753,47.1090105 158.006753,47.4216787 C159.838095,45.5903363 161.848075,43.915353 164.036753,42.3966787 C164.21542,42.2180112 164.438751,42.1286787 164.706753,42.1286787 C164.974754,42.1286787 165.287418,42.2626774 165.644753,42.5306787 L166.415253,43.3011787 C166.660921,43.5468466 166.895418,43.8036774 167.118753,44.0716787 C167.476088,44.5183476 167.621253,44.9761764 167.554253,45.4451787 C167.487252,45.9141811 167.453753,46.394343 167.453753,46.8856787 C167.453753,47.6450159 167.386753,48.4043416 167.252753,49.1636787 C167.252753,49.476347 167.319752,49.6326787 167.453753,49.6326787 C167.63242,49.6326787 167.98975,49.5321797 168.525753,49.3311787 C169.061755,49.1301777 169.63125,48.8956801 170.234253,48.6276787 C170.837256,48.3596774 171.417917,48.1028466 171.976253,47.8571787 C172.534589,47.6115108 172.903085,47.4440125 173.081753,47.3546787 L174.287753,46.8186787 C174.689755,46.6400112 175.091751,46.4390132 175.493753,46.2156787 C175.583086,46.1710119 175.694752,46.1486787 175.828753,46.1486787 C176.00742,46.1486787 176.230751,46.2826774 176.498753,46.5506787 Z M193.114753,46.4836787 C193.248753,46.7070132 193.282253,46.8968446 193.215253,47.0531787 C193.148252,47.2095129 193.02542,47.332345 192.846753,47.4216787 C192.668085,47.5556794 192.277256,47.8236767 191.674253,48.2256787 C191.07125,48.6276808 190.412423,49.074343 189.697753,49.5656787 C188.983082,50.0570145 188.257256,50.548343 187.520253,51.0396787 C186.783249,51.5310145 186.169088,51.9106774 185.677753,52.1786787 C185.231084,52.4466801 184.695089,52.725844 184.069753,53.0161787 C183.444416,53.3065135 182.807923,53.5745108 182.160253,53.8201787 C181.512583,54.0658466 180.864923,54.2668446 180.217253,54.4231787 C179.569583,54.5795129 178.977755,54.6576787 178.441753,54.6576787 C177.280414,54.6576787 176.387089,54.400848 175.761753,53.8871787 C175.136416,53.3735095 174.555755,52.6476834 174.019753,51.7096787 C173.349749,50.5930065 173.092919,49.5098507 173.249253,48.4601787 C173.405587,47.4105068 173.908082,46.3943503 174.756753,45.4116787 C175.471423,44.6076747 176.275415,43.848349 177.168753,43.1336787 C178.06209,42.4190085 179.089414,42.0616787 180.250753,42.0616787 C181.635426,42.0616787 182.863747,42.6646727 183.935753,43.8706787 C184.337755,44.3173476 184.293088,44.7416767 183.801753,45.1436787 C183.623085,45.2330125 183.51142,45.2776787 183.466753,45.2776787 C183.288085,45.2776787 183.10942,45.121347 182.930753,44.8086787 C182.752085,44.5406774 182.439422,44.4066787 181.992753,44.4066787 C181.590751,44.4066787 181.166422,44.5295108 180.719753,44.7751787 C180.273084,45.0208466 179.826422,45.3335102 179.379753,45.7131787 C178.933084,46.0928473 178.542254,46.4836767 178.207253,46.8856787 L177.369753,47.8906787 C177.012418,48.3820145 176.710921,48.8845095 176.465253,49.3981787 C176.219585,49.911848 176.119086,50.4813423 176.163753,51.1066787 C176.163753,51.2853463 176.208419,51.5533436 176.297753,51.9106787 C176.34242,52.4020145 176.655083,52.6476787 177.235753,52.6476787 C178.12909,52.6476787 178.988915,52.5471797 179.815253,52.3461787 C180.64159,52.1451777 181.434416,51.8660139 182.193753,51.5086787 C183.757094,50.8386754 185.063581,50.246848 186.113253,49.7331787 C187.162925,49.2195095 188.067416,48.7505142 188.826753,48.3261787 C189.58609,47.9018433 190.222583,47.533347 190.736253,47.2206787 C191.249922,46.9080105 191.730084,46.6400132 192.176753,46.4166787 C192.444754,46.2826781 192.623419,46.2156787 192.712753,46.2156787 C192.846753,46.2156787 192.980752,46.3050112 193.114753,46.4836787 Z M194.253753,47.8236787 C194.209086,47.9130125 194.186753,48.0693443 194.186753,48.2926787 L194.521753,48.2926787 C194.611086,48.2926787 194.756252,48.236846 194.957253,48.1251787 C195.158254,48.0135115 195.392751,47.8795129 195.660753,47.7231787 C195.928754,47.5668446 196.174418,47.4216794 196.397753,47.2876787 C196.621087,47.1536781 196.777419,47.0643456 196.866753,47.0196787 C197.536756,46.6176767 198.039251,46.0928486 198.374253,45.4451787 C198.709254,44.7975088 198.921419,44.0493497 199.010753,43.2006787 L199.010753,43.1336787 C198.966086,43.0890119 198.943753,43.0443456 198.943753,42.9996787 C198.854419,43.0443456 198.78742,43.0666787 198.742753,43.0666787 C198.698086,43.0666787 198.631086,43.0890119 198.541753,43.1336787 C197.648415,43.7590152 196.855589,44.4736747 196.163253,45.2776787 C195.470916,46.0816828 194.834422,46.9303409 194.253753,47.8236787 Z M211.606753,46.1486787 C211.696086,46.2826794 211.751919,46.4613443 211.774253,46.6846787 C211.796586,46.9080132 211.763086,47.064345 211.673753,47.1536787 C211.405751,47.5556808 211.003755,47.9130105 210.467753,48.2256787 C209.261747,48.940349 208.055759,49.6215088 206.849753,50.2691787 C205.643747,50.9168486 204.415426,51.5980085 203.164753,52.3126787 C202.182081,52.8486814 200.998426,53.3735095 199.613753,53.8871787 C198.229079,54.400848 196.956092,54.6576787 195.794753,54.6576787 C194.365412,54.6576787 193.159424,54.2333497 192.176753,53.3846787 C191.194081,52.5360078 190.479422,51.5310179 190.032753,50.3696787 C189.854085,49.878343 189.831752,49.375848 189.965753,48.8621787 C190.099753,48.3485095 190.256085,47.8460145 190.434753,47.3546787 C190.658087,46.863343 191.048917,46.2491824 191.607253,45.5121787 C192.165589,44.7751751 192.790916,44.0716821 193.483253,43.4016787 C194.175589,42.7316754 194.912582,42.1621811 195.694253,41.6931787 C196.475923,41.2241764 197.157083,40.9896787 197.737753,40.9896787 C198.318422,40.9896787 198.832084,41.1460105 199.278753,41.4586787 C199.725422,41.771347 200.127418,42.1286767 200.484753,42.5306787 C200.797421,42.8880139 200.909086,43.2676767 200.819753,43.6696787 C200.730419,44.0716808 200.641086,44.4513436 200.551753,44.8086787 C200.060417,46.2826861 199.222925,47.4328413 198.039253,48.2591787 C196.85558,49.0855162 195.504427,49.4986787 193.985753,49.4986787 C193.673084,49.4986787 193.49442,49.6326774 193.449753,49.9006787 C193.449753,50.213347 193.438586,50.514844 193.416253,50.8051787 C193.393919,51.0955135 193.405086,51.3746774 193.449753,51.6426787 C193.49442,52.0000139 193.606085,52.2345115 193.784753,52.3461787 C193.96342,52.457846 194.231418,52.5136787 194.588753,52.5136787 L195.459753,52.5136787 C196.263757,52.4690119 197.112415,52.3461797 198.005753,52.1451787 C198.89909,51.9441777 199.792415,51.687347 200.685753,51.3746787 C201.57909,51.0620105 202.450082,50.7270139 203.298753,50.3696787 C204.147424,50.0123436 204.906749,49.6326808 205.576753,49.2306787 C206.47009,48.7840098 207.341082,48.2926814 208.189753,47.7566787 C209.038424,47.2206761 209.887082,46.7070145 210.735753,46.2156787 C210.825086,46.1710119 210.925585,46.1151791 211.037253,46.0481787 C211.14892,45.9811784 211.249419,45.9476787 211.338753,45.9476787 C211.472753,45.9476787 211.562086,46.0146781 211.606753,46.1486787 Z M237.334753,57.4716787 C237.468753,57.8290139 237.703251,58.0411784 238.038253,58.1081787 C238.373254,58.1751791 238.697084,58.2086787 239.009753,58.2086787 C239.635089,58.2086787 240.271583,58.0858466 240.919253,57.8401787 C241.566923,57.5945108 242.15875,57.2483476 242.694753,56.8016787 C243.230755,56.3550098 243.666251,55.8078486 244.001253,55.1601787 C244.336254,54.5125088 244.503753,53.7866828 244.503753,52.9826787 C244.414419,52.6253436 244.34742,52.3015135 244.302753,52.0111787 C244.258086,51.720844 244.191086,51.3970139 244.101753,51.0396787 C244.057086,50.7716774 243.94542,50.6376787 243.766753,50.6376787 C243.722086,50.6376787 243.61042,50.682345 243.431753,50.7716787 C242.851083,51.1736808 242.326255,51.5421771 241.857253,51.8771787 C241.38825,52.2121804 240.930422,52.5583436 240.483753,52.9156787 C240.037084,53.2730139 239.590422,53.6526767 239.143753,54.0546787 C238.697084,54.4566808 238.228088,54.903343 237.736753,55.3946787 C237.424084,55.707347 237.256586,56.0423436 237.234253,56.3996787 C237.211919,56.7570139 237.245419,57.1143436 237.334753,57.4716787 Z M233.180753,39.9176787 C232.823418,39.9176787 232.432588,39.7725135 232.008253,39.4821787 C231.583917,39.191844 231.327086,38.9350132 231.237753,38.7116787 C231.059085,38.3543436 231.036752,38.0305135 231.170753,37.7401787 C231.304753,37.449844 231.483418,37.1706801 231.706753,36.9026787 C232.064088,36.5453436 232.421418,36.3666787 232.778753,36.3666787 C233.046754,36.3666787 233.314751,36.4336781 233.582753,36.5676787 C234.431424,36.9250139 234.889252,37.2600105 234.956253,37.5726787 C235.023253,37.885347 234.766422,38.3990085 234.185753,39.1136787 C234.007085,39.2923463 233.82842,39.4486781 233.649753,39.5826787 C233.471085,39.7166794 233.314753,39.828345 233.180753,39.9176787 Z M249.193753,46.2156787 C249.23842,46.2156787 249.271919,46.2045122 249.294253,46.1821787 C249.316586,46.1598453 249.350086,46.1486787 249.394753,46.1486787 C249.484086,46.1486787 249.606919,46.1821784 249.763253,46.2491787 C249.919587,46.3161791 250.064752,46.3720119 250.198753,46.4166787 C250.154086,46.4613456 250.131753,46.5060119 250.131753,46.5506787 C250.131753,46.5953456 250.10942,46.6400119 250.064753,46.6846787 L246.647753,48.8956787 C246.424418,49.0296794 246.212254,49.1525115 246.011253,49.2641787 C245.810252,49.375846 245.68742,49.4986781 245.642753,49.6326787 C245.598086,49.8113463 245.653919,49.9900112 245.810253,50.1686787 C245.966587,50.3473463 246.089419,50.5483443 246.178753,50.7716787 C246.491421,51.3970152 246.759418,52.0446754 246.982753,52.7146787 C247.206087,53.3846821 247.29542,54.0770085 247.250753,54.7916787 C247.206086,55.5956828 246.971588,56.3215088 246.547253,56.9691787 C246.122917,57.6168486 245.598089,58.1640098 244.972753,58.6106787 C244.347416,59.0573476 243.65509,59.3923443 242.895753,59.6156787 C242.136416,59.8390132 241.37709,59.9506787 240.617753,59.9506787 C239.769082,59.9506787 238.93159,59.794347 238.105253,59.4816787 C237.278915,59.1690105 236.508423,58.7000152 235.793753,58.0746787 C234.900415,57.3153416 234.811082,56.377351 235.525753,55.2606787 C236.061755,54.3226741 236.776415,53.5856814 237.669753,53.0496787 C238.384423,52.558343 239.076749,52.0893476 239.746753,51.6426787 C240.416756,51.1960098 241.109082,50.7493476 241.823753,50.3026787 C242.225755,50.0793443 242.605418,49.9006794 242.962753,49.7666787 C243.275421,49.5880112 243.34242,49.342347 243.163753,49.0296787 C242.717084,48.2703416 242.315088,47.4998493 241.957753,46.7181787 C241.600418,45.9365082 241.33242,45.1213497 241.153753,44.2726787 C241.064419,43.9153436 241.008586,43.5356808 240.986253,43.1336787 C240.963919,42.7316767 240.908086,42.3520139 240.818753,41.9946787 C240.818753,41.9500119 240.774086,41.8383463 240.684753,41.6596787 C239.746748,42.7316841 238.83109,43.9153389 237.937753,45.2106787 C237.669751,45.6126808 237.401754,46.0258433 237.133753,46.4501787 C236.865751,46.8745142 236.575421,47.2653436 236.262753,47.6226787 C236.039418,47.9800139 235.737921,48.3373436 235.358253,48.6946787 C234.978584,49.0520139 234.565422,49.2306787 234.118753,49.2306787 C233.672084,49.2306787 233.292421,49.1078466 232.979753,48.8621787 C232.667084,48.6165108 232.399087,48.3150139 232.175753,47.9576787 C231.952418,47.6003436 231.773753,47.2095142 231.639753,46.7851787 C231.505752,46.3608433 231.438753,45.9700139 231.438753,45.6126787 C231.394086,44.8980085 231.382919,44.1945155 231.405253,43.5021787 C231.427586,42.8098419 231.461086,42.106349 231.505753,41.3916787 C231.505753,41.302345 231.595085,41.201846 231.773753,41.0901787 C231.95242,40.9785115 232.086419,40.9226787 232.175753,40.9226787 C232.801089,40.9673456 233.281251,41.2018433 233.616253,41.6261787 C233.951254,42.0505142 234.09642,42.5753423 234.051753,43.2006787 C234.007086,43.6920145 233.96242,44.1610098 233.917753,44.6076787 C233.873086,45.0543476 233.850753,45.5010098 233.850753,45.9476787 C233.806086,46.1710132 233.817252,46.4055108 233.884253,46.6511787 C233.951253,46.8968466 234.029419,47.1983436 234.118753,47.5556787 C234.431421,47.1983436 234.710585,46.8856801 234.956253,46.6176787 C235.201921,46.3496774 235.436418,46.059347 235.659753,45.7466787 C236.463757,44.7193403 237.267749,43.7143503 238.071753,42.7316787 L240.483753,39.7836787 C240.483753,39.7390119 240.528419,39.6720125 240.617753,39.5826787 C240.707086,39.493345 240.785252,39.3816794 240.852253,39.2476787 C240.919253,39.1136781 240.975086,39.0466787 241.019753,39.0466787 C241.19842,39.1360125 241.365919,39.225345 241.522253,39.3146787 C241.678587,39.4040125 241.801419,39.5380112 241.890753,39.7166787 C242.024753,40.1633476 242.147585,40.6100098 242.259253,41.0566787 C242.37092,41.5033476 242.471419,41.9500098 242.560753,42.3966787 C242.650086,42.6200132 242.705919,42.8321777 242.728253,43.0331787 C242.750586,43.2341797 242.806419,43.4463443 242.895753,43.6696787 C242.94042,43.8483463 243.040919,44.2056761 243.197253,44.7416787 C243.353587,45.2776814 243.532252,45.8248426 243.733253,46.3831787 C243.934254,46.9415149 244.157585,47.4328433 244.403253,47.8571787 C244.648921,48.2815142 244.861085,48.4936787 245.039753,48.4936787 C245.21842,48.4936787 245.397085,48.4043463 245.575753,48.2256787 C246.201089,47.8683436 246.804083,47.5221804 247.384753,47.1871787 C247.965422,46.8521771 248.568416,46.528347 249.193753,46.2156787 Z M277.802753,43.8036787 C277.98142,43.4910105 278.037253,43.2900125 277.970253,43.2006787 C277.903252,43.111345 277.691088,43.0666787 277.333753,43.0666787 C277.110418,43.1560125 276.887087,43.2230119 276.663753,43.2676787 C276.440418,43.3123456 276.217087,43.379345 275.993753,43.4686787 C275.368416,43.781347 274.776589,44.2056761 274.218253,44.7416787 C273.659917,45.2776814 273.157422,45.8806754 272.710753,46.5506787 C272.264084,47.2206821 271.884421,47.9241751 271.571753,48.6611787 C271.259084,49.3981824 271.035753,50.1016754 270.901753,50.7716787 C270.857086,51.1290139 270.924085,51.3076787 271.102753,51.3076787 C271.728089,51.3076787 272.386916,51.0061818 273.079253,50.4031787 C273.771589,49.8001757 274.430416,49.0966828 275.055753,48.2926787 C275.681089,47.4886747 276.239417,46.6623497 276.730753,45.8136787 C277.222088,44.9650078 277.579418,44.2950145 277.802753,43.8036787 Z M289.259753,46.6176787 C289.483087,46.7070125 289.550086,46.8075115 289.460753,46.9191787 C289.371419,47.030846 289.282086,47.131345 289.192753,47.2206787 C288.835418,47.4886801 288.500421,47.7455108 288.187753,47.9911787 C287.875084,48.2368466 287.562421,48.4936774 287.249753,48.7616787 C286.758417,49.1636808 286.278255,49.5656767 285.809253,49.9676787 C285.34025,50.3696808 284.860088,50.7493436 284.368753,51.1066787 C284.100751,51.3300132 283.832754,51.5421777 283.564753,51.7431787 C283.296751,51.9441797 283.006421,52.089345 282.693753,52.1786787 C282.381084,52.3126794 282.090754,52.3796787 281.822753,52.3796787 C280.884748,52.3796787 280.125422,51.7766848 279.544753,50.5706787 C279.321418,50.2133436 279.176253,49.8113476 279.109253,49.3646787 C279.042252,48.9180098 278.964086,48.4936808 278.874753,48.0916787 L278.874753,47.2876787 C278.472751,47.8683483 278.093088,48.3931764 277.735753,48.8621787 C277.378418,49.3311811 277.021088,49.811343 276.663753,50.3026787 C276.395751,50.615347 276.083088,50.9615102 275.725753,51.3411787 C275.368418,51.7208473 274.988755,52.0670105 274.586753,52.3796787 C274.184751,52.692347 273.760422,52.9491777 273.313753,53.1501787 C272.867084,53.3511797 272.420422,53.4516787 271.973753,53.4516787 C271.482417,53.4516787 271.024588,53.3288466 270.600253,53.0831787 C270.175917,52.8375108 269.785088,52.5136808 269.427753,52.1116787 C268.757749,51.2630078 268.422753,50.4031831 268.422753,49.5321787 C268.422753,48.6611744 268.646084,47.7790165 269.092753,46.8856787 C269.405421,46.3050092 269.785084,45.6908486 270.231753,45.0431787 C270.678422,44.3955088 271.180917,43.7925149 271.739253,43.2341787 C272.297589,42.6758426 272.911749,42.2180139 273.581753,41.8606787 C274.251756,41.5033436 274.944082,41.3246787 275.658753,41.3246787 C276.596757,41.3246787 277.467749,41.6373423 278.271753,42.2626787 C278.405753,42.3966794 278.495086,42.4413456 278.539753,42.3966787 C278.629086,42.3520119 278.763085,42.3296787 278.941753,42.3296787 C279.299088,42.3296787 279.567085,42.4525108 279.745753,42.6981787 C279.92442,42.9438466 280.147751,43.1560112 280.415753,43.3346787 C280.773088,43.5580132 280.962919,43.8483436 280.985253,44.2056787 C281.007586,44.5630139 281.018753,44.9203436 281.018753,45.2776787 L281.018753,49.9676787 C281.018753,50.4143476 281.130418,50.6376787 281.353753,50.6376787 C281.487753,50.6376787 281.688751,50.5706794 281.956753,50.4366787 C282.582089,50.0346767 283.207416,49.6215142 283.832753,49.1971787 C284.458089,48.7728433 285.083416,48.3596808 285.708753,47.9576787 C286.155422,47.6450105 286.590917,47.3435135 287.015253,47.0531787 C287.439588,46.762844 287.852751,46.4836801 288.254753,46.2156787 C288.43342,46.126345 288.545086,46.0816787 288.589753,46.0816787 C288.76842,46.0816787 288.902419,46.1486781 288.991753,46.2826787 C289.081086,46.4166794 289.170419,46.528345 289.259753,46.6176787 Z M298.907753,46.2156787 C299.041753,46.2603456 299.153419,46.327345 299.242753,46.4166787 C299.332086,46.5060125 299.332086,46.6623443 299.242753,46.8856787 L298.572753,48.2256787 C298.349418,48.6723476 298.126087,49.141343 297.902753,49.6326787 C297.456084,50.4813497 297.009422,51.3411744 296.562753,52.2121787 C296.116084,53.0831831 295.647088,53.9206747 295.155753,54.7246787 C295.021752,54.9480132 294.798421,55.2718433 294.485753,55.6961787 C294.173084,56.1205142 293.838088,56.5336767 293.480753,56.9356787 C293.123418,57.3376808 292.743755,57.683844 292.341753,57.9741787 C291.939751,58.2645135 291.582421,58.4096787 291.269753,58.4096787 C290.957084,58.4096787 290.655587,58.2980132 290.365253,58.0746787 C290.074918,57.8513443 289.818087,57.5610139 289.594753,57.2036787 C289.371418,56.8463436 289.215086,56.3773483 289.125753,55.7966787 C289.036419,55.2160092 289.058752,54.6130152 289.192753,53.9876787 L289.192753,49.7666787 C289.148086,49.0073416 289.014087,48.4043476 288.790753,47.9576787 C288.567418,47.5110098 288.07609,47.1760132 287.316753,46.9526787 C286.78075,46.7740112 286.445753,46.4948473 286.311753,46.1151787 C286.177752,45.7355102 286.155419,45.3111811 286.244753,44.8421787 C286.334086,44.3731764 286.523918,43.9041811 286.814253,43.4351787 C287.104587,42.9661764 287.428418,42.5306808 287.785753,42.1286787 C287.96442,41.9500112 288.210084,41.7713463 288.522753,41.5926787 C288.835421,41.4140112 289.170418,41.3246787 289.527753,41.3246787 C289.840421,41.3246787 290.063752,41.369345 290.197753,41.4586787 C290.421087,41.5926794 290.543919,41.8160105 290.566253,42.1286787 C290.588586,42.441347 290.555086,42.7763436 290.465753,43.1336787 C290.376419,43.4910139 290.24242,43.8371771 290.063753,44.1721787 C289.885085,44.5071804 289.728753,44.7863443 289.594753,45.0096787 C289.460752,45.2330132 289.33792,45.4340112 289.226253,45.6126787 C289.114585,45.7913463 289.237418,45.925345 289.594753,46.0146787 C290.086088,46.1486794 290.499251,46.3831771 290.834253,46.7181787 C291.169254,47.0531804 291.437252,47.4440098 291.638253,47.8906787 C291.839254,48.3373476 291.984419,48.8175095 292.073753,49.3311787 C292.163086,49.844848 292.230086,50.3250098 292.274753,50.7716787 C292.364086,51.6650165 292.35292,52.5695075 292.241253,53.4851787 C292.129585,54.40085 291.98442,55.3053409 291.805753,56.1986787 C291.761086,56.2433456 291.761086,56.2880119 291.805753,56.3326787 C291.85042,56.3773456 291.872753,56.444345 291.872753,56.5336787 C291.962086,56.4890119 292.017919,56.4555122 292.040253,56.4331787 C292.062586,56.4108453 292.118419,56.3773456 292.207753,56.3326787 C292.788422,55.841343 293.268584,55.3053483 293.648253,54.7246787 C294.027921,54.1440092 294.396418,53.5410152 294.753753,52.9156787 C295.245088,52.0670078 295.714084,51.2295162 296.160753,50.4031787 C296.607422,49.5768413 297.076417,48.7393497 297.567753,47.8906787 C297.701753,47.6673443 297.835752,47.4328466 297.969753,47.1871787 C298.103753,46.9415108 298.260085,46.7070132 298.438753,46.4836787 C298.48342,46.394345 298.550419,46.3161791 298.639753,46.2491787 C298.729086,46.1821784 298.818419,46.1710119 298.907753,46.2156787 Z M299.644753,52.5806787 C300.716758,52.2233436 301.677082,51.5310172 302.525753,50.5036787 C303.374424,49.4763403 303.754086,48.3596848 303.664753,47.1536787 C303.664753,47.0196781 303.631253,46.8186801 303.564253,46.5506787 C303.497252,46.2826774 303.419086,46.0258466 303.329753,45.7801787 C303.240419,45.5345108 303.128753,45.3111797 302.994753,45.1101787 C302.860752,44.9091777 302.682087,44.8086787 302.458753,44.8086787 C302.280085,44.8086787 302.10142,44.8980112 301.922753,45.0766787 C300.761414,45.8806828 299.979755,46.8968393 299.577753,48.1251787 C299.175751,49.3535182 298.930086,50.637672 298.840753,51.9776787 C298.796086,52.4690145 298.885418,52.7146787 299.108753,52.7146787 C299.198086,52.7146787 299.276252,52.7035122 299.343253,52.6811787 L299.644753,52.5806787 Z M316.461753,46.1486787 C316.551086,46.2380125 316.57342,46.3496781 316.528753,46.4836787 L316.394753,46.6176787 C315.590749,46.930347 314.831423,47.1536781 314.116753,47.2876787 C313.402082,47.4216794 312.59809,47.533345 311.704753,47.6226787 C310.811415,47.5780119 309.929257,47.5221791 309.058253,47.4551787 C308.187248,47.3881784 307.30509,47.1536808 306.411753,46.7516787 C306.322419,46.7070119 306.18842,46.6846787 306.009753,46.6846787 C306.009753,46.7740125 305.998586,46.8410119 305.976253,46.8856787 C305.953919,46.9303456 305.942753,46.9750119 305.942753,47.0196787 C306.300088,48.0470172 306.333587,48.9850078 306.043253,49.8336787 C305.752918,50.6823497 305.295089,51.4863416 304.669753,52.2456787 C304.089083,52.960349 303.396757,53.5745095 302.592753,54.0881787 C301.788749,54.601848 300.917757,54.8586787 299.979753,54.8586787 C299.265082,54.8586787 298.662088,54.6800139 298.170753,54.3226787 C297.679417,53.9653436 297.188088,53.5410145 296.696753,53.0496787 C296.339418,52.6030098 296.127253,52.1340145 296.060253,51.6426787 C295.993252,51.151343 296.004419,50.6600145 296.093753,50.1686787 C296.183086,49.5880092 296.350585,48.9068493 296.596253,48.1251787 C296.841921,47.3435082 297.165751,46.595349 297.567753,45.8806787 C297.969755,45.1660085 298.461083,44.5630145 299.041753,44.0716787 C299.622422,43.580343 300.270082,43.3346787 300.984753,43.3346787 C301.16342,43.3346787 301.453751,43.4016781 301.855753,43.5356787 C302.257755,43.6696794 302.670917,43.8260112 303.095253,44.0046787 C303.519588,44.1833463 303.921584,44.3731777 304.301253,44.5741787 C304.680921,44.7751797 304.960085,44.920345 305.138753,45.0096787 C306.434092,45.7690159 307.662414,46.2715108 308.823753,46.5171787 C309.985092,46.7628466 311.034748,46.8856787 311.972753,46.8856787 C313.268092,46.8856787 314.317749,46.7516801 315.121753,46.4836787 C315.925757,46.2156774 316.372419,46.1040119 316.461753,46.1486787 Z M331.670753,46.2156787 C331.804753,46.2603456 331.871753,46.3720112 331.871753,46.5506787 C331.827086,46.6400125 331.793586,46.7181784 331.771253,46.7851787 C331.748919,46.8521791 331.71542,46.930345 331.670753,47.0196787 L328.454753,49.9676787 C327.963417,50.4143476 327.382756,50.6376787 326.712753,50.6376787 C325.819415,50.6376787 325.026589,50.3473483 324.334253,49.7666787 C323.641916,49.1860092 323.20642,48.4713497 323.027753,47.6226787 C322.983086,47.533345 322.960753,47.432846 322.960753,47.3211787 C322.960753,47.2095115 322.916086,47.0643463 322.826753,46.8856787 C322.424751,47.5110152 322.045088,48.1251757 321.687753,48.7281787 C321.330418,49.3311818 320.928422,49.878343 320.481753,50.3696787 C319.767082,51.2183497 318.940757,52.0000085 318.002753,52.7146787 C317.645418,52.9380132 317.243422,53.0496787 316.796753,53.0496787 C316.439418,53.0496787 315.992755,52.9380132 315.456753,52.7146787 C314.608082,52.2680098 314.016254,51.7096821 313.681253,51.0396787 C313.346251,50.3696754 313.223419,49.5880165 313.312753,48.6946787 C313.402086,47.7120072 313.502585,46.7293503 313.614253,45.7466787 C313.72592,44.7640072 313.848752,43.7813503 313.982753,42.7986787 C314.072086,42.2180092 314.38475,41.9276787 314.920753,41.9276787 C315.054753,41.9276787 315.166419,41.9500119 315.255753,41.9946787 C315.881089,42.2180132 316.283085,42.4413443 316.461753,42.6646787 C316.64042,42.8880132 316.685086,43.3123423 316.595753,43.9376787 C316.551086,44.6076821 316.495253,45.2776754 316.428253,45.9476787 C316.361252,46.6176821 316.30542,47.2653423 316.260753,47.8906787 C316.260753,48.2926808 316.271919,48.6946767 316.294253,49.0966787 C316.316586,49.4986808 316.350086,49.9006767 316.394753,50.3026787 C316.394753,50.5260132 316.461752,50.6376787 316.595753,50.6376787 C316.729753,50.6376787 316.819086,50.5930125 316.863753,50.5036787 L318.471753,48.8956787 C319.007755,48.3596761 319.521417,47.8013483 320.012753,47.2206787 C320.414755,46.7740098 320.772084,46.3050145 321.084753,45.8136787 C321.397421,45.322343 321.732418,44.8310145 322.089753,44.3396787 C322.179086,44.1610112 322.290752,44.0716787 322.424753,44.0716787 C322.871422,44.0716787 323.273418,44.1833443 323.630753,44.4066787 C323.988088,44.6300132 324.211419,44.987343 324.300753,45.4786787 L324.568753,47.0866787 C324.658086,47.6226814 324.769752,48.1586761 324.903753,48.6946787 C325.127087,49.4540159 325.529083,49.8336787 326.109753,49.8336787 C326.28842,49.8336787 326.556418,49.7443463 326.913753,49.5656787 C327.271088,49.3870112 327.583751,49.1748466 327.851753,48.9291787 C328.119754,48.6835108 328.387751,48.4490132 328.655753,48.2256787 C329.057755,47.9130105 329.448584,47.5891804 329.828253,47.2541787 C330.207921,46.9191771 330.598751,46.6176801 331.000753,46.3496787 L331.335753,46.1486787 C331.425086,46.1486787 331.480919,46.1598453 331.503253,46.1821787 C331.525586,46.2045122 331.581419,46.2156787 331.670753,46.2156787 Z M350.765753,46.5506787 C350.81042,46.5953456 350.821586,46.662345 350.799253,46.7516787 C350.776919,46.8410125 350.74342,46.9080119 350.698753,46.9526787 C348.197407,48.9180219 345.450434,50.5260058 342.457753,51.7766787 C342.100418,51.8660125 341.877086,51.9106787 341.787753,51.9106787 C341.162416,51.9106787 340.604088,51.5756821 340.112753,50.9056787 C339.621417,50.2803423 339.31992,49.610349 339.208253,48.8956787 C339.096585,48.1810085 339.107752,47.4440159 339.241753,46.6846787 C339.28642,46.4613443 339.308753,46.2268466 339.308753,45.9811787 C339.308753,45.7355108 339.331086,45.5010132 339.375753,45.2776787 C339.331086,45.2776787 339.308753,45.2665122 339.308753,45.2441787 C339.308753,45.2218453 339.28642,45.2106787 339.241753,45.2106787 C338.393082,45.7020145 337.58909,46.3720078 336.829753,47.2206787 C336.070416,48.0693497 335.378089,48.8733416 334.752753,49.6326787 C334.618752,49.8560132 334.395421,50.1463436 334.082753,50.5036787 C333.770084,50.8610139 333.446254,51.2183436 333.111253,51.5756787 C332.776251,51.9330139 332.418921,52.2456774 332.039253,52.5136787 C331.659584,52.7816801 331.335754,52.9156787 331.067753,52.9156787 C330.353082,52.9156787 329.772422,52.6253483 329.325753,52.0446787 C328.700416,51.2406747 328.421252,50.4478493 328.488253,49.6661787 C328.555253,48.8845082 328.700418,48.1140159 328.923753,47.3546787 C329.147087,46.5953416 329.381585,45.8695155 329.627253,45.1771787 C329.872921,44.4848419 330.107418,43.781349 330.330753,43.0666787 C330.464753,42.4860092 330.665751,42.1956787 330.933753,42.1956787 C331.157087,42.1956787 331.402751,42.3520105 331.670753,42.6646787 L332.876753,43.8706787 C332.966086,43.9600125 332.966086,44.0940112 332.876753,44.2726787 C332.787419,44.7193476 332.698086,45.1436767 332.608753,45.5456787 C332.519419,45.9476808 332.430086,46.3720098 332.340753,46.8186787 C332.296086,46.9080125 332.273753,47.1090105 332.273753,47.4216787 C334.105095,45.5903363 336.115075,43.915353 338.303753,42.3966787 C338.48242,42.2180112 338.705751,42.1286787 338.973753,42.1286787 C339.241754,42.1286787 339.554418,42.2626774 339.911753,42.5306787 L340.682253,43.3011787 C340.927921,43.5468466 341.162418,43.8036774 341.385753,44.0716787 C341.743088,44.5183476 341.888253,44.9761764 341.821253,45.4451787 C341.754252,45.9141811 341.720753,46.394343 341.720753,46.8856787 C341.720753,47.6450159 341.653753,48.4043416 341.519753,49.1636787 C341.519753,49.476347 341.586752,49.6326787 341.720753,49.6326787 C341.89942,49.6326787 342.25675,49.5321797 342.792753,49.3311787 C343.328755,49.1301777 343.89825,48.8956801 344.501253,48.6276787 C345.104256,48.3596774 345.684917,48.1028466 346.243253,47.8571787 C346.801589,47.6115108 347.170085,47.4440125 347.348753,47.3546787 L348.554753,46.8186787 C348.956755,46.6400112 349.358751,46.4390132 349.760753,46.2156787 C349.850086,46.1710119 349.961752,46.1486787 350.095753,46.1486787 C350.27442,46.1486787 350.497751,46.2826774 350.765753,46.5506787 Z M357.599753,44.5406787 C357.77842,44.1386767 357.711421,43.8930125 357.398753,43.8036787 C357.220085,43.7590119 357.04142,43.7031791 356.862753,43.6361787 C356.684085,43.5691784 356.527753,43.5356787 356.393753,43.5356787 C356.259752,43.5356787 356.069921,43.6026781 355.824253,43.7366787 C355.578585,43.8706794 355.321754,44.0381777 355.053753,44.2391787 C354.785751,44.4401797 354.528921,44.6300112 354.283253,44.8086787 C354.037585,44.9873463 353.870086,45.121345 353.780753,45.2106787 C352.842748,46.1933503 352.116922,47.2988393 351.603253,48.5271787 C351.089583,49.7555182 350.721087,51.039672 350.497753,52.3796787 C350.54242,53.094349 350.654085,53.4516787 350.832753,53.4516787 C351.01142,53.4516787 351.234751,53.3400132 351.502753,53.1166787 C353.021427,52.0446734 354.238581,50.7716861 355.154253,49.2976787 C356.069924,47.8236714 356.885082,46.2380206 357.599753,44.5406787 Z M366.309753,23.3686787 C366.399086,23.4580125 366.588918,23.6366774 366.879253,23.9046787 C367.169587,24.1726801 367.314753,24.4853436 367.314753,24.8426787 C367.314753,25.0660132 367.270086,25.4010098 367.180753,25.8476787 C366.689417,27.5896875 366.242755,29.2758373 365.840753,30.9061787 C365.438751,32.5365202 365.092587,34.1668373 364.802253,35.7971787 C364.511918,37.4275202 364.266254,39.0913369 364.065253,40.7886787 C363.864252,42.4860206 363.74142,44.2726694 363.696753,46.1486787 C363.607419,47.265351 363.573919,48.3596734 363.596253,49.4316787 C363.618586,50.5036841 363.674419,51.5980065 363.763753,52.7146787 C363.853086,53.5186828 363.964752,54.3226747 364.098753,55.1266787 L364.500753,57.5386787 C364.500753,57.5833456 364.489586,57.650345 364.467253,57.7396787 C364.444919,57.8290125 364.389086,57.8960119 364.299753,57.9406787 C364.031751,58.0300125 363.830753,58.0746787 363.696753,58.0746787 C363.473418,58.0746787 363.250087,57.9853463 363.026753,57.8066787 C362.535417,57.5386774 362.189254,57.1925142 361.988253,56.7681787 C361.787252,56.3438433 361.642086,55.8860145 361.552753,55.3946787 C360.972083,52.4019971 360.570087,49.342361 360.346753,46.2156787 C360.168085,46.3496794 359.978254,46.662343 359.777253,47.1536787 C359.576252,47.6450145 359.431086,47.9800112 359.341753,48.1586787 C359.029084,48.8286821 358.604755,49.6103409 358.068753,50.5036787 C357.53275,51.3970165 356.907423,52.2456747 356.192753,53.0496787 C355.478082,53.8536828 354.70759,54.5460092 353.881253,55.1266787 C353.054915,55.7073483 352.217424,55.9976787 351.368753,55.9976787 C350.966751,55.9976787 350.587088,55.9083463 350.229753,55.7296787 C349.336415,55.3723436 348.644088,54.8810152 348.152753,54.2556787 C347.661417,53.6303423 347.438086,52.8486834 347.482753,51.9106787 C347.482753,50.9280072 347.683751,49.8671844 348.085753,48.7281787 C348.487755,47.589173 349.023749,46.5171838 349.693753,45.5121787 C350.363756,44.5071737 351.167748,43.6696821 352.105753,42.9996787 C353.043757,42.3296754 354.07108,41.9946787 355.187753,41.9946787 C356.036424,41.9946787 356.885082,42.2850092 357.733753,42.8656787 C357.823086,42.9550125 357.934752,42.9996787 358.068753,42.9996787 C358.158086,42.9996787 358.269752,42.9103463 358.403753,42.7316787 C358.44842,42.642345 358.504252,42.541846 358.571253,42.4301787 C358.638253,42.3185115 358.694086,42.2180125 358.738753,42.1286787 C359.721424,39.3593316 360.570082,36.712858 361.284753,34.1891787 C361.999423,31.6654995 362.714082,28.9966928 363.428753,26.1826787 L363.830753,24.7086787 C363.964753,24.217343 364.121085,23.7260145 364.299753,23.2346787 C364.433753,22.8326767 364.612418,22.6316787 364.835753,22.6316787 C365.059087,22.6316787 365.260085,22.6986781 365.438753,22.8326787 C365.572753,22.9220125 365.717919,23.011345 365.874253,23.1006787 C366.030587,23.1900125 366.175752,23.279345 366.309753,23.3686787 Z M121.994253,88.7466787 C122.083586,88.8360125 122.083586,89.0370105 121.994253,89.3496787 C121.770918,89.8410145 121.413588,90.4775082 120.922253,91.2591787 C120.430917,92.0408493 119.872589,92.7890085 119.247253,93.5036787 C118.621916,94.218349 117.974256,94.8325095 117.304253,95.3461787 C116.634249,95.859848 115.986589,96.1166787 115.361253,96.1166787 C114.601916,96.1166787 113.84259,95.8040152 113.083253,95.1786787 C112.54725,94.7766767 112.122921,94.2853483 111.810253,93.7046787 C111.497584,93.1240092 111.25192,92.5098486 111.073253,91.8621787 C110.894585,91.2145088 110.771753,90.5445155 110.704753,89.8521787 C110.637752,89.1598419 110.58192,88.5010152 110.537253,87.8756787 C110.537253,86.3570045 110.615419,84.8160199 110.771753,83.2526787 C110.928087,81.6893376 111.117918,80.1706861 111.341253,78.6966787 C111.38592,78.4286774 111.296587,78.2946787 111.073253,78.2946787 L110.872253,78.2946787 C109.978915,78.2946787 108.985091,78.2165129 107.890753,78.0601787 C106.796414,77.9038446 106.025922,77.3790165 105.579253,76.4856787 C105.534586,76.396345 105.534586,76.3181791 105.579253,76.2511787 C105.62392,76.1841784 105.690919,76.1506787 105.780253,76.1506787 C105.82492,76.1060119 105.914252,76.0836787 106.048253,76.0836787 C106.137586,76.0836787 106.204586,76.1060119 106.249253,76.1506787 C106.606588,76.3740132 106.963918,76.5080119 107.321253,76.5526787 C107.678588,76.5973456 108.035918,76.6196787 108.393253,76.6196787 C108.616587,76.6196787 108.918084,76.6085122 109.297753,76.5861787 C109.677421,76.5638453 110.057084,76.5191791 110.436753,76.4521787 C110.816421,76.3851784 111.162584,76.2846794 111.475253,76.1506787 C111.787921,76.0166781 111.966586,75.8156801 112.011253,75.5476787 C112.100586,75.0116761 112.201085,74.4645149 112.312753,73.9061787 C112.42442,73.3478426 112.569585,72.8006814 112.748253,72.2646787 C112.79292,72.0860112 112.882252,71.8961797 113.016253,71.6951787 C113.150253,71.4941777 113.261919,71.3936787 113.351253,71.3936787 C113.797922,71.3936787 114.28925,71.5500105 114.825253,71.8626787 C115.093254,72.0860132 115.249586,72.3205108 115.294253,72.5661787 C115.33892,72.8118466 115.316586,73.2696754 115.227253,73.9396787 C115.227253,74.1630132 115.238419,74.3863443 115.260753,74.6096787 C115.283086,74.8330132 115.316586,75.0563443 115.361253,75.2796787 L115.562253,75.2796787 C115.60692,75.3243456 115.696252,75.3466787 115.830253,75.3466787 C116.366255,75.257345 116.891083,75.1791791 117.404753,75.1121787 C117.918422,75.0451784 118.420917,74.9670125 118.912253,74.8776787 C119.001586,74.8776787 119.068586,74.8665122 119.113253,74.8441787 C119.15792,74.8218453 119.224919,74.8106787 119.314253,74.8106787 C119.939589,74.8106787 120.497917,75.056343 120.989253,75.5476787 C121.257254,75.8156801 121.212588,76.0166781 120.855253,76.1506787 C120.765919,76.1953456 120.63192,76.2176787 120.453253,76.2176787 C119.649249,76.3963463 118.856423,76.5638446 118.074753,76.7201787 C117.293082,76.8765129 116.500257,77.0440112 115.696253,77.2226787 L115.227253,77.4571787 C115.093252,77.5241791 115.026253,77.6916774 115.026253,77.9596787 C114.981586,78.7636828 114.914586,79.5788413 114.825253,80.4051787 C114.735919,81.2315162 114.66892,82.0466747 114.624253,82.8506787 C114.534919,83.9226841 114.479086,84.9946734 114.456753,86.0666787 C114.434419,87.1386841 114.40092,88.2106734 114.356253,89.2826787 C114.311586,89.7740145 114.300419,90.2430098 114.322753,90.6896787 C114.345086,91.1363476 114.378586,91.605343 114.423253,92.0966787 C114.512586,92.4986808 114.601919,92.8783436 114.691253,93.2356787 L114.959253,94.3076787 C115.00392,94.5310132 115.115585,94.6426787 115.294253,94.6426787 C115.33892,94.6426787 115.450585,94.5980125 115.629253,94.5086787 C116.38859,94.1066767 117.092083,93.6153483 117.739753,93.0346787 C118.387423,92.4540092 118.968083,91.8845149 119.481753,91.3261787 C119.995422,90.7678426 120.419751,90.2541811 120.754753,89.7851787 C121.089754,89.3161764 121.324252,89.0146794 121.458253,88.8806787 C121.592253,88.7466781 121.703919,88.6796787 121.793253,88.6796787 C121.882586,88.6796787 121.949586,88.7020119 121.994253,88.7466787 Z M140.620253,89.2156787 C140.977588,89.4836801 141.022254,89.7963436 140.754253,90.1536787 C139.726914,91.6276861 138.565592,92.934173 137.270253,94.0731787 C135.974913,95.2121844 134.545594,96.2283409 132.982253,97.1216787 C132.535584,97.3896801 132.088922,97.5236787 131.642253,97.5236787 C131.10625,97.5236787 130.637255,97.3450139 130.235253,96.9876787 C129.833251,96.6303436 129.498254,96.2060145 129.230253,95.7146787 C129.006918,95.3573436 128.861753,94.9441811 128.794753,94.4751787 C128.727752,94.0061764 128.649586,93.5483476 128.560253,93.1016787 C128.426252,92.2083409 128.30342,91.3373497 128.191753,90.4886787 C128.080085,89.6400078 127.93492,88.7690165 127.756253,87.8756787 C127.756253,87.6970112 127.689253,87.6076787 127.555253,87.6076787 C127.465919,87.6076787 127.33192,87.652345 127.153253,87.7416787 C126.661917,88.2330145 126.170588,88.7131764 125.679253,89.1821787 C125.187917,89.6511811 124.718922,90.131343 124.272253,90.6226787 C124.004251,90.935347 123.758587,91.2591771 123.535253,91.5941787 C123.311918,91.9291804 123.088587,92.2530105 122.865253,92.5656787 C122.463251,93.0570145 122.228753,93.5818426 122.161753,94.1401787 C122.094752,94.6985149 122.083586,95.2680092 122.128253,95.8486787 L122.128253,96.5186787 C122.128253,96.7420132 122.016587,96.898345 121.793253,96.9876787 C121.748586,97.0323456 121.659253,97.0546787 121.525253,97.0546787 C121.391252,97.0546787 121.26842,97.0323456 121.156753,96.9876787 C121.045085,96.9430119 120.922253,96.8760125 120.788253,96.7866787 C120.386251,96.5633443 120.174086,96.3065135 120.151753,96.0161787 C120.129419,95.725844 120.073586,95.424347 119.984253,95.1116787 C119.760918,93.8610058 119.693919,92.6326848 119.783253,91.4266787 C119.872586,90.2206727 119.89492,88.9923517 119.850253,87.7416787 C119.760919,86.3123383 119.760919,84.9053523 119.850253,83.5206787 C119.984253,80.4386633 120.296917,77.3790273 120.788253,74.3416787 C121.279588,71.3043302 121.882582,68.2893604 122.597253,65.2966787 C122.731253,64.8946767 122.887585,64.6936787 123.066253,64.6936787 C123.155586,64.6936787 123.390084,64.8053443 123.769753,65.0286787 C124.149421,65.2520132 124.383919,65.408345 124.473253,65.4976787 C124.919922,65.8550139 125.08742,66.2681764 124.975753,66.7371787 C124.864085,67.2061811 124.763586,67.6416767 124.674253,68.0436787 C124.182917,70.4556908 123.780921,72.8676667 123.468253,75.2796787 C123.155584,77.6916908 122.90992,80.1259998 122.731253,82.5826787 L122.329253,87.4066787 C122.329253,87.4960125 122.373919,87.6746774 122.463253,87.9426787 C122.552586,87.8980119 122.619586,87.8533456 122.664253,87.8086787 C122.70892,87.7640119 122.775919,87.7193456 122.865253,87.6746787 C123.267255,87.3173436 123.658084,86.9711804 124.037753,86.6361787 C124.417421,86.3011771 124.808251,85.977347 125.210253,85.6646787 C125.433587,85.4860112 125.656918,85.3743456 125.880253,85.3296787 C126.103587,85.2850119 126.326918,85.2626787 126.550253,85.2626787 C127.354257,85.2626787 128.158249,85.5641757 128.962253,86.1671787 C129.766257,86.7701818 130.257585,87.4736747 130.436253,88.2776787 C130.48092,88.5456801 130.547919,88.9923423 130.637253,89.6176787 C130.726586,90.2430152 130.804752,90.9018419 130.871753,91.5941787 C130.938753,92.2865155 131.005752,92.9676754 131.072753,93.6376787 C131.139753,94.3076821 131.173253,94.7990105 131.173253,95.1116787 C131.262586,95.4690139 131.351919,95.6476787 131.441253,95.6476787 C131.575253,95.6476787 131.731585,95.5806794 131.910253,95.4466787 C133.339593,94.6873416 134.724246,93.7716841 136.064253,92.6996787 C137.404259,91.6276734 138.610247,90.4886848 139.682253,89.2826787 C139.816253,89.1040112 139.972585,89.0146787 140.151253,89.0146787 C140.32992,89.0146787 140.486252,89.0816781 140.620253,89.2156787 Z M144.908253,100.471679 C145.042253,100.829014 145.276751,101.041178 145.611753,101.108179 C145.946754,101.175179 146.270584,101.208679 146.583253,101.208679 C147.208589,101.208679 147.845083,101.085847 148.492753,100.840179 C149.140423,100.594511 149.73225,100.248348 150.268253,99.8016787 C150.804255,99.3550098 151.239751,98.8078486 151.574753,98.1601787 C151.909754,97.5125088 152.077253,96.7866828 152.077253,95.9826787 C151.987919,95.6253436 151.92092,95.3015135 151.876253,95.0111787 C151.831586,94.720844 151.764586,94.3970139 151.675253,94.0396787 C151.630586,93.7716774 151.51892,93.6376787 151.340253,93.6376787 C151.295586,93.6376787 151.18392,93.682345 151.005253,93.7716787 C150.424583,94.1736808 149.899755,94.5421771 149.430753,94.8771787 C148.96175,95.2121804 148.503922,95.5583436 148.057253,95.9156787 C147.610584,96.2730139 147.163922,96.6526767 146.717253,97.0546787 C146.270584,97.4566808 145.801588,97.903343 145.310253,98.3946787 C144.997584,98.707347 144.830086,99.0423436 144.807753,99.3996787 C144.785419,99.7570139 144.818919,100.114344 144.908253,100.471679 Z M140.754253,82.9176787 C140.396918,82.9176787 140.006088,82.7725135 139.581753,82.4821787 C139.157417,82.191844 138.900586,81.9350132 138.811253,81.7116787 C138.632585,81.3543436 138.610252,81.0305135 138.744253,80.7401787 C138.878253,80.449844 139.056918,80.1706801 139.280253,79.9026787 C139.637588,79.5453436 139.994918,79.3666787 140.352253,79.3666787 C140.620254,79.3666787 140.888251,79.4336781 141.156253,79.5676787 C142.004924,79.9250139 142.462752,80.2600105 142.529753,80.5726787 C142.596753,80.885347 142.339922,81.3990085 141.759253,82.1136787 C141.580585,82.2923463 141.40192,82.4486781 141.223253,82.5826787 C141.044585,82.7166794 140.888253,82.828345 140.754253,82.9176787 Z M156.767253,89.2156787 C156.81192,89.2156787 156.845419,89.2045122 156.867753,89.1821787 C156.890086,89.1598453 156.923586,89.1486787 156.968253,89.1486787 C157.057586,89.1486787 157.180419,89.1821784 157.336753,89.2491787 C157.493087,89.3161791 157.638252,89.3720119 157.772253,89.4166787 C157.727586,89.4613456 157.705253,89.5060119 157.705253,89.5506787 C157.705253,89.5953456 157.68292,89.6400119 157.638253,89.6846787 L154.221253,91.8956787 C153.997918,92.0296794 153.785754,92.1525115 153.584753,92.2641787 C153.383752,92.375846 153.26092,92.4986781 153.216253,92.6326787 C153.171586,92.8113463 153.227419,92.9900112 153.383753,93.1686787 C153.540087,93.3473463 153.662919,93.5483443 153.752253,93.7716787 C154.064921,94.3970152 154.332918,95.0446754 154.556253,95.7146787 C154.779587,96.3846821 154.86892,97.0770085 154.824253,97.7916787 C154.779586,98.5956828 154.545088,99.3215088 154.120753,99.9691787 C153.696417,100.616849 153.171589,101.16401 152.546253,101.610679 C151.920916,102.057348 151.22859,102.392344 150.469253,102.615679 C149.709916,102.839013 148.95059,102.950679 148.191253,102.950679 C147.342582,102.950679 146.50509,102.794347 145.678753,102.481679 C144.852415,102.169011 144.081923,101.700015 143.367253,101.074679 C142.473915,100.315342 142.384582,99.377351 143.099253,98.2606787 C143.635255,97.3226741 144.349915,96.5856814 145.243253,96.0496787 C145.957923,95.558343 146.650249,95.0893476 147.320253,94.6426787 C147.990256,94.1960098 148.682582,93.7493476 149.397253,93.3026787 C149.799255,93.0793443 150.178918,92.9006794 150.536253,92.7666787 C150.848921,92.5880112 150.91592,92.342347 150.737253,92.0296787 C150.290584,91.2703416 149.888588,90.4998493 149.531253,89.7181787 C149.173918,88.9365082 148.90592,88.1213497 148.727253,87.2726787 C148.637919,86.9153436 148.582086,86.5356808 148.559753,86.1336787 C148.537419,85.7316767 148.481586,85.3520139 148.392253,84.9946787 C148.392253,84.9500119 148.347586,84.8383463 148.258253,84.6596787 C147.320248,85.7316841 146.40459,86.9153389 145.511253,88.2106787 C145.243251,88.6126808 144.975254,89.0258433 144.707253,89.4501787 C144.439251,89.8745142 144.148921,90.2653436 143.836253,90.6226787 C143.612918,90.9800139 143.311421,91.3373436 142.931753,91.6946787 C142.552084,92.0520139 142.138922,92.2306787 141.692253,92.2306787 C141.245584,92.2306787 140.865921,92.1078466 140.553253,91.8621787 C140.240584,91.6165108 139.972587,91.3150139 139.749253,90.9576787 C139.525918,90.6003436 139.347253,90.2095142 139.213253,89.7851787 C139.079252,89.3608433 139.012253,88.9700139 139.012253,88.6126787 C138.967586,87.8980085 138.956419,87.1945155 138.978753,86.5021787 C139.001086,85.8098419 139.034586,85.106349 139.079253,84.3916787 C139.079253,84.302345 139.168585,84.201846 139.347253,84.0901787 C139.52592,83.9785115 139.659919,83.9226787 139.749253,83.9226787 C140.374589,83.9673456 140.854751,84.2018433 141.189753,84.6261787 C141.524754,85.0505142 141.66992,85.5753423 141.625253,86.2006787 C141.580586,86.6920145 141.53592,87.1610098 141.491253,87.6076787 C141.446586,88.0543476 141.424253,88.5010098 141.424253,88.9476787 C141.379586,89.1710132 141.390752,89.4055108 141.457753,89.6511787 C141.524753,89.8968466 141.602919,90.1983436 141.692253,90.5556787 C142.004921,90.1983436 142.284085,89.8856801 142.529753,89.6176787 C142.775421,89.3496774 143.009918,89.059347 143.233253,88.7466787 C144.037257,87.7193403 144.841249,86.7143503 145.645253,85.7316787 L148.057253,82.7836787 C148.057253,82.7390119 148.101919,82.6720125 148.191253,82.5826787 C148.280586,82.493345 148.358752,82.3816794 148.425753,82.2476787 C148.492753,82.1136781 148.548586,82.0466787 148.593253,82.0466787 C148.77192,82.1360125 148.939419,82.225345 149.095753,82.3146787 C149.252087,82.4040125 149.374919,82.5380112 149.464253,82.7166787 C149.598253,83.1633476 149.721085,83.6100098 149.832753,84.0566787 C149.94442,84.5033476 150.044919,84.9500098 150.134253,85.3966787 C150.223586,85.6200132 150.279419,85.8321777 150.301753,86.0331787 C150.324086,86.2341797 150.379919,86.4463443 150.469253,86.6696787 C150.51392,86.8483463 150.614419,87.2056761 150.770753,87.7416787 C150.927087,88.2776814 151.105752,88.8248426 151.306753,89.3831787 C151.507754,89.9415149 151.731085,90.4328433 151.976753,90.8571787 C152.222421,91.2815142 152.434585,91.4936787 152.613253,91.4936787 C152.79192,91.4936787 152.970585,91.4043463 153.149253,91.2256787 C153.774589,90.8683436 154.377583,90.5221804 154.958253,90.1871787 C155.538922,89.8521771 156.141916,89.528347 156.767253,89.2156787 Z M195.895253,89.4836787 C196.029253,89.7070132 196.062753,89.8968446 195.995753,90.0531787 C195.928752,90.2095129 195.80592,90.332345 195.627253,90.4216787 C195.448585,90.5556794 195.057756,90.8236767 194.454753,91.2256787 C193.85175,91.6276808 193.192923,92.074343 192.478253,92.5656787 C191.763582,93.0570145 191.037756,93.548343 190.300753,94.0396787 C189.563749,94.5310145 188.949588,94.9106774 188.458253,95.1786787 C188.011584,95.4466801 187.475589,95.725844 186.850253,96.0161787 C186.224916,96.3065135 185.588423,96.5745108 184.940753,96.8201787 C184.293083,97.0658466 183.645423,97.2668446 182.997753,97.4231787 C182.350083,97.5795129 181.758255,97.6576787 181.222253,97.6576787 C180.060914,97.6576787 179.167589,97.400848 178.542253,96.8871787 C177.916916,96.3735095 177.336255,95.6476834 176.800253,94.7096787 C176.130249,93.5930065 175.873419,92.5098507 176.029753,91.4601787 C176.186087,90.4105068 176.688582,89.3943503 177.537253,88.4116787 C178.251923,87.6076747 179.055915,86.848349 179.949253,86.1336787 C180.84259,85.4190085 181.869914,85.0616787 183.031253,85.0616787 C184.415926,85.0616787 185.644247,85.6646727 186.716253,86.8706787 C187.118255,87.3173476 187.073588,87.7416767 186.582253,88.1436787 C186.403585,88.2330125 186.29192,88.2776787 186.247253,88.2776787 C186.068585,88.2776787 185.88992,88.121347 185.711253,87.8086787 C185.532585,87.5406774 185.219922,87.4066787 184.773253,87.4066787 C184.371251,87.4066787 183.946922,87.5295108 183.500253,87.7751787 C183.053584,88.0208466 182.606922,88.3335102 182.160253,88.7131787 C181.713584,89.0928473 181.322754,89.4836767 180.987753,89.8856787 L180.150253,90.8906787 C179.792918,91.3820145 179.491421,91.8845095 179.245753,92.3981787 C179.000085,92.911848 178.899586,93.4813423 178.944253,94.1066787 C178.944253,94.2853463 178.988919,94.5533436 179.078253,94.9106787 C179.12292,95.4020145 179.435583,95.6476787 180.016253,95.6476787 C180.90959,95.6476787 181.769415,95.5471797 182.595753,95.3461787 C183.42209,95.1451777 184.214916,94.8660139 184.974253,94.5086787 C186.537594,93.8386754 187.844081,93.246848 188.893753,92.7331787 C189.943425,92.2195095 190.847916,91.7505142 191.607253,91.3261787 C192.36659,90.9018433 193.003083,90.533347 193.516753,90.2206787 C194.030422,89.9080105 194.510584,89.6400132 194.957253,89.4166787 C195.225254,89.2826781 195.403919,89.2156787 195.493253,89.2156787 C195.627253,89.2156787 195.761252,89.3050112 195.895253,89.4836787 Z M196.297253,95.5806787 C197.369258,95.2233436 198.329582,94.5310172 199.178253,93.5036787 C200.026924,92.4763403 200.406586,91.3596848 200.317253,90.1536787 C200.317253,90.0196781 200.283753,89.8186801 200.216753,89.5506787 C200.149752,89.2826774 200.071586,89.0258466 199.982253,88.7801787 C199.892919,88.5345108 199.781253,88.3111797 199.647253,88.1101787 C199.513252,87.9091777 199.334587,87.8086787 199.111253,87.8086787 C198.932585,87.8086787 198.75392,87.8980112 198.575253,88.0766787 C197.413914,88.8806828 196.632255,89.8968393 196.230253,91.1251787 C195.828251,92.3535182 195.582586,93.637672 195.493253,94.9776787 C195.448586,95.4690145 195.537918,95.7146787 195.761253,95.7146787 C195.850586,95.7146787 195.928752,95.7035122 195.995753,95.6811787 L196.297253,95.5806787 Z M213.114253,89.1486787 C213.203586,89.2380125 213.22592,89.3496781 213.181253,89.4836787 L213.047253,89.6176787 C212.243249,89.930347 211.483923,90.1536781 210.769253,90.2876787 C210.054582,90.4216794 209.25059,90.533345 208.357253,90.6226787 C207.463915,90.5780119 206.581757,90.5221791 205.710753,90.4551787 C204.839748,90.3881784 203.95759,90.1536808 203.064253,89.7516787 C202.974919,89.7070119 202.84092,89.6846787 202.662253,89.6846787 C202.662253,89.7740125 202.651086,89.8410119 202.628753,89.8856787 C202.606419,89.9303456 202.595253,89.9750119 202.595253,90.0196787 C202.952588,91.0470172 202.986087,91.9850078 202.695753,92.8336787 C202.405418,93.6823497 201.947589,94.4863416 201.322253,95.2456787 C200.741583,95.960349 200.049257,96.5745095 199.245253,97.0881787 C198.441249,97.601848 197.570257,97.8586787 196.632253,97.8586787 C195.917582,97.8586787 195.314588,97.6800139 194.823253,97.3226787 C194.331917,96.9653436 193.840588,96.5410145 193.349253,96.0496787 C192.991918,95.6030098 192.779753,95.1340145 192.712753,94.6426787 C192.645752,94.151343 192.656919,93.6600145 192.746253,93.1686787 C192.835586,92.5880092 193.003085,91.9068493 193.248753,91.1251787 C193.494421,90.3435082 193.818251,89.595349 194.220253,88.8806787 C194.622255,88.1660085 195.113583,87.5630145 195.694253,87.0716787 C196.274922,86.580343 196.922582,86.3346787 197.637253,86.3346787 C197.81592,86.3346787 198.106251,86.4016781 198.508253,86.5356787 C198.910255,86.6696794 199.323417,86.8260112 199.747753,87.0046787 C200.172088,87.1833463 200.574084,87.3731777 200.953753,87.5741787 C201.333421,87.7751797 201.612585,87.920345 201.791253,88.0096787 C203.086592,88.7690159 204.314914,89.2715108 205.476253,89.5171787 C206.637592,89.7628466 207.687248,89.8856787 208.625253,89.8856787 C209.920592,89.8856787 210.970249,89.7516801 211.774253,89.4836787 C212.578257,89.2156774 213.024919,89.1040119 213.114253,89.1486787 Z M221.623253,89.2156787 C221.757253,89.2603456 221.868919,89.327345 221.958253,89.4166787 C222.047586,89.5060125 222.047586,89.6623443 221.958253,89.8856787 L221.288253,91.2256787 C221.064918,91.6723476 220.841587,92.141343 220.618253,92.6326787 C220.171584,93.4813497 219.724922,94.3411744 219.278253,95.2121787 C218.831584,96.0831831 218.362588,96.9206747 217.871253,97.7246787 C217.737252,97.9480132 217.513921,98.2718433 217.201253,98.6961787 C216.888584,99.1205142 216.553588,99.5336767 216.196253,99.9356787 C215.838918,100.337681 215.459255,100.683844 215.057253,100.974179 C214.655251,101.264514 214.297921,101.409679 213.985253,101.409679 C213.672584,101.409679 213.371087,101.298013 213.080753,101.074679 C212.790418,100.851344 212.533587,100.561014 212.310253,100.203679 C212.086918,99.8463436 211.930586,99.3773483 211.841253,98.7966787 C211.751919,98.2160092 211.774252,97.6130152 211.908253,96.9876787 L211.908253,92.7666787 C211.863586,92.0073416 211.729587,91.4043476 211.506253,90.9576787 C211.282918,90.5110098 210.79159,90.1760132 210.032253,89.9526787 C209.49625,89.7740112 209.161253,89.4948473 209.027253,89.1151787 C208.893252,88.7355102 208.870919,88.3111811 208.960253,87.8421787 C209.049586,87.3731764 209.239418,86.9041811 209.529753,86.4351787 C209.820087,85.9661764 210.143918,85.5306808 210.501253,85.1286787 C210.67992,84.9500112 210.925584,84.7713463 211.238253,84.5926787 C211.550921,84.4140112 211.885918,84.3246787 212.243253,84.3246787 C212.555921,84.3246787 212.779252,84.369345 212.913253,84.4586787 C213.136587,84.5926794 213.259419,84.8160105 213.281753,85.1286787 C213.304086,85.441347 213.270586,85.7763436 213.181253,86.1336787 C213.091919,86.4910139 212.95792,86.8371771 212.779253,87.1721787 C212.600585,87.5071804 212.444253,87.7863443 212.310253,88.0096787 C212.176252,88.2330132 212.05342,88.4340112 211.941753,88.6126787 C211.830085,88.7913463 211.952918,88.925345 212.310253,89.0146787 C212.801588,89.1486794 213.214751,89.3831771 213.549753,89.7181787 C213.884754,90.0531804 214.152752,90.4440098 214.353753,90.8906787 C214.554754,91.3373476 214.699919,91.8175095 214.789253,92.3311787 C214.878586,92.844848 214.945586,93.3250098 214.990253,93.7716787 C215.079586,94.6650165 215.06842,95.5695075 214.956753,96.4851787 C214.845085,97.40085 214.69992,98.3053409 214.521253,99.1986787 C214.476586,99.2433456 214.476586,99.2880119 214.521253,99.3326787 C214.56592,99.3773456 214.588253,99.444345 214.588253,99.5336787 C214.677586,99.4890119 214.733419,99.4555122 214.755753,99.4331787 C214.778086,99.4108453 214.833919,99.3773456 214.923253,99.3326787 C215.503922,98.841343 215.984084,98.3053483 216.363753,97.7246787 C216.743421,97.1440092 217.111918,96.5410152 217.469253,95.9156787 C217.960588,95.0670078 218.429584,94.2295162 218.876253,93.4031787 C219.322922,92.5768413 219.791917,91.7393497 220.283253,90.8906787 C220.417253,90.6673443 220.551252,90.4328466 220.685253,90.1871787 C220.819253,89.9415108 220.975585,89.7070132 221.154253,89.4836787 C221.19892,89.394345 221.265919,89.3161791 221.355253,89.2491787 C221.444586,89.1821784 221.533919,89.1710119 221.623253,89.2156787 Z M240.986253,89.5506787 C241.03092,89.5953456 241.042086,89.662345 241.019753,89.7516787 C240.997419,89.8410125 240.96392,89.9080119 240.919253,89.9526787 C238.417907,91.9180219 235.670934,93.5260058 232.678253,94.7766787 C232.320918,94.8660125 232.097586,94.9106787 232.008253,94.9106787 C231.382916,94.9106787 230.824588,94.5756821 230.333253,93.9056787 C229.841917,93.2803423 229.54042,92.610349 229.428753,91.8956787 C229.317085,91.1810085 229.328252,90.4440159 229.462253,89.6846787 C229.50692,89.4613443 229.529253,89.2268466 229.529253,88.9811787 C229.529253,88.7355108 229.551586,88.5010132 229.596253,88.2776787 C229.551586,88.2776787 229.529253,88.2665122 229.529253,88.2441787 C229.529253,88.2218453 229.50692,88.2106787 229.462253,88.2106787 C228.613582,88.7020145 227.80959,89.3720078 227.050253,90.2206787 C226.290916,91.0693497 225.598589,91.8733416 224.973253,92.6326787 C224.839252,92.8560132 224.615921,93.1463436 224.303253,93.5036787 C223.990584,93.8610139 223.666754,94.2183436 223.331753,94.5756787 C222.996751,94.9330139 222.639421,95.2456774 222.259753,95.5136787 C221.880084,95.7816801 221.556254,95.9156787 221.288253,95.9156787 C220.573582,95.9156787 219.992922,95.6253483 219.546253,95.0446787 C218.920916,94.2406747 218.641752,93.4478493 218.708753,92.6661787 C218.775753,91.8845082 218.920918,91.1140159 219.144253,90.3546787 C219.367587,89.5953416 219.602085,88.8695155 219.847753,88.1771787 C220.093421,87.4848419 220.327918,86.781349 220.551253,86.0666787 C220.685253,85.4860092 220.886251,85.1956787 221.154253,85.1956787 C221.377587,85.1956787 221.623251,85.3520105 221.891253,85.6646787 L223.097253,86.8706787 C223.186586,86.9600125 223.186586,87.0940112 223.097253,87.2726787 C223.007919,87.7193476 222.918586,88.1436767 222.829253,88.5456787 C222.739919,88.9476808 222.650586,89.3720098 222.561253,89.8186787 C222.516586,89.9080125 222.494253,90.1090105 222.494253,90.4216787 C224.325595,88.5903363 226.335575,86.915353 228.524253,85.3966787 C228.70292,85.2180112 228.926251,85.1286787 229.194253,85.1286787 C229.462254,85.1286787 229.774918,85.2626774 230.132253,85.5306787 L230.902753,86.3011787 C231.148421,86.5468466 231.382918,86.8036774 231.606253,87.0716787 C231.963588,87.5183476 232.108753,87.9761764 232.041753,88.4451787 C231.974752,88.9141811 231.941253,89.394343 231.941253,89.8856787 C231.941253,90.6450159 231.874253,91.4043416 231.740253,92.1636787 C231.740253,92.476347 231.807252,92.6326787 231.941253,92.6326787 C232.11992,92.6326787 232.47725,92.5321797 233.013253,92.3311787 C233.549255,92.1301777 234.11875,91.8956801 234.721753,91.6276787 C235.324756,91.3596774 235.905417,91.1028466 236.463753,90.8571787 C237.022089,90.6115108 237.390585,90.4440125 237.569253,90.3546787 L238.775253,89.8186787 C239.177255,89.6400112 239.579251,89.4390132 239.981253,89.2156787 C240.070586,89.1710119 240.182252,89.1486787 240.316253,89.1486787 C240.49492,89.1486787 240.718251,89.2826774 240.986253,89.5506787 Z M242.058253,90.8236787 C242.013586,90.9130125 241.991253,91.0693443 241.991253,91.2926787 L242.326253,91.2926787 C242.415586,91.2926787 242.560752,91.236846 242.761753,91.1251787 C242.962754,91.0135115 243.197251,90.8795129 243.465253,90.7231787 C243.733254,90.5668446 243.978918,90.4216794 244.202253,90.2876787 C244.425587,90.1536781 244.581919,90.0643456 244.671253,90.0196787 C245.341256,89.6176767 245.843751,89.0928486 246.178753,88.4451787 C246.513754,87.7975088 246.725919,87.0493497 246.815253,86.2006787 L246.815253,86.1336787 C246.770586,86.0890119 246.748253,86.0443456 246.748253,85.9996787 C246.658919,86.0443456 246.59192,86.0666787 246.547253,86.0666787 C246.502586,86.0666787 246.435586,86.0890119 246.346253,86.1336787 C245.452915,86.7590152 244.660089,87.4736747 243.967753,88.2776787 C243.275416,89.0816828 242.638922,89.9303409 242.058253,90.8236787 Z M259.411253,89.1486787 C259.500586,89.2826794 259.556419,89.4613443 259.578753,89.6846787 C259.601086,89.9080132 259.567586,90.064345 259.478253,90.1536787 C259.210251,90.5556808 258.808255,90.9130105 258.272253,91.2256787 C257.066247,91.940349 255.860259,92.6215088 254.654253,93.2691787 C253.448247,93.9168486 252.219926,94.5980085 250.969253,95.3126787 C249.986581,95.8486814 248.802926,96.3735095 247.418253,96.8871787 C246.033579,97.400848 244.760592,97.6576787 243.599253,97.6576787 C242.169912,97.6576787 240.963924,97.2333497 239.981253,96.3846787 C238.998581,95.5360078 238.283922,94.5310179 237.837253,93.3696787 C237.658585,92.878343 237.636252,92.375848 237.770253,91.8621787 C237.904253,91.3485095 238.060585,90.8460145 238.239253,90.3546787 C238.462587,89.863343 238.853417,89.2491824 239.411753,88.5121787 C239.970089,87.7751751 240.595416,87.0716821 241.287753,86.4016787 C241.980089,85.7316754 242.717082,85.1621811 243.498753,84.6931787 C244.280423,84.2241764 244.961583,83.9896787 245.542253,83.9896787 C246.122922,83.9896787 246.636584,84.1460105 247.083253,84.4586787 C247.529922,84.771347 247.931918,85.1286767 248.289253,85.5306787 C248.601921,85.8880139 248.713586,86.2676767 248.624253,86.6696787 C248.534919,87.0716808 248.445586,87.4513436 248.356253,87.8086787 C247.864917,89.2826861 247.027425,90.4328413 245.843753,91.2591787 C244.66008,92.0855162 243.308927,92.4986787 241.790253,92.4986787 C241.477584,92.4986787 241.29892,92.6326774 241.254253,92.9006787 C241.254253,93.213347 241.243086,93.514844 241.220753,93.8051787 C241.198419,94.0955135 241.209586,94.3746774 241.254253,94.6426787 C241.29892,95.0000139 241.410585,95.2345115 241.589253,95.3461787 C241.76792,95.457846 242.035918,95.5136787 242.393253,95.5136787 L243.264253,95.5136787 C244.068257,95.4690119 244.916915,95.3461797 245.810253,95.1451787 C246.70359,94.9441777 247.596915,94.687347 248.490253,94.3746787 C249.38359,94.0620105 250.254582,93.7270139 251.103253,93.3696787 C251.951924,93.0123436 252.711249,92.6326808 253.381253,92.2306787 C254.27459,91.7840098 255.145582,91.2926814 255.994253,90.7566787 C256.842924,90.2206761 257.691582,89.7070145 258.540253,89.2156787 C258.629586,89.1710119 258.730085,89.1151791 258.841753,89.0481787 C258.95342,88.9811784 259.053919,88.9476787 259.143253,88.9476787 C259.277253,88.9476787 259.366586,89.0146781 259.411253,89.1486787 Z M268.992253,89.2156787 C269.126253,89.2603456 269.237919,89.327345 269.327253,89.4166787 C269.416586,89.5060125 269.416586,89.6623443 269.327253,89.8856787 C269.103918,90.3323476 268.880587,90.7790098 268.657253,91.2256787 C268.433918,91.6723476 268.210587,92.141343 267.987253,92.6326787 C267.540584,93.4813497 267.093922,94.3411744 266.647253,95.2121787 C266.200584,96.0831831 265.731588,96.9206747 265.240253,97.7246787 C265.106252,97.9480132 264.882921,98.2718433 264.570253,98.6961787 C264.257584,99.1205142 263.922588,99.5336767 263.565253,99.9356787 C263.207918,100.337681 262.828255,100.683844 262.426253,100.974179 C262.024251,101.264514 261.666921,101.409679 261.354253,101.409679 C261.041584,101.409679 260.740087,101.298013 260.449753,101.074679 C260.159418,100.851344 259.902587,100.561014 259.679253,100.203679 C259.455918,99.8463436 259.299586,99.3773483 259.210253,98.7966787 C259.120919,98.2160092 259.143252,97.6130152 259.277253,96.9876787 L259.277253,92.7666787 C259.232586,92.0073416 259.098587,91.4043476 258.875253,90.9576787 C258.651918,90.5110098 258.16059,90.1760132 257.401253,89.9526787 C256.86525,89.7740112 256.530253,89.4948473 256.396253,89.1151787 C256.262252,88.7355102 256.239919,88.3111811 256.329253,87.8421787 C256.418586,87.3731764 256.608418,86.9041811 256.898753,86.4351787 C257.189087,85.9661764 257.512918,85.5306808 257.870253,85.1286787 C258.04892,84.9500112 258.294584,84.7713463 258.607253,84.5926787 C258.919921,84.4140112 259.254918,84.3246787 259.612253,84.3246787 C259.924921,84.3246787 260.148252,84.369345 260.282253,84.4586787 C260.505587,84.5926794 260.628419,84.8160105 260.650753,85.1286787 C260.673086,85.441347 260.639586,85.7763436 260.550253,86.1336787 C260.460919,86.4910139 260.32692,86.8371771 260.148253,87.1721787 C259.969585,87.5071804 259.813253,87.7863443 259.679253,88.0096787 C259.545252,88.2330132 259.42242,88.4340112 259.310753,88.6126787 C259.199085,88.7913463 259.321918,88.925345 259.679253,89.0146787 C260.170588,89.1486794 260.583751,89.3831771 260.918753,89.7181787 C261.253754,90.0531804 261.521752,90.4440098 261.722753,90.8906787 C261.923754,91.3373476 262.068919,91.8175095 262.158253,92.3311787 C262.247586,92.844848 262.314586,93.3250098 262.359253,93.7716787 C262.448586,94.6650165 262.43742,95.5695075 262.325753,96.4851787 C262.214085,97.40085 262.06892,98.3053409 261.890253,99.1986787 C261.845586,99.2433456 261.845586,99.2880119 261.890253,99.3326787 C261.93492,99.3773456 261.957253,99.444345 261.957253,99.5336787 C262.046586,99.4890119 262.102419,99.4555122 262.124753,99.4331787 C262.147086,99.4108453 262.202919,99.3773456 262.292253,99.3326787 C262.872922,98.841343 263.353084,98.3053483 263.732753,97.7246787 C264.112421,97.1440092 264.480918,96.5410152 264.838253,95.9156787 C265.329588,95.0670078 265.798584,94.2295162 266.245253,93.4031787 C266.691922,92.5768413 267.160917,91.7393497 267.652253,90.8906787 C267.786253,90.6673443 267.920252,90.4328466 268.054253,90.1871787 C268.188253,89.9415108 268.344585,89.7070132 268.523253,89.4836787 C268.56792,89.394345 268.634919,89.3161791 268.724253,89.2491787 C268.813586,89.1821784 268.902919,89.1710119 268.992253,89.2156787 Z" id="the-entrance-is-arou" transform="translate(186.666003, 62.322179) rotate(6.000000) translate(-186.666003, -62.322179) "></path>
                    <path d="M175.3643,170.046874 C175.900637,170.250822 176.988705,170.641102 178.628537,171.217725 C180.268369,171.794349 181.914373,172.772302 183.566598,174.151614 C184.599239,175.013683 186.086538,176.377208 188.028539,178.242227 C195.405093,185.741212 202.585019,192.954131 209.568534,199.881201 C216.552048,206.808271 223.612507,213.647188 230.750123,220.398157 C237.887738,227.149127 245.24178,233.958865 252.812469,240.827576 C260.383158,247.696286 268.474652,254.786448 277.087195,262.098274 C282.127118,266.549503 287.140753,270.826411 292.128249,274.929126 C297.115746,279.031841 302.25266,283.167871 307.539145,287.33734 C311.379933,290.299911 315.251483,293.227218 319.153911,296.119349 L330.861138,304.795699 C331.067666,304.968113 331.362044,305.24434 331.74428,305.624388 C332.126516,306.004436 332.359255,306.351101 332.442502,306.664396 C332.485716,307.431864 332.414863,307.92125 332.229942,308.132571 C331.921739,308.484771 331.200492,308.492143 330.066177,308.154687 C328.148963,307.895044 326.070688,307.104758 323.831288,305.783806 C321.591888,304.462853 319.274678,302.924563 316.879587,301.16889 C302.240874,290.532875 287.539151,279.356647 272.773976,267.639871 C273.146999,268.438873 274.330707,269.945118 276.325135,272.158652 C278.319563,274.372185 229.143581,230.606841 218.460986,219.738411 C207.778391,208.869982 196.42475,197.441379 184.399722,185.452259 L178.139087,179.12867 C176.052199,177.020796 173.996161,174.877735 171.970913,172.699421 C170.297081,170.936375 169.614276,169.878768 169.922478,169.526568 C170.23068,169.174368 170.817846,169.116009 171.683992,169.351491 C172.281969,169.484999 172.895348,169.600895 173.524146,169.699183 C174.152944,169.797471 174.766322,169.913367 175.3643,170.046874 Z M326.229781,285.091818 C327.172978,284.155892 328.074549,284.175072 328.934521,285.149361 C332.523657,288.934971 335.570964,293.03881 338.076533,297.461002 C340.582102,301.883194 342.671246,306.645393 344.344028,311.747742 C344.857791,313.211781 344.995383,314.610436 344.756809,315.94375 C344.47052,317.543727 343.71847,318.856537 342.500636,319.882219 C341.282802,320.907901 339.912691,321.700893 338.390261,322.261219 C337.267857,322.753576 336.030485,322.985365 334.678108,322.956593 C333.325731,322.927821 331.998757,322.937829 330.697147,322.986617 C328.117782,322.95086 325.607115,322.892666 323.165069,322.812032 C320.723023,322.731397 318.200428,322.739868 315.597206,322.837443 C315.095648,322.750293 309.323032,320.509979 311.445225,318.404145 C313.567419,316.298312 315.804703,315.174837 318.157145,315.033686 C318.93334,315.03108 320.223003,315.048958 322.026172,315.08732 C323.829342,315.125683 325.72056,315.213717 327.699885,315.351427 C329.67921,315.489136 331.627158,315.621397 333.543788,315.748212 C335.460418,315.875028 336.857576,316.01469 337.735303,316.167203 C338.786135,316.07484 339.3354,315.89533 339.383114,315.628667 C339.454687,315.228673 339.350105,314.72934 339.069366,314.130651 C337.701181,309.493659 335.870302,304.913811 333.576675,300.390969 C331.283047,295.868127 328.729802,291.71266 325.916861,287.924444 C325.486875,287.4373 325.319599,286.927072 325.415029,286.393747 C325.510459,285.860421 325.78204,285.426449 326.229781,285.091818 Z" id="Path-2" transform="translate(257.360441, 246.098286) scale(-1, 1) rotate(44.000000) translate(-257.360441, -246.098286) "></path>
                </g>
            </g>
        </g>
    </g>
</svg>
