<?xml version="1.0" encoding="UTF-8"?>
<svg width="273px" height="273px" viewBox="0 0 273 273" version="1.1" xmlns="http://www.w3.org/2000/svg" xmlns:xlink="http://www.w3.org/1999/xlink">
    <!-- Generator: Sketch 52.5 (67469) - http://www.bohemiancoding.com/sketch -->
    <title>C3LogoSmall</title>
    <desc>Created with Sketch.</desc>
    <g id="Page-1" stroke="none" stroke-width="1" fill="none" fill-rule="evenodd">
        <g id="C3LogoSmall">
            <rect id="Rectangle" fill="#000000" x="0" y="0" width="273" height="273"></rect>
            <path d="M145.029418,130.005505 C145.061418,130.017783 145.108188,130.030062 145.194341,130.064442 C145.184495,130.05953 145.174649,130.05953 145.164803,130.054619 C145.041726,130.022695 144.950649,129.985859 145.029418,130.005505 Z M144.061538,229.104661 L144.044308,229.153644 C144.027077,229.191198 144.012308,229.220425 144,229.24557 C144,229.160502 144.036923,229.114947 144.059077,229.087027 C144.059077,229.093885 144.059077,229.102049 144.056615,229.110212 C144.056615,229.110212 144.051692,229.127193 144.056615,229.112825 L144.068923,229.074781 L144.093538,229 C144.059077,229.121642 144.073846,229.063842 144.061538,229.104661 Z M200.979671,57.9542375 C200.913653,56.4210569 200.649579,54.8110185 200.11219,53.2327833 C199.581402,51.6558732 198.766734,50.1293183 197.756653,48.81611 C197.250952,48.1614935 196.704319,47.5506065 196.131279,47.003326 C195.843439,46.7250477 195.548997,46.4666465 195.253235,46.2161961 L194.999724,46.0094751 L194.869007,45.9047894 L194.76998,45.8266065 L194.614176,45.7073444 L194.470256,45.6000085 L194.372549,45.5271261 C193.329458,44.7558978 192.230912,44.0535765 191.095395,43.4294382 C189.955917,42.8092752 188.776828,42.2725958 187.580575,41.8207249 C185.182786,40.9196334 182.713698,40.3776534 180.314589,40.1484051 C177.912839,39.9112061 175.58503,39.9761377 173.374733,40.2173121 C171.163117,40.4598117 169.069013,40.8891553 167.08846,41.4205343 C165.105267,41.9532383 163.236946,42.5919532 161.467653,43.2849985 C159.697039,43.9806941 158.022812,44.7240946 156.439691,45.5112245 C154.85921,46.3023298 153.373796,47.1358394 151.974205,47.9918763 C149.176345,49.7079255 146.725742,51.5074582 144.56958,53.279163 C142.41606,55.0535181 140.555661,56.7987202 138.952206,58.4445373 C135.744767,61.7388217 133.564575,64.6209893 132.171587,66.6590461 C131.479978,67.6847002 130.976126,68.4930323 130.65422,69.0535642 C130.49023,69.3331676 130.371925,69.5491645 130.292175,69.6962544 C130.253224,69.7678117 130.215726,69.8314181 130.198693,69.8671968 C130.179415,69.9043005 130.170569,69.9215273 130.170569,69.9215273 C129.944522,70.3760484 129.933035,70.9379055 130.197108,71.4149539 C130.623983,72.1914827 131.6,72.4737364 132.376772,72.047043 L132.380073,72.0443928 C132.380073,72.0443928 132.397634,72.0351168 132.432888,72.0165649 C132.470782,71.9953628 132.514883,71.9768109 132.58473,71.9357317 C132.721652,71.8601991 132.928554,71.7502129 133.198173,71.5964973 C133.740052,71.298342 134.532801,70.8385204 135.561632,70.2461852 C136.586502,69.6485496 137.839796,68.9064743 139.29603,68.037186 C140.741833,67.1705481 142.398895,66.1740469 144.257973,65.0596088 C146.103848,63.9544466 148.130613,62.7406234 150.331667,61.4618686 C152.531401,60.1844389 154.904102,58.8394274 157.44053,57.5010415 C158.709404,56.8331737 160.019209,56.1639808 161.371266,55.51599 C162.720682,54.8666741 164.11235,54.2359101 165.555513,53.6740531 C168.433915,52.5490139 171.507733,51.6598486 174.613239,51.3073628 C177.718745,50.9562022 180.817649,51.1814751 183.664363,52.2402575 C184.374721,52.5066096 185.075836,52.8206665 185.758467,53.1890538 C186.441097,53.5587664 187.107883,53.9841345 187.760145,54.4572076 L187.822202,54.500937 C187.835406,54.5115381 187.823523,54.5022621 187.8156,54.4956365 C187.820882,54.4982867 187.826163,54.5049124 187.836726,54.5128632 L187.99385,54.6321253 C188.020257,54.6533275 188.050626,54.6745296 188.051946,54.6758548 L188.075713,54.6970569 L188.128528,54.7381361 C188.234157,54.8295704 188.342427,54.9170292 188.436173,55.0084635 C188.628947,55.1913321 188.793993,55.3768509 188.944515,55.5636949 C189.236317,55.9400331 189.454177,56.3322729 189.619223,56.8040208 C189.78559,57.2717933 189.89386,57.831 189.92951,58.4856165 C189.969121,59.1389078 189.926869,59.8836334 189.810677,60.6826895 C189.576972,62.2847771 189.030339,64.0816595 188.300176,65.90902 C187.566051,67.741681 186.644434,69.6180715 185.602663,71.494462 C184.564854,73.3735027 183.409532,75.2591691 182.173667,77.1408601 C180.937802,79.021226 179.622716,80.8989416 178.249533,82.7713566 C177.562941,83.7055765 176.861826,84.6424466 176.147507,85.5753412 C175.435828,86.5108862 174.712266,87.445106 173.978142,88.3793259 C171.036361,92.1135549 167.918972,95.8239315 164.714438,99.5382836 C161.513866,103.256611 158.210304,106.964337 154.865812,110.698566 C153.194226,112.573632 151.517358,114.453998 149.83917,116.337014 C148.157021,118.231956 146.476192,120.141475 144.801965,122.106649 C143.967492,123.091224 143.13566,124.091701 142.30911,125.127956 C141.481239,126.165536 140.65997,127.228294 139.837381,128.428866 C139.631403,128.729672 139.425426,129.042403 139.217336,129.373687 C139.009906,129.706296 138.799835,130.057456 138.588576,130.453672 C138.481759,130.649792 138.374017,130.860488 138.265614,131.091061 C138.15774,131.32031 138.047754,131.569435 137.937107,131.86229 C137.828705,132.155144 137.716473,132.486428 137.618106,132.914446 C137.592755,133.016482 137.570176,133.133094 137.549315,133.256331 C137.59117,133.301386 137.31825,133.799636 137.588398,135.156574 C137.795695,136.072242 138.239735,136.74541 138.572072,137.138975 C138.904937,137.533865 139.223409,137.792267 139.442591,137.953933 C139.686859,138.131501 139.866429,138.237512 140.040717,138.334247 C140.199162,138.421705 140.341761,138.489287 140.467196,138.544943 C140.712785,138.654929 140.901597,138.723836 141.074566,138.783467 C141.416541,138.897429 141.671372,138.961035 141.910359,139.019341 C142.38173,139.131978 142.761996,139.198234 143.131699,139.260516 C143.861863,139.379778 144.522047,139.463261 145.171668,139.544094 C146.464309,139.70311 147.702814,139.835624 148.929436,139.981389 C150.156058,140.125828 151.368156,140.274244 152.567051,140.439885 C154.9688,140.771169 157.329619,141.163409 159.640263,141.652383 C161.949587,142.141358 164.211378,142.720442 166.391306,143.425413 C168.572554,144.12906 170.67326,144.959919 172.639288,145.944494 C174.603996,146.927744 176.434026,148.06736 178.054118,149.375267 C179.67553,150.683175 181.077761,152.16335 182.206676,153.798566 C183.336911,155.432457 184.187229,157.224039 184.758948,159.117656 C185.330667,161.015249 185.62775,163.009576 185.695089,165.035707 C185.762428,167.060247 185.603984,169.113146 185.291056,171.144975 C185.211834,171.651839 185.12469,172.158702 185.025662,172.664506 C184.972848,172.92463 184.922674,173.183031 184.869859,173.441963 C184.814403,173.698641 184.760268,173.95426 184.707454,174.208818 C184.484311,175.235797 184.237403,176.248995 183.973329,177.251062 C182.913073,181.258004 181.518764,185.057827 179.864343,188.595406 C178.207281,192.135768 176.292747,195.413223 174.221089,198.408557 C172.150752,201.406674 169.923291,204.122139 167.648296,206.568073 C165.370661,209.015729 163.049454,211.198888 160.771819,213.149618 C158.494184,215.101939 156.260121,216.819048 154.14093,218.346796 C152.020418,219.876266 150.014779,221.214122 148.179467,222.414429 C147.255209,223.016305 146.379805,223.587173 145.555895,224.122792 C144.726704,224.667157 143.943726,225.18449 143.208281,225.707388 C142.838578,225.969102 142.479437,226.234129 142.12822,226.51519 C141.774361,226.801817 141.432386,227.091624 141.071925,227.485321 C140.891035,227.687934 140.702222,227.913207 140.510768,228.247803 C140.417022,228.416228 140.317995,228.622154 140.244054,228.880555 C140.236132,228.912093 140.226889,228.945222 140.217647,228.97994 C140.207084,229.034668 140.211045,229.008696 140.187278,229.128488 L140.178036,229.189179 L140.164832,229.285251 L140.147667,229.427703 C140.089571,230.057672 140.208404,230.64908 140.398537,231.11778 C140.589991,231.590985 140.840861,231.951554 141.087769,232.239771 C141.335999,232.526928 141.584228,232.745045 141.819253,232.921155 C142.291945,233.273376 142.709182,233.469363 143.051157,233.605852 C143.393132,233.738233 143.661167,233.805683 143.847339,233.843714 C144.03087,233.881348 144.135179,233.892346 144.147063,233.899502 C144.617114,234.133653 145.187513,233.944822 145.423859,233.476652 C145.658884,233.007819 145.468751,232.439071 144.9987,232.20333 C145.029069,232.218304 144.836295,231.965336 144.518086,231.528704 C144.360962,231.312177 144.17479,231.04821 144.008424,230.762246 C143.927881,230.618204 143.85262,230.470717 143.801126,230.332107 C143.752272,230.209002 143.727185,230.096366 143.719263,230.012485 C143.732467,229.999234 143.746991,229.9832 143.764156,229.966635 C143.898833,229.830809 144.135179,229.629256 144.407175,229.427703 C144.681812,229.222837 144.993419,229.005913 145.331433,228.784483 C146.006141,228.33778 146.777236,227.862984 147.607748,227.357711 C148.448822,226.848726 149.341391,226.309264 150.285454,225.737204 C154.081513,223.434252 158.704122,220.510741 163.630416,216.593775 C166.091582,214.635359 168.621408,212.422384 171.130107,209.910194 C173.634846,207.399065 176.12374,204.590309 178.471355,201.456366 C180.817649,198.323483 183.023984,194.862762 184.964925,191.094345 C186.905867,187.32712 188.580094,183.251271 189.900462,178.939018 C190.229233,177.860756 190.5382,176.76858 190.823399,175.662623 C190.893379,175.383285 190.964679,175.105537 191.034658,174.826198 C191.101997,174.54792 191.169336,174.270172 191.235354,173.990701 C191.370032,173.418773 191.494146,172.839557 191.609018,172.253715 C192.064545,169.915912 192.356347,167.476605 192.372191,164.960174 C192.390676,162.445069 192.123962,159.845155 191.458496,157.273069 C191.125763,155.985038 190.691362,154.708934 190.156613,153.464632 C189.620544,152.219006 188.982806,151.007833 188.251322,149.850991 C186.788354,147.534655 184.954362,145.455519 182.909112,143.666588 C180.862541,141.872356 178.612634,140.363028 176.275582,139.078972 C173.934569,137.793592 171.503772,136.730834 169.033363,135.825767 C166.561633,134.924675 164.050293,134.1773 161.520467,133.547861 C158.991962,132.917097 156.446292,132.400294 153.905904,131.957699 C152.63571,131.736402 151.368156,131.531006 150.107205,131.337536 C149.827287,131.296457 149.547369,131.254053 149.268771,131.210323 C149.330828,131.137441 149.394206,131.061908 149.456263,130.989026 C150.23264,130.081309 151.043346,129.170941 151.867255,128.259249 C153.515075,126.434539 155.21967,124.611154 156.934829,122.790419 C158.663191,120.965709 160.387592,119.142323 162.110672,117.321589 C165.560794,113.665543 169.004314,109.990945 172.373894,106.275267 C175.739513,102.55694 179.025909,98.7895826 182.18291,94.951993 C182.97381,93.9912705 183.754148,93.0278977 184.525243,92.055249 C185.295017,91.0839254 186.052909,90.104651 186.800237,89.1174258 C188.294894,87.1469508 189.747299,85.1459977 191.135006,83.1026403 C192.525354,81.0566326 193.854965,78.9682206 195.09215,76.8056011 C196.326694,74.6403313 197.470133,72.4048294 198.453807,70.0301883 C198.947625,68.8428678 199.39787,67.6197686 199.783418,66.3449893 C200.170286,65.071535 200.493776,63.7450753 200.715598,62.3510338 C200.933459,60.9569923 201.049651,59.4913936 200.979671,57.9542375 Z M140.752638,167.917289 C141.142669,167.341114 141.06962,166.548908 140.546535,166.057745 C139.972576,165.514359 139.069374,165.543445 138.529071,166.12385 L138.507938,166.147648 C138.507938,166.147648 138.378015,166.284486 138.126908,166.554461 C137.870844,166.827608 137.488771,167.232569 136.991514,167.758636 C135.992956,168.815264 134.515665,170.354858 132.604122,172.276938 C132.123171,172.755144 131.618218,173.25966 131.088872,173.787445 C130.554568,174.309677 129.99522,174.856765 129.412652,175.426329 C128.240211,176.561094 126.961848,177.770293 125.574304,179.033434 C124.185585,180.297766 122.68977,181.613262 121.080469,182.951896 C119.467776,184.286034 117.746422,185.646218 115.909363,186.985381 C114.073869,188.322428 112.124236,189.639511 110.063856,190.865237 C108.007649,192.090962 105.828172,193.214754 103.58282,194.109291 C101.341903,195.000127 99.0041959,195.631962 96.8127169,195.746589 C95.7207609,195.804365 94.6756349,195.720147 93.7163409,195.495389 C92.7536559,195.268383 91.8753689,194.894887 91.0563039,194.370407 C90.2404999,193.843283 89.4773959,193.158035 88.7697309,192.322331 C88.4158339,191.902033 88.0811109,191.441411 87.7565639,190.955008 C87.5935079,190.714781 87.4402349,190.455383 87.2831789,190.200878 C87.1369499,189.939762 86.9723279,189.662119 86.8549269,189.426387 L86.7570929,189.24235 L86.7325699,189.197663 L86.7054369,189.14425 L86.6423019,189.017063 L86.3896289,188.508052 C86.3515389,188.433617 86.4054129,188.536609 86.3896289,188.505804 L86.3657579,188.451862 L86.3156669,188.342788 L86.2162679,188.122922 C86.1477839,187.978019 86.0858229,187.827166 86.0221659,187.678958 C85.7677979,187.083481 85.5341699,186.474122 85.3167179,185.851674 C85.1014839,185.227507 84.9068599,184.59078 84.7269759,183.944005 C84.5470919,183.296701 84.3872969,182.637895 84.2475899,181.969041 C83.6796319,179.296798 83.3959139,176.481767 83.3389089,173.619934 C83.2807309,170.756514 83.4398739,167.842854 83.7687259,164.93131 C84.0997959,162.018707 84.5982259,159.107427 85.2341459,156.2292 C85.5498239,154.789425 85.8966769,153.358905 86.2744459,151.940284 C86.6527369,150.519018 87.0548999,149.109652 87.4886299,147.713507 C87.9250989,146.320006 88.3718739,144.935759 88.8560859,143.571345 C89.3371679,142.208252 89.8388599,140.858381 90.3589439,139.528341 C91.4100709,136.874871 92.5346389,134.291474 93.7326469,131.813845 C94.9332639,129.340182 96.2001469,126.965678 97.5351219,124.737927 C98.8689239,122.514142 100.264687,120.426535 101.717976,118.562364 C103.16383,116.698193 104.673732,115.046881 106.160807,113.767081 C106.90317,113.129825 107.638098,112.583795 108.329979,112.162043 C108.416334,112.105192 108.501123,112.06024 108.586564,112.008678 L108.651657,111.971659 L108.694703,111.946539 L108.782232,111.896299 L108.825149,111.871179 C108.82841,111.867213 108.846281,111.85928 108.86363,111.848703 L108.914764,111.824905 L109.115911,111.724425 L109.217006,111.674185 C109.307796,111.631878 109.152827,111.703271 109.181133,111.69005 L109.219223,111.671541 L109.369235,111.600147 C109.768136,111.411086 110.158428,111.240534 110.537241,111.092458 C111.295388,110.794984 112.00801,110.583447 112.66454,110.448592 C113.325506,110.311092 113.93038,110.258208 114.511904,110.263497 C114.802275,110.270107 115.087559,110.285972 115.369581,110.324314 C115.651734,110.365299 115.932713,110.416861 116.214865,110.488255 C116.778388,110.633687 117.34752,110.851834 117.911696,111.141376 C119.045003,111.71517 120.148308,112.563963 121.136952,113.498693 C122.128856,114.434745 123.01484,115.448801 123.792554,116.42055 C124.57092,117.394943 125.24219,118.330995 125.818236,119.166567 C126.106389,119.585675 126.367801,119.980985 126.609125,120.345887 C126.849927,120.710788 127.068422,121.045281 127.258611,121.349366 C127.451018,121.653451 127.622814,121.923161 127.765782,122.157173 C127.911359,122.392509 128.033716,122.58818 128.132072,122.746833 C128.229384,122.904164 128.303346,123.021832 128.353307,123.101158 C128.365308,123.12099 128.376135,123.138177 128.385918,123.151398 C128.394006,123.168586 128.40105,123.17123 128.407702,123.180485 C128.420095,123.20296 128.426617,123.213537 128.426617,123.213537 L128.433661,123.225436 C128.680985,123.644544 129.116411,123.942018 129.634408,123.990936 C130.49639,124.071585 131.258972,123.433007 131.339978,122.565705 C131.339978,122.565705 131.3405,122.552484 131.34324,122.527364 C131.34324,122.511498 131.343761,122.490345 131.343761,122.467869 C131.345327,122.445393 131.347022,122.421595 131.348588,122.393831 C131.351849,122.285418 131.357328,122.124121 131.36385,121.911262 C131.366067,121.703691 131.369329,121.443236 131.365546,121.136507 C131.357328,120.8311 131.347022,120.476775 131.323673,120.077499 C131.295888,119.6769 131.262233,119.232672 131.209533,118.740848 C131.156181,118.251669 131.08561,117.718859 130.989342,117.142421 C130.795892,115.990865 130.508391,114.668758 130.043615,113.195931 C129.57623,111.725747 128.938614,110.100877 127.968494,108.375527 C127.482585,107.516158 126.91241,106.630346 126.222746,105.743212 C125.531257,104.8574 124.723149,103.964978 123.756681,103.121473 C123.275208,102.694433 122.750166,102.289868 122.186513,101.901168 C121.905534,101.706818 121.613076,101.517757 121.312009,101.336628 C121.008724,101.156822 120.697221,100.980982 120.373326,100.81704 C120.053213,100.649133 119.720578,100.493124 119.381421,100.345048 C119.03835,100.199616 118.690062,100.060795 118.331859,99.937839 C117.618194,99.6839944 116.872439,99.4790678 116.108292,99.3283475 C114.579866,99.0202966 112.981913,98.9343596 111.419311,99.0480608 C109.852926,99.1591178 108.320196,99.4645246 106.85921,99.9100747 C106.130283,100.133511 105.41453,100.388678 104.718214,100.672931 L104.457324,100.780021 L104.391058,100.806463 C104.388318,100.807786 104.283962,100.855381 104.252525,100.869925 L104.150256,100.914876 L103.94324,101.004779 L103.892105,101.027255 L103.8291,101.05502 L103.67087,101.131702 L103.351801,101.283744 L103.194745,101.360426 L103.058952,101.43182 C102.878416,101.52569 102.69201,101.618237 102.514865,101.716073 C101.084274,102.489506 99.7825619,103.384573 98.5688999,104.345745 C97.9628519,104.825669 97.3753269,105.322782 96.8084129,105.835759 C96.2437159,106.348737 95.6958459,106.876258 95.1631079,107.415678 C94.6277609,107.953775 94.1125029,108.507738 93.6102889,109.070956 C93.1070319,109.635496 92.6156449,110.20929 92.1384769,110.793662 C90.2322819,113.133791 88.5038839,115.628608 86.9196279,118.245058 C85.3335459,120.86283 83.8835179,123.59827 82.5610649,126.432868 C81.2397859,129.268788 80.0391689,132.202544 78.9705629,135.216949 C78.7036719,135.971872 78.4422599,136.72944 78.1894569,137.492296 C77.9390019,138.255151 77.6949399,139.023296 77.4611819,139.796729 C76.9905359,141.342272 76.5480659,142.903681 76.1469469,144.483599 C74.5332109,150.797983 73.4527329,157.3715 73.1087499,164.066651 C72.9391709,167.41383 72.9575639,170.793401 73.2374989,174.177467 C73.3749879,175.868706 73.5847439,177.561004 73.8646789,179.248277 C74.1468319,180.934492 74.5038599,182.616345 74.9588529,184.280614 C75.4111059,185.945279 75.9578019,187.59355 76.6117229,189.20824 C76.9394009,190.015783 77.2965599,190.813939 77.6824169,191.599006 C77.7807729,191.795075 77.8737799,191.992862 77.9769619,192.185625 L78.3095969,192.820898 L78.5862709,193.318274 L78.6542329,193.442156 L78.7422839,193.592083 L78.9232109,193.902249 C79.1684479,194.329687 79.4053359,194.691018 79.6493989,195.07443 C79.9042889,195.45242 80.1565699,195.827502 80.4310259,196.196634 C80.9723739,196.934767 81.5631599,197.654257 82.2088629,198.340034 C82.8562619,199.024754 83.5572739,199.678139 84.3145079,200.27864 C85.0716119,200.877423 85.8831109,201.422792 86.7402659,201.896503 C87.5957249,202.370875 88.4941009,202.770813 89.4132169,203.084813 C90.3301159,203.398285 91.2677559,203.628464 92.1999169,203.777201 C94.0635859,204.078509 95.8877309,204.05048 97.5943449,203.83458 C99.3026539,203.610879 100.898389,203.204332 102.395247,202.697568 C103.888322,202.18578 105.288912,201.583031 106.609669,200.923168 C107.934339,200.268725 109.17735,199.554787 110.363879,198.814935 C111.549756,198.075084 112.674845,197.306675 113.753235,196.52769 C115.907145,194.962712 117.868257,193.347493 119.685749,191.746025 C121.504415,190.144159 123.175679,188.552078 124.724193,187.009046 C126.274272,185.464429 127.702125,183.967671 129.015838,182.540853 C131.64535,179.687878 133.81674,177.10924 135.548921,174.941512 C137.281754,172.773257 138.574726,171.016573 139.441665,169.806845 C139.874743,169.200791 140.200855,168.731971 140.418699,168.410831 C140.637847,168.085329 140.752638,167.917289 140.752638,167.917289 Z" id="logo" fill="#FFFFFF" fill-rule="nonzero"></path>
        </g>
    </g>
</svg>