<?xml version="1.0" encoding="UTF-8"?>
<svg width="345px" height="101px" viewBox="0 0 345 101" version="1.1" xmlns="http://www.w3.org/2000/svg" xmlns:xlink="http://www.w3.org/1999/xlink">
    <!-- Generator: Sketch 52.5 (67469) - http://www.bohemiancoding.com/sketch -->
    <title>We are here</title>
    <desc>Created with Sketch.</desc>
    <g id="Page-1" stroke="none" stroke-width="1" fill="none" fill-rule="evenodd">
        <g id="Artboard" transform="translate(-287.000000, -1257.000000)" fill="#D49136">
            <g id="Find-us" transform="translate(0.000000, 900.000000)">
                <g id="We-are-here" transform="translate(269.000000, 342.000000)">
                    <path d="M236.000511,112.859956 C234.263355,112.859956 232.960507,112.337615 232.091929,111.292917 C231.223351,110.248219 230.427167,109.128916 229.703352,107.934976 C228.834774,106.44255 229.051915,104.651666 230.354782,102.56227 C231.078597,101.816057 232.091923,101.442956 233.39479,101.442956 C233.829079,101.442956 234.335742,101.592196 234.914794,101.890681 C235.638609,102.487652 236.398603,103.121923 237.194799,103.793515 C237.990996,104.465106 238.75099,105.099378 239.474805,105.696348 C240.922435,106.890289 241.139577,108.382692 240.126236,110.173603 C239.83671,111.069058 239.293856,111.74064 238.49766,112.188368 C237.701463,112.636095 236.869089,112.859956 236.000511,112.859956 Z" id="Path"></path>
                    <path d="M25.8614982,69.1019981 C25.9061651,68.9233305 25.9284982,68.7334991 25.9284982,68.5324981 L25.9284982,67.9629981 C25.8838313,67.9183312 25.816832,67.8959981 25.7274982,67.8959981 L25.3254982,68.6999981 C25.1914975,68.9679994 25.0574989,69.2136636 24.9234982,69.4369981 C24.7448306,69.7496663 24.5773323,70.0511633 24.4209982,70.3414981 C24.2646641,70.6318329 24.1194989,70.9109967 23.9854982,71.1789981 C23.9854982,71.223665 23.9296654,71.3799967 23.8179982,71.6479981 C23.706331,71.9159994 23.5946654,72.2174964 23.4829982,72.5524981 L23.1479982,73.5574981 C23.036331,73.8924997 22.935832,74.1493305 22.8464982,74.3279981 C22.7571644,74.5959994 22.5115002,75.2101599 22.1094982,76.1704981 C21.7074962,77.1308362 21.4394989,78.3479907 21.3054982,79.8219981 C21.2161644,80.3580008 21.2161644,80.8939954 21.3054982,81.4299981 L21.5734982,83.0379981 C21.5734982,83.1719987 21.6069979,83.2948308 21.6739982,83.4064981 C21.7409985,83.5181653 21.8191644,83.6186643 21.9084982,83.7079981 C21.997832,83.6186643 22.098331,83.5293319 22.2099982,83.4399981 C22.3216654,83.3506643 22.4444975,83.2613319 22.5784982,83.1719981 L22.6454982,83.1049981 C22.8688326,82.747663 23.0474975,82.4684991 23.1814982,82.2674981 C23.3154989,82.0664971 23.4271644,81.8766656 23.5164982,81.6979981 C23.605832,81.5193305 23.6839979,81.3183325 23.7509982,81.0949981 C23.8179985,80.8716636 23.9184975,80.5590001 24.0524982,80.1569981 C24.2311658,79.5316616 24.3651644,78.9175011 24.4544982,78.3144981 C24.543832,77.7114951 24.6331644,77.0973345 24.7224982,76.4719981 C24.9458326,75.2213252 25.1468306,73.9930041 25.3254982,72.7869981 C25.5041658,71.580992 25.6828306,70.352671 25.8614982,69.1019981 Z M37.0504982,58.7839981 C37.139832,59.0073325 37.139832,59.1636643 37.0504982,59.2529981 C36.9611644,59.3423319 36.8271658,59.4539974 36.6484982,59.5879981 C35.5764928,60.2133345 34.5045036,60.8498282 33.4324982,61.4974981 C32.3604928,62.145168 31.3108367,62.8263278 30.2834982,63.5409981 C30.0154969,63.7643325 29.8033323,63.9876636 29.6469982,64.2109981 C29.4906641,64.4343325 29.4124982,64.724663 29.4124982,65.0819981 C29.4124982,67.8960121 29.2784995,70.6988174 29.0104982,73.4904981 C28.7424969,76.2821787 28.2735015,79.0626509 27.6034982,81.8319981 C27.4248306,82.3680008 27.2349992,82.9039954 27.0339982,83.4399981 C26.8329972,83.9760008 26.5649999,84.4673292 26.2299982,84.9139981 C25.8949965,85.360667 25.5041671,85.7291633 25.0574982,86.0194981 C24.6108293,86.3098329 24.0748347,86.4549981 23.4494982,86.4549981 C22.9581624,86.4549981 22.4891671,86.3656656 22.0424982,86.1869981 C21.5958293,86.0083305 21.1938333,85.7180001 20.8364982,85.3159981 C19.4964915,83.6186563 18.9158306,81.6756757 19.0944982,79.4869981 C19.3178326,78.280992 19.6528293,77.0191713 20.0994982,75.7014981 C20.5461671,74.3838248 21.0598286,73.0773379 21.6404982,71.7819981 C22.2211678,70.4866583 22.8576614,69.2248375 23.5499982,67.9964981 C24.242335,66.7681586 24.9234948,65.6626697 25.5934982,64.6799981 C25.7721658,64.4566636 25.917331,64.2333325 26.0289982,64.0099981 C26.1406654,63.7866636 26.1741651,63.5409994 26.1294982,63.2729981 C26.0848313,62.5583278 26.0736647,61.8660014 26.0959982,61.1959981 C26.1183316,60.5259947 26.1294982,59.8336683 26.1294982,59.1189981 C25.9954975,59.1189981 25.9061651,59.096665 25.8614982,59.0519981 C25.7274975,59.3646663 25.5823323,59.6549967 25.4259982,59.9229981 C25.2696641,60.1909994 25.1244989,60.4813298 24.9904982,60.7939981 C24.9011644,61.0173325 24.7671658,61.2964964 24.5884982,61.6314981 L24.0524982,62.6364981 C23.8738306,62.9714997 23.7063323,63.2506636 23.5499982,63.4739981 C23.3936641,63.6973325 23.3154982,63.8313312 23.3154982,63.8759981 C22.600828,65.126671 21.6405042,65.7519981 20.4344982,65.7519981 C19.8538286,65.7519981 19.3401671,65.6179994 18.8934982,65.3499981 C18.4468293,65.0819967 18.0559999,64.7358335 17.7209982,64.3114981 C17.3859965,63.8871626 17.1291658,63.4181673 16.9504982,62.9044981 C16.7718306,62.3908288 16.637832,61.8883339 16.5484982,61.3969981 C16.4591644,60.4143265 16.4591644,59.4540028 16.5484982,58.5159981 C16.637832,57.5779934 16.7941637,56.6400028 17.0174982,55.7019981 C17.1514989,55.2999961 17.2854975,55.0989981 17.4194982,55.0989981 C17.5981658,55.0989981 17.7768306,55.1883305 17.9554982,55.3669981 C18.1788326,55.5456656 18.4133303,55.7354971 18.6589982,55.9364981 C18.9046661,56.1374991 19.0944975,56.3496636 19.2284982,56.5729981 C19.317832,56.7069987 19.3513316,56.8968302 19.3289982,57.1424981 C19.3066647,57.388166 19.2954982,57.6226636 19.2954982,57.8459981 C19.3401651,58.6053352 19.3624982,59.3869941 19.3624982,60.1909981 C19.3624982,60.9950021 19.3848313,61.7989941 19.4294982,62.6029981 C19.518832,62.8709994 19.6081644,63.0049981 19.6974982,63.0049981 C19.9208326,63.0049981 20.2446627,62.781667 20.6689982,62.3349981 C21.0933336,61.8883292 21.5288293,61.3635011 21.9754982,60.7604981 C22.4221671,60.1574951 22.8464962,59.5768342 23.2484982,59.0184981 C23.6505002,58.4601619 23.9184975,58.0916656 24.0524982,57.9129981 C24.3651664,57.4663292 24.6554969,57.019667 24.9234982,56.5729981 C25.1914995,56.1263292 25.48183,55.7020001 25.7944982,55.2999981 C25.9731658,55.1213305 26.21883,55.0319981 26.5314982,55.0319981 C27.1568347,55.0319981 27.7151624,55.3558282 28.2064982,56.0034981 C28.697834,56.651168 28.9434982,57.2653285 28.9434982,57.8459981 C28.8988313,58.5606683 28.9211644,59.2641613 29.0104982,59.9564981 C29.099832,60.6488349 29.1668313,61.3746609 29.2114982,62.1339981 C29.300832,62.4019994 29.3678313,62.5359981 29.4124982,62.5359981 C29.501832,62.5359981 29.6358306,62.4689987 29.8144982,62.3349981 C30.6631691,61.7543285 31.5118273,61.1848342 32.3604982,60.6264981 C33.2091691,60.0681619 34.0578273,59.5210008 34.9064982,58.9849981 C35.0404989,58.8956643 35.2973296,58.7728322 35.6769982,58.6164981 C36.0566668,58.460164 36.3134975,58.3819981 36.4474982,58.3819981 C36.7154995,58.3819981 36.9164975,58.5159967 37.0504982,58.7839981 Z M37.4524982,64.8809981 C38.5245036,64.523663 39.4848273,63.8313365 40.3334982,62.8039981 C41.1821691,61.7766596 41.561832,60.6600041 41.4724982,59.4539981 C41.4724982,59.3199974 41.4389985,59.1189994 41.3719982,58.8509981 C41.3049979,58.5829967 41.226832,58.326166 41.1374982,58.0804981 C41.0481644,57.8348302 40.9364989,57.6114991 40.8024982,57.4104981 C40.6684975,57.2094971 40.4898326,57.1089981 40.2664982,57.1089981 C40.0878306,57.1089981 39.9091658,57.1983305 39.7304982,57.3769981 C38.5691591,58.1810021 37.7875002,59.1971586 37.3854982,60.4254981 C36.9834962,61.6538375 36.737832,62.9379914 36.6484982,64.2779981 C36.6038313,64.7693339 36.6931637,65.0149981 36.9164982,65.0149981 C37.005832,65.0149981 37.0839979,65.0038315 37.1509982,64.9814981 L37.4524982,64.8809981 Z M54.2694982,58.4489981 C54.358832,58.5383319 54.3811651,58.6499974 54.3364982,58.7839981 L54.2024982,58.9179981 C53.3984942,59.2306663 52.6391684,59.4539974 51.9244982,59.5879981 C51.209828,59.7219987 50.405836,59.8336643 49.5124982,59.9229981 C48.6191604,59.8783312 47.7370025,59.8224984 46.8659982,59.7554981 C45.9949938,59.6884977 45.112836,59.4540001 44.2194982,59.0519981 C44.1301644,59.0073312 43.9961658,58.9849981 43.8174982,58.9849981 C43.8174982,59.0743319 43.8063316,59.1413312 43.7839982,59.1859981 C43.7616647,59.230665 43.7504982,59.2753312 43.7504982,59.3199981 C44.1078333,60.3473365 44.141333,61.2853272 43.8509982,62.1339981 C43.5606634,62.982669 43.1028347,63.7866609 42.4774982,64.5459981 C41.8968286,65.2606683 41.2045022,65.8748288 40.4004982,66.3884981 C39.5964942,66.9021673 38.7255029,67.1589981 37.7874982,67.1589981 C37.072828,67.1589981 36.469834,66.9803332 35.9784982,66.6229981 C35.4871624,66.265663 34.995834,65.8413339 34.5044982,65.3499981 C34.1471631,64.9033292 33.9349985,64.4343339 33.8679982,63.9429981 C33.8009979,63.4516623 33.8121644,62.9603339 33.9014982,62.4689981 C33.990832,61.8883285 34.1583303,61.2071686 34.4039982,60.4254981 C34.6496661,59.6438275 34.9734962,58.8956683 35.3754982,58.1809981 C35.7775002,57.4663278 36.2688286,56.8633339 36.8494982,56.3719981 C37.4301678,55.8806623 38.077828,55.6349981 38.7924982,55.6349981 C38.9711658,55.6349981 39.2614962,55.7019974 39.6634982,55.8359981 C40.0655002,55.9699987 40.4786627,56.1263305 40.9029982,56.3049981 C41.3273336,56.4836656 41.7293296,56.6734971 42.1089982,56.8744981 C42.4886668,57.0754991 42.7678306,57.2206643 42.9464982,57.3099981 C44.241838,58.0693352 45.4701591,58.5718302 46.6314982,58.8174981 C47.7928373,59.063166 48.8424935,59.1859981 49.7804982,59.1859981 C51.075838,59.1859981 52.1254942,59.0519994 52.9294982,58.7839981 C53.7335022,58.5159967 54.1801644,58.4043312 54.2694982,58.4489981 Z M69.4784982,58.5159981 C69.6124989,58.560665 69.6794982,58.6723305 69.6794982,58.8509981 C69.6348313,58.9403319 69.6013316,59.0184977 69.5789982,59.0854981 C69.5566647,59.1524984 69.5231651,59.2306643 69.4784982,59.3199981 L66.2624982,62.2679981 C65.7711624,62.714667 65.1905015,62.9379981 64.5204982,62.9379981 C63.6271604,62.9379981 62.834335,62.6476676 62.1419982,62.0669981 C61.4496614,61.4863285 61.0141658,60.771669 60.8354982,59.9229981 C60.7908313,59.8336643 60.7684982,59.7331653 60.7684982,59.6214981 C60.7684982,59.5098308 60.723832,59.3646656 60.6344982,59.1859981 C60.2324962,59.8113345 59.8528333,60.4254951 59.4954982,61.0284981 C59.1381631,61.6315011 58.7361671,62.1786623 58.2894982,62.6699981 C57.574828,63.518669 56.7485029,64.3003278 55.8104982,65.0149981 C55.4531631,65.2383325 55.0511671,65.3499981 54.6044982,65.3499981 C54.2471631,65.3499981 53.8005009,65.2383325 53.2644982,65.0149981 C52.4158273,64.5683292 51.8239999,64.0100014 51.4889982,63.3399981 C51.1539965,62.6699947 51.0311644,61.8883359 51.1204982,60.9949981 C51.209832,60.0123265 51.310331,59.0296697 51.4219982,58.0469981 C51.5336654,57.0643265 51.6564975,56.0816697 51.7904982,55.0989981 C51.879832,54.5183285 52.1924955,54.2279981 52.7284982,54.2279981 C52.8624989,54.2279981 52.9741644,54.2503312 53.0634982,54.2949981 C53.6888347,54.5183325 54.0908306,54.7416636 54.2694982,54.9649981 C54.4481658,55.1883325 54.492832,55.6126616 54.4034982,56.2379981 C54.3588313,56.9080014 54.3029985,57.5779947 54.2359982,58.2479981 C54.1689979,58.9180014 54.1131651,59.5656616 54.0684982,60.1909981 C54.0684982,60.5930001 54.0796647,60.9949961 54.1019982,61.3969981 C54.1243316,61.7990001 54.1578313,62.2009961 54.2024982,62.6029981 C54.2024982,62.8263325 54.2694975,62.9379981 54.4034982,62.9379981 C54.5374989,62.9379981 54.6268313,62.8933319 54.6714982,62.8039981 L56.2794982,61.1959981 C56.8155009,60.6599954 57.3291624,60.1016676 57.8204982,59.5209981 C58.2225002,59.0743292 58.57983,58.6053339 58.8924982,58.1139981 C59.2051664,57.6226623 59.5401631,57.1313339 59.8974982,56.6399981 C59.986832,56.4613305 60.0984975,56.3719981 60.2324982,56.3719981 C60.6791671,56.3719981 61.0811631,56.4836636 61.4384982,56.7069981 C61.7958333,56.9303325 62.0191644,57.2876623 62.1084982,57.7789981 L62.3764982,59.3869981 C62.465832,59.9230008 62.5774975,60.4589954 62.7114982,60.9949981 C62.9348326,61.7543352 63.3368286,62.1339981 63.9174982,62.1339981 C64.0961658,62.1339981 64.3641631,62.0446656 64.7214982,61.8659981 C65.0788333,61.6873305 65.3914969,61.475166 65.6594982,61.2294981 C65.9274995,60.9838302 66.1954969,60.7493325 66.4634982,60.5259981 C66.8655002,60.2133298 67.2563296,59.8894997 67.6359982,59.5544981 C68.0156668,59.2194964 68.4064962,58.9179994 68.8084982,58.6499981 L69.1434982,58.4489981 C69.232832,58.4489981 69.2886647,58.4601646 69.3109982,58.4824981 C69.3333316,58.5048315 69.3891644,58.5159981 69.4784982,58.5159981 Z M107.802498,58.7839981 C107.936499,59.0073325 107.969999,59.197164 107.902998,59.3534981 C107.835998,59.5098322 107.713166,59.6326643 107.534498,59.7219981 C107.355831,59.8559987 106.965001,60.1239961 106.361998,60.5259981 C105.758995,60.9280001 105.100168,61.3746623 104.385498,61.8659981 C103.670828,62.3573339 102.945002,62.8486623 102.207998,63.3399981 C101.470995,63.8313339 100.856834,64.2109967 100.365498,64.4789981 C99.9188293,64.7469994 99.3828347,65.0261633 98.7574982,65.3164981 C98.1321617,65.6068329 97.4956681,65.8748302 96.8479982,66.1204981 C96.2003283,66.366166 95.5526681,66.567164 94.9049982,66.7234981 C94.2573283,66.8798322 93.6655009,66.9579981 93.1294982,66.9579981 C91.9681591,66.9579981 91.0748347,66.7011673 90.4494982,66.1874981 C89.8241617,65.6738288 89.2435009,64.9480028 88.7074982,64.0099981 C88.0374948,62.8933258 87.7806641,61.81017 87.9369982,60.7604981 C88.0933323,59.7108262 88.5958273,58.6946697 89.4444982,57.7119981 C90.1591684,56.9079941 90.9631604,56.1486683 91.8564982,55.4339981 C92.749836,54.7193278 93.7771591,54.3619981 94.9384982,54.3619981 C96.3231718,54.3619981 97.5514928,54.964992 98.6234982,56.1709981 C99.0255002,56.617667 98.980834,57.0419961 98.4894982,57.4439981 C98.3108306,57.5333319 98.1991651,57.5779981 98.1544982,57.5779981 C97.9758306,57.5779981 97.7971658,57.4216663 97.6184982,57.1089981 C97.4398306,56.8409967 97.1271671,56.7069981 96.6804982,56.7069981 C96.2784962,56.7069981 95.8541671,56.8298302 95.4074982,57.0754981 C94.9608293,57.321166 94.5141671,57.6338295 94.0674982,58.0134981 C93.6208293,58.3931666 93.2299999,58.7839961 92.8949982,59.1859981 L92.0574982,60.1909981 C91.7001631,60.6823339 91.3986661,61.1848288 91.1529982,61.6984981 C90.9073303,62.2121673 90.8068313,62.7816616 90.8514982,63.4069981 C90.8514982,63.5856656 90.8961644,63.853663 90.9854982,64.2109981 C91.0301651,64.7023339 91.3428286,64.9479981 91.9234982,64.9479981 C92.816836,64.9479981 93.6766607,64.8474991 94.5029982,64.6464981 C95.3293357,64.4454971 96.1221611,64.1663332 96.8814982,63.8089981 C98.4448393,63.1389947 99.7513263,62.5471673 100.800998,62.0334981 C101.85067,61.5198288 102.755161,61.0508335 103.514498,60.6264981 C104.273835,60.2021626 104.910329,59.8336663 105.423998,59.5209981 C105.937667,59.2083298 106.417829,58.9403325 106.864498,58.7169981 C107.1325,58.5829974 107.311164,58.5159981 107.400498,58.5159981 C107.534499,58.5159981 107.668498,58.6053305 107.802498,58.7839981 Z M113.966498,56.1039981 C114.145166,55.7913298 114.200999,55.5903319 114.133998,55.5009981 C114.066998,55.4116643 113.854833,55.3669981 113.497498,55.3669981 C113.274164,55.4563319 113.050833,55.5233312 112.827498,55.5679981 C112.604164,55.612665 112.380833,55.6796643 112.157498,55.7689981 C111.532162,56.0816663 110.940334,56.5059954 110.381998,57.0419981 C109.823662,57.5780008 109.321167,58.1809947 108.874498,58.8509981 C108.427829,59.5210014 108.048166,60.2244944 107.735498,60.9614981 C107.42283,61.6985018 107.199499,62.4019947 107.065498,63.0719981 C107.020831,63.4293332 107.087831,63.6079981 107.266498,63.6079981 C107.891835,63.6079981 108.550661,63.3065011 109.242998,62.7034981 C109.935335,62.1004951 110.594162,61.3970021 111.219498,60.5929981 C111.844835,59.7889941 112.403162,58.962669 112.894498,58.1139981 C113.385834,57.2653272 113.743164,56.5953339 113.966498,56.1039981 Z M125.423498,58.9179981 C125.646833,59.0073319 125.713832,59.1078308 125.624498,59.2194981 C125.535164,59.3311653 125.445832,59.4316643 125.356498,59.5209981 C124.999163,59.7889994 124.664166,60.0458302 124.351498,60.2914981 C124.03883,60.537166 123.726166,60.7939967 123.413498,61.0619981 C122.922162,61.4640001 122.442001,61.8659961 121.972998,62.2679981 C121.503996,62.6700001 121.023834,63.049663 120.532498,63.4069981 C120.264497,63.6303325 119.9965,63.8424971 119.728498,64.0434981 C119.460497,64.2444991 119.170166,64.3896643 118.857498,64.4789981 C118.54483,64.6129987 118.2545,64.6799981 117.986498,64.6799981 C117.048494,64.6799981 116.289168,64.0770041 115.708498,62.8709981 C115.485164,62.513663 115.339999,62.111667 115.272998,61.6649981 C115.205998,61.2183292 115.127832,60.7940001 115.038498,60.3919981 L115.038498,59.5879981 C114.636496,60.1686676 114.256833,60.6934957 113.899498,61.1624981 C113.542163,61.6315004 113.184833,62.1116623 112.827498,62.6029981 C112.559497,62.9156663 112.246833,63.2618295 111.889498,63.6414981 C111.532163,64.0211666 111.1525,64.3673298 110.750498,64.6799981 C110.348496,64.9926663 109.924167,65.2494971 109.477498,65.4504981 C109.030829,65.6514991 108.584167,65.7519981 108.137498,65.7519981 C107.646162,65.7519981 107.188334,65.629166 106.763998,65.3834981 C106.339663,65.1378302 105.948833,64.8140001 105.591498,64.4119981 C104.921495,63.5633272 104.586498,62.7035024 104.586498,61.8324981 C104.586498,60.9614937 104.809829,60.0793359 105.256498,59.1859981 C105.569166,58.6053285 105.948829,57.991168 106.395498,57.3434981 C106.842167,56.6958282 107.344662,56.0928342 107.902998,55.5344981 C108.461334,54.9761619 109.075495,54.5183332 109.745498,54.1609981 C110.415502,53.803663 111.107828,53.6249981 111.822498,53.6249981 C112.760503,53.6249981 113.631494,53.9376616 114.435498,54.5629981 C114.569499,54.6969987 114.658831,54.741665 114.703498,54.6969981 C114.792832,54.6523312 114.926831,54.6299981 115.105498,54.6299981 C115.462833,54.6299981 115.730831,54.7528302 115.909498,54.9984981 C116.088166,55.244166 116.311497,55.4563305 116.579498,55.6349981 C116.936833,55.8583325 117.126665,56.148663 117.148998,56.5059981 C117.171332,56.8633332 117.182498,57.220663 117.182498,57.5779981 L117.182498,62.2679981 C117.182498,62.714667 117.294164,62.9379981 117.517498,62.9379981 C117.651499,62.9379981 117.852497,62.8709987 118.120498,62.7369981 C118.745835,62.3349961 119.371162,61.9218335 119.996498,61.4974981 C120.621835,61.0731626 121.247162,60.6600001 121.872498,60.2579981 C122.319167,59.9453298 122.754663,59.6438329 123.178998,59.3534981 C123.603334,59.0631633 124.016496,58.7839994 124.418498,58.5159981 C124.597166,58.4266643 124.708831,58.3819981 124.753498,58.3819981 C124.932166,58.3819981 125.066164,58.4489974 125.155498,58.5829981 C125.244832,58.7169987 125.334164,58.8286643 125.423498,58.9179981 Z M144.585498,58.8509981 C144.630165,58.895665 144.641332,58.9626643 144.618998,59.0519981 C144.596665,59.1413319 144.563165,59.2083312 144.518498,59.2529981 C142.017152,61.2183412 139.27018,62.8263252 136.277498,64.0769981 C135.920163,64.1663319 135.696832,64.2109981 135.607498,64.2109981 C134.982162,64.2109981 134.423834,63.8760014 133.932498,63.2059981 C133.441162,62.5806616 133.139665,61.9106683 133.027998,61.1959981 C132.916331,60.4813278 132.927498,59.7443352 133.061498,58.9849981 C133.106165,58.7616636 133.128498,58.527166 133.128498,58.2814981 C133.128498,58.0358302 133.150831,57.8013325 133.195498,57.5779981 C133.150831,57.5779981 133.128498,57.5668315 133.128498,57.5444981 C133.128498,57.5221646 133.106165,57.5109981 133.061498,57.5109981 C132.212827,58.0023339 131.408835,58.6723272 130.649498,59.5209981 C129.890161,60.369669 129.197835,61.1736609 128.572498,61.9329981 C128.438498,62.1563325 128.215166,62.446663 127.902498,62.8039981 C127.58983,63.1613332 127.266,63.518663 126.930998,63.8759981 C126.595997,64.2333332 126.238667,64.5459967 125.858998,64.8139981 C125.47933,65.0819994 125.1555,65.2159981 124.887498,65.2159981 C124.172828,65.2159981 123.592167,64.9256676 123.145498,64.3449981 C122.520162,63.5409941 122.240998,62.7481686 122.307998,61.9664981 C122.374999,61.1848275 122.520164,60.4143352 122.743498,59.6549981 C122.966833,58.8956609 123.20133,58.1698349 123.446998,57.4774981 C123.692666,56.7851613 123.927164,56.0816683 124.150498,55.3669981 C124.284499,54.7863285 124.485497,54.4959981 124.753498,54.4959981 C124.976833,54.4959981 125.222497,54.6523298 125.490498,54.9649981 L126.696498,56.1709981 C126.785832,56.2603319 126.785832,56.3943305 126.696498,56.5729981 C126.607164,57.019667 126.517832,57.4439961 126.428498,57.8459981 C126.339164,58.2480001 126.249832,58.6723292 126.160498,59.1189981 C126.115831,59.2083319 126.093498,59.4093298 126.093498,59.7219981 C127.924841,57.8906556 129.934821,56.2156723 132.123498,54.6969981 C132.302166,54.5183305 132.525497,54.4289981 132.793498,54.4289981 C133.0615,54.4289981 133.374163,54.5629967 133.731498,54.8309981 L134.501998,55.6014981 C134.747666,55.847166 134.982164,56.1039967 135.205498,56.3719981 C135.562833,56.818667 135.707999,57.2764957 135.640998,57.7454981 C135.573998,58.2145004 135.540498,58.6946623 135.540498,59.1859981 C135.540498,59.9453352 135.473499,60.7046609 135.339498,61.4639981 C135.339498,61.7766663 135.406498,61.9329981 135.540498,61.9329981 C135.719166,61.9329981 136.076496,61.8324991 136.612498,61.6314981 C137.148501,61.4304971 137.717995,61.1959994 138.320998,60.9279981 C138.924001,60.6599967 139.504662,60.403166 140.062998,60.1574981 C140.621334,59.9118302 140.989831,59.7443319 141.168498,59.6549981 L142.374498,59.1189981 C142.7765,58.9403305 143.178496,58.7393325 143.580498,58.5159981 C143.669832,58.4713312 143.781498,58.4489981 143.915498,58.4489981 C144.094166,58.4489981 144.317497,58.5829967 144.585498,58.8509981 Z M168.370498,70.9109981 C168.727833,69.5709914 168.939998,68.2198382 169.006998,66.8574981 C169.073999,65.4951579 168.884167,64.1216717 168.437498,62.7369981 C168.348164,62.4689967 168.225332,62.2009994 168.068998,61.9329981 C167.912664,61.6649967 167.745166,61.3969994 167.566498,61.1289981 C167.521831,61.0396643 167.410166,60.9503319 167.231498,60.8609981 C167.231498,60.9503319 167.209165,61.0173312 167.164498,61.0619981 C167.119831,61.106665 167.097498,61.1736643 167.097498,61.2629981 C167.052831,61.4863325 167.030498,61.6984971 167.030498,61.8994981 L167.030498,62.5359981 C166.941164,63.384669 166.862999,64.2221606 166.795998,65.0484981 C166.728998,65.8748355 166.673165,66.7123272 166.628498,67.5609981 C166.583831,68.6330034 166.583831,69.6826596 166.628498,70.7099981 C166.673165,71.2013339 166.717831,71.6814957 166.762498,72.1504981 C166.807165,72.6195004 166.851831,73.0996623 166.896498,73.5909981 L167.030498,73.5909981 L167.298498,73.3229981 C167.387832,73.2336643 167.454831,73.1443319 167.499498,73.0549981 C167.678166,72.697663 167.845664,72.3403332 168.001998,71.9829981 C168.158332,71.625663 168.281164,71.2683332 168.370498,70.9109981 Z M167.566498,58.5159981 C167.521831,58.6053319 167.510665,58.6723312 167.532998,58.7169981 C167.555332,58.761665 167.566498,58.8286643 167.566498,58.9179981 C167.655832,58.8733312 167.733998,58.8509981 167.800998,58.8509981 C167.867999,58.8509981 167.923831,58.8063319 167.968498,58.7169981 C168.147166,58.5829974 168.303498,58.4378322 168.437498,58.2814981 C168.571499,58.125164 168.727831,57.9576656 168.906498,57.7789981 C169.799836,56.6623258 170.43633,55.478671 170.815998,54.2279981 C171.195667,52.9773252 171.430164,51.6373386 171.519498,50.2079981 C171.519498,49.8059961 171.508332,49.4040001 171.485998,49.0019981 C171.463665,48.5999961 171.430165,48.1980001 171.385498,47.7959981 C171.296164,47.7959981 171.229165,47.773665 171.184498,47.7289981 C170.782496,48.2650008 170.391667,49.0131599 170.011998,49.9734981 C169.63233,50.9338362 169.275,51.9276596 168.939998,52.9549981 C168.604997,53.9823365 168.325833,54.998493 168.102498,56.0034981 C167.879164,57.0085031 167.700499,57.8459947 167.566498,58.5159981 Z M182.306498,58.3819981 C182.351165,58.426665 182.362332,58.5159974 182.339998,58.6499981 C182.317665,58.7839987 182.306498,58.8956643 182.306498,58.9849981 C182.306498,59.2976663 182.217166,59.532164 182.038498,59.6884981 C181.859831,59.8448322 181.658833,59.9676643 181.435498,60.0569981 C179.916824,60.8163352 178.353506,61.4863285 176.745498,62.0669981 C175.13749,62.6476676 173.48484,62.9379981 171.787498,62.9379981 C171.430163,62.9379981 171.084,62.915665 170.748998,62.8709981 C170.413997,62.8263312 170.067833,62.7593319 169.710498,62.6699981 C169.621164,62.6253312 169.464833,62.6029981 169.241498,62.6029981 C169.241498,62.8263325 169.263831,63.0049974 169.308498,63.1389981 C169.397832,63.5410001 169.520664,63.9429961 169.676998,64.3449981 C169.833332,64.7470001 169.933831,65.1489961 169.978498,65.5509981 C170.067832,66.3550021 170.112498,67.1589941 170.112498,67.9629981 C170.112498,68.7670021 170.023166,69.5486609 169.844498,70.3079981 C169.755164,70.6653332 169.688165,71.0449961 169.643498,71.4469981 C169.598831,71.8490001 169.531832,72.228663 169.442498,72.5859981 C169.353164,72.8986663 169.252665,73.2001633 169.140998,73.4904981 C169.029331,73.7808329 168.928832,74.0599967 168.839498,74.3279981 C168.705498,74.6406663 168.560332,74.9309967 168.403998,75.1989981 C168.247664,75.4669994 168.102499,75.7573298 167.968498,76.0699981 C167.834498,76.3379994 167.544167,76.4719981 167.097498,76.4719981 C166.650829,76.4719981 166.237667,76.2821666 165.857998,75.9024981 C165.47833,75.5228295 165.143333,75.0650008 164.852998,74.5289981 C164.562663,73.9929954 164.305833,73.4570008 164.082498,72.9209981 C163.859164,72.3849954 163.702832,71.9383332 163.613498,71.5809981 C163.211496,70.0176569 162.976999,68.4766723 162.909998,66.9579981 C162.842998,65.4393238 162.898831,63.8983392 163.077498,62.3349981 C163.390166,59.3869833 164.004327,56.4501794 164.919998,53.5244981 C165.835669,50.5988168 167.231489,47.9523432 169.107498,45.5849981 C169.3755,45.3169967 169.688163,45.1829981 170.045498,45.1829981 C170.268833,45.1829981 170.514497,45.2499974 170.782498,45.3839981 C171.363168,45.7413332 171.820997,46.1656623 172.155998,46.6569981 C172.491,47.1483339 172.703164,47.7289947 172.792498,48.3989981 C172.837165,49.0243345 172.859498,49.6161619 172.859498,50.1744981 C172.859498,50.7328342 172.770166,51.3246616 172.591498,51.9499981 C172.412831,52.4860008 172.312332,53.0331619 172.289998,53.5914981 C172.267665,54.1498342 172.144833,54.6746623 171.921498,55.1659981 C171.742831,55.6573339 171.5195,56.1374957 171.251498,56.6064981 C170.983497,57.0755004 170.7155,57.5556623 170.447498,58.0469981 C170.000829,58.7170014 169.487168,59.1413305 168.906498,59.3199981 C168.951165,59.3199981 168.906499,59.3869974 168.772498,59.5209981 C168.683164,59.6103319 168.593832,59.7108308 168.504498,59.8224981 C168.415164,59.9341653 168.303499,60.0569974 168.169498,60.1909981 C168.258832,60.235665 168.359331,60.2914977 168.470998,60.3584981 C168.582665,60.4254984 168.705498,60.4589981 168.839498,60.4589981 C169.732836,60.6376656 170.737826,60.7269981 171.854498,60.7269981 C173.417839,60.7269981 175.081656,60.5483332 176.845998,60.1909981 C178.61034,59.833663 180.162491,59.230669 181.502498,58.3819981 C181.547165,58.3373312 181.658831,58.3149981 181.837498,58.3149981 C182.060833,58.3149981 182.217164,58.3373312 182.306498,58.3819981 Z M193.629498,58.6499981 C193.718832,58.7393319 193.718832,58.8733305 193.629498,59.0519981 C193.540164,59.2306656 193.450832,59.3869974 193.361498,59.5209981 C192.959496,60.0570008 192.401168,60.6711613 191.686498,61.3634981 C190.971828,62.0558349 190.201336,62.7258282 189.374998,63.3734981 C188.548661,64.021168 187.700003,64.6018288 186.828998,65.1154981 C185.957994,65.6291673 185.187502,66.0199967 184.517498,66.2879981 C184.160163,66.4666656 183.735834,66.5559981 183.244498,66.5559981 C182.395827,66.5559981 181.636502,66.2210014 180.966498,65.5509981 C180.341162,64.9256616 179.849833,64.2445018 179.492498,63.5074981 C179.135163,62.7704944 179.001164,62.0223352 179.090498,61.2629981 C179.090498,60.9949967 179.146331,60.4701686 179.257998,59.6884981 C179.369665,58.9068275 179.514831,58.1028355 179.693498,57.2764981 C179.872166,56.4501606 180.095497,55.7020014 180.363498,55.0319981 C180.6315,54.3619947 180.92183,54.0269981 181.234498,54.0269981 C181.368499,54.0269981 181.524831,54.0716643 181.703498,54.1609981 C182.775504,54.607667 183.199833,55.3893258 182.976498,56.5059981 C182.842498,57.1760014 182.708499,57.8571613 182.574498,58.5494981 C182.440498,59.2418349 182.328832,59.9229947 182.239498,60.5929981 C182.150164,61.2183345 182.071999,61.8213285 182.004998,62.4019981 C181.937998,62.9826676 181.993831,63.5633285 182.172498,64.1439981 C182.306499,64.4566663 182.462831,64.6129981 182.641498,64.6129981 C183.222168,64.6129981 183.981494,64.3785004 184.919498,63.9094981 C185.857503,63.4404957 186.80666,62.882168 187.766998,62.2344981 C188.727336,61.5868282 189.65416,60.9280014 190.547498,60.2579981 C191.440836,59.5879947 192.110829,59.0520001 192.557498,58.6499981 C192.780833,58.5159974 192.981831,58.4489981 193.160498,58.4489981 C193.339166,58.4489981 193.495498,58.5159974 193.629498,58.6499981 Z M182.909498,53.2229981 C182.373496,53.2229981 181.9715,53.0666663 181.703498,52.7539981 C181.435497,52.4413298 181.189833,52.1063332 180.966498,51.7489981 C180.698497,51.3023292 180.765496,50.7663345 181.167498,50.1409981 C181.390833,49.9176636 181.703496,49.8059981 182.105498,49.8059981 C182.239499,49.8059981 182.395831,49.8506643 182.574498,49.9399981 C182.797833,50.1186656 183.03233,50.3084971 183.277998,50.5094981 C183.523666,50.7104991 183.758164,50.9003305 183.981498,51.0789981 C184.428167,51.4363332 184.495166,51.8829954 184.182498,52.4189981 C184.093164,52.6869994 183.925666,52.8879974 183.679998,53.0219981 C183.43433,53.1559987 183.1775,53.2229981 182.909498,53.2229981 Z M212.590498,58.8509981 C212.635165,58.895665 212.646332,58.9626643 212.623998,59.0519981 C212.601665,59.1413319 212.568165,59.2083312 212.523498,59.2529981 C210.022152,61.2183412 207.27518,62.8263252 204.282498,64.0769981 C203.925163,64.1663319 203.701832,64.2109981 203.612498,64.2109981 C202.987162,64.2109981 202.428834,63.8760014 201.937498,63.2059981 C201.446162,62.5806616 201.144665,61.9106683 201.032998,61.1959981 C200.921331,60.4813278 200.932498,59.7443352 201.066498,58.9849981 C201.111165,58.7616636 201.133498,58.527166 201.133498,58.2814981 C201.133498,58.0358302 201.155831,57.8013325 201.200498,57.5779981 C201.155831,57.5779981 201.133498,57.5668315 201.133498,57.5444981 C201.133498,57.5221646 201.111165,57.5109981 201.066498,57.5109981 C200.217827,58.0023339 199.413835,58.6723272 198.654498,59.5209981 C197.895161,60.369669 197.202835,61.1736609 196.577498,61.9329981 C196.443498,62.1563325 196.220166,62.446663 195.907498,62.8039981 C195.59483,63.1613332 195.271,63.518663 194.935998,63.8759981 C194.600997,64.2333332 194.243667,64.5459967 193.863998,64.8139981 C193.48433,65.0819994 193.1605,65.2159981 192.892498,65.2159981 C192.177828,65.2159981 191.597167,64.9256676 191.150498,64.3449981 C190.525162,63.5409941 190.245998,62.7481686 190.312998,61.9664981 C190.379999,61.1848275 190.525164,60.4143352 190.748498,59.6549981 C190.971833,58.8956609 191.20633,58.1698349 191.451998,57.4774981 C191.697666,56.7851613 191.932164,56.0816683 192.155498,55.3669981 C192.289499,54.7863285 192.490497,54.4959981 192.758498,54.4959981 C192.981833,54.4959981 193.227497,54.6523298 193.495498,54.9649981 L194.701498,56.1709981 C194.790832,56.2603319 194.790832,56.3943305 194.701498,56.5729981 C194.612164,57.019667 194.522832,57.4439961 194.433498,57.8459981 C194.344164,58.2480001 194.254832,58.6723292 194.165498,59.1189981 C194.120831,59.2083319 194.098498,59.4093298 194.098498,59.7219981 C195.929841,57.8906556 197.939821,56.2156723 200.128498,54.6969981 C200.307166,54.5183305 200.530497,54.4289981 200.798498,54.4289981 C201.0665,54.4289981 201.379163,54.5629967 201.736498,54.8309981 L202.506998,55.6014981 C202.752666,55.847166 202.987164,56.1039967 203.210498,56.3719981 C203.567833,56.818667 203.712999,57.2764957 203.645998,57.7454981 C203.578998,58.2145004 203.545498,58.6946623 203.545498,59.1859981 C203.545498,59.9453352 203.478499,60.7046609 203.344498,61.4639981 C203.344498,61.7766663 203.411498,61.9329981 203.545498,61.9329981 C203.724166,61.9329981 204.081496,61.8324991 204.617498,61.6314981 C205.153501,61.4304971 205.722995,61.1959994 206.325998,60.9279981 C206.929001,60.6599967 207.509662,60.403166 208.067998,60.1574981 C208.626334,59.9118302 208.994831,59.7443319 209.173498,59.6549981 L210.379498,59.1189981 C210.7815,58.9403305 211.183496,58.7393325 211.585498,58.5159981 C211.674832,58.4713312 211.786498,58.4489981 211.920498,58.4489981 C212.099166,58.4489981 212.322497,58.5829967 212.590498,58.8509981 Z M219.424498,56.8409981 C219.603166,56.4389961 219.536166,56.1933319 219.223498,56.1039981 C219.044831,56.0593312 218.866166,56.0034984 218.687498,55.9364981 C218.508831,55.8694977 218.352499,55.8359981 218.218498,55.8359981 C218.084498,55.8359981 217.894666,55.9029974 217.648998,56.0369981 C217.40333,56.1709987 217.1465,56.3384971 216.878498,56.5394981 C216.610497,56.7404991 216.353666,56.9303305 216.107998,57.1089981 C215.86233,57.2876656 215.694832,57.4216643 215.605498,57.5109981 C214.667494,58.4936697 213.941667,59.5991586 213.427998,60.8274981 C212.914329,62.0558375 212.545833,63.3399914 212.322498,64.6799981 C212.367165,65.3946683 212.478831,65.7519981 212.657498,65.7519981 C212.836166,65.7519981 213.059497,65.6403325 213.327498,65.4169981 C214.846172,64.3449927 216.063327,63.0720054 216.978998,61.5979981 C217.894669,60.1239907 218.709828,58.5383399 219.424498,56.8409981 Z M228.134498,35.6689981 C228.223832,35.7583319 228.413663,35.9369967 228.703998,36.2049981 C228.994333,36.4729994 229.139498,36.785663 229.139498,37.1429981 C229.139498,37.3663325 229.094832,37.7013292 229.005498,38.1479981 C228.514162,39.8900068 228.0675,41.5761566 227.665498,43.2064981 C227.263496,44.8368396 226.917333,46.4671566 226.626998,48.0974981 C226.336663,49.7278396 226.090999,51.3916563 225.889998,53.0889981 C225.688997,54.7863399 225.566165,56.5729887 225.521498,58.4489981 C225.432164,59.5656703 225.398665,60.6599927 225.420998,61.7319981 C225.443332,62.8040034 225.499164,63.8983258 225.588498,65.0149981 C225.677832,65.8190021 225.789498,66.6229941 225.923498,67.4269981 L226.325498,69.8389981 C226.325498,69.883665 226.314332,69.9506643 226.291998,70.0399981 C226.269665,70.1293319 226.213832,70.1963312 226.124498,70.2409981 C225.856497,70.3303319 225.655499,70.3749981 225.521498,70.3749981 C225.298164,70.3749981 225.074833,70.2856656 224.851498,70.1069981 C224.360162,69.8389967 224.013999,69.4928335 223.812998,69.0684981 C223.611997,68.6441626 223.466832,68.1863339 223.377498,67.6949981 C222.796829,64.7023164 222.394833,61.6426804 222.171498,58.5159981 C221.992831,58.6499987 221.802999,58.9626623 221.601998,59.4539981 C221.400997,59.9453339 221.255832,60.2803305 221.166498,60.4589981 C220.85383,61.1290014 220.429501,61.9106603 219.893498,62.8039981 C219.357496,63.6973359 218.732168,64.5459941 218.017498,65.3499981 C217.302828,66.1540021 216.532336,66.8463285 215.705998,67.4269981 C214.879661,68.0076676 214.042169,68.2979981 213.193498,68.2979981 C212.791496,68.2979981 212.411833,68.2086656 212.054498,68.0299981 C211.16116,67.672663 210.468834,67.1813345 209.977498,66.5559981 C209.486162,65.9306616 209.262831,65.1490028 209.307498,64.2109981 C209.307498,63.2283265 209.508496,62.1675038 209.910498,61.0284981 C210.3125,59.8894924 210.848495,58.8175031 211.518498,57.8124981 C212.188502,56.807493 212.992494,55.9700014 213.930498,55.2999981 C214.868503,54.6299947 215.895826,54.2949981 217.012498,54.2949981 C217.861169,54.2949981 218.709827,54.5853285 219.558498,55.1659981 C219.647832,55.2553319 219.759498,55.2999981 219.893498,55.2999981 C219.982832,55.2999981 220.094498,55.2106656 220.228498,55.0319981 C220.273165,54.9426643 220.328998,54.8421653 220.395998,54.7304981 C220.462999,54.6188308 220.518831,54.5183319 220.563498,54.4289981 C221.54617,51.6596509 222.394828,49.0131774 223.109498,46.4894981 C223.824168,43.9658188 224.538828,41.2970121 225.253498,38.4829981 L225.655498,37.0089981 C225.789499,36.5176623 225.945831,36.0263339 226.124498,35.5349981 C226.258499,35.1329961 226.437164,34.9319981 226.660498,34.9319981 C226.883833,34.9319981 227.084831,34.9989974 227.263498,35.1329981 C227.397499,35.2223319 227.542664,35.3116643 227.698998,35.4009981 C227.855332,35.4903319 228.000498,35.5796643 228.134498,35.6689981 Z M265.922498,73.0549981 C266.681835,72.8763305 267.407661,72.5971666 268.099998,72.2174981 C268.792335,71.8378295 269.428829,71.3800008 270.009498,70.8439981 C270.590168,70.3079954 271.047997,69.6826683 271.382998,68.9679981 C271.718,68.2533278 271.885498,67.4940021 271.885498,66.6899981 C271.796164,66.2433292 271.729165,65.8190001 271.684498,65.4169981 C271.639831,65.0149961 271.572832,64.6130001 271.483498,64.2109981 C271.438831,63.9429967 271.349499,63.8089981 271.215498,63.8089981 C271.126164,63.8089981 270.824667,63.9764964 270.310998,64.3114981 C269.797329,64.6464997 269.239001,65.0373292 268.635998,65.4839981 C268.032995,65.930667 267.474667,66.3438295 266.960998,66.7234981 C266.447329,67.1031666 266.123499,67.3599974 265.989498,67.4939981 C265.408829,67.9853339 264.906334,68.5324951 264.481998,69.1354981 C264.057663,69.7385011 263.890164,70.4866603 263.979498,71.3799981 C264.024165,71.8713339 264.146997,72.2844964 264.347998,72.6194981 C264.548999,72.9544997 264.895162,73.1219981 265.386498,73.1219981 C265.609833,73.1219981 265.788498,73.099665 265.922498,73.0549981 Z M278.116498,58.5829981 C278.250499,58.5829981 278.384498,58.6164977 278.518498,58.6834981 C278.652499,58.7504984 278.786498,58.8063312 278.920498,58.8509981 C278.831164,58.9403319 278.764165,59.0408308 278.719498,59.1524981 C278.674831,59.2641653 278.607832,59.3646643 278.518498,59.4539981 C277.893162,59.8113332 277.267835,60.1574964 276.642498,60.4924981 C276.017162,60.8274997 275.391835,61.173663 274.766498,61.5309981 C274.45383,61.7543325 274.208166,61.9106643 274.029498,61.9999981 C273.850831,62.0893319 273.739165,62.1898308 273.694498,62.3014981 C273.649831,62.4131653 273.660998,62.5694971 273.727998,62.7704981 C273.794999,62.9714991 273.917831,63.2953292 274.096498,63.7419981 C274.4985,64.6353359 274.82233,65.5733265 275.067998,66.5559981 C275.313666,67.5386697 275.324833,68.5436596 275.101498,69.5709981 C274.922831,70.419669 274.576667,71.1454951 274.062998,71.7484981 C273.549329,72.3515011 272.979835,72.9209954 272.354498,73.4569981 C271.595161,74.1270014 270.757669,74.5848302 269.841998,74.8304981 C268.926327,75.076166 267.954837,75.1989981 266.927498,75.1989981 C264.917488,75.1543312 263.287171,74.2610068 262.036498,72.5189981 C261.634496,71.9829954 261.478164,71.4358342 261.567498,70.8774981 C261.656832,70.3191619 261.835497,69.7496676 262.103498,69.1689981 C262.5055,68.3649941 263.030328,67.6950008 263.677998,67.1589981 C264.325668,66.6229954 265.006828,66.1093339 265.721498,65.6179981 C266.480835,65.1266623 267.240161,64.6688335 267.999498,64.2444981 C268.758835,63.8201626 269.518161,63.3623339 270.277498,62.8709981 C270.724167,62.6476636 270.835833,62.2903339 270.612498,61.7989981 C270.165829,60.8609934 269.752667,59.9341693 269.372998,59.0184981 C268.99333,58.1028268 268.580167,57.1760028 268.133498,56.2379981 C268.088831,56.1039974 268.055332,55.9588322 268.032998,55.8024981 C268.010665,55.646164 267.954832,55.5009987 267.865498,55.3669981 C267.284829,56.0816683 266.715334,56.7851613 266.156998,57.4774981 C265.598662,58.1698349 265.006835,58.8509947 264.381498,59.5209981 C263.890162,60.1463345 263.309502,60.4589981 262.639498,60.4589981 C261.969495,60.4589981 261.310668,60.1463345 260.662998,59.5209981 C260.015328,58.8956616 259.691498,58.2703345 259.691498,57.6449981 C259.691498,57.6003312 259.657999,57.555665 259.590998,57.5109981 C259.523998,57.4663312 259.468165,57.3993319 259.423498,57.3099981 C259.378831,57.3993319 259.311832,57.4886643 259.222498,57.5779981 C258.775829,58.2033345 258.3515,58.7951619 257.949498,59.3534981 C257.547496,59.9118342 257.123167,60.5036616 256.676498,61.1289981 C256.319163,61.6203339 255.917167,62.0781626 255.470498,62.5024981 C255.023829,62.9268335 254.510168,63.2729967 253.929498,63.5409981 C253.572163,63.6303319 253.281833,63.6749981 253.058498,63.6749981 C252.790497,63.6749981 252.477833,63.6303319 252.120498,63.5409981 C251.405828,63.3176636 250.858667,62.8933345 250.478998,62.2679981 C250.09933,61.6426616 249.976498,60.9503352 250.110498,60.1909981 C250.244499,59.2976603 250.400831,58.4378355 250.579498,57.6114981 C250.758166,56.7851606 250.959164,55.9253359 251.182498,55.0319981 C251.227165,54.7193298 251.40583,54.5629981 251.718498,54.5629981 C251.852499,54.5629981 251.941831,54.5853312 251.986498,54.6299981 C252.343833,54.7639987 252.768162,54.9649967 253.259498,55.2329981 C253.304165,55.2329981 253.326498,55.3223305 253.326498,55.5009981 C253.237164,56.3943359 253.136665,57.2876603 253.024998,58.1809981 C252.913331,59.0743359 252.812832,59.9676603 252.723498,60.8609981 C252.678831,60.9503319 252.678831,61.0284977 252.723498,61.0954981 C252.768165,61.1624984 252.790498,61.2406643 252.790498,61.3299981 C252.879832,61.2853312 252.969164,61.2629981 253.058498,61.2629981 C253.147832,61.2629981 253.214831,61.240665 253.259498,61.1959981 C253.706167,60.7493292 254.152829,60.3250001 254.599498,59.9229981 C255.046167,59.5209961 255.470496,59.0743339 255.872498,58.5829981 C256.319167,58.0916623 256.73233,57.5891673 257.111998,57.0754981 C257.491667,56.5618288 257.882496,56.0593339 258.284498,55.5679981 C258.641833,55.0319954 259.043829,54.5630001 259.490498,54.1609981 C259.624499,53.9376636 259.780831,53.8706643 259.959498,53.9599981 C260.182833,54.0493319 260.372664,54.1386643 260.528998,54.2279981 C260.685332,54.3173319 260.875164,54.4066643 261.098498,54.4959981 C261.455833,54.5853319 261.600999,54.7193305 261.533998,54.8979981 C261.466998,55.0766656 261.411165,55.2776636 261.366498,55.5009981 C261.321831,55.5903319 261.277165,55.6908308 261.232498,55.8024981 C261.187831,55.9141653 261.187831,56.0146643 261.232498,56.1039981 L261.366498,57.1759981 C261.411165,57.5333332 261.478164,57.890663 261.567498,58.2479981 C261.612165,58.4266656 261.690331,58.594164 261.801998,58.7504981 C261.913665,58.9068322 262.014164,59.0743305 262.103498,59.2529981 C262.237499,59.1636643 262.404997,59.0854984 262.605998,59.0184981 C262.806999,58.9514977 262.952164,58.8509987 263.041498,58.7169981 C263.532834,58.1809954 264.012996,57.6338342 264.481998,57.0754981 C264.951001,56.5171619 265.431162,55.9476676 265.922498,55.3669981 C266.279833,54.8756623 266.592497,54.3620008 266.860498,53.8259981 C267.1285,53.2899954 267.307164,52.7093345 267.396498,52.0839981 C267.441165,51.726663 267.575164,51.5479981 267.798498,51.5479981 C267.932499,51.5479981 268.044164,51.5703312 268.133498,51.6149981 C268.312166,51.7043319 268.490831,51.7713312 268.669498,51.8159981 C268.848166,51.860665 269.049164,51.9276643 269.272498,52.0169981 C269.853168,52.2849994 270.210498,52.7986609 270.344498,53.5579981 C270.478499,54.6746703 270.724163,55.7466596 271.081498,56.7739981 C271.438833,57.8013365 271.863162,58.8063265 272.354498,59.7889981 C272.443832,60.0123325 272.533164,60.2244971 272.622498,60.4254981 C272.711832,60.6264991 272.845831,60.7716643 273.024498,60.8609981 C273.158499,60.9503319 273.325997,60.9168322 273.526998,60.7604981 C273.727999,60.604164 273.940164,60.4813319 274.163498,60.3919981 L275.771498,59.5879981 C276.307501,59.3199967 276.865829,59.0519994 277.446498,58.7839981 C277.535832,58.7393312 277.647498,58.694665 277.781498,58.6499981 C277.915499,58.6053312 278.027164,58.5829981 278.116498,58.5829981 Z M317.981498,58.5159981 C318.338833,58.7839994 318.3835,59.096663 318.115498,59.4539981 C317.08816,60.9280054 315.926838,62.2344924 314.631498,63.3734981 C313.336158,64.5125038 311.906839,65.5286603 310.343498,66.4219981 C309.896829,66.6899994 309.450167,66.8239981 309.003498,66.8239981 C308.467496,66.8239981 307.9985,66.6453332 307.596498,66.2879981 C307.194496,65.930663 306.8595,65.5063339 306.591498,65.0149981 C306.368164,64.657663 306.222999,64.2445004 306.155998,63.7754981 C306.088998,63.3064957 306.010832,62.848667 305.921498,62.4019981 C305.787498,61.5086603 305.664665,60.637669 305.552998,59.7889981 C305.441331,58.9403272 305.296166,58.0693359 305.117498,57.1759981 C305.117498,56.9973305 305.050499,56.9079981 304.916498,56.9079981 C304.827164,56.9079981 304.693166,56.9526643 304.514498,57.0419981 C304.023162,57.5333339 303.531834,58.0134957 303.040498,58.4824981 C302.549162,58.9515004 302.080167,59.4316623 301.633498,59.9229981 C301.365497,60.2356663 301.119833,60.5594964 300.896498,60.8944981 C300.673164,61.2294997 300.449833,61.5533298 300.226498,61.8659981 C299.824496,62.3573339 299.589999,62.8821619 299.522998,63.4404981 C299.455998,63.9988342 299.444831,64.5683285 299.489498,65.1489981 L299.489498,65.8189981 C299.489498,66.0423325 299.377833,66.1986643 299.154498,66.2879981 C299.109831,66.332665 299.020499,66.3549981 298.886498,66.3549981 C298.752498,66.3549981 298.629665,66.332665 298.517998,66.2879981 C298.406331,66.2433312 298.283499,66.1763319 298.149498,66.0869981 C297.747496,65.8636636 297.535332,65.6068329 297.512998,65.3164981 C297.490665,65.0261633 297.434832,64.7246663 297.345498,64.4119981 C297.122164,63.1613252 297.055164,61.9330041 297.144498,60.7269981 C297.233832,59.520992 297.256165,58.292671 297.211498,57.0419981 C297.122164,55.6126576 297.122164,54.2056717 297.211498,52.8209981 C297.345499,49.7389827 297.658162,46.6793466 298.149498,43.6419981 C298.640834,40.6046496 299.243828,37.5896797 299.958498,34.5969981 C300.092499,34.1949961 300.248831,33.9939981 300.427498,33.9939981 C300.516832,33.9939981 300.75133,34.1056636 301.130998,34.3289981 C301.510667,34.5523325 301.745164,34.7086643 301.834498,34.7979981 C302.281167,35.1553332 302.448665,35.5684957 302.336998,36.0374981 C302.225331,36.5065004 302.124832,36.9419961 302.035498,37.3439981 C301.544162,39.7560101 301.142166,42.167986 300.829498,44.5799981 C300.51683,46.9920101 300.271166,49.4263191 300.092498,51.8829981 L299.690498,56.7069981 C299.690498,56.7963319 299.735164,56.9749967 299.824498,57.2429981 C299.913832,57.1983312 299.980831,57.153665 300.025498,57.1089981 C300.070165,57.0643312 300.137164,57.019665 300.226498,56.9749981 C300.6285,56.617663 301.01933,56.2714997 301.398998,55.9364981 C301.778667,55.6014964 302.169496,55.2776663 302.571498,54.9649981 C302.794833,54.7863305 303.018164,54.674665 303.241498,54.6299981 C303.464833,54.5853312 303.688164,54.5629981 303.911498,54.5629981 C304.715502,54.5629981 305.519494,54.8644951 306.323498,55.4674981 C307.127502,56.0705011 307.618831,56.7739941 307.797498,57.5779981 C307.842165,57.8459994 307.909164,58.2926616 307.998498,58.9179981 C308.087832,59.5433345 308.165998,60.2021613 308.232998,60.8944981 C308.299999,61.5868349 308.366998,62.2679947 308.433998,62.9379981 C308.500999,63.6080014 308.534498,64.0993298 308.534498,64.4119981 C308.623832,64.7693332 308.713164,64.9479981 308.802498,64.9479981 C308.936499,64.9479981 309.092831,64.8809987 309.271498,64.7469981 C310.700839,63.9876609 312.085491,63.0720034 313.425498,61.9999981 C314.765505,60.9279927 315.971493,59.7890041 317.043498,58.5829981 C317.177499,58.4043305 317.333831,58.3149981 317.512498,58.3149981 C317.691166,58.3149981 317.847498,58.3819974 317.981498,58.5159981 Z M319.321498,60.1239981 C319.276831,60.2133319 319.254498,60.3696636 319.254498,60.5929981 L319.589498,60.5929981 C319.678832,60.5929981 319.823997,60.5371653 320.024998,60.4254981 C320.225999,60.3138308 320.460497,60.1798322 320.728498,60.0234981 C320.9965,59.867164 321.242164,59.7219987 321.465498,59.5879981 C321.688833,59.4539974 321.845164,59.364665 321.934498,59.3199981 C322.604502,58.9179961 323.106997,58.393168 323.441998,57.7454981 C323.777,57.0978282 323.989164,56.349669 324.078498,55.5009981 L324.078498,55.4339981 C324.033831,55.3893312 324.011498,55.344665 324.011498,55.2999981 C323.922164,55.344665 323.855165,55.3669981 323.810498,55.3669981 C323.765831,55.3669981 323.698832,55.3893312 323.609498,55.4339981 C322.71616,56.0593345 321.923335,56.7739941 321.230998,57.5779981 C320.538661,58.3820021 319.902168,59.2306603 319.321498,60.1239981 Z M336.674498,58.4489981 C336.763832,58.5829987 336.819665,58.7616636 336.841998,58.9849981 C336.864332,59.2083325 336.830832,59.3646643 336.741498,59.4539981 C336.473497,59.8560001 336.071501,60.2133298 335.535498,60.5259981 C334.329492,61.2406683 333.123504,61.9218282 331.917498,62.5694981 C330.711492,63.217168 329.483171,63.8983278 328.232498,64.6129981 C327.249827,65.1490008 326.066172,65.6738288 324.681498,66.1874981 C323.296825,66.7011673 322.023837,66.9579981 320.862498,66.9579981 C319.433158,66.9579981 318.22717,66.533669 317.244498,65.6849981 C316.261827,64.8363272 315.547167,63.8313372 315.100498,62.6699981 C314.921831,62.1786623 314.899498,61.6761673 315.033498,61.1624981 C315.167499,60.6488288 315.323831,60.1463339 315.502498,59.6549981 C315.725833,59.1636623 316.116662,58.5495018 316.674998,57.8124981 C317.233334,57.0754944 317.858661,56.3720014 318.550998,55.7019981 C319.243335,55.0319947 319.980328,54.4625004 320.761998,53.9934981 C321.543669,53.5244957 322.224829,53.2899981 322.805498,53.2899981 C323.386168,53.2899981 323.899829,53.4463298 324.346498,53.7589981 C324.793167,54.0716663 325.195163,54.4289961 325.552498,54.8309981 C325.865166,55.1883332 325.976832,55.5679961 325.887498,55.9699981 C325.798164,56.3720001 325.708832,56.751663 325.619498,57.1089981 C325.128162,58.5830054 324.290671,59.7331606 323.106998,60.5594981 C321.923326,61.3858355 320.572172,61.7989981 319.053498,61.7989981 C318.74083,61.7989981 318.562165,61.9329967 318.517498,62.2009981 C318.517498,62.5136663 318.506332,62.8151633 318.483998,63.1054981 C318.461665,63.3958329 318.472831,63.6749967 318.517498,63.9429981 C318.562165,64.3003332 318.673831,64.5348308 318.852498,64.6464981 C319.031166,64.7581653 319.299163,64.8139981 319.656498,64.8139981 L320.527498,64.8139981 C321.331502,64.7693312 322.18016,64.6464991 323.073498,64.4454981 C323.966836,64.2444971 324.86016,63.9876663 325.753498,63.6749981 C326.646836,63.3623298 327.517827,63.0273332 328.366498,62.6699981 C329.215169,62.312663 329.974495,61.9330001 330.644498,61.5309981 C331.537836,61.0843292 332.408827,60.5930008 333.257498,60.0569981 C334.106169,59.5209954 334.954827,59.0073339 335.803498,58.5159981 C335.892832,58.4713312 335.993331,58.4154984 336.104998,58.3484981 C336.216665,58.2814977 336.317164,58.2479981 336.406498,58.2479981 C336.540499,58.2479981 336.629831,58.3149974 336.674498,58.4489981 Z M346.255498,58.5159981 C346.389499,58.560665 346.501164,58.6276643 346.590498,58.7169981 C346.679832,58.8063319 346.679832,58.9626636 346.590498,59.1859981 L345.920498,60.5259981 C345.697164,60.972667 345.473833,61.4416623 345.250498,61.9329981 C344.803829,62.781669 344.357167,63.6414937 343.910498,64.5124981 C343.463829,65.3835024 342.994834,66.2209941 342.503498,67.0249981 C342.369498,67.2483325 342.146166,67.5721626 341.833498,67.9964981 C341.52083,68.4208335 341.185833,68.8339961 340.828498,69.2359981 C340.471163,69.6380001 340.0915,69.9841633 339.689498,70.2744981 C339.287496,70.5648329 338.930166,70.7099981 338.617498,70.7099981 C338.30483,70.7099981 338.003333,70.5983325 337.712998,70.3749981 C337.422663,70.1516636 337.165833,69.8613332 336.942498,69.5039981 C336.719164,69.146663 336.562832,68.6776676 336.473498,68.0969981 C336.384164,67.5163285 336.406498,66.9133345 336.540498,66.2879981 L336.540498,62.0669981 C336.495831,61.3076609 336.361833,60.704667 336.138498,60.2579981 C335.915164,59.8113292 335.423835,59.4763325 334.664498,59.2529981 C334.128496,59.0743305 333.793499,58.7951666 333.659498,58.4154981 C333.525498,58.0358295 333.503164,57.6115004 333.592498,57.1424981 C333.681832,56.6734957 333.871663,56.2045004 334.161998,55.7354981 C334.452333,55.2664957 334.776163,54.8310001 335.133498,54.4289981 C335.312166,54.2503305 335.55783,54.0716656 335.870498,53.8929981 C336.183166,53.7143305 336.518163,53.6249981 336.875498,53.6249981 C337.188166,53.6249981 337.411498,53.6696643 337.545498,53.7589981 C337.768833,53.8929987 337.891665,54.1163298 337.913998,54.4289981 C337.936332,54.7416663 337.902832,55.076663 337.813498,55.4339981 C337.724164,55.7913332 337.590166,56.1374964 337.411498,56.4724981 C337.232831,56.8074997 337.076499,57.0866636 336.942498,57.3099981 C336.808498,57.5333325 336.685665,57.7343305 336.573998,57.9129981 C336.462331,58.0916656 336.585163,58.2256643 336.942498,58.3149981 C337.433834,58.4489987 337.846997,58.6834964 338.181998,59.0184981 C338.517,59.3534997 338.784997,59.7443292 338.985998,60.1909981 C339.186999,60.637667 339.332164,61.1178288 339.421498,61.6314981 C339.510832,62.1451673 339.577831,62.6253292 339.622498,63.0719981 C339.711832,63.9653359 339.700665,64.8698268 339.588998,65.7854981 C339.477331,66.7011693 339.332166,67.6056603 339.153498,68.4989981 C339.108831,68.543665 339.108831,68.5883312 339.153498,68.6329981 C339.198165,68.677665 339.220498,68.7446643 339.220498,68.8339981 C339.309832,68.7893312 339.365665,68.7558315 339.387998,68.7334981 C339.410332,68.7111646 339.466164,68.677665 339.555498,68.6329981 C340.136168,68.1416623 340.61633,67.6056676 340.995998,67.0249981 C341.375667,66.4443285 341.744163,65.8413345 342.101498,65.2159981 C342.592834,64.3673272 343.061829,63.5298355 343.508498,62.7034981 C343.955167,61.8771606 344.424162,61.039669 344.915498,60.1909981 C345.049499,59.9676636 345.183498,59.733166 345.317498,59.4874981 C345.451499,59.2418302 345.607831,59.0073325 345.786498,58.7839981 C345.831165,58.6946643 345.898164,58.6164984 345.987498,58.5494981 C346.076832,58.4824977 346.166164,58.4713312 346.255498,58.5159981 Z M347.729498,60.1239981 C347.684831,60.2133319 347.662498,60.3696636 347.662498,60.5929981 L347.997498,60.5929981 C348.086832,60.5929981 348.231997,60.5371653 348.432998,60.4254981 C348.633999,60.3138308 348.868497,60.1798322 349.136498,60.0234981 C349.4045,59.867164 349.650164,59.7219987 349.873498,59.5879981 C350.096833,59.4539974 350.253164,59.364665 350.342498,59.3199981 C351.012502,58.9179961 351.514997,58.393168 351.849998,57.7454981 C352.185,57.0978282 352.397164,56.349669 352.486498,55.5009981 L352.486498,55.4339981 C352.441831,55.3893312 352.419498,55.344665 352.419498,55.2999981 C352.330164,55.344665 352.263165,55.3669981 352.218498,55.3669981 C352.173831,55.3669981 352.106832,55.3893312 352.017498,55.4339981 C351.12416,56.0593345 350.331335,56.7739941 349.638998,57.5779981 C348.946661,58.3820021 348.310168,59.2306603 347.729498,60.1239981 Z M365.082498,58.4489981 C365.171832,58.5829987 365.227665,58.7616636 365.249998,58.9849981 C365.272332,59.2083325 365.238832,59.3646643 365.149498,59.4539981 C364.881497,59.8560001 364.479501,60.2133298 363.943498,60.5259981 C362.737492,61.2406683 361.531504,61.9218282 360.325498,62.5694981 C359.119492,63.217168 357.891171,63.8983278 356.640498,64.6129981 C355.657827,65.1490008 354.474172,65.6738288 353.089498,66.1874981 C351.704825,66.7011673 350.431837,66.9579981 349.270498,66.9579981 C347.841158,66.9579981 346.63517,66.533669 345.652498,65.6849981 C344.669827,64.8363272 343.955167,63.8313372 343.508498,62.6699981 C343.329831,62.1786623 343.307498,61.6761673 343.441498,61.1624981 C343.575499,60.6488288 343.731831,60.1463339 343.910498,59.6549981 C344.133833,59.1636623 344.524662,58.5495018 345.082998,57.8124981 C345.641334,57.0754944 346.266661,56.3720014 346.958998,55.7019981 C347.651335,55.0319947 348.388328,54.4625004 349.169998,53.9934981 C349.951669,53.5244957 350.632829,53.2899981 351.213498,53.2899981 C351.794168,53.2899981 352.307829,53.4463298 352.754498,53.7589981 C353.201167,54.0716663 353.603163,54.4289961 353.960498,54.8309981 C354.273166,55.1883332 354.384832,55.5679961 354.295498,55.9699981 C354.206164,56.3720001 354.116832,56.751663 354.027498,57.1089981 C353.536162,58.5830054 352.698671,59.7331606 351.514998,60.5594981 C350.331326,61.3858355 348.980172,61.7989981 347.461498,61.7989981 C347.14883,61.7989981 346.970165,61.9329967 346.925498,62.2009981 C346.925498,62.5136663 346.914332,62.8151633 346.891998,63.1054981 C346.869665,63.3958329 346.880831,63.6749967 346.925498,63.9429981 C346.970165,64.3003332 347.081831,64.5348308 347.260498,64.6464981 C347.439166,64.7581653 347.707163,64.8139981 348.064498,64.8139981 L348.935498,64.8139981 C349.739502,64.7693312 350.58816,64.6464991 351.481498,64.4454981 C352.374836,64.2444971 353.26816,63.9876663 354.161498,63.6749981 C355.054836,63.3623298 355.925827,63.0273332 356.774498,62.6699981 C357.623169,62.312663 358.382495,61.9330001 359.052498,61.5309981 C359.945836,61.0843292 360.816827,60.5930008 361.665498,60.0569981 C362.514169,59.5209954 363.362827,59.0073339 364.211498,58.5159981 C364.300832,58.4713312 364.401331,58.4154984 364.512998,58.3484981 C364.624665,58.2814977 364.725164,58.2479981 364.814498,58.2479981 C364.948499,58.2479981 365.037831,58.3149974 365.082498,58.4489981 Z" id="you-can-find-us-here" transform="translate(190.869098, 60.224498) rotate(-10.000000) translate(-190.869098, -60.224498) "></path>
                    <path d="M184.078309,76.3661641 C184.204165,76.3551531 184.463051,76.3245773 184.854976,76.2744359 C185.246901,76.2242945 185.579725,76.3140677 185.85346,76.5437583 C186.024544,76.6873149 186.252455,76.9368629 186.537201,77.2924098 C187.555832,78.7885365 188.560389,80.2145358 189.550901,81.5704505 C190.541413,82.9263652 191.567799,84.2394892 192.63009,85.5098619 C193.69238,86.7802345 194.809028,88.037905 195.980066,89.282911 C197.151104,90.527917 198.440802,91.7704475 199.849197,93.0105399 C200.647195,93.7967567 201.463961,94.5258358 202.299521,95.1977991 C203.13508,95.8697625 204.009268,96.530409 204.922112,97.1797584 C205.595437,97.6281286 206.283108,98.0593839 206.985145,98.4735372 L209.091244,99.7159911 C209.125461,99.7447024 209.169608,99.7963228 209.223686,99.8708539 C209.277764,99.9453849 209.2932,100.031222 209.269994,100.128367 C209.16616,100.39109 209.071177,100.573774 208.985043,100.676425 C208.841486,100.847509 208.629499,100.961169 208.349075,101.017408 C207.82795,101.221525 207.340264,101.264192 206.886003,101.14541 C206.431743,101.026628 205.987715,100.843544 205.553907,100.596153 C202.888133,99.1173135 200.285918,97.4585641 197.747183,95.6198556 C197.734989,95.8428568 197.852482,96.1892524 198.099666,96.6590527 C198.34685,97.1288529 190.611154,89.3404797 189.137285,87.1708207 C187.663415,85.0011618 186.078365,82.738225 184.382087,80.3819424 L183.511338,79.1265236 C183.221087,78.7080486 182.945195,78.2724717 182.683656,77.8197798 C182.461838,77.4587275 182.422708,77.1926632 182.566265,77.0215791 C182.709822,76.850495 182.890345,76.7395879 183.107841,76.6888546 C183.262408,76.6436268 183.424151,76.5898456 183.593075,76.5275093 C183.761998,76.4651731 183.923741,76.4113919 184.078309,76.3661641 Z M206.000627,89.4752051 C206.446969,89.0257569 206.873613,89.0349679 207.280571,89.5028385 C208.979032,91.3207553 210.421087,93.2914916 211.606779,95.4151063 C212.792471,97.5387211 213.781102,99.8256133 214.5727,102.275851 C214.815825,102.978909 214.880936,103.650568 214.768038,104.290849 C214.632559,105.059186 214.276672,105.68962 213.700365,106.182171 C213.124059,106.674722 212.475691,107.055531 211.755242,107.324609 C211.224095,107.561048 210.638543,107.672357 209.998567,107.65854 C209.358592,107.644723 208.730637,107.649529 208.114686,107.672958 C206.894072,107.655787 205.705967,107.627841 204.550335,107.589119 C203.394704,107.550397 202.200954,107.554465 200.96905,107.601322 C200.731701,107.559471 197.999968,106.483633 199.004239,105.472374 C200.008509,104.461116 201.067242,103.921603 202.180472,103.85382 C202.547785,103.852569 203.158083,103.861154 204.011383,103.879576 C204.864684,103.897998 205.759652,103.940274 206.696313,104.006405 C207.632975,104.072535 208.554788,104.136049 209.461781,104.196948 C210.368774,104.257847 211.029941,104.324916 211.445301,104.398155 C211.942579,104.353801 212.202503,104.267597 212.225083,104.139541 C212.258953,103.947456 212.209462,103.707667 212.07661,103.420167 C211.429154,101.193401 210.56274,98.9940769 209.477344,96.8221282 C208.391947,94.6501794 207.183693,92.6546508 205.852546,90.8354823 C205.649067,90.6015471 205.569908,90.3565269 205.615067,90.1004146 C205.660227,89.8443022 205.788745,89.6359011 206.000627,89.4752051 Z" id="Path-2" transform="translate(198.651699, 91.966958) rotate(-10.000000) translate(-198.651699, -91.966958) "></path>
                </g>
            </g>
        </g>
    </g>
</svg>