<?xml version="1.0" encoding="UTF-8"?>
<svg width="345px" height="101px" viewBox="0 0 345 101" version="1.1" xmlns="http://www.w3.org/2000/svg" xmlns:xlink="http://www.w3.org/1999/xlink">
    <!-- Generator: Sketch 52.5 (67469) - http://www.bohemiancoding.com/sketch -->
    <title>We are here</title>
    <desc>Created with Sketch.</desc>
    <g id="Page-1" stroke="none" stroke-width="1" fill="none" fill-rule="evenodd">
        <g id="Artboard" transform="translate(-287.000000, -1257.000000)" fill="#D49136">
            <g id="Find-us" transform="translate(0.000000, 900.000000)">
                <g id="We-are-here" transform="translate(283.000000, 346.000000)">
                    <path d="M222.000511,108.859956 C220.263355,108.859956 218.960507,108.337615 218.091929,107.292917 C217.223351,106.248219 216.427167,105.128916 215.703352,103.934976 C214.834774,102.44255 215.051915,100.651666 216.354782,98.5622696 C217.078597,97.8160568 218.091923,97.4429559 219.39479,97.4429559 C219.829079,97.4429559 220.335742,97.5921962 220.914794,97.8906814 C221.638609,98.4876517 222.398603,99.1219231 223.194799,99.7935147 C223.990996,100.465106 224.75099,101.099378 225.474805,101.696348 C226.922435,102.890289 227.139577,104.382692 226.126236,106.173603 C225.83671,107.069058 225.293856,107.74064 224.49766,108.188368 C223.701463,108.636095 222.869089,108.859956 222.000511,108.859956 Z" id="Path"></path>
                    <path d="M11.8614982,65.1019981 C11.9061651,64.9233305 11.9284982,64.7334991 11.9284982,64.5324981 L11.9284982,63.9629981 C11.8838313,63.9183312 11.816832,63.8959981 11.7274982,63.8959981 L11.3254982,64.6999981 C11.1914975,64.9679994 11.0574989,65.2136636 10.9234982,65.4369981 C10.7448306,65.7496663 10.5773323,66.0511633 10.4209982,66.3414981 C10.2646641,66.6318329 10.1194989,66.9109967 9.98549819,67.1789981 C9.98549819,67.223665 9.92966542,67.3799967 9.81799819,67.6479981 C9.70633097,67.9159994 9.59466542,68.2174964 9.48299819,68.5524981 L9.14799819,69.5574981 C9.03633097,69.8924997 8.93583197,70.1493305 8.84649819,70.3279981 C8.75716441,70.5959994 8.5115002,71.2101599 8.10949819,72.1704981 C7.70749618,73.1308362 7.43949886,74.3479907 7.30549819,75.8219981 C7.21616441,76.3580008 7.21616441,76.8939954 7.30549819,77.4299981 L7.57349819,79.0379981 C7.57349819,79.1719987 7.60699786,79.2948308 7.67399819,79.4064981 C7.74099853,79.5181653 7.81916441,79.6186643 7.90849819,79.7079981 C7.99783197,79.6186643 8.09833097,79.5293319 8.20999819,79.4399981 C8.32166542,79.3506643 8.44449752,79.2613319 8.57849819,79.1719981 L8.64549819,79.1049981 C8.86883264,78.747663 9.04749752,78.4684991 9.18149819,78.2674981 C9.31549886,78.0664971 9.42716441,77.8766656 9.51649819,77.6979981 C9.60583197,77.5193305 9.68399786,77.3183325 9.75099819,77.0949981 C9.81799853,76.8716636 9.91849752,76.5590001 10.0524982,76.1569981 C10.2311658,75.5316616 10.3651644,74.9175011 10.4544982,74.3144981 C10.543832,73.7114951 10.6331644,73.0973345 10.7224982,72.4719981 C10.9458326,71.2213252 11.1468306,69.9930041 11.3254982,68.7869981 C11.5041658,67.580992 11.6828306,66.352671 11.8614982,65.1019981 Z M20.985509,54.9365214 C21.1061065,54.6806531 21.2361027,54.4288122 21.3754982,54.1809981 C21.7775002,53.4663278 22.2688286,52.8633339 22.8494982,52.3719981 C23.4301678,51.8806623 24.077828,51.6349981 24.7924982,51.6349981 C24.9711658,51.6349981 25.2614962,51.7019974 25.6634982,51.8359981 C26.0655002,51.9699987 26.4786627,52.1263305 26.9029982,52.3049981 C27.3273336,52.4836656 27.7293296,52.6734971 28.1089982,52.8744981 C28.4886668,53.0754991 28.7678306,53.2206643 28.9464982,53.3099981 C30.241838,54.0693352 31.4701591,54.5718302 32.6314982,54.8174981 C33.7928373,55.063166 34.8424935,55.1859981 35.7804982,55.1859981 C36.3335392,55.1859981 36.8417961,55.1615723 37.3052714,55.1127206 C37.3427209,54.7574807 37.3816298,54.4022404 37.4219982,54.0469981 C37.5336654,53.0643265 37.6564975,52.0816697 37.7904982,51.0989981 C37.879832,50.5183285 38.1924955,50.2279981 38.7284982,50.2279981 C38.8624989,50.2279981 38.9741644,50.2503312 39.0634982,50.2949981 C39.6888347,50.5183325 40.0908306,50.7416636 40.2694982,50.9649981 C40.4481658,51.1883325 40.492832,51.6126616 40.4034982,52.2379981 C40.3588313,52.9080014 40.3029985,53.5779947 40.2359982,54.2479981 C40.2295938,54.3120417 40.2232915,54.3758813 40.2170912,54.4395167 C40.2405058,54.4400759 40.2579748,54.4432364 40.2694982,54.4489981 C40.358832,54.5383319 40.3811651,54.6499974 40.3364982,54.7839981 L40.2024982,54.9179981 C40.1919691,54.9220927 40.1814476,54.9261721 40.1709338,54.9302361 C40.1319737,55.3601195 40.0978287,55.7803716 40.0684982,56.1909981 C40.0684982,56.5930001 40.0796647,56.9949961 40.1019982,57.3969981 C40.1243316,57.7990001 40.1578313,58.2009961 40.2024982,58.6029981 C40.2024982,58.8263325 40.2694975,58.9379981 40.4034982,58.9379981 C40.5374989,58.9379981 40.6268313,58.8933319 40.6714982,58.8039981 L42.2794982,57.1959981 C42.8155009,56.6599954 43.3291624,56.1016676 43.8204982,55.5209981 C44.2225002,55.0743292 44.57983,54.6053339 44.8924982,54.1139981 C45.2051664,53.6226623 45.5401631,53.1313339 45.8974982,52.6399981 C45.986832,52.4613305 46.0984975,52.3719981 46.2324982,52.3719981 C46.6791671,52.3719981 47.0811631,52.4836636 47.4384982,52.7069981 C47.7958333,52.9303325 48.0191644,53.2876623 48.1084982,53.7789981 L48.3764982,55.3869981 C48.465832,55.9230008 48.5774975,56.4589954 48.7114982,56.9949981 C48.9348326,57.7543352 49.3368286,58.1339981 49.9174982,58.1339981 C50.0961658,58.1339981 50.3641631,58.0446656 50.7214982,57.8659981 C51.0788333,57.6873305 51.3914969,57.475166 51.6594982,57.2294981 C51.9274995,56.9838302 52.1954969,56.7493325 52.4634982,56.5259981 C52.8655002,56.2133298 53.2563296,55.8894997 53.6359982,55.5544981 C54.0156668,55.2194964 54.4064962,54.9179994 54.8084982,54.6499981 L55.1434982,54.4489981 C55.232832,54.4489981 55.2886647,54.4601646 55.3109982,54.4824981 C55.3333316,54.5048315 55.3891644,54.5159981 55.4784982,54.5159981 C55.6124989,54.560665 55.6794982,54.6723305 55.6794982,54.8509981 C55.6348313,54.9403319 55.6013316,55.0184977 55.5789982,55.0854981 C55.5566647,55.1524984 55.5231651,55.2306643 55.4784982,55.3199981 L52.2624982,58.2679981 C51.7711624,58.714667 51.1905015,58.9379981 50.5204982,58.9379981 C49.6271604,58.9379981 48.834335,58.6476676 48.1419982,58.0669981 C47.4496614,57.4863285 47.0141658,56.771669 46.8354982,55.9229981 C46.7908313,55.8336643 46.7684982,55.7331653 46.7684982,55.6214981 C46.7684982,55.5098308 46.723832,55.3646656 46.6344982,55.1859981 C46.2324962,55.8113345 45.8528333,56.4254951 45.4954982,57.0284981 C45.1381631,57.6315011 44.7361671,58.1786623 44.2894982,58.6699981 C43.574828,59.518669 42.7485029,60.3003278 41.8104982,61.0149981 C41.4531631,61.2383325 41.0511671,61.3499981 40.6044982,61.3499981 C40.2471631,61.3499981 39.8005009,61.2383325 39.2644982,61.0149981 C38.4158273,60.5683292 37.8239999,60.0100014 37.4889982,59.3399981 C37.1539965,58.6699947 37.0311644,57.8883359 37.1204982,56.9949981 C37.1596014,56.5648627 37.2008439,56.1347301 37.2442258,55.7045979 C36.7100577,55.7881664 36.1328179,55.8609661 35.5124982,55.9229981 C34.6191604,55.8783312 33.7370025,55.8224984 32.8659982,55.7554981 C31.9949938,55.6884977 31.112836,55.4540001 30.2194982,55.0519981 C30.1301644,55.0073312 29.9961658,54.9849981 29.8174982,54.9849981 C29.8174982,55.0743319 29.8063316,55.1413312 29.7839982,55.1859981 C29.7616647,55.230665 29.7504982,55.2753312 29.7504982,55.3199981 C30.1078333,56.3473365 30.141333,57.2853272 29.8509982,58.1339981 C29.5606634,58.982669 29.1028347,59.7866609 28.4774982,60.5459981 C27.8968286,61.2606683 27.2045022,61.8748288 26.4004982,62.3884981 C25.5964942,62.9021673 24.7255029,63.1589981 23.7874982,63.1589981 C23.072828,63.1589981 22.469834,62.9803332 21.9784982,62.6229981 C21.4871624,62.265663 20.995834,61.8413339 20.5044982,61.3499981 C20.1471631,60.9033292 19.9349985,60.4343339 19.8679982,59.9429981 C19.8009979,59.4516623 19.8121644,58.9603339 19.9014982,58.4689981 C19.9674099,58.0405717 20.0758721,57.5574413 20.2268868,57.0195989 C19.9620913,57.1782169 19.6972952,57.3375165 19.4324982,57.4974981 C18.3604928,58.145168 17.3108367,58.8263278 16.2834982,59.5409981 C16.0154969,59.7643325 15.8033323,59.9876636 15.6469982,60.2109981 C15.4906641,60.4343325 15.4124982,60.724663 15.4124982,61.0819981 C15.4124982,63.8960121 15.2784995,66.6988174 15.0104982,69.4904981 C14.7424969,72.2821787 14.2735015,75.0626509 13.6034982,77.8319981 C13.4248306,78.3680008 13.2349992,78.9039954 13.0339982,79.4399981 C12.8329972,79.9760008 12.5649999,80.4673292 12.2299982,80.9139981 C11.8949965,81.360667 11.5041671,81.7291633 11.0574982,82.0194981 C10.6108293,82.3098329 10.0748347,82.4549981 9.44949819,82.4549981 C8.9581624,82.4549981 8.48916709,82.3656656 8.04249819,82.1869981 C7.59582929,82.0083305 7.19383331,81.7180001 6.83649819,81.3159981 C5.49649149,79.6186563 4.91583063,77.6756757 5.09449819,75.4869981 C5.31783264,74.280992 5.65282929,73.0191713 6.09949819,71.7014981 C6.54616709,70.3838248 7.05982862,69.0773379 7.64049819,67.7819981 C8.22116776,66.4866583 8.8576614,65.2248375 9.54999819,63.9964981 C10.242335,62.7681586 10.9234948,61.6626697 11.5934982,60.6799981 C11.7721658,60.4566636 11.917331,60.2333325 12.0289982,60.0099981 C12.1406654,59.7866636 12.1741651,59.5409994 12.1294982,59.2729981 C12.0848313,58.5583278 12.0736647,57.8660014 12.0959982,57.1959981 C12.1183316,56.5259947 12.1294982,55.8336683 12.1294982,55.1189981 C11.9954975,55.1189981 11.9061651,55.096665 11.8614982,55.0519981 C11.7274975,55.3646663 11.5823323,55.6549967 11.4259982,55.9229981 C11.2696641,56.1909994 11.1244989,56.4813298 10.9904982,56.7939981 C10.9011644,57.0173325 10.7671658,57.2964964 10.5884982,57.6314981 L10.0524982,58.6364981 C9.87383063,58.9714997 9.70633231,59.2506636 9.54999819,59.4739981 C9.39366408,59.6973325 9.31549819,59.8313312 9.31549819,59.8759981 C8.60082795,61.126671 7.64050422,61.7519981 6.43449819,61.7519981 C5.85382862,61.7519981 5.34016709,61.6179994 4.89349819,61.3499981 C4.44682929,61.0819967 4.05599987,60.7358335 3.72099819,60.3114981 C3.38599652,59.8871626 3.12916575,59.4181673 2.95049819,58.9044981 C2.77183063,58.3908288 2.63783197,57.8883339 2.54849819,57.3969981 C2.45916441,56.4143265 2.45916441,55.4540028 2.54849819,54.5159981 C2.63783197,53.5779934 2.79416374,52.6400028 3.01749819,51.7019981 C3.15149886,51.2999961 3.28549752,51.0989981 3.41949819,51.0989981 C3.59816575,51.0989981 3.77683063,51.1883305 3.95549819,51.3669981 C4.17883264,51.5456656 4.4133303,51.7354971 4.65899819,51.9364981 C4.90466609,52.1374991 5.09449752,52.3496636 5.22849819,52.5729981 C5.31783197,52.7069987 5.35133164,52.8968302 5.32899819,53.1424981 C5.30666475,53.388166 5.29549819,53.6226636 5.29549819,53.8459981 C5.34016508,54.6053352 5.36249819,55.3869941 5.36249819,56.1909981 C5.36249819,56.9950021 5.3848313,57.7989941 5.42949819,58.6029981 C5.51883197,58.8709994 5.60816441,59.0049981 5.69749819,59.0049981 C5.92083264,59.0049981 6.24466274,58.781667 6.66899819,58.3349981 C7.09333365,57.8883292 7.52882929,57.3635011 7.97549819,56.7604981 C8.42216709,56.1574951 8.84649618,55.5768342 9.24849819,55.0184981 C9.6505002,54.4601619 9.91849752,54.0916656 10.0524982,53.9129981 C10.3651664,53.4663292 10.6554969,53.019667 10.9234982,52.5729981 C11.1914995,52.1263292 11.48183,51.7020001 11.7944982,51.2999981 C11.9731658,51.1213305 12.21883,51.0319981 12.5314982,51.0319981 C13.1568347,51.0319981 13.7151624,51.3558282 14.2064982,52.0034981 C14.697834,52.651168 14.9434982,53.2653285 14.9434982,53.8459981 C14.8988313,54.5606683 14.9211644,55.2641613 15.0104982,55.9564981 C15.099832,56.6488349 15.1668313,57.3746609 15.2114982,58.1339981 C15.300832,58.4019994 15.3678313,58.5359981 15.4124982,58.5359981 C15.501832,58.5359981 15.6358306,58.4689987 15.8144982,58.3349981 C16.6631691,57.7543285 17.5118273,57.1848342 18.3604982,56.6264981 C19.2091691,56.0681619 20.0578273,55.5210008 20.9064982,54.9849981 C20.9292837,54.9698078 20.9556206,54.9536489 20.985509,54.9365214 Z M23.4524982,60.8809981 C24.5245036,60.523663 25.4848273,59.8313365 26.3334982,58.8039981 C27.1821691,57.7766596 27.561832,56.6600041 27.4724982,55.4539981 C27.4724982,55.3199974 27.4389985,55.1189994 27.3719982,54.8509981 C27.3049979,54.5829967 27.226832,54.326166 27.1374982,54.0804981 C27.0481644,53.8348302 26.9364989,53.6114991 26.8024982,53.4104981 C26.6684975,53.2094971 26.4898326,53.1089981 26.2664982,53.1089981 C26.0878306,53.1089981 25.9091658,53.1983305 25.7304982,53.3769981 C24.5691591,54.1810021 23.7875002,55.1971586 23.3854982,56.4254981 C22.9834962,57.6538375 22.737832,58.9379914 22.6484982,60.2779981 C22.6038313,60.7693339 22.6931637,61.0149981 22.9164982,61.0149981 C23.005832,61.0149981 23.0839979,61.0038315 23.1509982,60.9814981 L23.4524982,60.8809981 Z M99.9664982,52.1039981 C100.145166,51.7913298 100.200999,51.5903319 100.133998,51.5009981 C100.066998,51.4116643 99.8548333,51.3669981 99.4974982,51.3669981 C99.2741637,51.4563319 99.0508326,51.5233312 98.8274982,51.5679981 C98.6041637,51.612665 98.3808326,51.6796643 98.1574982,51.7689981 C97.5321617,52.0816663 96.9403343,52.5059954 96.3819982,53.0419981 C95.8236621,53.5780008 95.3211671,54.1809947 94.8744982,54.8509981 C94.4278293,55.5210014 94.0481664,56.2244944 93.7354982,56.9614981 C93.42283,57.6985018 93.1994989,58.4019947 93.0654982,59.0719981 C93.0208313,59.4293332 93.0878306,59.6079981 93.2664982,59.6079981 C93.8918347,59.6079981 94.5506614,59.3065011 95.2429982,58.7034981 C95.935335,58.1004951 96.5941617,57.3970021 97.2194982,56.5929981 C97.8448347,55.7889941 98.4031624,54.962669 98.8944982,54.1139981 C99.385834,53.2653272 99.7431637,52.5953339 99.9664982,52.1039981 Z M90.5875844,57.7272337 C90.5207259,57.7730857 90.4533638,57.8193405 90.3854982,57.8659981 C89.670828,58.3573339 88.9450019,58.8486623 88.2079982,59.3399981 C87.4709945,59.8313339 86.856834,60.2109967 86.3654982,60.4789981 C85.9188293,60.7469994 85.3828347,61.0261633 84.7574982,61.3164981 C84.1321617,61.6068329 83.4956681,61.8748302 82.8479982,62.1204981 C82.2003283,62.366166 81.5526681,62.567164 80.9049982,62.7234981 C80.2573283,62.8798322 79.6655009,62.9579981 79.1294982,62.9579981 C77.9681591,62.9579981 77.0748347,62.7011673 76.4494982,62.1874981 C75.8241617,61.6738288 75.2435009,60.9480028 74.7074982,60.0099981 C74.0374948,58.8933258 73.7806641,57.81017 73.9369982,56.7604981 C74.0933323,55.7108262 74.5958273,54.6946697 75.4444982,53.7119981 C76.1591684,52.9079941 76.9631604,52.1486683 77.8564982,51.4339981 C78.749836,50.7193278 79.7771591,50.3619981 80.9384982,50.3619981 C82.3231718,50.3619981 83.5514928,50.964992 84.6234982,52.1709981 C85.0255002,52.617667 84.980834,53.0419961 84.4894982,53.4439981 C84.3108306,53.5333319 84.1991651,53.5779981 84.1544982,53.5779981 C83.9758306,53.5779981 83.7971658,53.4216663 83.6184982,53.1089981 C83.4398306,52.8409967 83.1271671,52.7069981 82.6804982,52.7069981 C82.2784962,52.7069981 81.8541671,52.8298302 81.4074982,53.0754981 C80.9608293,53.321166 80.5141671,53.6338295 80.0674982,54.0134981 C79.6208293,54.3931666 79.2299999,54.7839961 78.8949982,55.1859981 L78.0574982,56.1909981 C77.7001631,56.6823339 77.3986661,57.1848288 77.1529982,57.6984981 C76.9073303,58.2121673 76.8068313,58.7816616 76.8514982,59.4069981 C76.8514982,59.5856656 76.8961644,59.853663 76.9854982,60.2109981 C77.0301651,60.7023339 77.3428286,60.9479981 77.9234982,60.9479981 C78.816836,60.9479981 79.6766607,60.8474991 80.5029982,60.6464981 C81.3293357,60.4454971 82.1221611,60.1663332 82.8814982,59.8089981 C84.4448393,59.1389947 85.7513263,58.5471673 86.8009982,58.0334981 C87.8506701,57.5198288 88.7551611,57.0508335 89.5144982,56.6264981 C90.0734598,56.3141371 90.5658564,56.0320338 90.9916953,55.7801835 C91.0689234,55.5826741 91.157191,55.3846124 91.2564982,55.1859981 C91.5691664,54.6053285 91.9488293,53.991168 92.3954982,53.3434981 C92.8421671,52.6958282 93.3446621,52.0928342 93.9029982,51.5344981 C94.4613343,50.9761619 95.0754948,50.5183332 95.7454982,50.1609981 C96.4155015,49.803663 97.107828,49.6249981 97.8224982,49.6249981 C98.7605029,49.6249981 99.6314942,49.9376616 100.435498,50.5629981 C100.569499,50.6969987 100.658831,50.741665 100.703498,50.6969981 C100.792832,50.6523312 100.926831,50.6299981 101.105498,50.6299981 C101.462833,50.6299981 101.730831,50.7528302 101.909498,50.9984981 C102.088166,51.244166 102.311497,51.4563305 102.579498,51.6349981 C102.936833,51.8583325 103.126665,52.148663 103.148998,52.5059981 C103.171332,52.8633332 103.182498,53.220663 103.182498,53.5779981 L103.182498,58.2679981 C103.182498,58.714667 103.294164,58.9379981 103.517498,58.9379981 C103.651499,58.9379981 103.852497,58.8709987 104.120498,58.7369981 C104.745835,58.3349961 105.371162,57.9218335 105.996498,57.4974981 C106.621835,57.0731626 107.247162,56.6600001 107.872498,56.2579981 C108.168005,56.0511434 108.458621,55.8491783 108.744351,55.6521001 C108.967429,54.8938142 109.201643,54.1689541 109.446998,53.4774981 C109.692666,52.7851613 109.927164,52.0816683 110.150498,51.3669981 C110.284499,50.7863285 110.485497,50.4959981 110.753498,50.4959981 C110.976833,50.4959981 111.222497,50.6523298 111.490498,50.9649981 L112.696498,52.1709981 C112.785832,52.2603319 112.785832,52.3943305 112.696498,52.5729981 C112.607164,53.019667 112.517832,53.4439961 112.428498,53.8459981 C112.339164,54.2480001 112.249832,54.6723292 112.160498,55.1189981 C112.115831,55.2083319 112.093498,55.4093298 112.093498,55.7219981 C113.924841,53.8906556 115.934821,52.2156723 118.123498,50.6969981 C118.302166,50.5183305 118.525497,50.4289981 118.793498,50.4289981 C119.0615,50.4289981 119.374163,50.5629967 119.731498,50.8309981 L120.501998,51.6014981 C120.747666,51.847166 120.982164,52.1039967 121.205498,52.3719981 C121.562833,52.818667 121.707999,53.2764957 121.640998,53.7454981 C121.573998,54.2145004 121.540498,54.6946623 121.540498,55.1859981 C121.540498,55.9453352 121.473499,56.7046609 121.339498,57.4639981 C121.339498,57.7766663 121.406498,57.9329981 121.540498,57.9329981 C121.719166,57.9329981 122.076496,57.8324991 122.612498,57.6314981 C123.148501,57.4304971 123.717995,57.1959994 124.320998,56.9279981 C124.924001,56.6599967 125.504662,56.403166 126.062998,56.1574981 C126.621334,55.9118302 126.989831,55.7443319 127.168498,55.6549981 L128.374498,55.1189981 C128.7765,54.9403305 129.178496,54.7393325 129.580498,54.5159981 C129.669832,54.4713312 129.781498,54.4489981 129.915498,54.4489981 C130.094166,54.4489981 130.317497,54.5829967 130.585498,54.8509981 C130.630165,54.895665 130.641332,54.9626643 130.618998,55.0519981 C130.596665,55.1413319 130.563165,55.2083312 130.518498,55.2529981 C128.017152,57.2183412 125.27018,58.8263252 122.277498,60.0769981 C121.920163,60.1663319 121.696832,60.2109981 121.607498,60.2109981 C120.982162,60.2109981 120.423834,59.8760014 119.932498,59.2059981 C119.441162,58.5806616 119.139665,57.9106683 119.027998,57.1959981 C118.916331,56.4813278 118.927498,55.7443352 119.061498,54.9849981 C119.106165,54.7616636 119.128498,54.527166 119.128498,54.2814981 C119.128498,54.0358302 119.150831,53.8013325 119.195498,53.5779981 C119.150831,53.5779981 119.128498,53.5668315 119.128498,53.5444981 C119.128498,53.5221646 119.106165,53.5109981 119.061498,53.5109981 C118.212827,54.0023339 117.408835,54.6723272 116.649498,55.5209981 C115.890161,56.369669 115.197835,57.1736609 114.572498,57.9329981 C114.438498,58.1563325 114.215166,58.446663 113.902498,58.8039981 C113.58983,59.1613332 113.266,59.518663 112.930998,59.8759981 C112.595997,60.2333332 112.238667,60.5459967 111.858998,60.8139981 C111.47933,61.0819994 111.1555,61.2159981 110.887498,61.2159981 C110.172828,61.2159981 109.592167,60.9256676 109.145498,60.3449981 C108.524739,59.5468791 108.245103,58.7597758 108.306583,57.9836647 C108.194767,58.0784423 108.083573,58.17322 107.972998,58.2679981 C107.503996,58.6700001 107.023834,59.049663 106.532498,59.4069981 C106.264497,59.6303325 105.9965,59.8424971 105.728498,60.0434981 C105.460497,60.2444991 105.170166,60.3896643 104.857498,60.4789981 C104.54483,60.6129987 104.2545,60.6799981 103.986498,60.6799981 C103.048494,60.6799981 102.289168,60.0770041 101.708498,58.8709981 C101.485164,58.513663 101.339999,58.111667 101.272998,57.6649981 C101.205998,57.2183292 101.127832,56.7940001 101.038498,56.3919981 L101.038498,55.5879981 C100.636496,56.1686676 100.256833,56.6934957 99.8994982,57.1624981 C99.5421631,57.6315004 99.1848333,58.1116623 98.8274982,58.6029981 C98.5594969,58.9156663 98.2468333,59.2618295 97.8894982,59.6414981 C97.5321631,60.0211666 97.1525002,60.3673298 96.7504982,60.6799981 C96.3484962,60.9926663 95.9241671,61.2494971 95.4774982,61.4504981 C95.0308293,61.6514991 94.5841671,61.7519981 94.1374982,61.7519981 C93.6461624,61.7519981 93.1883336,61.629166 92.7639982,61.3834981 C92.3396627,61.1378302 91.9488333,60.8140001 91.5914982,60.4119981 C90.9214948,59.5633272 90.5864982,58.7035024 90.5864982,57.8324981 C90.5864982,57.797428 90.5868603,57.7623399 90.5875844,57.7272337 Z M154.370498,66.9109981 C154.727833,65.5709914 154.939998,64.2198382 155.006998,62.8574981 C155.073999,61.4951579 154.884167,60.1216717 154.437498,58.7369981 C154.348164,58.4689967 154.225332,58.2009994 154.068998,57.9329981 C153.912664,57.6649967 153.745166,57.3969994 153.566498,57.1289981 C153.521831,57.0396643 153.410166,56.9503319 153.231498,56.8609981 C153.231498,56.9503319 153.209165,57.0173312 153.164498,57.0619981 C153.119831,57.106665 153.097498,57.1736643 153.097498,57.2629981 C153.052831,57.4863325 153.030498,57.6984971 153.030498,57.8994981 L153.030498,58.5359981 C152.941164,59.384669 152.862999,60.2221606 152.795998,61.0484981 C152.728998,61.8748355 152.673165,62.7123272 152.628498,63.5609981 C152.583831,64.6330034 152.583831,65.6826596 152.628498,66.7099981 C152.673165,67.2013339 152.717831,67.6814957 152.762498,68.1504981 C152.807165,68.6195004 152.851831,69.0996623 152.896498,69.5909981 L153.030498,69.5909981 L153.298498,69.3229981 C153.387832,69.2336643 153.454831,69.1443319 153.499498,69.0549981 C153.678166,68.697663 153.845664,68.3403332 154.001998,67.9829981 C154.158332,67.625663 154.281164,67.2683332 154.370498,66.9109981 Z M153.566498,54.5159981 C153.521831,54.6053319 153.510665,54.6723312 153.532998,54.7169981 C153.555332,54.761665 153.566498,54.8286643 153.566498,54.9179981 C153.655832,54.8733312 153.733998,54.8509981 153.800998,54.8509981 C153.867999,54.8509981 153.923831,54.8063319 153.968498,54.7169981 C154.147166,54.5829974 154.303498,54.4378322 154.437498,54.2814981 C154.571499,54.125164 154.727831,53.9576656 154.906498,53.7789981 C155.799836,52.6623258 156.43633,51.478671 156.815998,50.2279981 C157.195667,48.9773252 157.430164,47.6373386 157.519498,46.2079981 C157.519498,45.8059961 157.508332,45.4040001 157.485998,45.0019981 C157.463665,44.5999961 157.430165,44.1980001 157.385498,43.7959981 C157.296164,43.7959981 157.229165,43.773665 157.184498,43.7289981 C156.782496,44.2650008 156.391667,45.0131599 156.011998,45.9734981 C155.63233,46.9338362 155.275,47.9276596 154.939998,48.9549981 C154.604997,49.9823365 154.325833,50.998493 154.102498,52.0034981 C153.879164,53.0085031 153.700499,53.8459947 153.566498,54.5159981 Z M168.909498,49.2229981 C168.373496,49.2229981 167.9715,49.0666663 167.703498,48.7539981 C167.435497,48.4413298 167.189833,48.1063332 166.966498,47.7489981 C166.698497,47.3023292 166.765496,46.7663345 167.167498,46.1409981 C167.390833,45.9176636 167.703496,45.8059981 168.105498,45.8059981 C168.239499,45.8059981 168.395831,45.8506643 168.574498,45.9399981 C168.797833,46.1186656 169.03233,46.3084971 169.277998,46.5094981 C169.523666,46.7104991 169.758164,46.9003305 169.981498,47.0789981 C170.428167,47.4363332 170.495166,47.8829954 170.182498,48.4189981 C170.093164,48.6869994 169.925666,48.8879974 169.679998,49.0219981 C169.43433,49.1559987 169.1775,49.2229981 168.909498,49.2229981 Z M205.424498,52.8409981 C205.603166,52.4389961 205.536166,52.1933319 205.223498,52.1039981 C205.044831,52.0593312 204.866166,52.0034984 204.687498,51.9364981 C204.508831,51.8694977 204.352499,51.8359981 204.218498,51.8359981 C204.084498,51.8359981 203.894666,51.9029974 203.648998,52.0369981 C203.40333,52.1709987 203.1465,52.3384971 202.878498,52.5394981 C202.610497,52.7404991 202.353666,52.9303305 202.107998,53.1089981 C201.86233,53.2876656 201.694832,53.4216643 201.605498,53.5109981 C200.667494,54.4936697 199.941667,55.5991586 199.427998,56.8274981 C198.914329,58.0558375 198.545833,59.3399914 198.322498,60.6799981 C198.367165,61.3946683 198.478831,61.7519981 198.657498,61.7519981 C198.836166,61.7519981 199.059497,61.6403325 199.327498,61.4169981 C200.846172,60.3449927 202.063327,59.0720054 202.978998,57.5979981 C203.894669,56.1239907 204.709828,54.5383399 205.424498,52.8409981 Z M176.597051,56.2207986 C176.642746,56.031515 176.693229,55.8429149 176.748498,55.6549981 C176.971833,54.8956609 177.20633,54.1698349 177.451998,53.4774981 C177.697666,52.7851613 177.932164,52.0816683 178.155498,51.3669981 C178.289499,50.7863285 178.490497,50.4959981 178.758498,50.4959981 C178.981833,50.4959981 179.227497,50.6523298 179.495498,50.9649981 L180.701498,52.1709981 C180.790832,52.2603319 180.790832,52.3943305 180.701498,52.5729981 C180.612164,53.019667 180.522832,53.4439961 180.433498,53.8459981 C180.344164,54.2480001 180.254832,54.6723292 180.165498,55.1189981 C180.120831,55.2083319 180.098498,55.4093298 180.098498,55.7219981 C181.929841,53.8906556 183.939821,52.2156723 186.128498,50.6969981 C186.307166,50.5183305 186.530497,50.4289981 186.798498,50.4289981 C187.0665,50.4289981 187.379163,50.5629967 187.736498,50.8309981 L188.506998,51.6014981 C188.752666,51.847166 188.987164,52.1039967 189.210498,52.3719981 C189.567833,52.818667 189.712999,53.2764957 189.645998,53.7454981 C189.578998,54.2145004 189.545498,54.6946623 189.545498,55.1859981 C189.545498,55.9453352 189.478499,56.7046609 189.344498,57.4639981 C189.344498,57.7766663 189.411498,57.9329981 189.545498,57.9329981 C189.724166,57.9329981 190.081496,57.8324991 190.617498,57.6314981 C191.153501,57.4304971 191.722995,57.1959994 192.325998,56.9279981 C192.929001,56.6599967 193.509662,56.403166 194.067998,56.1574981 C194.626334,55.9118302 194.994831,55.7443319 195.173498,55.6549981 L196.379498,55.1189981 C196.54099,55.0472238 196.702481,54.9718458 196.863972,54.8928639 C197.065717,54.5245281 197.283892,54.1644067 197.518498,53.8124981 C198.188502,52.807493 198.992494,51.9700014 199.930498,51.2999981 C200.868503,50.6299947 201.895826,50.2949981 203.012498,50.2949981 C203.861169,50.2949981 204.709827,50.5853285 205.558498,51.1659981 C205.647832,51.2553319 205.759498,51.2999981 205.893498,51.2999981 C205.982832,51.2999981 206.094498,51.2106656 206.228498,51.0319981 C206.273165,50.9426643 206.328998,50.8421653 206.395998,50.7304981 C206.462999,50.6188308 206.518831,50.5183319 206.563498,50.4289981 C207.54617,47.6596509 208.394828,45.0131774 209.109498,42.4894981 C209.824168,39.9658188 210.538828,37.2970121 211.253498,34.4829981 L211.655498,33.0089981 C211.789499,32.5176623 211.945831,32.0263339 212.124498,31.5349981 C212.258499,31.1329961 212.437164,30.9319981 212.660498,30.9319981 C212.883833,30.9319981 213.084831,30.9989974 213.263498,31.1329981 C213.397499,31.2223319 213.542664,31.3116643 213.698998,31.4009981 C213.855332,31.4903319 214.000498,31.5796643 214.134498,31.6689981 C214.223832,31.7583319 214.413663,31.9369967 214.703998,32.2049981 C214.994333,32.4729994 215.139498,32.785663 215.139498,33.1429981 C215.139498,33.3663325 215.094832,33.7013292 215.005498,34.1479981 C214.514162,35.8900068 214.0675,37.5761566 213.665498,39.2064981 C213.263496,40.8368396 212.917333,42.4671566 212.626998,44.0974981 C212.336663,45.7278396 212.090999,47.3916563 211.889998,49.0889981 C211.688997,50.7863399 211.566165,52.5729887 211.521498,54.4489981 C211.432164,55.5656703 211.398665,56.6599927 211.420998,57.7319981 C211.443332,58.8040034 211.499164,59.8983258 211.588498,61.0149981 C211.677832,61.8190021 211.789498,62.6229941 211.923498,63.4269981 L212.325498,65.8389981 C212.325498,65.883665 212.314332,65.9506643 212.291998,66.0399981 C212.269665,66.1293319 212.213832,66.1963312 212.124498,66.2409981 C211.856497,66.3303319 211.655499,66.3749981 211.521498,66.3749981 C211.298164,66.3749981 211.074833,66.2856656 210.851498,66.1069981 C210.360162,65.8389967 210.013999,65.4928335 209.812998,65.0684981 C209.611997,64.6441626 209.466832,64.1863339 209.377498,63.6949981 C208.796829,60.7023164 208.394833,57.6426804 208.171498,54.5159981 C207.992831,54.6499987 207.802999,54.9626623 207.601998,55.4539981 C207.400997,55.9453339 207.255832,56.2803305 207.166498,56.4589981 C206.85383,57.1290014 206.429501,57.9106603 205.893498,58.8039981 C205.357496,59.6973359 204.732168,60.5459941 204.017498,61.3499981 C203.302828,62.1540021 202.532336,62.8463285 201.705998,63.4269981 C200.879661,64.0076676 200.042169,64.2979981 199.193498,64.2979981 C198.791496,64.2979981 198.411833,64.2086656 198.054498,64.0299981 C197.16116,63.672663 196.468834,63.1813345 195.977498,62.5559981 C195.486162,61.9306616 195.262831,61.1490028 195.307498,60.2109981 C195.307498,59.2617802 195.495044,58.2396417 195.87014,57.1445539 C194.113929,58.2767011 192.251389,59.2541779 190.282498,60.0769981 C189.925163,60.1663319 189.701832,60.2109981 189.612498,60.2109981 C188.987162,60.2109981 188.428834,59.8760014 187.937498,59.2059981 C187.446162,58.5806616 187.144665,57.9106683 187.032998,57.1959981 C186.921331,56.4813278 186.932498,55.7443352 187.066498,54.9849981 C187.111165,54.7616636 187.133498,54.527166 187.133498,54.2814981 C187.133498,54.0358302 187.155831,53.8013325 187.200498,53.5779981 C187.155831,53.5779981 187.133498,53.5668315 187.133498,53.5444981 C187.133498,53.5221646 187.111165,53.5109981 187.066498,53.5109981 C186.217827,54.0023339 185.413835,54.6723272 184.654498,55.5209981 C183.895161,56.369669 183.202835,57.1736609 182.577498,57.9329981 C182.443498,58.1563325 182.220166,58.446663 181.907498,58.8039981 C181.59483,59.1613332 181.271,59.518663 180.935998,59.8759981 C180.600997,60.2333332 180.243667,60.5459967 179.863998,60.8139981 C179.48433,61.0819994 179.1605,61.2159981 178.892498,61.2159981 C178.177828,61.2159981 177.597167,60.9256676 177.150498,60.3449981 C176.691199,59.754471 176.418649,59.1699745 176.332842,58.591499 C176.022363,58.8556851 175.703082,59.1163511 175.374998,59.3734981 C174.548661,60.021168 173.700003,60.6018288 172.828998,61.1154981 C171.957994,61.6291673 171.187502,62.0199967 170.517498,62.2879981 C170.160163,62.4666656 169.735834,62.5559981 169.244498,62.5559981 C168.395827,62.5559981 167.636502,62.2210014 166.966498,61.5509981 C166.341162,60.9256616 165.849833,60.2445018 165.492498,59.5074981 C165.135163,58.7704944 165.001164,58.0223352 165.090498,57.2629981 C165.090498,57.2272552 165.091491,57.1869442 165.093477,57.142065 C164.321698,57.4721312 163.53904,57.7804414 162.745498,58.0669981 C161.13749,58.6476676 159.48484,58.9379981 157.787498,58.9379981 C157.430163,58.9379981 157.084,58.915665 156.748998,58.8709981 C156.413997,58.8263312 156.067833,58.7593319 155.710498,58.6699981 C155.621164,58.6253312 155.464833,58.6029981 155.241498,58.6029981 C155.241498,58.8263325 155.263831,59.0049974 155.308498,59.1389981 C155.397832,59.5410001 155.520664,59.9429961 155.676998,60.3449981 C155.833332,60.7470001 155.933831,61.1489961 155.978498,61.5509981 C156.067832,62.3550021 156.112498,63.1589941 156.112498,63.9629981 C156.112498,64.7670021 156.023166,65.5486609 155.844498,66.3079981 C155.755164,66.6653332 155.688165,67.0449961 155.643498,67.4469981 C155.598831,67.8490001 155.531832,68.228663 155.442498,68.5859981 C155.353164,68.8986663 155.252665,69.2001633 155.140998,69.4904981 C155.029331,69.7808329 154.928832,70.0599967 154.839498,70.3279981 C154.705498,70.6406663 154.560332,70.9309967 154.403998,71.1989981 C154.247664,71.4669994 154.102499,71.7573298 153.968498,72.0699981 C153.834498,72.3379994 153.544167,72.4719981 153.097498,72.4719981 C152.650829,72.4719981 152.237667,72.2821666 151.857998,71.9024981 C151.47833,71.5228295 151.143333,71.0650008 150.852998,70.5289981 C150.562663,69.9929954 150.305833,69.4570008 150.082498,68.9209981 C149.859164,68.3849954 149.702832,67.9383332 149.613498,67.5809981 C149.211496,66.0176569 148.976999,64.4766723 148.909998,62.9579981 C148.842998,61.4393238 148.898831,59.8983392 149.077498,58.3349981 C149.390166,55.3869833 150.004327,52.4501794 150.919998,49.5244981 C151.835669,46.5988168 153.231489,43.9523432 155.107498,41.5849981 C155.3755,41.3169967 155.688163,41.1829981 156.045498,41.1829981 C156.268833,41.1829981 156.514497,41.2499974 156.782498,41.3839981 C157.363168,41.7413332 157.820997,42.1656623 158.155998,42.6569981 C158.491,43.1483339 158.703164,43.7289947 158.792498,44.3989981 C158.837165,45.0243345 158.859498,45.6161619 158.859498,46.1744981 C158.859498,46.7328342 158.770166,47.3246616 158.591498,47.9499981 C158.412831,48.4860008 158.312332,49.0331619 158.289998,49.5914981 C158.267665,50.1498342 158.144833,50.6746623 157.921498,51.1659981 C157.742831,51.6573339 157.5195,52.1374957 157.251498,52.6064981 C156.983497,53.0755004 156.7155,53.5556623 156.447498,54.0469981 C156.000829,54.7170014 155.487168,55.1413305 154.906498,55.3199981 C154.951165,55.3199981 154.906499,55.3869974 154.772498,55.5209981 C154.683164,55.6103319 154.593832,55.7108308 154.504498,55.8224981 C154.415164,55.9341653 154.303499,56.0569974 154.169498,56.1909981 C154.258832,56.235665 154.359331,56.2914977 154.470998,56.3584981 C154.582665,56.4254984 154.705498,56.4589981 154.839498,56.4589981 C155.732836,56.6376656 156.737826,56.7269981 157.854498,56.7269981 C159.417839,56.7269981 161.081656,56.5483332 162.845998,56.1909981 C163.710703,56.0158679 164.52444,55.7817309 165.287215,55.4885849 C165.394599,54.7699167 165.530025,54.0325606 165.693498,53.2764981 C165.872166,52.4501606 166.095497,51.7020014 166.363498,51.0319981 C166.6315,50.3619947 166.92183,50.0269981 167.234498,50.0269981 C167.368499,50.0269981 167.524831,50.0716643 167.703498,50.1609981 C168.775504,50.607667 169.199833,51.3893258 168.976498,52.5059981 C168.842498,53.1760014 168.708499,53.8571613 168.574498,54.5494981 C168.440498,55.2418349 168.328832,55.9229947 168.239498,56.5929981 C168.150164,57.2183345 168.071999,57.8213285 168.004998,58.4019981 C167.937998,58.9826676 167.993831,59.5633285 168.172498,60.1439981 C168.306499,60.4566663 168.462831,60.6129981 168.641498,60.6129981 C169.222168,60.6129981 169.981494,60.3785004 170.919498,59.9094981 C171.857503,59.4404957 172.80666,58.882168 173.766998,58.2344981 C174.727336,57.5868282 175.65416,56.9280014 176.547498,56.2579981 C176.564093,56.245552 176.580611,56.2331522 176.597051,56.2207986 Z M251.922498,69.0549981 C252.681835,68.8763305 253.407661,68.5971666 254.099998,68.2174981 C254.792335,67.8378295 255.428829,67.3800008 256.009498,66.8439981 C256.590168,66.3079954 257.047997,65.6826683 257.382998,64.9679981 C257.718,64.2533278 257.885498,63.4940021 257.885498,62.6899981 C257.796164,62.2433292 257.729165,61.8190001 257.684498,61.4169981 C257.639831,61.0149961 257.572832,60.6130001 257.483498,60.2109981 C257.438831,59.9429967 257.349499,59.8089981 257.215498,59.8089981 C257.126164,59.8089981 256.824667,59.9764964 256.310998,60.3114981 C255.797329,60.6464997 255.239001,61.0373292 254.635998,61.4839981 C254.032995,61.930667 253.474667,62.3438295 252.960998,62.7234981 C252.447329,63.1031666 252.123499,63.3599974 251.989498,63.4939981 C251.408829,63.9853339 250.906334,64.5324951 250.481998,65.1354981 C250.057663,65.7385011 249.890164,66.4866603 249.979498,67.3799981 C250.024165,67.8713339 250.146997,68.2844964 250.347998,68.6194981 C250.548999,68.9544997 250.895162,69.1219981 251.386498,69.1219981 C251.609833,69.1219981 251.788498,69.099665 251.922498,69.0549981 Z M264.116498,54.5829981 C264.250499,54.5829981 264.384498,54.6164977 264.518498,54.6834981 C264.652499,54.7504984 264.786498,54.8063312 264.920498,54.8509981 C264.831164,54.9403319 264.764165,55.0408308 264.719498,55.1524981 C264.674831,55.2641653 264.607832,55.3646643 264.518498,55.4539981 C263.893162,55.8113332 263.267835,56.1574964 262.642498,56.4924981 C262.017162,56.8274997 261.391835,57.173663 260.766498,57.5309981 C260.45383,57.7543325 260.208166,57.9106643 260.029498,57.9999981 C259.850831,58.0893319 259.739165,58.1898308 259.694498,58.3014981 C259.649831,58.4131653 259.660998,58.5694971 259.727998,58.7704981 C259.794999,58.9714991 259.917831,59.2953292 260.096498,59.7419981 C260.4985,60.6353359 260.82233,61.5733265 261.067998,62.5559981 C261.313666,63.5386697 261.324833,64.5436596 261.101498,65.5709981 C260.922831,66.419669 260.576667,67.1454951 260.062998,67.7484981 C259.549329,68.3515011 258.979835,68.9209954 258.354498,69.4569981 C257.595161,70.1270014 256.757669,70.5848302 255.841998,70.8304981 C254.926327,71.076166 253.954837,71.1989981 252.927498,71.1989981 C250.917488,71.1543312 249.287171,70.2610068 248.036498,68.5189981 C247.634496,67.9829954 247.478164,67.4358342 247.567498,66.8774981 C247.656832,66.3191619 247.835497,65.7496676 248.103498,65.1689981 C248.5055,64.3649941 249.030328,63.6950008 249.677998,63.1589981 C250.325668,62.6229954 251.006828,62.1093339 251.721498,61.6179981 C252.480835,61.1266623 253.240161,60.6688335 253.999498,60.2444981 C254.758835,59.8201626 255.518161,59.3623339 256.277498,58.8709981 C256.724167,58.6476636 256.835833,58.2903339 256.612498,57.7989981 C256.165829,56.8609934 255.752667,55.9341693 255.372998,55.0184981 C254.99333,54.1028268 254.580167,53.1760028 254.133498,52.2379981 C254.088831,52.1039974 254.055332,51.9588322 254.032998,51.8024981 C254.010665,51.646164 253.954832,51.5009987 253.865498,51.3669981 C253.284829,52.0816683 252.715334,52.7851613 252.156998,53.4774981 C251.598662,54.1698349 251.006835,54.8509947 250.381498,55.5209981 C249.890162,56.1463345 249.309502,56.4589981 248.639498,56.4589981 C247.969495,56.4589981 247.310668,56.1463345 246.662998,55.5209981 C246.015328,54.8956616 245.691498,54.2703345 245.691498,53.6449981 C245.691498,53.6003312 245.657999,53.555665 245.590998,53.5109981 C245.523998,53.4663312 245.468165,53.3993319 245.423498,53.3099981 C245.378831,53.3993319 245.311832,53.4886643 245.222498,53.5779981 C244.775829,54.2033345 244.3515,54.7951619 243.949498,55.3534981 C243.547496,55.9118342 243.123167,56.5036616 242.676498,57.1289981 C242.319163,57.6203339 241.917167,58.0781626 241.470498,58.5024981 C241.023829,58.9268335 240.510168,59.2729967 239.929498,59.5409981 C239.572163,59.6303319 239.281833,59.6749981 239.058498,59.6749981 C238.790497,59.6749981 238.477833,59.6303319 238.120498,59.5409981 C237.405828,59.3176636 236.858667,58.8933345 236.478998,58.2679981 C236.09933,57.6426616 235.976498,56.9503352 236.110498,56.1909981 C236.244499,55.2976603 236.400831,54.4378355 236.579498,53.6114981 C236.758166,52.7851606 236.959164,51.9253359 237.182498,51.0319981 C237.227165,50.7193298 237.40583,50.5629981 237.718498,50.5629981 C237.852499,50.5629981 237.941831,50.5853312 237.986498,50.6299981 C238.343833,50.7639987 238.768162,50.9649967 239.259498,51.2329981 C239.304165,51.2329981 239.326498,51.3223305 239.326498,51.5009981 C239.237164,52.3943359 239.136665,53.2876603 239.024998,54.1809981 C238.913331,55.0743359 238.812832,55.9676603 238.723498,56.8609981 C238.678831,56.9503319 238.678831,57.0284977 238.723498,57.0954981 C238.768165,57.1624984 238.790498,57.2406643 238.790498,57.3299981 C238.879832,57.2853312 238.969164,57.2629981 239.058498,57.2629981 C239.147832,57.2629981 239.214831,57.240665 239.259498,57.1959981 C239.706167,56.7493292 240.152829,56.3250001 240.599498,55.9229981 C241.046167,55.5209961 241.470496,55.0743339 241.872498,54.5829981 C242.319167,54.0916623 242.73233,53.5891673 243.111998,53.0754981 C243.491667,52.5618288 243.882496,52.0593339 244.284498,51.5679981 C244.641833,51.0319954 245.043829,50.5630001 245.490498,50.1609981 C245.624499,49.9376636 245.780831,49.8706643 245.959498,49.9599981 C246.182833,50.0493319 246.372664,50.1386643 246.528998,50.2279981 C246.685332,50.3173319 246.875164,50.4066643 247.098498,50.4959981 C247.455833,50.5853319 247.600999,50.7193305 247.533998,50.8979981 C247.466998,51.0766656 247.411165,51.2776636 247.366498,51.5009981 C247.321831,51.5903319 247.277165,51.6908308 247.232498,51.8024981 C247.187831,51.9141653 247.187831,52.0146643 247.232498,52.1039981 L247.366498,53.1759981 C247.411165,53.5333332 247.478164,53.890663 247.567498,54.2479981 C247.612165,54.4266656 247.690331,54.594164 247.801998,54.7504981 C247.913665,54.9068322 248.014164,55.0743305 248.103498,55.2529981 C248.237499,55.1636643 248.404997,55.0854984 248.605998,55.0184981 C248.806999,54.9514977 248.952164,54.8509987 249.041498,54.7169981 C249.532834,54.1809954 250.012996,53.6338342 250.481998,53.0754981 C250.951001,52.5171619 251.431162,51.9476676 251.922498,51.3669981 C252.279833,50.8756623 252.592497,50.3620008 252.860498,49.8259981 C253.1285,49.2899954 253.307164,48.7093345 253.396498,48.0839981 C253.441165,47.726663 253.575164,47.5479981 253.798498,47.5479981 C253.932499,47.5479981 254.044164,47.5703312 254.133498,47.6149981 C254.312166,47.7043319 254.490831,47.7713312 254.669498,47.8159981 C254.848166,47.860665 255.049164,47.9276643 255.272498,48.0169981 C255.853168,48.2849994 256.210498,48.7986609 256.344498,49.5579981 C256.478499,50.6746703 256.724163,51.7466596 257.081498,52.7739981 C257.438833,53.8013365 257.863162,54.8063265 258.354498,55.7889981 C258.443832,56.0123325 258.533164,56.2244971 258.622498,56.4254981 C258.711832,56.6264991 258.845831,56.7716643 259.024498,56.8609981 C259.158499,56.9503319 259.325997,56.9168322 259.526998,56.7604981 C259.727999,56.604164 259.940164,56.4813319 260.163498,56.3919981 L261.771498,55.5879981 C262.307501,55.3199967 262.865829,55.0519994 263.446498,54.7839981 C263.535832,54.7393312 263.647498,54.694665 263.781498,54.6499981 C263.915499,54.6053312 264.027164,54.5829981 264.116498,54.5829981 Z M305.321498,56.1239981 C305.276831,56.2133319 305.254498,56.3696636 305.254498,56.5929981 L305.589498,56.5929981 C305.678832,56.5929981 305.823997,56.5371653 306.024998,56.4254981 C306.225999,56.3138308 306.460497,56.1798322 306.728498,56.0234981 C306.9965,55.867164 307.242164,55.7219987 307.465498,55.5879981 C307.688833,55.4539974 307.845164,55.364665 307.934498,55.3199981 C308.604502,54.9179961 309.106997,54.393168 309.441998,53.7454981 C309.777,53.0978282 309.989164,52.349669 310.078498,51.5009981 L310.078498,51.4339981 C310.033831,51.3893312 310.011498,51.344665 310.011498,51.2999981 C309.922164,51.344665 309.855165,51.3669981 309.810498,51.3669981 C309.765831,51.3669981 309.698832,51.3893312 309.609498,51.4339981 C308.71616,52.0593345 307.923335,52.7739941 307.230998,53.5779981 C306.538661,54.3820021 305.902168,55.2306603 305.321498,56.1239981 Z M333.729498,56.1239981 C333.684831,56.2133319 333.662498,56.3696636 333.662498,56.5929981 L333.997498,56.5929981 C334.086832,56.5929981 334.231997,56.5371653 334.432998,56.4254981 C334.633999,56.3138308 334.868497,56.1798322 335.136498,56.0234981 C335.4045,55.867164 335.650164,55.7219987 335.873498,55.5879981 C336.096833,55.4539974 336.253164,55.364665 336.342498,55.3199981 C337.012502,54.9179961 337.514997,54.393168 337.849998,53.7454981 C338.185,53.0978282 338.397164,52.349669 338.486498,51.5009981 L338.486498,51.4339981 C338.441831,51.3893312 338.419498,51.344665 338.419498,51.2999981 C338.330164,51.344665 338.263165,51.3669981 338.218498,51.3669981 C338.173831,51.3669981 338.106832,51.3893312 338.017498,51.4339981 C337.12416,52.0593345 336.331335,52.7739941 335.638998,53.5779981 C334.946661,54.3820021 334.310168,55.2306603 333.729498,56.1239981 Z M301.1816,58.872113 C301.001,59.0426997 300.817633,59.209828 300.631498,59.3734981 C299.336158,60.5125038 297.906839,61.5286603 296.343498,62.4219981 C295.896829,62.6899994 295.450167,62.8239981 295.003498,62.8239981 C294.467496,62.8239981 293.9985,62.6453332 293.596498,62.2879981 C293.194496,61.930663 292.8595,61.5063339 292.591498,61.0149981 C292.368164,60.657663 292.222999,60.2445004 292.155998,59.7754981 C292.088998,59.3064957 292.010832,58.848667 291.921498,58.4019981 C291.787498,57.5086603 291.664665,56.637669 291.552998,55.7889981 C291.441331,54.9403272 291.296166,54.0693359 291.117498,53.1759981 C291.117498,52.9973305 291.050499,52.9079981 290.916498,52.9079981 C290.827164,52.9079981 290.693166,52.9526643 290.514498,53.0419981 C290.023162,53.5333339 289.531834,54.0134957 289.040498,54.4824981 C288.549162,54.9515004 288.080167,55.4316623 287.633498,55.9229981 C287.365497,56.2356663 287.119833,56.5594964 286.896498,56.8944981 C286.673164,57.2294997 286.449833,57.5533298 286.226498,57.8659981 C285.824496,58.3573339 285.589999,58.8821619 285.522998,59.4404981 C285.455998,59.9988342 285.444831,60.5683285 285.489498,61.1489981 L285.489498,61.8189981 C285.489498,62.0423325 285.377833,62.1986643 285.154498,62.2879981 C285.109831,62.332665 285.020499,62.3549981 284.886498,62.3549981 C284.752498,62.3549981 284.629665,62.332665 284.517998,62.2879981 C284.406331,62.2433312 284.283499,62.1763319 284.149498,62.0869981 C283.747496,61.8636636 283.535332,61.6068329 283.512998,61.3164981 C283.490665,61.0261633 283.434832,60.7246663 283.345498,60.4119981 C283.122164,59.1613252 283.055164,57.9330041 283.144498,56.7269981 C283.233832,55.520992 283.256165,54.292671 283.211498,53.0419981 C283.122164,51.6126576 283.122164,50.2056717 283.211498,48.8209981 C283.345499,45.7389827 283.658162,42.6793466 284.149498,39.6419981 C284.640834,36.6046496 285.243828,33.5896797 285.958498,30.5969981 C286.092499,30.1949961 286.248831,29.9939981 286.427498,29.9939981 C286.516832,29.9939981 286.75133,30.1056636 287.130998,30.3289981 C287.510667,30.5523325 287.745164,30.7086643 287.834498,30.7979981 C288.281167,31.1553332 288.448665,31.5684957 288.336998,32.0374981 C288.225331,32.5065004 288.124832,32.9419961 288.035498,33.3439981 C287.544162,35.7560101 287.142166,38.167986 286.829498,40.5799981 C286.51683,42.9920101 286.271166,45.4263191 286.092498,47.8829981 L285.690498,52.7069981 C285.690498,52.7963319 285.735164,52.9749967 285.824498,53.2429981 C285.913832,53.1983312 285.980831,53.153665 286.025498,53.1089981 C286.070165,53.0643312 286.137164,53.019665 286.226498,52.9749981 C286.6285,52.617663 287.01933,52.2714997 287.398998,51.9364981 C287.778667,51.6014964 288.169496,51.2776663 288.571498,50.9649981 C288.794833,50.7863305 289.018164,50.674665 289.241498,50.6299981 C289.464833,50.5853312 289.688164,50.5629981 289.911498,50.5629981 C290.715502,50.5629981 291.519494,50.8644951 292.323498,51.4674981 C293.127502,52.0705011 293.618831,52.7739941 293.797498,53.5779981 C293.842165,53.8459994 293.909164,54.2926616 293.998498,54.9179981 C294.087832,55.5433345 294.165998,56.2021613 294.232998,56.8944981 C294.299999,57.5868349 294.366998,58.2679947 294.433998,58.9379981 C294.500999,59.6080014 294.534498,60.0993298 294.534498,60.4119981 C294.623832,60.7693332 294.713164,60.9479981 294.802498,60.9479981 C294.936499,60.9479981 295.092831,60.8809987 295.271498,60.7469981 C296.700839,59.9876609 298.085491,59.0720034 299.425498,57.9999981 C300.061315,57.4913447 300.666959,56.9676107 301.242434,56.4287926 C301.32311,56.1678557 301.409798,55.9099248 301.502498,55.6549981 C301.725833,55.1636623 302.116662,54.5495018 302.674998,53.8124981 C303.233334,53.0754944 303.858661,52.3720014 304.550998,51.7019981 C305.243335,51.0319947 305.980328,50.4625004 306.761998,49.9934981 C307.543669,49.5244957 308.224829,49.2899981 308.805498,49.2899981 C309.386168,49.2899981 309.899829,49.4463298 310.346498,49.7589981 C310.793167,50.0716663 311.195163,50.4289961 311.552498,50.8309981 C311.865166,51.1883332 311.976832,51.5679961 311.887498,51.9699981 C311.798164,52.3720001 311.708832,52.751663 311.619498,53.1089981 C311.128162,54.5830054 310.290671,55.7331606 309.106998,56.5594981 C307.923326,57.3858355 306.572172,57.7989981 305.053498,57.7989981 C304.74083,57.7989981 304.562165,57.9329967 304.517498,58.2009981 C304.517498,58.5136663 304.506332,58.8151633 304.483998,59.1054981 C304.461665,59.3958329 304.472831,59.6749967 304.517498,59.9429981 C304.562165,60.3003332 304.673831,60.5348308 304.852498,60.6464981 C305.031166,60.7581653 305.299163,60.8139981 305.656498,60.8139981 L306.527498,60.8139981 C307.331502,60.7693312 308.18016,60.6464991 309.073498,60.4454981 C309.966836,60.2444971 310.86016,59.9876663 311.753498,59.6749981 C312.646836,59.3623298 313.517827,59.0273332 314.366498,58.6699981 C315.215169,58.312663 315.974495,57.9330001 316.644498,57.5309981 C317.537836,57.0843292 318.408827,56.5930008 319.257498,56.0569981 C319.703987,55.7750053 320.150472,55.4991963 320.596957,55.2295687 C320.100262,55.0503144 319.787779,54.7789599 319.659498,54.4154981 C319.525498,54.0358295 319.503164,53.6115004 319.592498,53.1424981 C319.681832,52.6734957 319.871663,52.2045004 320.161998,51.7354981 C320.452333,51.2664957 320.776163,50.8310001 321.133498,50.4289981 C321.312166,50.2503305 321.55783,50.0716656 321.870498,49.8929981 C322.183166,49.7143305 322.518163,49.6249981 322.875498,49.6249981 C323.188166,49.6249981 323.411498,49.6696643 323.545498,49.7589981 C323.768833,49.8929987 323.891665,50.1163298 323.913998,50.4289981 C323.936332,50.7416663 323.902832,51.076663 323.813498,51.4339981 C323.724164,51.7913332 323.590166,52.1374964 323.411498,52.4724981 C323.232831,52.8074997 323.076499,53.0866636 322.942498,53.3099981 C322.808498,53.5333325 322.685665,53.7343305 322.573998,53.9129981 C322.462331,54.0916656 322.585163,54.2256643 322.942498,54.3149981 C323.433834,54.4489987 323.846997,54.6834964 324.181998,55.0184981 C324.517,55.3534997 324.784997,55.7443292 324.985998,56.1909981 C325.186999,56.637667 325.332164,57.1178288 325.421498,57.6314981 C325.510832,58.1451673 325.577831,58.6253292 325.622498,59.0719981 C325.711832,59.9653359 325.700665,60.8698268 325.588998,61.7854981 C325.477331,62.7011693 325.332166,63.6056603 325.153498,64.4989981 C325.108831,64.543665 325.108831,64.5883312 325.153498,64.6329981 C325.198165,64.677665 325.220498,64.7446643 325.220498,64.8339981 C325.309832,64.7893312 325.365665,64.7558315 325.387998,64.7334981 C325.410332,64.7111646 325.466164,64.677665 325.555498,64.6329981 C326.136168,64.1416623 326.61633,63.6056676 326.995998,63.0249981 C327.375667,62.4443285 327.744163,61.8413345 328.101498,61.2159981 C328.592834,60.3673272 329.061829,59.5298355 329.508498,58.7034981 C329.511013,58.6988455 329.513529,58.6941925 329.516045,58.6895393 C329.513521,58.6830305 329.511005,58.6765167 329.508498,58.6699981 C329.329831,58.1786623 329.307498,57.6761673 329.441498,57.1624981 C329.575499,56.6488288 329.731831,56.1463339 329.910498,55.6549981 C330.133833,55.1636623 330.524662,54.5495018 331.082998,53.8124981 C331.641334,53.0754944 332.266661,52.3720014 332.958998,51.7019981 C333.651335,51.0319947 334.388328,50.4625004 335.169998,49.9934981 C335.951669,49.5244957 336.632829,49.2899981 337.213498,49.2899981 C337.794168,49.2899981 338.307829,49.4463298 338.754498,49.7589981 C339.201167,50.0716663 339.603163,50.4289961 339.960498,50.8309981 C340.273166,51.1883332 340.384832,51.5679961 340.295498,51.9699981 C340.206164,52.3720001 340.116832,52.751663 340.027498,53.1089981 C339.536162,54.5830054 338.698671,55.7331606 337.514998,56.5594981 C336.331326,57.3858355 334.980172,57.7989981 333.461498,57.7989981 C333.14883,57.7989981 332.970165,57.9329967 332.925498,58.2009981 C332.925498,58.5136663 332.914332,58.8151633 332.891998,59.1054981 C332.869665,59.3958329 332.880831,59.6749967 332.925498,59.9429981 C332.970165,60.3003332 333.081831,60.5348308 333.260498,60.6464981 C333.439166,60.7581653 333.707163,60.8139981 334.064498,60.8139981 L334.935498,60.8139981 C335.739502,60.7693312 336.58816,60.6464991 337.481498,60.4454981 C338.374836,60.2444971 339.26816,59.9876663 340.161498,59.6749981 C341.054836,59.3623298 341.925827,59.0273332 342.774498,58.6699981 C343.623169,58.312663 344.382495,57.9330001 345.052498,57.5309981 C345.945836,57.0843292 346.816827,56.5930008 347.665498,56.0569981 C348.514169,55.5209954 349.362827,55.0073339 350.211498,54.5159981 C350.300832,54.4713312 350.401331,54.4154984 350.512998,54.3484981 C350.624665,54.2814977 350.725164,54.2479981 350.814498,54.2479981 C350.948499,54.2479981 351.037831,54.3149974 351.082498,54.4489981 C351.171832,54.5829987 351.227665,54.7616636 351.249998,54.9849981 C351.272332,55.2083325 351.238832,55.3646643 351.149498,55.4539981 C350.881497,55.8560001 350.479501,56.2133298 349.943498,56.5259981 C348.737492,57.2406683 347.531504,57.9218282 346.325498,58.5694981 C345.119492,59.217168 343.891171,59.8983278 342.640498,60.6129981 C341.657827,61.1490008 340.474172,61.6738288 339.089498,62.1874981 C337.704825,62.7011673 336.431837,62.9579981 335.270498,62.9579981 C333.841158,62.9579981 332.63517,62.533669 331.652498,61.6849981 C331.064742,61.1773906 330.572867,60.6138603 330.176868,59.9944007 C330.088078,60.1666582 329.999288,60.3393572 329.910498,60.5124981 C329.463829,61.3835024 328.994834,62.2209941 328.503498,63.0249981 C328.369498,63.2483325 328.146166,63.5721626 327.833498,63.9964981 C327.52083,64.4208335 327.185833,64.8339961 326.828498,65.2359981 C326.471163,65.6380001 326.0915,65.9841633 325.689498,66.2744981 C325.287496,66.5648329 324.930166,66.7099981 324.617498,66.7099981 C324.30483,66.7099981 324.003333,66.5983325 323.712998,66.3749981 C323.422663,66.1516636 323.165833,65.8613332 322.942498,65.5039981 C322.719164,65.146663 322.562832,64.6776676 322.473498,64.0969981 C322.384164,63.5163285 322.406498,62.9133345 322.540498,62.2879981 L322.540498,58.0669981 C322.495831,57.3076609 322.361833,56.704667 322.138498,56.2579981 C322.121123,56.2232468 322.102125,56.1891715 322.081505,56.1557721 C321.918311,56.2854498 321.736309,56.4088583 321.535498,56.5259981 C320.329492,57.2406683 319.123504,57.9218282 317.917498,58.5694981 C316.711492,59.217168 315.483171,59.8983278 314.232498,60.6129981 C313.249827,61.1490008 312.066172,61.6738288 310.681498,62.1874981 C309.296825,62.7011673 308.023837,62.9579981 306.862498,62.9579981 C305.433158,62.9579981 304.22717,62.533669 303.244498,61.6849981 C302.319286,60.8859509 301.631659,59.948331 301.1816,58.872113 Z" id="you-can-find-us-here" transform="translate(176.869098, 56.224498) rotate(-10.000000) translate(-176.869098, -56.224498) "></path>
                    <path d="M170.078309,72.3661641 C170.204165,72.3551531 170.463051,72.3245773 170.854976,72.2744359 C171.246901,72.2242945 171.579725,72.3140677 171.85346,72.5437583 C172.024544,72.6873149 172.252455,72.9368629 172.537201,73.2924098 C173.555832,74.7885365 174.560389,76.2145358 175.550901,77.5704505 C176.541413,78.9263652 177.567799,80.2394892 178.63009,81.5098619 C179.69238,82.7802345 180.809028,84.037905 181.980066,85.282911 C183.151104,86.527917 184.440802,87.7704475 185.849197,89.0105399 C186.647195,89.7967567 187.463961,90.5258358 188.299521,91.1977991 C189.13508,91.8697625 190.009268,92.530409 190.922112,93.1797584 C191.595437,93.6281286 192.283108,94.0593839 192.985145,94.4735372 L195.091244,95.7159911 C195.125461,95.7447024 195.169608,95.7963228 195.223686,95.8708539 C195.277764,95.9453849 195.2932,96.0312217 195.269994,96.1283666 C195.16616,96.3910902 195.071177,96.5737745 194.985043,96.676425 C194.841486,96.8475091 194.629499,96.9611688 194.349075,97.0174077 C193.82795,97.2215248 193.340264,97.2641918 192.886003,97.1454099 C192.431743,97.026628 191.987715,96.8435444 191.553907,96.5961535 C188.888133,95.1173135 186.285918,93.4585641 183.747183,91.6198556 C183.734989,91.8428568 183.852482,92.1892524 184.099666,92.6590527 C184.34685,93.1288529 176.611154,85.3404797 175.137285,83.1708207 C173.663415,81.0011618 172.078365,78.738225 170.382087,76.3819424 L169.511338,75.1265236 C169.221087,74.7080486 168.945195,74.2724717 168.683656,73.8197798 C168.461838,73.4587275 168.422708,73.1926632 168.566265,73.0215791 C168.709822,72.850495 168.890345,72.7395879 169.107841,72.6888546 C169.262408,72.6436268 169.424151,72.5898456 169.593075,72.5275093 C169.761998,72.4651731 169.923741,72.4113919 170.078309,72.3661641 Z M192.000627,85.4752051 C192.446969,85.0257569 192.873613,85.0349679 193.280571,85.5028385 C194.979032,87.3207553 196.421087,89.2914916 197.606779,91.4151063 C198.792471,93.5387211 199.781102,95.8256133 200.5727,98.2758515 C200.815825,98.9789089 200.880936,99.650568 200.768038,100.290849 C200.632559,101.059186 200.276672,101.68962 199.700365,102.182171 C199.124059,102.674722 198.475691,103.055531 197.755242,103.324609 C197.224095,103.561048 196.638543,103.672357 195.998567,103.65854 C195.358592,103.644723 194.730637,103.649529 194.114686,103.672958 C192.894072,103.655787 191.705967,103.627841 190.550335,103.589119 C189.394704,103.550397 188.200954,103.554465 186.96905,103.601322 C186.731701,103.559471 183.999968,102.483633 185.004239,101.472374 C186.008509,100.461116 187.067242,99.921603 188.180472,99.8538201 C188.547785,99.8525685 189.158083,99.8611538 190.011383,99.8795761 C190.864684,99.8979984 191.759652,99.9402742 192.696313,100.006405 C193.632975,100.072535 194.554788,100.136049 195.461781,100.196948 C196.368774,100.257847 197.029941,100.324916 197.445301,100.398155 C197.942579,100.353801 198.202503,100.267597 198.225083,100.139541 C198.258953,99.9474563 198.209462,99.7076674 198.07661,99.4201668 C197.429154,97.1934011 196.56274,94.9940769 195.477344,92.8221282 C194.391947,90.6501794 193.183693,88.6546508 191.852546,86.8354823 C191.649067,86.6015471 191.569908,86.3565269 191.615067,86.1004146 C191.660227,85.8443022 191.788745,85.6359011 192.000627,85.4752051 Z" id="Path-2" transform="translate(184.651699, 87.966958) rotate(-10.000000) translate(-184.651699, -87.966958) "></path>
                </g>
            </g>
        </g>
    </g>
</svg>