<?xml version="1.0" encoding="UTF-8"?>
<svg width="30px" height="24px" viewBox="0 0 30 24" version="1.1" xmlns="http://www.w3.org/2000/svg" xmlns:xlink="http://www.w3.org/1999/xlink">
    <!-- Generator: Sketch 52.5 (67469) - http://www.bohemiancoding.com/sketch -->
    <title>twitter</title>
    <desc>Created with Sketch.</desc>
    <g id="Page-1" stroke="none" stroke-width="1" fill="none" fill-rule="evenodd">
        <g id="Artboard" transform="translate(-586.000000, -621.000000)" fill="#FFFFFF">
            <g id="Header">
                <g id="twitter" transform="translate(586.000000, 621.000000)">
                    <path d="M29.9419113,2.85705503 C28.8363523,3.33661236 27.6558401,3.66308023 26.4097439,3.81063634 C27.678326,3.05994467 28.6545909,1.8739625 29.113679,0.461112819 C27.9256715,1.14355979 26.6083698,1.64156164 25.2067458,1.91822933 C24.0861961,0.73778051 22.4896939,0 20.7170518,0 C17.321674,0 14.5671455,2.71134338 14.5671455,6.04980018 C14.5671455,6.52935752 14.6233604,6.99047034 14.726421,7.43313864 C9.61461587,7.19335998 5.08182386,4.7771288 2.04809494,1.12511528 C1.51592755,2.01229634 1.21611493,3.04518906 1.21611493,4.17030433 C1.21611493,6.27297879 2.30293567,8.12296342 3.95190506,9.20934522 C2.94378513,9.17798955 1.9937539,8.90501076 1.16552155,8.4531202 L1.16552155,8.52689825 C1.16552155,11.4595758 3.28294816,13.9090071 6.09931293,14.4660314 C5.58213616,14.6025208 5.0387258,14.6762988 4.47845097,14.6762988 C4.08494691,14.6762988 3.71018114,14.6394098 3.33541537,14.5693206 C4.12242349,16.9744851 6.3897564,18.7248694 9.08806996,18.7746695 C6.98938164,20.3977867 4.32854466,21.3642791 1.46158651,21.3642791 C0.974391006,21.3642791 0.487195503,21.3366124 0,21.2812788 C2.73579013,22.9966185 5.95877577,24 9.44409744,24 C20.7620237,24 26.945659,14.7777436 26.945659,6.7912696 C26.945659,6.53304642 26.945659,6.27482324 26.9269207,6.01660006 C28.1261711,5.16815247 29.1755153,4.09837073 30,2.88103289 L29.9419113,2.85705503 Z" id="Shape"></path>
                </g>
            </g>
        </g>
    </g>
</svg>