<?xml version="1.0" encoding="UTF-8"?>
<svg width="56px" height="64px" viewBox="0 0 56 64" version="1.1" xmlns="http://www.w3.org/2000/svg" xmlns:xlink="http://www.w3.org/1999/xlink">
    <!-- Generator: Sketch 52.5 (67469) - http://www.bohemiancoding.com/sketch -->
    <title>Shape</title>
    <desc>Created with Sketch.</desc>
    <g id="Page-1" stroke="none" stroke-width="1" fill="none" fill-rule="evenodd">
        <g id="icon--castbox" fill="#000000" fill-rule="nonzero">
            <path d="M0.298581831,32.0102622 C0.298581831,27.5447668 0.317781381,23.0792715 0.290582018,18.6137761 C0.277782318,16.5674241 1.14176207,15.1034584 2.89532097,14.0698826 C10.3511464,9.67638562 17.8053717,5.27648875 25.2355975,0.839792734 C27.1011538,-0.273781166 28.8451129,-0.283380941 30.7122692,0.831792922 C38.1728943,5.28128863 45.6559189,9.69398521 53.1389435,14.1050818 C54.8573032,15.1178581 55.7068833,16.6058232 55.7084833,18.5801769 C55.7148831,27.5111676 55.7132832,36.4421583 55.7100833,45.373149 C55.7100833,47.3427028 54.8893025,48.8418677 53.1661429,49.8594438 C45.6559189,54.2913399 38.1488949,58.7296359 30.6546705,63.1887314 C28.8643125,64.2543064 27.1507526,64.2799058 25.3507948,63.2079309 C17.8853698,58.7648351 10.408745,54.3409388 2.92092037,49.936242 C1.12736241,48.8818667 0.269782506,47.3907017 0.287382093,45.3059505 C0.324181231,40.8756544 0.298581831,36.4421583 0.298581831,32.0102622 Z M33.705799,31.8326663 C33.705799,29.7847143 33.7217986,27.7351624 33.6993991,25.6872104 C33.6881994,24.5320374 33.0130152,23.7896548 31.9794395,23.7112567 C30.7730677,23.6200588 29.8994882,24.3768411 29.867489,25.6104122 C29.8338897,26.9527807 29.8770887,28.2967492 29.8514893,29.6407177 C29.8354897,30.5110973 29.267503,30.9638867 28.4803215,30.7910907 C27.8323367,30.6486941 27.6611407,30.1863049 27.6643406,29.586319 C27.6723404,27.8071607 27.6611407,26.0264024 27.6707404,24.2472441 C27.6739404,23.4936618 27.4675452,22.8536768 26.795561,22.4392865 C25.427593,21.5977062 23.8420302,22.460086 23.7972312,24.1000476 C23.7588321,25.5432137 23.8020311,26.9879799 23.7828316,28.432746 C23.7716318,29.2263274 23.4116403,29.6071185 22.7364561,29.6311179 C22.0276727,29.6551174 21.589283,29.2359272 21.5428841,28.4407458 C21.5140847,27.9383576 21.5524838,27.4327694 21.5316843,26.9303812 C21.4964852,26.0968008 21.0740951,25.5416138 20.3061131,25.2712201 C19.0053435,24.8152308 17.7509729,25.6792105 17.7253735,27.0775778 C17.7013741,28.3527479 17.7397732,29.629518 17.7093739,30.906288 C17.6933743,31.6022717 17.2821839,31.9830628 16.6517987,32.0022623 C16.0038139,32.0214619 15.5942235,31.6678702 15.5030256,30.9894861 C15.4758263,30.7910907 15.5030256,30.5846956 15.4790262,30.3863002 C15.359029,29.3911235 14.5270485,28.6343413 13.5798707,28.645541 C12.6198932,28.6567408 11.7111145,29.415123 11.6855151,30.3911001 C11.6327163,32.4054529 11.6327163,34.4214056 11.6871151,36.4357584 C11.7143144,37.4245353 12.6214932,38.1829175 13.5750708,38.1813175 C14.5462481,38.1781176 15.3510292,37.4469347 15.4758263,36.4421583 C15.5046256,36.2101637 15.4166277,35.9189705 15.5270251,35.7493745 C15.7478199,35.4117824 16.0214135,34.9925923 16.3622055,34.8821948 C16.6581986,34.7861971 17.1669866,34.9765926 17.4133809,35.214987 C17.6341757,35.4277821 17.7013741,35.8757716 17.706174,36.2229634 C17.7317734,38.203717 17.6965742,40.1860705 17.7269735,42.1668241 C17.747773,43.6147902 19.2389381,44.5075692 20.5189081,43.8611844 C21.246891,43.493193 21.5524838,42.8852073 21.544484,42.0532268 C21.5188846,39.4340882 21.5332843,36.8149495 21.5364842,34.194211 C21.5380842,32.9718396 21.9028756,32.4246524 22.698057,32.4358522 C23.4580392,32.445452 23.7876315,32.95584 23.7892314,34.1334124 C23.7908314,35.3093848 23.7716318,36.4853573 23.7940313,37.6597297 C23.8180307,38.8837011 24.5796129,39.6708826 25.6979867,39.6820823 C26.8499597,39.694882 27.6419411,38.8725013 27.6643406,37.6117309 C27.6803402,36.7045521 27.6547408,35.7973734 27.6723404,34.8917946 C27.68834,34.0678139 28.0979304,33.6150245 28.7747146,33.6278242 C29.4514987,33.6406239 29.8466894,34.0902134 29.8578892,34.9125941 C29.8722888,35.9541697 29.8338897,36.9957453 29.8706889,38.0357209 C29.909088,39.1668944 30.7346686,39.9364764 31.8178432,39.9188768 C32.9346171,39.9012772 33.6897994,39.1124957 33.7009991,37.8821245 C33.7201987,35.8629719 33.705799,33.8486191 33.705799,31.8326663 Z M39.7920563,33.9686163 C39.7920563,32.827843 39.8032561,31.6870697 39.7888564,30.5462965 C39.7744568,29.3831237 39.0528737,28.6183417 37.9616992,28.5751427 C36.8225259,28.5303437 35.9729459,29.1927282 35.9473465,30.3479011 C35.8913478,32.7622445 35.8961477,35.1797879 35.9601462,37.5925313 C35.9905454,38.715705 36.9137238,39.4548877 37.9680991,39.3940891 C39.0592735,39.3300906 39.7728568,38.5621086 39.7904564,37.390936 C39.804856,36.2501628 39.7920563,35.1093895 39.7920563,33.9686163 Z M42.0336038,34.9205939 C42.0336038,35.2213869 42.0208041,35.5237798 42.0352038,35.8245728 C42.0848026,36.8581485 42.793586,37.5749317 43.8095622,37.6309304 C44.8863369,37.690129 45.739117,37.0357444 45.8415146,35.982969 C45.908713,35.2869854 45.907113,34.575002 45.8399146,33.8774184 C45.7407169,32.8374428 44.8495378,32.1334593 43.8207619,32.1958578 C42.8255852,32.2566564 42.0944024,32.997439 42.0352038,34.0166151 C42.0176042,34.3174081 42.0336038,34.619801 42.0336038,34.9205939 Z" id="Shape"></path>
        </g>
    </g>
</svg>