<?xml version="1.0" encoding="UTF-8"?>
<svg width="17px" height="23px" viewBox="0 0 17 23" version="1.1" xmlns="http://www.w3.org/2000/svg" xmlns:xlink="http://www.w3.org/1999/xlink">
    <!-- Generator: Sketch 52.5 (67469) - http://www.bohemiancoding.com/sketch -->
    <title>iconmonstr-lock-3</title>
    <desc>Created with Sketch.</desc>
    <g id="Page-1" stroke="none" stroke-width="1" fill="none" fill-rule="evenodd">
        <g id="Artboard" transform="translate(-764.000000, -6643.000000)" fill="#429D78" fill-rule="nonzero">
            <g id="Giving" transform="translate(0.000000, 6162.000000)">
                <g id="give-now-button" transform="translate(740.000000, 451.000000)">
                    <g id="iconmonstr-lock-3" transform="translate(24.000000, 30.000000)">
                        <path d="M14.1666667,9.58333333 L14.1666667,5.75 C14.1666667,2.57504167 11.6289444,0 8.5,0 C5.37105556,0 2.83333333,2.57504167 2.83333333,5.75 L2.83333333,9.58333333 L0,9.58333333 L0,23 L17,23 L17,9.58333333 L14.1666667,9.58333333 Z M9.44444444,16.9845417 L9.44444444,19.1666667 L7.55555556,19.1666667 L7.55555556,16.9845417 C6.99361111,16.652 6.61111111,16.0415417 6.61111111,15.3333333 C6.61111111,14.2753333 7.45733333,13.4166667 8.5,13.4166667 C9.54266667,13.4166667 10.3888889,14.2753333 10.3888889,15.3333333 C10.3888889,16.0405833 10.0073333,16.652 9.44444444,16.9845417 Z M4.72222222,9.58333333 L4.72222222,5.75 C4.72222222,3.63591667 6.41655556,1.91666667 8.5,1.91666667 C10.5825,1.91666667 12.2777778,3.63591667 12.2777778,5.75 L12.2777778,9.58333333 L4.72222222,9.58333333 Z" id="Shape"></path>
                    </g>
                </g>
            </g>
        </g>
    </g>
</svg>