<?xml version="1.0" encoding="UTF-8"?>
<svg width="30px" height="30px" viewBox="0 0 30 30" version="1.1" xmlns="http://www.w3.org/2000/svg" xmlns:xlink="http://www.w3.org/1999/xlink">
    <!-- Generator: Sketch 52.5 (67469) - http://www.bohemiancoding.com/sketch -->
    <title>instagram</title>
    <desc>Created with Sketch.</desc>
    <g id="Page-1" stroke="none" stroke-width="1" fill="none" fill-rule="evenodd">
        <g id="Artboard" transform="translate(-504.000000, -617.000000)" fill="#FFFFFF">
            <g id="Header">
                <g id="instagram" transform="translate(504.000000, 617.000000)">
                    <path d="M15,0 C10.925625,0 10.415625,0.01875 8.81625,0.09 C7.21875,0.165 6.13125,0.41625 5.175,0.7875 C4.18875,1.17 3.350625,1.68375 2.518125,2.518125 C1.68375,3.350625 1.168125,4.186875 0.7875,5.175 C0.41625,6.13125 0.163125,7.21875 0.09,8.81625 C0.015,10.415625 0,10.925625 0,15 C0,19.074375 0.01875,19.584375 0.09,21.18375 C0.165,22.78125 0.41625,23.870625 0.7875,24.825 C1.17,25.81125 1.68375,26.649375 2.518125,27.481875 C3.350625,28.31625 4.186875,28.831875 5.175,29.2125 C6.13125,29.58375 7.21875,29.836875 8.81625,29.91 C10.415625,29.985 10.925625,30 15,30 C19.074375,30 19.584375,29.98125 21.18375,29.91 C22.78125,29.835 23.870625,29.58375 24.825,29.2125 C25.81125,28.83 26.649375,28.31625 27.481875,27.481875 C28.31625,26.649375 28.831875,25.813125 29.2125,24.825 C29.58375,23.86875 29.836875,22.78125 29.91,21.18375 C29.985,19.584375 30,19.074375 30,15 C30,10.925625 29.98125,10.415625 29.91,8.81625 C29.835,7.21875 29.58375,6.129375 29.2125,5.175 C28.83,4.18875 28.31625,3.350625 27.481875,2.518125 C26.649375,1.68375 25.813125,1.168125 24.825,0.7875 C23.86875,0.41625 22.78125,0.163125 21.18375,0.09 C19.584375,0.015 19.074375,0 15,0 Z M15,2.7 C19.005,2.7 19.48125,2.71875 21.061875,2.79 C22.524375,2.8575 23.3175,3.10125 23.84625,3.3075 C24.5475,3.579375 25.04625,3.90375 25.57125,4.42875 C26.09625,4.95375 26.420625,5.4525 26.6925,6.15375 C26.89875,6.6825 27.1425,7.475625 27.21,8.938125 C27.28125,10.520625 27.298125,10.995 27.298125,15 C27.298125,19.005 27.279375,19.48125 27.204375,21.061875 C27.129375,22.524375 26.885625,23.3175 26.679375,23.84625 C26.398125,24.5475 26.079375,25.04625 25.554375,25.57125 C25.029375,26.09625 24.523125,26.420625 23.829375,26.6925 C23.304375,26.89875 22.498125,27.1425 21.035625,27.21 C19.441875,27.28125 18.973125,27.298125 14.960625,27.298125 C10.948125,27.298125 10.479375,27.279375 8.885625,27.204375 C7.423125,27.129375 6.616875,26.885625 6.091875,26.679375 C5.379375,26.398125 4.891875,26.079375 4.366875,25.554375 C3.841875,25.029375 3.504375,24.523125 3.241875,23.829375 C3.035625,23.304375 2.791875,22.498125 2.716875,21.035625 C2.660625,19.460625 2.641875,18.973125 2.641875,14.979375 C2.641875,10.985625 2.660625,10.498125 2.716875,8.904375 C2.791875,7.441875 3.035625,6.635625 3.241875,6.110625 C3.504375,5.398125 3.841875,4.910625 4.366875,4.385625 C4.891875,3.860625 5.379375,3.523125 6.091875,3.260625 C6.616875,3.054375 7.404375,2.810625 8.866875,2.735625 C10.460625,2.679375 10.929375,2.660625 14.941875,2.660625 L15,2.7 Z M15,7.2975 C10.74375,7.2975 7.2975,10.7475 7.2975,15 C7.2975,19.25625 10.7475,22.7025 15,22.7025 C19.25625,22.7025 22.7025,19.2525 22.7025,15 C22.7025,10.74375 19.2525,7.2975 15,7.2975 Z M15,20.000625 C12.238125,20.000625 9.999375,17.761875 9.999375,15 C9.999375,12.238125 12.238125,9.999375 15,9.999375 C17.761875,9.999375 20.000625,12.238125 20.000625,15 C20.000625,17.761875 17.761875,20.000625 15,20.000625 Z M24.80625,6.99375 C24.80625,7.9875 24,8.79375 23.00625,8.79375 C22.0125,8.79375 21.20625,7.9875 21.20625,6.99375 C21.20625,6 22.0125,5.19375 23.00625,5.19375 C24,5.19375 24.80625,6 24.80625,6.99375 Z" id="Shape"></path>
                </g>
            </g>
        </g>
    </g>
</svg>