<?xml version="1.0" encoding="UTF-8"?>
<svg width="151px" height="45px" viewBox="0 0 151 45" version="1.1" xmlns="http://www.w3.org/2000/svg" xmlns:xlink="http://www.w3.org/1999/xlink">
    <!-- Generator: Sketch 52.5 (67469) - http://www.bohemiancoding.com/sketch -->
    <title>Get_it_on_Google_play</title>
    <desc>Created with Sketch.</desc>
    <defs>
        <linearGradient x1="91.4895098%" y1="4.9604069%" x2="-38.3173161%" y2="71.909245%" id="linearGradient-1">
            <stop stop-color="#00A0FF" offset="0%"></stop>
            <stop stop-color="#00A1FF" offset="0.66%"></stop>
            <stop stop-color="#00BEFF" offset="26.01%"></stop>
            <stop stop-color="#00D2FF" offset="51.22%"></stop>
            <stop stop-color="#00DFFF" offset="76.04%"></stop>
            <stop stop-color="#00E3FF" offset="100%"></stop>
        </linearGradient>
        <linearGradient x1="107.585647%" y1="50.0163647%" x2="-130.492257%" y2="50.0163647%" id="linearGradient-2">
            <stop stop-color="#FFE000" offset="0%"></stop>
            <stop stop-color="#FFBD00" offset="40.87%"></stop>
            <stop stop-color="#FFA500" offset="77.54%"></stop>
            <stop stop-color="#FF9C00" offset="100%"></stop>
        </linearGradient>
        <linearGradient x1="86.237735%" y1="117.851014%" x2="-50.1313759%" y2="294.785269%" id="linearGradient-3">
            <stop stop-color="#FF3A44" offset="0%"></stop>
            <stop stop-color="#C31162" offset="100%"></stop>
        </linearGradient>
        <linearGradient x1="-18.8012883%" y1="-154.171052%" x2="42.0936259%" y2="-75.1365546%" id="linearGradient-4">
            <stop stop-color="#32A071" offset="0%"></stop>
            <stop stop-color="#2DA771" offset="6.85%"></stop>
            <stop stop-color="#15CF74" offset="47.62%"></stop>
            <stop stop-color="#06E775" offset="80.09%"></stop>
            <stop stop-color="#00F076" offset="100%"></stop>
        </linearGradient>
    </defs>
    <g id="Page-1" stroke="none" stroke-width="1" fill="none" fill-rule="evenodd">
        <g id="Artboard" transform="translate(-321.000000, -6650.000000)">
            <g id="Giving" transform="translate(0.000000, 6162.000000)">
                <g id="Get_it_on_Google_play" transform="translate(320.000000, 488.000000)">
                    <g id="g10" transform="translate(76.000000, 22.500000) scale(-1, 1) rotate(-180.000000) translate(-76.000000, -22.500000) ">
                        <g id="g12" transform="translate(0.975452, 0.000000)">
                            <path d="M144.605169,0.0179435366 L5.58725872,0.0179435366 C2.53025487,0.0179435366 0.0265423066,2.52032149 0.0265423066,5.57569579 L0.0265423066,38.9222093 C0.0265423066,41.9775836 2.53025487,44.4799616 5.58725872,44.4799616 L144.605169,44.4799616 C147.662173,44.4799616 150.165885,41.9775836 150.165885,38.9222093 L150.165885,5.57569579 C150.165885,2.52032149 147.662173,0.0179435366 144.605169,0.0179435366 Z" id="path14" fill="#000000"></path>
                            <path d="M144.605169,43.5893318 C147.179781,43.5893318 149.274781,41.4954486 149.274781,38.9222093 L149.274781,5.57569579 C149.274781,3.0024565 147.179781,0.908573336 144.605169,0.908573336 L5.58725872,0.908573336 C3.01264702,0.908573336 0.917647111,3.0024565 0.917647111,5.57569579 L0.917647111,38.9222093 C0.917647111,41.4954486 3.01264702,43.5893318 5.58725872,43.5893318 L144.605169,43.5893318 Z M144.605169,44.4799616 L5.58725872,44.4799616 C2.53025487,44.4799616 0.0265423066,41.9775836 0.0265423066,38.9222093 L0.0265423066,5.57569579 C0.0265423066,2.52032149 2.53025487,0.0179435366 5.58725872,0.0179435366 L144.605169,0.0179435366 C147.662173,0.0179435366 150.165885,2.52032149 150.165885,5.57569579 L150.165885,38.9222093 C150.165885,41.9775836 147.662173,44.4799616 144.605169,44.4799616 Z" id="path16" fill="#A6A6A6" fill-rule="nonzero"></path>
                            <g id="g18" transform="translate(49.402453, 33.532771) scale(-1, 1) rotate(-180.000000) translate(-49.402453, -33.532771) translate(45.902453, 29.532771)" fill="#FFFFFF" stroke="#FFFFFF" stroke-width="0.5">
                                <path d="M6.85914369,4.43925461 C6.85914369,5.36739924 6.58110787,6.11074861 6.0333773,6.66513439 C5.40362617,7.3223386 4.5834205,7.65302486 3.57832101,7.65302486 C2.61770725,7.65302486 1.79750158,7.31678085 1.12465489,6.65401889 C0.450418029,5.98153087 0.113994686,5.15620466 0.113994686,4.16831419 C0.113994686,3.18042373 0.450418029,2.35509752 1.12465489,1.68816725 C1.79750158,1.01984754 2.61770725,0.683603527 3.57832101,0.683603527 C4.05654262,0.683603527 4.51252137,0.78225363 4.94764742,0.965659454 C5.3813833,1.15045472 5.7344888,1.40055357 5.99028175,1.70900882 L5.40918689,2.29535168 C4.96293939,1.76875466 4.35543113,1.50892974 3.57832101,1.50892974 C2.87767074,1.50892974 2.27016247,1.75347084 1.75440603,2.24672135 C1.2442103,2.7413613 0.988417342,3.38189225 0.988417342,4.16831419 C0.988417342,4.95473614 1.2442103,5.60082484 1.75440603,6.09546479 C2.27016247,6.58315755 2.87767074,6.8332564 3.57832101,6.8332564 C4.32206683,6.8332564 4.94764742,6.58315755 5.44116101,6.08990703 C5.76646292,5.76338909 5.95135674,5.31321116 6.00001301,4.7379838 L3.57832101,4.7379838 L3.57832101,3.9348886 L6.80909724,3.9348886 C6.84802226,4.10856836 6.85914369,4.27669036 6.85914369,4.43925461 Z" id="path20"></path>
                            </g>
                            <g id="g22" transform="translate(55.916285, 33.532771) scale(-1, 1) rotate(-180.000000) translate(-55.916285, -33.532771) translate(53.916285, 29.532771)" fill="#FFFFFF" stroke="#FFFFFF" stroke-width="0.5">
                                <polygon id="path24" points="3.97090147 1.65482073 0.936140486 1.65482073 0.936140486 3.76676659 3.67201296 3.76676659 3.67201296 4.56986179 0.936140486 4.56986179 0.936140486 6.68180765 3.97090147 6.68180765 3.97090147 7.50018667 0.0770098009 7.50018667 0.0770098009 0.836441715 3.97090147 0.836441715"></polygon>
                            </g>
                            <g id="g26" transform="translate(60.914065, 33.532771) scale(-1, 1) rotate(-180.000000) translate(-60.914065, -33.532771) translate(58.414065, 29.532771)" fill="#FFFFFF" stroke="#FFFFFF" stroke-width="0.5">
                                <polygon id="path28" points="3.09036814 7.50018667 2.23123746 7.50018667 2.23123746 1.65482073 0.369787641 1.65482073 0.369787641 0.836441715 4.95320814 0.836441715 4.95320814 1.65482073 3.09036814 1.65482073 3.09036814 7.50018667"></polygon>
                            </g>
                            <g id="g30" transform="translate(67.364960, 33.532771) scale(-1, 1) rotate(-180.000000) translate(-67.364960, -33.532771) translate(66.364960, 29.532771)" fill="#FFFFFF" stroke="#FFFFFF" stroke-width="0.5">
                                <polygon id="path32" points="0.319279968 7.50018667 0.319279968 0.836441715 1.17702047 0.836441715 1.17702047 7.50018667"></polygon>
                            </g>
                            <g id="g34" transform="translate(71.145318, 33.532771) scale(-1, 1) rotate(-180.000000) translate(-71.145318, -33.532771) translate(68.145318, 29.532771)" fill="#FFFFFF" stroke="#FFFFFF" stroke-width="0.5">
                                <polygon id="path36" points="3.19880211 7.50018667 2.34662232 7.50018667 2.34662232 1.65482073 0.478221611 1.65482073 0.478221611 0.836441715 5.06720283 0.836441715 5.06720283 1.65482073 3.19880211 1.65482073"></polygon>
                            </g>
                            <g id="g38" transform="translate(79.096214, 33.532771) scale(-1, 1) rotate(-180.000000) translate(-79.096214, -33.532771) translate(75.096214, 29.532771)" fill="#FFFFFF" fill-rule="nonzero" stroke="#FFFFFF" stroke-width="0.5">
                                <path d="M6.79380527,6.64290338 C6.13625056,7.31678085 5.3216056,7.65302486 4.34987041,7.65302486 C3.3725745,7.65302486 2.55792955,7.31678085 1.90037483,6.64290338 C1.2442103,5.97041536 0.917518207,5.14508915 0.917518207,4.16831419 C0.917518207,3.19153923 1.2442103,2.36621302 1.90037483,1.693725 C2.55792955,1.01984754 3.3725745,0.683603527 4.34987041,0.683603527 C5.31604489,0.683603527 6.13068984,1.01984754 6.78824456,1.69928275 C7.44996981,2.37732853 7.7766619,3.19709699 7.7766619,4.16831419 C7.7766619,5.14508915 7.44996981,5.97041536 6.79380527,6.64290338 Z M2.53568668,6.08434928 C3.03059044,6.58315755 3.63253799,6.8332564 4.34987041,6.8332564 C5.06164211,6.8332564 5.66915038,6.58315755 6.15849342,6.08434928 C6.652007,5.58554102 6.90223924,4.94501007 6.90223924,4.16831419 C6.90223924,3.39161831 6.652007,2.75108737 6.15849342,2.2522791 C5.66915038,1.75347084 5.06164211,1.50337199 4.34987041,1.50337199 C3.63253799,1.50337199 3.03059044,1.75347084 2.53568668,2.2522791 C2.0421731,2.75108737 1.79194086,3.39161831 1.79194086,4.16831419 C1.79194086,4.94501007 2.0421731,5.58554102 2.53568668,6.08434928 Z" id="path40"></path>
                            </g>
                            <g id="g42" transform="translate(86.437288, 33.532771) scale(-1, 1) rotate(-180.000000) translate(-86.437288, -33.532771) translate(83.437288, 29.532771)" fill="#FFFFFF" stroke="#FFFFFF" stroke-width="0.5">
                                <polygon id="path44" points="0.640872566 7.50018667 0.640872566 0.836441715 1.68350689 0.836441715 4.92540456 6.01904569 4.96293939 6.01904569 4.92540456 4.7379838 4.92540456 0.836441715 5.78314507 0.836441715 5.78314507 7.50018667 4.88786972 7.50018667 1.49305236 2.06192609 1.45551752 2.06192609 1.49305236 3.34854573 1.49305236 7.50018667 0.640872566 7.50018667"></polygon>
                            </g>
                            <path d="M75.8024248,20.3009604 C73.1902783,20.3009604 71.0563534,18.314064 71.0563534,15.5727027 C71.0563534,12.8535724 73.1902783,10.8458344 75.8024248,10.8458344 C78.4201321,10.8458344 80.554057,12.8535724 80.554057,15.5727027 C80.554057,18.314064 78.4201321,20.3009604 75.8024248,20.3009604 Z M75.8024248,12.7076814 C74.3691502,12.7076814 73.1360613,13.8900932 73.1360613,15.5727027 C73.1360613,17.2775432 74.3691502,18.4391134 75.8024248,18.4391134 C77.2356995,18.4391134 78.474349,17.2775432 78.474349,15.5727027 C78.474349,13.8900932 77.2356995,12.7076814 75.8024248,12.7076814 Z M65.4469807,20.3009604 C62.8292734,20.3009604 60.7009092,18.314064 60.7009092,15.5727027 C60.7009092,12.8535724 62.8292734,10.8458344 65.4469807,10.8458344 C68.0632977,10.8458344 70.1930521,12.8535724 70.1930521,15.5727027 C70.1930521,18.314064 68.0632977,20.3009604 65.4469807,20.3009604 Z M65.4469807,12.7076814 C64.0123158,12.7076814 62.7750564,13.8900932 62.7750564,15.5727027 C62.7750564,17.2775432 64.0123158,18.4391134 65.4469807,18.4391134 C66.8802553,18.4391134 68.1133442,17.2775432 68.1133442,15.5727027 C68.1133442,13.8900932 66.8802553,12.7076814 65.4469807,12.7076814 Z M53.1244331,18.8517765 L53.1244331,16.8426491 L57.9247216,16.8426491 C57.7843135,15.7199831 57.4089651,14.8946569 56.833431,14.3194295 C56.1327807,13.6247105 55.0414901,12.8535724 53.1244331,12.8535724 C50.1703025,12.8535724 47.8570445,15.2364587 47.8570445,18.1890145 C47.8570445,21.1415704 50.1703025,23.5244567 53.1244331,23.5244567 C54.7217489,23.5244567 55.8839386,22.900599 56.7416791,22.0919461 L58.1582716,23.5077834 C56.9585471,24.6526804 55.3626215,25.5321947 53.1244331,25.5321947 C49.0734512,25.5321947 45.6689026,22.2378371 45.6689026,18.1890145 C45.6689026,14.140192 49.0734512,10.8458344 53.1244331,10.8458344 C55.3139652,10.8458344 56.9585471,11.5627844 58.2514136,12.9077605 C59.5762543,14.2318949 59.9891375,16.0937419 59.9891375,17.5971139 C59.9891375,18.0639651 59.9502125,18.4933015 59.8807036,18.8517765 L53.1244331,18.8517765 Z M103.512865,17.2942164 C103.122225,18.3515788 101.916939,20.3009604 99.4618829,20.3009604 C97.0290695,20.3009604 95.0035786,18.3849253 95.0035786,15.5727027 C95.0035786,12.9244337 97.0082168,10.8458344 99.695433,10.8458344 C101.868283,10.8458344 103.122225,12.1699688 103.637981,12.941107 L102.025373,14.0151426 C101.487374,13.2287206 100.75475,12.7076814 99.695433,12.7076814 C98.6430675,12.7076814 97.8882002,13.1898164 97.4044179,14.140192 L103.731123,16.7565039 L103.512865,17.2942164 Z M97.0624338,15.7199831 C97.0082168,17.5429258 98.4790263,18.4766282 99.5327821,18.4766282 C100.358548,18.4766282 101.059199,18.0639651 101.292749,17.4734539 L97.0624338,15.7199831 Z M91.9201613,11.133448 L93.9998693,11.133448 L93.9998693,25.0278287 L91.9201613,25.0278287 L91.9201613,11.133448 Z M88.5142225,19.2477663 L88.4447136,19.2477663 C87.9776134,19.8007627 87.0865086,20.3009604 85.9576832,20.3009604 C83.588818,20.3009604 81.4229189,18.2223611 81.4229189,15.5574188 C81.4229189,12.9077605 83.588818,10.8458344 85.9576832,10.8458344 C87.0865086,10.8458344 87.9776134,11.3502004 88.4447136,11.91987 L88.5142225,11.91987 L88.5142225,11.2418242 C88.5142225,9.4341653 87.548048,8.46294809 85.9896573,8.46294809 C84.7190336,8.46294809 83.930802,9.37997721 83.6055001,10.1511153 L81.7968771,9.39665047 C82.3181943,8.14337733 83.6986421,6.60110108 85.9896573,6.60110108 C88.4280314,6.60110108 90.4854965,8.03500117 90.4854965,11.5238801 L90.4854965,20.0133467 L88.5142225,20.0133467 L88.5142225,19.2477663 Z M86.1356261,12.7076814 C84.7023514,12.7076814 83.5026269,13.9067664 83.5026269,15.5574188 C83.5026269,17.2233551 84.7023514,18.4391134 86.1356261,18.4391134 C87.548048,18.4391134 88.6615815,17.2233551 88.6615815,15.5574188 C88.6615815,13.9067664 87.548048,12.7076814 86.1356261,12.7076814 Z M113.249679,25.0278287 L108.275618,25.0278287 L108.275618,11.133448 L110.349766,11.133448 L110.349766,16.3980289 L113.249679,16.3980289 C115.553206,16.3980289 117.812247,18.0639651 117.812247,20.7136235 C117.812247,23.3618925 115.547645,25.0278287 113.249679,25.0278287 Z M113.303896,18.3307372 L110.349766,18.3307372 L110.349766,23.0951203 L113.303896,23.0951203 C114.852556,23.0951203 115.73671,21.8098901 115.73671,20.7136235 C115.73671,19.6381984 114.852556,18.3307372 113.303896,18.3307372 Z M126.125518,20.3273597 C124.626905,20.3273597 123.068514,19.6659872 122.427642,18.20013 L124.268239,17.4289919 C124.66444,18.20013 125.392894,18.4502289 126.163053,18.4502289 C127.239052,18.4502289 128.330342,17.8041402 128.347024,16.6634115 L128.347024,16.5175205 C127.971676,16.7342729 127.168152,17.0552331 126.179735,17.0552331 C124.19734,17.0552331 122.177409,15.9645242 122.177409,13.9289974 C122.177409,12.0671504 123.801139,10.8680654 125.626444,10.8680654 C127.022184,10.8680654 127.792343,11.4974808 128.276125,12.2297147 L128.347024,12.2297147 L128.347024,11.1556791 L130.350272,11.1556791 L130.350272,16.4855635 C130.350272,18.9490372 128.509675,20.3273597 126.125518,20.3273597 Z M125.875286,12.7132391 C125.196878,12.7132391 124.251557,13.0494831 124.251557,13.8900932 C124.251557,14.9655182 125.430429,15.3781813 126.45082,15.3781813 C127.364168,15.3781813 127.792343,15.1767128 128.347024,14.9113301 C128.184373,13.6247105 127.076401,12.7132391 125.875286,12.7132391 Z M137.648713,20.0230728 L135.264556,13.9998588 L135.193656,13.9998588 L132.728869,20.0230728 L130.492071,20.0230728 L134.195508,11.605857 L132.082436,6.92206128 L134.249725,6.92206128 L139.95641,20.0230728 L137.648713,20.0230728 Z M118.952194,11.133448 L121.031902,11.133448 L121.031902,25.0278287 L118.952194,25.0278287 L118.952194,11.133448 Z" id="path46" fill="#FFFFFF" fill-rule="nonzero"></path>
                            <g id="g48" transform="translate(10.820733, 8.034901)" fill="url(#linearGradient-1)">
                                <path d="M0.811024367,28.0653593 C0.484332278,27.7235576 0.29526792,27.1914028 0.29526792,26.5022415 L0.29526792,1.92030327 C0.29526792,1.23114199 0.484332278,0.698987214 0.811024367,0.35718545 L0.891654755,0.282155794 L14.6738904,14.051487 L14.6738904,14.3766155 L0.891654755,28.1459467 L0.811024367,28.0653593 Z" id="path64"></path>
                            </g>
                            <g id="g66" transform="translate(25.049766, 16.691200)" fill="url(#linearGradient-2)">
                                <path d="M5.03383853,0.803095201 L0.444857313,5.395188 L0.444857313,5.72031651 L5.03939925,10.3124093 L5.1422725,10.2526635 L10.5834335,7.15838491 C12.1362636,6.28026005 12.1362636,4.83524446 10.5834335,3.95156185 L5.1422725,0.862841038 L5.03383853,0.803095201 Z" id="path78"></path>
                            </g>
                            <g id="g80" transform="translate(11.147975, 6.965134)" fill="url(#linearGradient-3)">
                                <path d="M19.0440635,10.5889075 L14.3466483,15.2838187 L0.483782328,1.42695289 C0.999538774,0.885072047 1.84059713,0.819768458 2.79704035,1.3616493 L19.0440635,10.5889075" id="path88"></path>
                            </g>
                            <g id="g90" transform="translate(11.147975, 22.248953)" fill="url(#linearGradient-4)">
                                <path d="M19.0440635,4.69491122 L2.79704035,13.9221694 C1.84059713,14.4584925 0.999538774,14.3931889 0.483782328,13.8513081 L14.3466483,0 L19.0440635,4.69491122 Z" id="path104"></path>
                            </g>
                        </g>
                    </g>
                </g>
            </g>
        </g>
    </g>
</svg>