<?xml version="1.0" encoding="UTF-8"?>
<svg width="213px" height="65px" viewBox="0 0 213 65" version="1.1" xmlns="http://www.w3.org/2000/svg" xmlns:xlink="http://www.w3.org/1999/xlink">
    <!-- Generator: Sketch 52.5 (67469) - http://www.bohemiancoding.com/sketch -->
    <title>5beb26327d1904c15c12adad_logo</title>
    <desc>Created with Sketch.</desc>
    <defs>
        <path d="M64.892718,32.635202 C64.892718,50.3387812 50.40771,64.6908992 32.5402088,64.6908992 C14.6721391,64.6908992 0.18732726,50.3387812 0.18732726,32.635202 C0.18732726,14.9309187 14.6721391,0.578989422 32.5402088,0.578989422 C50.40771,0.578989422 64.892718,14.9309187 64.892718,32.635202 Z" id="path-1"></path>
    </defs>
    <g id="Page-1" stroke="none" stroke-width="1" fill="none" fill-rule="evenodd">
        <g id="Artboard" transform="translate(-493.000000, -6436.000000)">
            <g id="5beb26327d1904c15c12adad_logo" transform="translate(493.000000, 6436.000000)">
                <g id="Clipped">
                    <mask id="mask-2" fill="white">
                        <use xlink:href="#path-1"></use>
                    </mask>
                    <g id="Path"></g>
                    <g id="Group" mask="url(#mask-2)">
                        <path d="M64.892718,32.635202 C64.892718,50.3387812 50.40771,64.6908992 32.5402088,64.6908992 C14.6721391,64.6908992 0.18732726,50.3387812 0.18732726,32.635202 C0.18732726,14.9309187 14.6721391,0.578989422 32.5402088,0.578989422 C50.40771,0.578989422 64.892718,14.9309187 64.892718,32.635202 Z" id="Path" fill="#62D19F"></path>
                        <path d="M64.892718,32.635202 C64.892718,50.3387812 50.40771,64.6908992 32.5402088,64.6908992 C14.6721391,64.6908992 0.18732726,50.3387812 0.18732726,32.635202 C0.18732726,14.9309187 14.6721391,0.578989422 32.5402088,0.578989422 C50.40771,0.578989422 64.892718,14.9309187 64.892718,32.635202 Z" id="Path" fill="#5BD6A4"></path>
                        <path d="M22.9008779,80.293636 L45.1448536,80.293636 L45.1448536,51.2221011 L22.9008779,51.2221011 L22.9008779,80.293636 Z M46.4158649,46.5012969 C46.4158649,44.508757 44.7295221,42.6160694 42.7111414,42.6160694 L24.8079633,42.6160694 C22.7898669,42.6160694 21.2061488,44.508757 21.2061488,46.5012969 L21.2061488,84.9776821 C21.2061488,86.9699404 22.7898669,88.5847596 24.8079633,88.5847596 L42.7111414,88.5847596 C44.7295221,88.5847596 46.4158649,86.9699404 46.4158649,84.9776821 L46.4158649,46.5012969 Z" id="Shape" fill="#FFFFFE"></path>
                        <path d="M33.0712419,8.39701301 C33.0712419,8.39701301 37.981166,14.0083057 37.9345442,18.4434956 C37.8886332,22.8798122 33.3337735,25.2250041 33.3337735,25.2250041 C33.3337735,25.2250041 28.7094077,23.0205068 28.5240578,18.5888378 C28.3414086,14.1559012 33.0712419,8.39701301 33.0712419,8.39701301 Z" id="Path" fill="#FFFFFE"></path>
                        <path d="M17.6424278,22.5360329 C17.6424278,22.5360329 25.0231624,21.245276 28.840176,23.5631458 C32.6581846,25.8814381 32.3484627,30.9581335 32.3484627,30.9581335 C32.3484627,30.9581335 28.0629573,33.7579422 24.1308108,31.6380871 C20.1993749,29.516401 17.6424278,22.5360329 17.6424278,22.5360329 Z" id="Path" fill="#FFFFFE"></path>
                        <path d="M37.641879,23.5631458 C33.8228755,25.8814381 34.1338767,30.9581335 34.1338767,30.9581335 L33.5970159,40.0093461 L34.5961143,40.0093461 C34.5961143,40.0093461 34.329887,33.6787927 35.3940853,33.0867205 C36.4582836,32.4925357 38.7518462,32.4209913 38.7518462,32.4209913 L38.7497141,32.4209913 C39.8926577,32.4764805 41.1383681,32.291141 42.3508179,31.6380871 C46.2829644,29.516401 48.8389166,22.5360329 48.8389166,22.5360329 C48.8389166,22.5360329 41.4581819,21.245276 37.641879,23.5631458 Z" id="Path" fill="#FFFFFE"></path>
                        <path d="M36.1860865,47.0278806 C36.1860865,45.7282511 35.1231675,44.6750836 33.8113622,44.6750836 C32.4995569,44.6750836 31.4359272,45.7282511 31.4359272,47.0278806 C31.4359272,48.327651 32.4995569,49.3806776 33.8113622,49.3806776 C35.1231675,49.3806776 36.1860865,48.327651 36.1860865,47.0278806 Z" id="Path" fill="#5BD6A4"></path>
                    </g>
                </g>
                <path d="M79,18.2906232 L104.040758,18.2906232 L104.040758,22.677867 L93.939868,22.677867 L93.939868,45.4680385 L89.1007493,45.4680385 L89.1007493,22.677867 L79,22.677867 L79,18.2906232 Z M109.873195,16.1553158 C111.524551,16.1553158 112.791945,17.4365287 112.791945,19.0282308 C112.791945,20.6200753 111.524551,21.9012881 109.873195,21.9012881 C108.221698,21.9012881 106.954303,20.6200753 106.954303,19.0282308 C106.954303,17.4365287 108.221698,16.1553158 109.873195,16.1553158 Z M112.139113,25.8225847 L112.139113,45.4680385 L107.607135,45.4680385 L107.607135,25.8225847 L112.139113,25.8225847 Z M130.338218,40.1102133 L130.453448,40.1878712 L129.608565,44.5749728 C128.34117,45.3903806 126.689674,45.8950146 124.999908,45.8950146 C121.005672,45.8950146 118.701202,43.3714178 118.701202,38.8678294 L118.701202,29.5887077 L115.551991,29.5887077 L115.551991,25.8225847 L118.701202,25.8225847 L118.701202,21.5907988 L123.15636,20.1930991 L123.15636,25.8225847 L130.338218,25.8225847 L130.338218,29.5887077 L123.15636,29.5887077 L123.15636,38.5960268 C123.15636,40.7701631 124.193294,41.8572313 126.228892,41.8572313 C127.573108,41.8572313 128.917323,41.3137683 130.338218,40.1102133 Z M143.621102,29.5110498 C141.893348,29.5110498 140.549695,30.2486575 138.513534,32.306307 L138.513534,45.4680385 L133.981556,45.4680385 L133.981556,17.4365287 L138.513534,16 L138.513534,29.355734 C140.549695,26.5991635 142.584168,25.4344375 145.234892,25.4344375 C149.344639,25.4344375 151.955968,28.3850104 151.955968,33.0440569 L151.955968,45.4680385 L147.384736,45.4680385 L147.384736,33.7428356 C147.384736,31.063923 146.041083,29.5110498 143.621102,29.5110498 Z M164.586302,28.9674446 C161.859602,28.9674446 159.899698,31.063923 159.554991,34.169954 L169.309486,34.169954 C169.040756,30.9087495 167.313002,28.9674446 164.586302,28.9674446 Z M173.035132,39.7995818 L173.150503,39.8772397 L171.767456,44.2643413 C169.502241,45.4680385 167.697103,45.8950146 165.277122,45.8950146 C162.16632,45.8950146 159.670363,44.9632622 157.865225,43.0996152 C156.020693,41.2749394 155.09913,38.7901715 155.09913,35.6453116 C155.09913,32.7722543 156.020693,30.3263153 157.865225,28.3074948 C159.670363,26.288532 161.974973,25.2791217 164.701673,25.2791217 C167.466361,25.2791217 169.6556,26.2108741 171.307378,28.1133501 C172.919761,30.0156838 173.725952,32.4616227 173.725952,35.4899958 C173.725952,36.07243 173.649976,36.8488666 173.611988,37.1594981 L159.592979,37.1594981 C160.169835,40.2655291 162.512434,42.012547 165.929954,42.012547 C168.234564,42.012547 170.730522,41.1972815 173.035132,39.7995818 Z M178.598276,45.8173567 C176.908509,45.8173567 175.526869,44.419657 175.526869,42.711468 C175.526869,41.0031368 176.908509,39.5666081 178.598276,39.5666081 C180.288042,39.5666081 181.671089,41.0031368 181.671089,42.711468 C181.671089,44.419657 180.288042,45.8173567 178.598276,45.8173567 Z M189.654214,16 L189.654214,45.4680385 L185.122377,45.4680385 L185.122377,17.4365287 L189.654214,16 Z M196.946518,53 C195.756225,53 194.679896,52.7670263 193.604974,52.301079 L192.7214,47.8751485 L192.836771,47.7974906 C193.951088,48.4574404 194.948627,48.7680719 196.140327,48.7680719 C198.098824,48.7680719 199.327105,47.7974906 200.21068,45.662041 L200.74814,44.419657 L192.606029,25.8225847 L197.561363,25.8225847 L203.052751,39.2948055 L208.122049,25.8225847 L213,25.8225847 L204.511774,46.8657382 C202.861403,50.9422083 200.364039,53 196.946518,53 Z" id="Shape" fill="#20343B"></path>
            </g>
        </g>
    </g>
</svg>