<?xml version="1.0" encoding="UTF-8"?>
<svg width="144px" height="47px" viewBox="0 0 144 47" version="1.1" xmlns="http://www.w3.org/2000/svg" xmlns:xlink="http://www.w3.org/1999/xlink">
    <!-- Generator: Sketch 52.5 (67469) - http://www.bohemiancoding.com/sketch -->
    <title>Download_on_the_App_Store_Badge_US-UK_RGB_blk_092917</title>
    <desc>Created with Sketch.</desc>
    <g id="Page-1" stroke="none" stroke-width="1" fill="none" fill-rule="evenodd">
        <g id="Artboard" transform="translate(-153.000000, -6649.000000)">
            <g id="Giving" transform="translate(0.000000, 6162.000000)">
                <g id="Download_on_the_App_Store_Badge_US-UK_RGB_blk_092917" transform="translate(153.000000, 487.000000)">
                    <g id="Group">
                        <g id="Path">
                            <path d="M132.161724,-1.62630326e-19 L11.441616,-1.62630326e-19 C11.001576,-1.62630326e-19 10.566816,-1.62630326e-19 10.12794,0.00235 C9.76056,0.0047 9.396108,0.01152675 9.0252,0.0172725 C8.21941642,0.0265571192 7.41552776,0.0959696054 6.62052,0.22490675 C5.8266289,0.356650838 5.05760702,0.605025995 4.339464,0.96163175 C3.62219929,1.32125426 2.96681402,1.78854685 2.397084,2.34655725 C1.824363,2.90299847 1.34695582,3.54616924 0.98322,4.251338 C0.61848029,4.95510322 0.365568598,5.7092525 0.23322,6.487739 C0.0996131294,7.26524226 0.0277180568,8.05171164 0.01818,8.840089 C0.007044,9.200344 0.005868,9.5617975 0,9.9220995 L0,37.081355 C0.005868,37.4461925 0.007044,37.7996325 0.01818,38.1645875 C0.0277209816,38.9529258 0.0996160555,39.7393559 0.23322,40.51682 C0.365203144,41.2957616 0.61812979,42.0503438 0.98322,42.7543725 C1.34679066,43.4572609 1.82426498,44.0978278 2.397084,44.651175 C2.96465379,45.2116665 3.62046268,45.679277 4.339464,46.0361475 C5.05760157,46.3937077 5.82654053,46.6435612 6.62052,46.7773375 C7.41566291,46.9052418 8.21946889,46.9746825 9.0252,46.9850775 C9.396108,46.9930675 9.76056,46.99765 10.12794,46.99765 C10.566804,47 11.0016,47 11.441616,47 L132.161724,47 C132.593004,47 133.031244,47 133.462524,46.99765 C133.828164,46.99765 134.203164,46.9930675 134.568804,46.9850775 C135.373012,46.9752354 136.175304,46.9057902 136.968804,46.7773375 C137.765345,46.6426195 138.537041,46.3928321 139.258644,46.0361475 C139.976997,45.6790704 140.6322,45.2114727 141.199284,44.651175 C141.770625,44.0956606 142.249119,43.4555623 142.617204,42.7543725 C142.979555,42.0498316 143.230074,41.2953098 143.360124,40.51682 C143.493942,39.7392492 143.568388,38.952994 143.582844,38.1645875 C143.587524,37.7996325 143.587524,37.4461925 143.587524,37.081355 C143.596884,36.6544775 143.596884,36.22995 143.596884,35.79614 L143.596884,11.2049528 C143.596884,10.774656 143.596884,10.347802 143.587524,9.9220995 C143.587524,9.5617975 143.587524,9.200344 143.582844,8.840042 C143.568391,8.05159637 143.493945,7.26530191 143.360124,6.487692 C143.229711,5.70965588 142.979207,4.95556635 142.617204,4.251291 C141.876473,2.83785539 140.701888,1.68732984 139.258644,0.961526 C138.537038,0.605791672 137.76526,0.357482482 136.968804,0.224801 C136.175442,0.0952957702 135.373065,0.0258591237 134.568804,0.017108 C134.203164,0.011374 133.828164,0.0044885 133.462524,0.00219725 C133.031244,-0.00015275 132.593004,-0.00015275 132.161724,-0.00015275 L132.161724,-1.62630326e-19 Z" fill="#A6A6A6"></path>
                            <path d="M10.133796,45.971875 C9.76818,45.971875 9.411396,45.9672925 9.048648,45.9593025 C8.29718613,45.9497154 7.54748061,45.8856594 6.80568,45.76766 C6.11398836,45.6510156 5.44392509,45.4340358 4.817592,45.1238775 C4.19700205,44.8162891 3.63097412,44.4129706 3.141192,43.9293725 C2.64432039,43.4514709 2.23065208,42.8971867 1.91658,42.288485 C1.59904711,41.6758272 1.37929546,41.019132 1.26498,40.341275 C1.14152923,39.61291 1.07473725,38.8764181 1.06518,38.13815 C1.057572,37.8903425 1.047612,37.0652575 1.047612,37.0652575 L1.047612,9.9220995 C1.047612,9.9220995 1.05822,9.10969275 1.06524,8.871015 C1.07439099,8.13391641 1.14079458,7.39856739 1.263876,6.67133275 C1.37840247,5.99161884 1.59832425,5.33302992 1.916028,4.71836525 C2.22894579,4.11008402 2.6403175,3.55538584 3.134196,3.075774 C3.62751939,2.59160517 4.19535793,2.18620984 4.817004,1.87437175 C5.4418976,1.56520998 6.11069453,1.34976074 6.800988,1.23524225 C7.5452248,1.11605746 8.29753301,1.0516204 9.0516,1.04247175 L10.134384,1.028125 L133.456644,1.028125 L134.552364,1.0430475 C135.299572,1.05174156 136.045046,1.11560376 136.782444,1.23409075 C137.479726,1.35004571 138.155492,1.56699825 138.787524,1.8778145 C140.032906,2.50625861 141.04625,3.50051646 141.685524,4.72123225 C141.998157,5.33165364 142.214686,5.98487044 142.327764,6.65871325 C142.452311,7.39191487 142.522016,8.13304255 142.536324,8.876185 C142.539804,9.208945 142.539804,9.56638 142.539804,9.9220995 C142.549284,10.3627245 142.549284,10.7821172 142.549284,11.2049527 L142.549284,35.79614 C142.549284,36.2230175 142.549284,36.639555 142.539804,37.0595 C142.539804,37.44161 142.539804,37.7916425 142.535124,38.1518975 C142.521126,38.8817789 142.452583,39.609678 142.330044,40.32976 C142.218072,41.0125069 141.999516,41.6743279 141.682044,42.29201 C141.365752,42.8941048 140.954459,43.4435878 140.463324,43.9202075 C139.973101,44.4064044 139.406074,44.8120827 138.784044,45.121645 C138.153763,45.4341876 137.478991,45.6519698 136.782444,45.76766 C136.0407,45.8862891 135.290922,45.9503492 134.539404,45.9593025 C134.187924,45.9672925 133.819884,45.971875 133.462524,45.971875 L132.161724,45.974225 L10.133796,45.971875 Z" fill="#000000"></path>
                        </g>
                        <g id="_Group_" transform="translate(11.851095, 9.400000)" fill="#FFFFFF">
                            <g id="_Group_2">
                                <g id="_Group_3">
                                    <path d="M17.8715611,14.453299 C17.8977895,12.4599457 18.9650526,10.6186937 20.6994331,9.5746285 C19.6003203,8.0376025 17.8253756,7.09803206 15.9100411,7.0393545 C13.8949531,6.832249 11.9414131,8.22002975 10.9145611,8.22002975 C9.86783711,8.22002975 8.28683711,7.059917 6.58436111,7.09421525 C4.34434662,7.16507764 2.30666972,8.38189244 1.21685711,10.2994625 C-1.10394289,14.233856 0.627165109,20.0160898 2.85029711,23.1963565 C3.96257711,24.7536428 5.26251311,26.4931715 6.96345311,26.431484 C8.62792511,26.3638863 9.24957311,25.39222 11.2587331,25.39222 C13.2492451,25.39222 13.8324811,26.431484 15.5679331,26.3922625 C17.3539891,26.3638745 18.4792891,24.8280555 19.5525451,23.256023 C20.3517165,22.1463997 20.9666775,20.9200242 21.3746491,19.6223238 C19.253357,18.743813 17.874037,16.7085403 17.8715611,14.453299 Z" id="_Path_"></path>
                                    <path d="M14.5936051,4.94779575 C15.567437,3.80310124 16.0472071,2.33179038 15.9310291,0.84631725 C14.4432305,0.999326323 13.0689214,1.69558337 12.0819331,2.796359 C11.1073276,3.88242211 10.6135947,5.3032834 10.7094811,6.74599225 C12.2172293,6.76119295 13.6488044,6.09843003 14.5936051,4.94779575 Z" id="_Path_2"></path>
                                </g>
                            </g>
                            <g id="Group" transform="translate(28.948905, 11.575000)">
                                <path d="M9.962724,10.9140888 L4.282644,10.9140888 L2.91858,14.8579175 L0.512724,14.8579175 L5.892804,0.2667675 L8.392404,0.2667675 L13.772484,14.8579175 L11.3256,14.8579175 L9.962724,10.9140888 Z M4.87092,9.0942135 L9.37332,9.0942135 L7.153788,2.69367125 L7.091676,2.69367125 L4.87092,9.0942135 Z" id="Shape" fill-rule="nonzero"></path>
                                <path d="M25.391628,9.53943275 C25.391628,12.8452717 23.584596,14.9692135 20.857644,14.9692135 C19.4481063,15.0414109 18.1203989,14.3185111 17.439288,13.1080135 L17.387688,13.1080135 L17.387688,18.37716 L15.157608,18.37716 L15.157608,4.2197965 L17.31624,4.2197965 L17.31624,5.989182 L17.357256,5.989182 C18.068626,4.7862733 19.3977651,4.06368463 20.816628,4.10848875 C23.574,4.1085005 25.391628,6.2427705 25.391628,9.53943275 Z M23.099436,9.53943275 C23.099436,7.38565775 21.962712,5.969677 20.22834,5.969677 C18.524436,5.969677 17.37834,7.41547925 17.37834,9.53943275 C17.37834,11.6828912 18.524436,13.1183652 20.22834,13.1183652 C21.962724,13.1183652 23.099436,11.7127245 23.099436,9.53943275 Z" id="Shape" fill-rule="nonzero"></path>
                                <path d="M37.349436,9.53943275 C37.349436,12.8452717 35.542404,14.9692135 32.815452,14.9692135 C31.4059143,15.0414109 30.0782069,14.3185111 29.397096,13.1080135 L29.345496,13.1080135 L29.345496,18.37716 L27.115416,18.37716 L27.115416,4.2197965 L29.274,4.2197965 L29.274,5.989182 L29.315016,5.989182 C30.0263911,4.78627403 31.3555354,4.06368961 32.7744,4.1085005 C35.531856,4.1085005 37.349436,6.2427705 37.349436,9.53943275 Z M35.057244,9.53943275 C35.057244,7.38565775 33.92052,5.969677 32.186148,5.969677 C30.482244,5.969677 29.336148,7.41547925 29.336148,9.53943275 C29.336148,11.6828912 30.482244,13.1183652 32.186148,13.1183652 C33.920532,13.1183652 35.057256,11.7127245 35.057256,9.53943275 L35.057244,9.53943275 Z" id="Shape" fill-rule="nonzero"></path>
                                <path d="M45.252564,10.7924527 C45.417804,12.2394065 46.853364,13.1894527 48.815064,13.1894527 C50.694756,13.1894527 52.047096,12.2393595 52.047096,10.9346865 C52.047096,9.80213925 51.231468,9.1240115 49.300224,8.6592755 L47.36898,8.203728 C44.632656,7.5565615 43.362336,6.30352975 43.362336,4.2702275 C43.362336,1.752696 45.602964,0.023472 48.784596,0.023472 C51.933396,0.023472 54.092016,1.752696 54.164676,4.2702275 L51.913476,4.2702275 C51.778716,2.814097 50.549412,1.93515 48.752928,1.93515 C46.956444,1.93515 45.727152,2.824437 45.727152,4.11877 C45.727152,5.15033775 46.512312,5.75734275 48.433008,6.22202 L50.0748,6.6167495 C53.13222,7.324734 54.40254,8.5272995 54.40254,10.661546 C54.40254,13.391353 52.181832,15.101072 48.6498,15.101072 C45.345108,15.101072 43.113864,13.4315145 42.96972,10.792347 L45.252564,10.7924527 Z" id="Path"></path>
                                <path d="M59.215452,1.702265 L59.215452,4.2197965 L61.281468,4.2197965 L61.281468,5.9490205 L59.215452,5.9490205 L59.215452,11.8136922 C59.215452,12.7247755 59.629128,13.1493382 60.537324,13.1493382 C60.7825937,13.1451505 61.0274666,13.1282853 61.27092,13.0988132 L61.27092,14.817709 C60.862594,14.892415 60.447565,14.926249 60.032244,14.9186885 C57.832644,14.9186885 56.974824,14.1097245 56.974824,12.046589 L56.974824,5.9490205 L55.395144,5.9490205 L55.395144,4.2197965 L56.9748,4.2197965 L56.9748,1.702265 L59.215452,1.702265 Z" id="Path"></path>
                                <path d="M62.478,9.53943275 C62.478,6.1922925 64.491276,4.0889955 67.63074,4.0889955 C70.78074,4.0889955 72.784644,6.1922455 72.784644,9.53943275 C72.784644,12.8957615 70.791288,14.98987 67.63074,14.98987 C64.471308,14.98987 62.478,12.8957498 62.478,9.53943275 Z M70.512372,9.53943275 C70.512372,7.24336525 69.43776,5.88821425 67.630728,5.88821425 C65.823696,5.88821425 64.75026,7.2536935 64.75026,9.53943275 C64.75026,11.844677 65.823696,13.1895115 67.630728,13.1895115 C69.43776,13.1895115 70.512324,11.844677 70.512324,9.53943275 L70.512372,9.53943275 Z" id="Shape" fill-rule="nonzero"></path>
                                <path d="M74.623272,4.2197965 L76.750224,4.2197965 L76.750224,6.0304715 L76.801824,6.0304715 C77.0984353,4.86485788 78.1891831,4.06264208 79.4151,4.108477 C79.6720968,4.10759837 79.9283846,4.13492713 80.179164,4.1899515 L80.179164,6.2324305 C79.8547212,6.1353559 79.5162715,6.09078577 79.177164,6.100478 C78.5215419,6.07443464 77.8870451,6.33027831 77.4402737,6.80083202 C76.9935024,7.27138573 76.7790919,7.90963812 76.85334,8.548003 L76.85334,14.857894 L74.62326,14.857894 L74.623272,4.2197965 Z" id="Path"></path>
                                <path d="M90.46116,11.7333692 C90.16116,13.6645405 88.240452,14.9898582 85.783032,14.9898582 C82.622484,14.9898582 80.660772,12.9163945 80.660772,9.58991075 C80.660772,6.25309875 82.633032,4.08898375 85.689288,4.08898375 C88.695144,4.08898375 90.585384,6.11080625 90.585384,9.33632225 L90.585384,10.0844682 L82.911948,10.0844682 L82.911948,10.2164207 C82.8403049,11.0084079 83.1195979,11.7923653 83.6787839,12.3688797 C84.2379699,12.945394 85.023153,13.2588991 85.834608,13.2296495 C86.9168187,13.3289365 87.9371317,12.7204488 88.343592,11.7333575 L90.46116,11.7333692 Z M82.9224749,8.55835475 L88.354128,8.558343 C88.3945985,7.84668955 88.1300358,7.15076712 87.6241801,6.63824207 C87.1183243,6.12571701 86.417041,5.84305948 85.689288,5.85836925 C84.9557781,5.85408312 84.2509089,6.13687319 83.7313506,6.64388406 C83.2117924,7.15089494 82.9205955,7.84011593 82.9224749,8.55835475 Z" id="Shape" fill-rule="nonzero"></path>
                            </g>
                        </g>
                    </g>
                    <g id="_Group_4" transform="translate(42.000000, 10.000000)" fill="#FFFFFF">
                        <g id="Group">
                            <path d="M3.391428,0.835428571 C4.33816387,0.770724779 5.26547072,1.11376849 5.91811355,1.77013922 C6.57075638,2.42650995 6.87994305,3.32702262 6.760572,4.22381714 C6.760572,6.40238857 5.524248,7.65467429 3.391428,7.65467429 L0.805104,7.65467429 L0.805104,0.835428571 L3.391428,0.835428571 Z M1.917204,6.69028571 L3.267204,6.69028571 C3.94379033,6.72880229 4.60258383,6.47492458 5.06066222,5.9991449 C5.5187406,5.52336523 5.72733553,4.87633648 5.628528,4.23771429 C5.72014682,3.60174232 5.5085479,2.96005282 5.05160529,2.48815312 C4.59466268,2.01625342 3.9401948,1.7635272 3.267204,1.79909714 L1.917204,1.79909714 L1.917204,6.69028571 Z" id="Shape" fill-rule="nonzero"></path>
                            <path d="M8.016816,5.07924571 C7.92416055,4.15682863 8.3885804,3.26412793 9.21529911,2.77553985 C10.0420178,2.28695177 11.0880982,2.28695177 11.9148169,2.77553985 C12.7415356,3.26412793 13.2059554,4.15682863 13.1133,5.07924571 C13.2077183,6.00265401 12.7437224,6.89708615 11.9162707,7.38672606 C11.0888189,7.87636596 10.0412971,7.87636596 9.21384535,7.38672606 C8.38639361,6.89708615 7.92239767,6.00265401 8.016816,5.07924571 Z M12.016416,5.07924571 C12.016416,3.96373714 11.49024,3.31139429 10.566816,3.31139429 C9.639864,3.31139429 9.118416,3.96373714 9.118416,5.07925714 C9.118416,6.20370286 9.6399,6.85101714 10.566816,6.85101714 C11.490264,6.85100571 12.016428,6.19922286 12.016428,5.07924571 L12.016416,5.07924571 Z" id="Shape" fill-rule="nonzero"></path>
                            <polygon id="Path" points="19.887912 7.65457143 18.781668 7.65457143 17.664876 3.86438857 17.580504 3.86438857 16.468392 7.65457143 15.372684 7.65457143 13.883232 2.50836571 14.964876 2.50836571 15.932844 6.43522286 16.012536 6.43522286 17.123472 2.50836571 18.14652 2.50836571 19.257456 6.43522286 19.341828 6.43522286 20.305104 2.50836571 21.371508 2.50836571"></polygon>
                            <path d="M22.624248,2.50836571 L23.6508,2.50836571 L23.6508,3.32588571 L23.730492,3.32588571 C24.0076138,2.72397479 24.6551674,2.35577997 25.342992,2.40902857 C25.8755722,2.37089345 26.397463,2.56547417 26.7613089,2.93783094 C27.1251548,3.3101877 27.2914717,3.81991287 27.2133,4.32308571 L27.2133,7.65451429 L26.146896,7.65451429 L26.146896,4.57812571 C26.146896,3.75112 25.769556,3.33984 24.98088,3.33984 C24.619639,3.32381614 24.2690642,3.45883722 24.0210655,3.70950489 C23.7730668,3.96017257 23.652378,4.30148687 23.69064,4.64396571 L23.69064,7.65457143 L22.624236,7.65457143 L22.624248,2.50836571 Z" id="Path"></path>
                            <polygon id="Path" points="28.912524 0.499428571 29.978928 0.499428571 29.978928 7.65456 28.912524 7.65456"></polygon>
                            <path d="M31.461348,5.07924571 C31.3687637,4.15676828 31.8332568,3.26404499 32.6600369,2.77544937 C33.4868169,2.28685376 34.5329511,2.28685376 35.3597311,2.77544937 C36.1865112,3.26404499 36.6510043,4.15676828 36.55842,5.07924571 C36.6527184,6.00268707 36.1886375,6.89709393 35.3611447,7.38671227 C34.5336518,7.87633062 33.4861162,7.87633062 32.6586233,7.38671227 C31.8311305,6.89709393 31.3670496,6.00268707 31.461348,5.07924571 Z M35.460948,5.07924571 C35.460948,3.96373714 34.934772,3.31139429 34.011348,3.31139429 C33.084396,3.31139429 32.562948,3.96373714 32.562948,5.07925714 C32.562948,6.20370286 33.084432,6.85101714 34.011348,6.85101714 C34.934784,6.85100571 35.46096,6.19922286 35.46096,5.07924571 L35.460948,5.07924571 Z" id="Shape" fill-rule="nonzero"></path>
                            <path d="M37.68108,6.19922286 C37.68108,5.27288 38.405304,4.73884571 39.69084,4.66294857 L41.154516,4.58259429 L41.154516,4.1384 C41.154516,3.59486857 40.777176,3.28795429 40.048272,3.28795429 C39.452964,3.28795429 39.040464,3.49610286 38.922096,3.85994286 L37.889676,3.85994286 C37.99866,2.97601143 38.871708,2.40905143 40.097484,2.40905143 C41.452176,2.40905143 42.21624,3.05133714 42.21624,4.1384 L42.21624,7.65458286 L41.189676,7.65458286 L41.189676,6.93137143 L41.105304,6.93137143 C40.7566423,7.45951581 40.1366084,7.76818655 39.482256,7.73937143 C39.0235393,7.7848135 38.5660454,7.64332647 38.222875,7.34988851 C37.8797046,7.05645055 37.6828873,6.6384495 37.68108,6.19922286 Z M41.154516,5.75948571 L41.154516,5.32924571 L39.834984,5.4096 C39.09084,5.45702857 38.75334,5.69810286 38.75334,6.15178286 C38.75334,6.61494857 39.175212,6.88448 39.75534,6.88448 C40.0987633,6.91758841 40.4415917,6.81654292 40.7053445,6.60447496 C40.9690973,6.392407 41.1311899,6.08747549 41.154516,5.75948571 Z" id="Shape" fill-rule="nonzero"></path>
                            <path d="M43.617792,5.07924571 C43.617792,3.45313143 44.495532,2.42299429 45.86076,2.42299429 C46.5501321,2.39274301 47.195793,2.74454042 47.517792,3.32585143 L47.597484,3.32585143 L47.597484,0.499428571 L48.663888,0.499428571 L48.663888,7.65456 L47.642016,7.65456 L47.642016,6.84149714 L47.557644,6.84149714 C47.211305,7.41798512 46.5576894,7.76383597 45.860772,7.73937143 C44.48616,7.73942857 43.617792,6.70926857 43.617792,5.07924571 Z M44.719392,5.07924571 C44.719392,6.17076571 45.259632,6.82757714 46.163148,6.82757714 C47.061948,6.82757714 47.61744,6.16129143 47.61744,5.08371429 C47.61744,4.01116571 47.056116,3.33538286 46.163148,3.33538286 C45.265452,3.33538286 44.719356,3.99665143 44.719356,5.07924571 L44.719392,5.07924571 Z" id="Shape" fill-rule="nonzero"></path>
                            <path d="M53.076,5.07924571 C52.9833446,4.15682863 53.4477644,3.26412793 54.2744831,2.77553985 C55.1012018,2.28695177 56.1472822,2.28695177 56.9740009,2.77553985 C57.8007196,3.26412793 58.2651394,4.15682863 58.172484,5.07924571 C58.2669023,6.00265401 57.8029064,6.89708615 56.9754547,7.38672606 C56.1480029,7.87636596 55.1004811,7.87636596 54.2730293,7.38672606 C53.4455776,6.89708615 52.9815817,6.00265401 53.076,5.07924571 Z M57.0756,5.07924571 C57.0756,3.96373714 56.549424,3.31139429 55.626,3.31139429 C54.699048,3.31139429 54.1776,3.96373714 54.1776,5.07925714 C54.1776,6.20370286 54.699084,6.85101714 55.626,6.85101714 C56.549436,6.85100571 57.0756,6.19922286 57.0756,5.07924571 Z" id="Shape" fill-rule="nonzero"></path>
                            <path d="M59.60334,2.50836571 L60.629904,2.50836571 L60.629904,3.32588571 L60.709596,3.32588571 C60.9867178,2.72397479 61.6342714,2.35577997 62.322096,2.40902857 C62.8546762,2.37089345 63.376567,2.56547417 63.7404129,2.93783094 C64.1042588,3.3101877 64.2705757,3.81991287 64.192404,4.32308571 L64.192404,7.65451429 L63.126,7.65451429 L63.126,4.57812571 C63.126,3.75112 62.74866,3.33984 61.959984,3.33984 C61.598743,3.32381614 61.2481682,3.45883722 61.0001695,3.70950489 C60.7521708,3.96017257 60.631482,4.30148687 60.669744,4.64396571 L60.669744,7.65457143 L59.60334,7.65457143 L59.60334,2.50836571 Z" id="Path"></path>
                            <path d="M70.218192,1.22712 L70.218192,2.53180571 L71.3889,2.53180571 L71.3889,3.38728 L70.218192,3.38728 L70.218192,6.03348571 C70.218192,6.57254857 70.4514,6.80859429 70.982256,6.80859429 C71.1181627,6.80818004 71.2539329,6.8003539 71.3889,6.78515429 L71.3889,7.63113143 C71.1973914,7.66376082 71.0033588,7.68112005 70.80882,7.68302857 C69.622884,7.68302857 69.150612,7.28570286 69.150612,6.29352 L69.150612,3.38723429 L68.292804,3.38723429 L68.292804,2.53176 L69.150612,2.53176 L69.150612,1.22712 L70.218192,1.22712 Z" id="Path"></path>
                            <path d="M72.845532,0.499428571 L73.902564,0.499428571 L73.902564,3.33537143 L73.986936,3.33537143 C74.2773693,2.72819264 74.9362562,2.35952862 75.634536,2.41349714 C76.1640919,2.38605404 76.678918,2.58491853 77.0387871,2.9559244 C77.3986563,3.32693028 77.5660859,3.83143501 77.495472,4.33202286 L77.495472,7.65457143 L76.428,7.65457143 L76.428,4.58257143 C76.428,3.76058286 76.026,3.34428571 75.272532,3.34428571 C74.9015268,3.31530705 74.5360069,3.4437611 74.2736908,3.69530686 C74.0113747,3.94685262 73.8790103,4.29584036 73.911984,4.64897143 L73.911984,7.65454857 L72.84558,7.65454857 L72.845532,0.499428571 Z" id="Path"></path>
                            <path d="M83.7135,6.26506286 C83.4144684,7.23578227 82.4281187,7.8629749 81.372096,7.75389714 C80.6515727,7.77201165 79.9591097,7.48757794 79.4784339,6.97606304 C78.9977581,6.46454814 78.7774637,5.77766393 78.876,5.09765714 C78.7800809,4.41576054 78.9995499,3.7277757 79.477549,3.21193938 C79.9555481,2.69610306 80.6450424,2.40317343 81.367404,2.40904 C82.87092,2.40904 83.777952,3.38732571 83.777952,5.00332571 L83.777952,5.35771429 L79.962324,5.35771429 L79.962324,5.41462857 C79.9285584,5.79650302 80.0655009,6.174226 80.3394729,6.45490366 C80.613445,6.73558131 80.9990255,6.8931702 81.401388,6.88891429 C81.9231142,6.94856535 82.430979,6.70209491 82.686936,6.26502857 L83.7135,6.26506286 Z M79.9623,4.60658286 L82.691592,4.60658286 C82.7187755,4.25732621 82.5898301,3.91337722 82.3365323,3.65949611 C82.0832345,3.40561499 81.729141,3.26541283 81.361512,3.27344 C80.9889024,3.26898161 80.6301936,3.40802427 80.3667556,3.65902729 C80.1033177,3.91003032 79.9574798,4.25171855 79.962324,4.60658286 L79.9623,4.60658286 Z" id="Shape" fill-rule="nonzero"></path>
                        </g>
                    </g>
                </g>
            </g>
        </g>
    </g>
</svg>